%TF.GenerationSoftware,KiCad,Pcbnew,7.0.7*%
%TF.CreationDate,2023-11-09T15:51:25-05:00*%
%TF.ProjectId,CubeSatPower,43756265-5361-4745-906f-7765722e6b69,rev?*%
%TF.SameCoordinates,Original*%
%TF.FileFunction,Copper,L2,Bot*%
%TF.FilePolarity,Positive*%
%FSLAX46Y46*%
G04 Gerber Fmt 4.6, Leading zero omitted, Abs format (unit mm)*
G04 Created by KiCad (PCBNEW 7.0.7) date 2023-11-09 15:51:25*
%MOMM*%
%LPD*%
G01*
G04 APERTURE LIST*
%TA.AperFunction,NonConductor*%
%ADD10C,0.500000*%
%TD*%
%TA.AperFunction,NonConductor*%
%ADD11C,0.200000*%
%TD*%
%ADD12C,0.300000*%
%TA.AperFunction,NonConductor*%
%ADD13C,0.300000*%
%TD*%
%TA.AperFunction,ComponentPad*%
%ADD14R,3.000000X3.000000*%
%TD*%
%TA.AperFunction,ComponentPad*%
%ADD15C,3.000000*%
%TD*%
%TA.AperFunction,ComponentPad*%
%ADD16C,2.000000*%
%TD*%
%TA.AperFunction,ComponentPad*%
%ADD17O,2.000000X2.000000*%
%TD*%
%TA.AperFunction,ComponentPad*%
%ADD18R,2.000000X2.000000*%
%TD*%
%TA.AperFunction,ComponentPad*%
%ADD19R,3.716000X3.716000*%
%TD*%
%TA.AperFunction,ComponentPad*%
%ADD20C,4.200000*%
%TD*%
%TA.AperFunction,ComponentPad*%
%ADD21O,2.400000X1.200000*%
%TD*%
%TA.AperFunction,ComponentPad*%
%ADD22O,3.556000X1.778000*%
%TD*%
%TA.AperFunction,ComponentPad*%
%ADD23C,1.750000*%
%TD*%
%TA.AperFunction,ComponentPad*%
%ADD24C,1.700000*%
%TD*%
%TA.AperFunction,Conductor*%
%ADD25C,0.800000*%
%TD*%
%TA.AperFunction,Conductor*%
%ADD26C,0.500000*%
%TD*%
%TA.AperFunction,Profile*%
%ADD27C,0.500000*%
%TD*%
G04 APERTURE END LIST*
D10*
X50000000Y-25000000D02*
X50000000Y-115000000D01*
X50000000Y-25000000D02*
X140000000Y-25000000D01*
X140000000Y-25000000D02*
X140000000Y-115000000D01*
X50000000Y-115000000D02*
X140000000Y-115000000D01*
D11*
X50000000Y-25000000D02*
X140000000Y-25000000D01*
X50000000Y-25000000D02*
X50000000Y-115000000D01*
X50000000Y-115000000D02*
X140000000Y-115000000D01*
D12*
D13*
X63280701Y-112556067D02*
X63280701Y-109056067D01*
X63280701Y-109056067D02*
X64614034Y-109056067D01*
X64614034Y-109056067D02*
X64947368Y-109222734D01*
X64947368Y-109222734D02*
X65114034Y-109389401D01*
X65114034Y-109389401D02*
X65280701Y-109722734D01*
X65280701Y-109722734D02*
X65280701Y-110222734D01*
X65280701Y-110222734D02*
X65114034Y-110556067D01*
X65114034Y-110556067D02*
X64947368Y-110722734D01*
X64947368Y-110722734D02*
X64614034Y-110889401D01*
X64614034Y-110889401D02*
X63280701Y-110889401D01*
X67447368Y-109056067D02*
X68114034Y-109056067D01*
X68114034Y-109056067D02*
X68447368Y-109222734D01*
X68447368Y-109222734D02*
X68780701Y-109556067D01*
X68780701Y-109556067D02*
X68947368Y-110222734D01*
X68947368Y-110222734D02*
X68947368Y-111389401D01*
X68947368Y-111389401D02*
X68780701Y-112056067D01*
X68780701Y-112056067D02*
X68447368Y-112389401D01*
X68447368Y-112389401D02*
X68114034Y-112556067D01*
X68114034Y-112556067D02*
X67447368Y-112556067D01*
X67447368Y-112556067D02*
X67114034Y-112389401D01*
X67114034Y-112389401D02*
X66780701Y-112056067D01*
X66780701Y-112056067D02*
X66614034Y-111389401D01*
X66614034Y-111389401D02*
X66614034Y-110222734D01*
X66614034Y-110222734D02*
X66780701Y-109556067D01*
X66780701Y-109556067D02*
X67114034Y-109222734D01*
X67114034Y-109222734D02*
X67447368Y-109056067D01*
X70114035Y-109056067D02*
X70947368Y-112556067D01*
X70947368Y-112556067D02*
X71614035Y-110056067D01*
X71614035Y-110056067D02*
X72280701Y-112556067D01*
X72280701Y-112556067D02*
X73114035Y-109056067D01*
X74447368Y-110722734D02*
X75614035Y-110722734D01*
X76114035Y-112556067D02*
X74447368Y-112556067D01*
X74447368Y-112556067D02*
X74447368Y-109056067D01*
X74447368Y-109056067D02*
X76114035Y-109056067D01*
X79614035Y-112556067D02*
X78447368Y-110889401D01*
X77614035Y-112556067D02*
X77614035Y-109056067D01*
X77614035Y-109056067D02*
X78947368Y-109056067D01*
X78947368Y-109056067D02*
X79280702Y-109222734D01*
X79280702Y-109222734D02*
X79447368Y-109389401D01*
X79447368Y-109389401D02*
X79614035Y-109722734D01*
X79614035Y-109722734D02*
X79614035Y-110222734D01*
X79614035Y-110222734D02*
X79447368Y-110556067D01*
X79447368Y-110556067D02*
X79280702Y-110722734D01*
X79280702Y-110722734D02*
X78947368Y-110889401D01*
X78947368Y-110889401D02*
X77614035Y-110889401D01*
D14*
%TO.P,J4,1,Pin_1*%
%TO.N,SW_IN*%
X60945000Y-48250000D03*
D15*
%TO.P,J4,2,Pin_2*%
%TO.N,+7.5V*%
X60945000Y-53250000D03*
%TD*%
D16*
%TO.P,5vOut1,1,In+*%
%TO.N,+7.5V*%
X72500000Y-60000000D03*
%TO.P,5vOut1,2,In-*%
%TO.N,GND*%
X53500000Y-60000000D03*
%TO.P,5vOut1,3,Out+*%
%TO.N,+5V*%
X72500000Y-101000000D03*
%TO.P,5vOut1,4,Out-*%
%TO.N,GND*%
X53500000Y-101000000D03*
%TD*%
D17*
%TO.P,J2,2,Pin_2*%
%TO.N,+5V*%
X97460000Y-110000000D03*
%TO.P,J2,3,Pin_3*%
%TO.N,GND*%
X94920000Y-110000000D03*
%TO.P,J2,4,Pin_4*%
%TO.N,SDA*%
X92380000Y-110000000D03*
%TO.P,J2,5,Pin_5*%
%TO.N,SCL*%
X89840000Y-110000000D03*
D18*
%TO.P,J2,E,Pin_1*%
%TO.N,+3.3V*%
X100000000Y-110000000D03*
%TD*%
D19*
%TO.P,J1,1,+*%
%TO.N,GND*%
X65500000Y-39100000D03*
D20*
%TO.P,J1,2,-*%
%TO.N,SW_IN*%
X65500000Y-31900000D03*
D21*
%TO.P,J1,S1*%
%TO.N,N/C*%
X71500000Y-42250000D03*
%TO.P,J1,S2*%
X71500000Y-28750000D03*
%TD*%
D16*
%TO.P,3_3VOut1,1,In+*%
%TO.N,+5V*%
X127500000Y-60500000D03*
%TO.P,3_3VOut1,2,In-*%
%TO.N,GND*%
X108500000Y-60500000D03*
%TO.P,3_3VOut1,3,Out+*%
%TO.N,+3.3V*%
X127500000Y-101500000D03*
%TO.P,3_3VOut1,4,Out-*%
%TO.N,GND*%
X108500000Y-101500000D03*
%TD*%
%TO.P,R1,1*%
%TO.N,+7.5V*%
X79500000Y-61920000D03*
D17*
%TO.P,R1,2*%
%TO.N,A_1*%
X79500000Y-72080000D03*
%TD*%
D18*
%TO.P,J3,1,Pin_1*%
%TO.N,A_1*%
X90000000Y-30000000D03*
D17*
%TO.P,J3,2,Pin_2*%
%TO.N,MISO*%
X92540000Y-30000000D03*
%TO.P,J3,3,Pin_3*%
%TO.N,MOSI*%
X95080000Y-30000000D03*
%TO.P,J3,4,Pin_4*%
%TO.N,SCLK*%
X97620000Y-30000000D03*
%TO.P,J3,5,Pin_5*%
%TO.N,CS*%
X100160000Y-30000000D03*
%TD*%
D22*
%TO.P,U2,ADO,ADO*%
%TO.N,unconnected-(U2-PadADO)*%
X89602500Y-78167500D03*
%TO.P,U2,GND,GND*%
%TO.N,GND*%
X89602500Y-65467500D03*
%TO.P,U2,INT,INT*%
%TO.N,unconnected-(U2-PadINT)*%
X89602500Y-80707500D03*
%TO.P,U2,SCL,SCL*%
%TO.N,SCL*%
X89602500Y-68007500D03*
%TO.P,U2,SDA,SDA*%
%TO.N,SDA*%
X89602500Y-70547500D03*
%TO.P,U2,VCC,VCC*%
%TO.N,+3.3V*%
X89602500Y-62927500D03*
%TO.P,U2,XCL,XCL*%
%TO.N,unconnected-(U2-PadXCL)*%
X89602500Y-75627500D03*
%TO.P,U2,XDA,XDA*%
%TO.N,unconnected-(U2-PadXDA)*%
X89602500Y-73087500D03*
%TD*%
D23*
%TO.P,U1,1,CS*%
%TO.N,CS*%
X126500000Y-40500000D03*
%TO.P,U1,2,SCK*%
%TO.N,SCLK*%
X126500000Y-42500000D03*
%TO.P,U1,3,MOSI*%
%TO.N,MOSI*%
X126500000Y-44500000D03*
%TO.P,U1,4,MISO*%
%TO.N,MISO*%
X126500000Y-46500000D03*
%TO.P,U1,5,Vin*%
%TO.N,+5V*%
X126500000Y-48500000D03*
D24*
%TO.P,U1,6,GND*%
%TO.N,GND*%
X126500000Y-50500000D03*
%TD*%
D16*
%TO.P,R2,1*%
%TO.N,A_1*%
X79500000Y-81420000D03*
D17*
%TO.P,R2,2*%
%TO.N,GND*%
X79500000Y-91580000D03*
%TD*%
D25*
%TO.N,+7.5V*%
X60945000Y-53250000D02*
X64000000Y-53250000D01*
X70750000Y-60000000D02*
X72500000Y-60000000D01*
X79500000Y-61920000D02*
X76920000Y-61920000D01*
X75000000Y-60000000D02*
X72500000Y-60000000D01*
X76920000Y-61920000D02*
X75000000Y-60000000D01*
X64000000Y-53250000D02*
X70750000Y-60000000D01*
D26*
%TO.N,+3.3V*%
X115750000Y-110000000D02*
X100000000Y-110000000D01*
X124250000Y-101500000D02*
X127500000Y-101500000D01*
X124250000Y-93500000D02*
X100250000Y-69500000D01*
X100000000Y-69500000D02*
X93427500Y-62927500D01*
X93427500Y-62927500D02*
X89602500Y-62927500D01*
X124250000Y-101500000D02*
X124250000Y-93500000D01*
X100250000Y-69500000D02*
X100000000Y-69500000D01*
X115750000Y-110000000D02*
X124250000Y-101500000D01*
%TO.N,+5V*%
X72500000Y-101000000D02*
X76000000Y-101000000D01*
X97460000Y-112500000D02*
X98210000Y-113250000D01*
X129500000Y-48500000D02*
X127200000Y-48500000D01*
X76000000Y-101000000D02*
X88500000Y-113500000D01*
X133500000Y-63250000D02*
X130750000Y-60500000D01*
X127500000Y-60500000D02*
X130750000Y-60500000D01*
X96460000Y-113500000D02*
X97460000Y-112500000D01*
X132000000Y-51000000D02*
X129500000Y-48500000D01*
X88500000Y-113500000D02*
X96460000Y-113500000D01*
X130750000Y-60000000D02*
X132000000Y-58750000D01*
X132000000Y-58750000D02*
X132000000Y-51000000D01*
X120750000Y-113250000D02*
X133500000Y-100500000D01*
X97460000Y-110000000D02*
X97460000Y-112500000D01*
X133500000Y-100500000D02*
X133500000Y-63250000D01*
X130750000Y-60500000D02*
X130750000Y-60000000D01*
X98210000Y-113250000D02*
X120750000Y-113250000D01*
%TO.N,SDA*%
X95000000Y-104750000D02*
X92380000Y-107370000D01*
X95000000Y-72500000D02*
X95000000Y-104750000D01*
X92380000Y-107370000D02*
X92380000Y-110000000D01*
X93047500Y-70547500D02*
X95000000Y-72500000D01*
X90491500Y-70547500D02*
X93047500Y-70547500D01*
%TO.N,SCL*%
X89840000Y-110000000D02*
X89840000Y-107090000D01*
X85500000Y-69750000D02*
X87242500Y-68007500D01*
X87242500Y-68007500D02*
X88713500Y-68007500D01*
X89840000Y-107090000D02*
X85500000Y-102750000D01*
X85500000Y-102750000D02*
X85500000Y-69750000D01*
%TO.N,MISO*%
X92540000Y-34540000D02*
X104500000Y-46500000D01*
X104500000Y-46500000D02*
X126500000Y-46500000D01*
X92540000Y-30040000D02*
X92540000Y-34540000D01*
%TO.N,MOSI*%
X95080000Y-33330000D02*
X106250000Y-44500000D01*
X95080000Y-30580000D02*
X95080000Y-33330000D01*
X106250000Y-44500000D02*
X126500000Y-44500000D01*
%TO.N,CS*%
X116500000Y-40500000D02*
X126500000Y-40500000D01*
X100160000Y-30000000D02*
X106000000Y-30000000D01*
X106000000Y-30000000D02*
X116500000Y-40500000D01*
%TO.N,SCLK*%
X114750000Y-42500000D02*
X126500000Y-42500000D01*
X97620000Y-33370000D02*
X101250000Y-37000000D01*
X109250000Y-37000000D02*
X114750000Y-42500000D01*
X101250000Y-37000000D02*
X109250000Y-37000000D01*
X97620000Y-30000000D02*
X97620000Y-33370000D01*
%TO.N,A_1*%
X82420000Y-72080000D02*
X84000000Y-70500000D01*
X90000000Y-34250000D02*
X90000000Y-30000000D01*
X84000000Y-70500000D02*
X84000000Y-40250000D01*
X79500000Y-72080000D02*
X82420000Y-72080000D01*
X84000000Y-40250000D02*
X90000000Y-34250000D01*
X79500000Y-72080000D02*
X79500000Y-81420000D01*
D25*
%TO.N,SW_IN*%
X61000000Y-39000000D02*
X62000000Y-38000000D01*
X62000000Y-38000000D02*
X62000000Y-32500000D01*
X62000000Y-32500000D02*
X62600000Y-31900000D01*
X62600000Y-31900000D02*
X65500000Y-31900000D01*
X61000000Y-48195000D02*
X61000000Y-39000000D01*
%TD*%
%TA.AperFunction,Conductor*%
%TO.N,GND*%
G36*
X138942539Y-26020185D02*
G01*
X138988294Y-26072989D01*
X138999500Y-26124500D01*
X138999500Y-113875500D01*
X138979815Y-113942539D01*
X138927011Y-113988294D01*
X138875500Y-113999500D01*
X121362141Y-113999500D01*
X121295102Y-113979815D01*
X121249347Y-113927011D01*
X121239403Y-113857853D01*
X121268428Y-113794297D01*
X121271947Y-113790406D01*
X121288386Y-113772982D01*
X125386609Y-109674759D01*
X131499500Y-109674759D01*
X131529113Y-109928111D01*
X131540077Y-110021914D01*
X131540077Y-110021916D01*
X131620680Y-110362009D01*
X131620681Y-110362012D01*
X131740223Y-110690452D01*
X131740226Y-110690458D01*
X131897088Y-111002796D01*
X132089146Y-111294805D01*
X132089152Y-111294813D01*
X132159651Y-111378830D01*
X132313817Y-111562558D01*
X132445117Y-111686433D01*
X132568044Y-111802410D01*
X132568050Y-111802415D01*
X132848402Y-112011129D01*
X132848404Y-112011130D01*
X133151096Y-112185889D01*
X133472029Y-112324326D01*
X133806864Y-112424569D01*
X133806866Y-112424569D01*
X133806872Y-112424571D01*
X134151061Y-112485260D01*
X134151062Y-112485260D01*
X134151073Y-112485262D01*
X134412695Y-112500500D01*
X134412697Y-112500500D01*
X134587303Y-112500500D01*
X134587305Y-112500500D01*
X134848927Y-112485262D01*
X134892854Y-112477516D01*
X135193127Y-112424571D01*
X135193130Y-112424569D01*
X135193136Y-112424569D01*
X135527971Y-112324326D01*
X135848904Y-112185889D01*
X136151596Y-112011130D01*
X136431953Y-111802412D01*
X136686183Y-111562558D01*
X136910849Y-111294811D01*
X137102913Y-111002793D01*
X137259777Y-110690451D01*
X137379319Y-110362011D01*
X137459923Y-110021914D01*
X137500500Y-109674759D01*
X137500500Y-109325241D01*
X137459923Y-108978086D01*
X137379319Y-108637989D01*
X137259777Y-108309549D01*
X137102913Y-107997207D01*
X137102911Y-107997203D01*
X136910853Y-107705194D01*
X136910847Y-107705186D01*
X136834251Y-107613903D01*
X136686183Y-107437442D01*
X136544891Y-107304140D01*
X136431955Y-107197589D01*
X136431949Y-107197584D01*
X136151597Y-106988870D01*
X135848908Y-106814113D01*
X135848895Y-106814107D01*
X135527972Y-106675674D01*
X135193134Y-106575430D01*
X135193127Y-106575428D01*
X134848938Y-106514739D01*
X134848927Y-106514738D01*
X134848926Y-106514737D01*
X134587305Y-106499500D01*
X134412695Y-106499500D01*
X134238280Y-106509658D01*
X134151072Y-106514738D01*
X134151061Y-106514739D01*
X133806872Y-106575428D01*
X133806865Y-106575430D01*
X133472027Y-106675674D01*
X133151104Y-106814107D01*
X133151091Y-106814113D01*
X132848402Y-106988870D01*
X132568050Y-107197584D01*
X132568044Y-107197589D01*
X132313819Y-107437440D01*
X132313817Y-107437442D01*
X132089152Y-107705186D01*
X132089146Y-107705194D01*
X131897088Y-107997203D01*
X131740226Y-108309541D01*
X131740223Y-108309547D01*
X131620681Y-108637987D01*
X131620680Y-108637990D01*
X131540077Y-108978083D01*
X131540077Y-108978085D01*
X131540077Y-108978086D01*
X131499500Y-109325241D01*
X131499500Y-109674759D01*
X125386609Y-109674759D01*
X130673598Y-104387769D01*
X133985642Y-101075724D01*
X133999271Y-101063947D01*
X134018530Y-101049610D01*
X134052101Y-101009601D01*
X134055761Y-101005606D01*
X134061590Y-100999778D01*
X134081941Y-100974039D01*
X134087948Y-100966879D01*
X134131302Y-100915214D01*
X134131306Y-100915205D01*
X134135274Y-100909175D01*
X134135325Y-100909208D01*
X134139372Y-100902856D01*
X134139320Y-100902824D01*
X134143112Y-100896675D01*
X134175575Y-100827058D01*
X134210036Y-100758440D01*
X134210040Y-100758433D01*
X134210042Y-100758421D01*
X134212509Y-100751646D01*
X134212567Y-100751667D01*
X134215043Y-100744546D01*
X134214986Y-100744528D01*
X134217257Y-100737673D01*
X134232792Y-100662434D01*
X134233366Y-100660012D01*
X134250500Y-100587721D01*
X134250500Y-100587710D01*
X134251338Y-100580548D01*
X134251398Y-100580555D01*
X134252164Y-100573055D01*
X134252105Y-100573050D01*
X134252734Y-100565860D01*
X134250500Y-100489082D01*
X134250500Y-63313705D01*
X134251809Y-63295735D01*
X134255289Y-63271974D01*
X134250736Y-63219939D01*
X134250500Y-63214532D01*
X134250500Y-63206296D01*
X134250500Y-63206291D01*
X134246691Y-63173705D01*
X134239998Y-63097203D01*
X134239995Y-63097194D01*
X134238538Y-63090135D01*
X134238598Y-63090122D01*
X134236965Y-63082757D01*
X134236906Y-63082772D01*
X134235241Y-63075749D01*
X134235241Y-63075745D01*
X134208971Y-63003568D01*
X134184814Y-62930665D01*
X134184812Y-62930662D01*
X134181761Y-62924118D01*
X134181815Y-62924092D01*
X134178533Y-62917312D01*
X134178480Y-62917340D01*
X134175238Y-62910886D01*
X134175237Y-62910883D01*
X134133038Y-62846723D01*
X134092712Y-62781344D01*
X134092711Y-62781343D01*
X134092710Y-62781341D01*
X134088234Y-62775681D01*
X134088280Y-62775643D01*
X134083519Y-62769799D01*
X134083474Y-62769838D01*
X134078834Y-62764308D01*
X134022982Y-62711613D01*
X131649048Y-60337680D01*
X131615563Y-60276357D01*
X131620547Y-60206665D01*
X131649044Y-60162323D01*
X132485642Y-59325724D01*
X132499271Y-59313947D01*
X132499282Y-59313939D01*
X132518530Y-59299610D01*
X132552101Y-59259601D01*
X132555761Y-59255606D01*
X132561590Y-59249778D01*
X132569362Y-59239949D01*
X132581940Y-59224040D01*
X132631302Y-59165214D01*
X132631306Y-59165205D01*
X132635274Y-59159175D01*
X132635325Y-59159208D01*
X132639372Y-59152856D01*
X132639320Y-59152824D01*
X132643112Y-59146675D01*
X132675575Y-59077058D01*
X132710036Y-59008440D01*
X132710040Y-59008433D01*
X132710042Y-59008421D01*
X132712509Y-59001646D01*
X132712567Y-59001667D01*
X132715043Y-58994546D01*
X132714986Y-58994528D01*
X132717257Y-58987673D01*
X132732792Y-58912434D01*
X132750500Y-58837722D01*
X132751339Y-58830545D01*
X132751400Y-58830552D01*
X132752166Y-58823059D01*
X132752104Y-58823054D01*
X132752733Y-58815860D01*
X132752734Y-58815856D01*
X132750499Y-58739083D01*
X132750499Y-51063691D01*
X132751808Y-51045738D01*
X132755289Y-51021977D01*
X132750735Y-50969931D01*
X132750500Y-50964528D01*
X132750500Y-50956297D01*
X132750500Y-50956291D01*
X132746693Y-50923724D01*
X132739999Y-50847203D01*
X132739999Y-50847201D01*
X132738539Y-50840129D01*
X132738597Y-50840116D01*
X132736965Y-50832757D01*
X132736906Y-50832772D01*
X132735242Y-50825753D01*
X132735241Y-50825745D01*
X132708974Y-50753576D01*
X132684814Y-50680666D01*
X132684809Y-50680659D01*
X132681760Y-50674118D01*
X132681815Y-50674091D01*
X132678533Y-50667313D01*
X132678480Y-50667340D01*
X132675235Y-50660880D01*
X132633028Y-50596708D01*
X132592710Y-50531342D01*
X132588234Y-50525682D01*
X132588281Y-50525644D01*
X132583519Y-50519799D01*
X132583474Y-50519838D01*
X132578834Y-50514308D01*
X132522964Y-50461596D01*
X130075729Y-48014361D01*
X130063949Y-48000730D01*
X130056482Y-47990701D01*
X130049612Y-47981472D01*
X130049610Y-47981470D01*
X130009587Y-47947886D01*
X130005612Y-47944244D01*
X130002690Y-47941322D01*
X129999780Y-47938411D01*
X129974040Y-47918059D01*
X129915209Y-47868694D01*
X129909180Y-47864729D01*
X129909212Y-47864680D01*
X129902853Y-47860628D01*
X129902822Y-47860679D01*
X129896680Y-47856891D01*
X129896678Y-47856890D01*
X129896677Y-47856889D01*
X129857474Y-47838608D01*
X129827058Y-47824424D01*
X129792894Y-47807267D01*
X129758433Y-47789960D01*
X129758431Y-47789959D01*
X129758430Y-47789959D01*
X129751645Y-47787489D01*
X129751665Y-47787433D01*
X129744549Y-47784959D01*
X129744531Y-47785015D01*
X129737671Y-47782742D01*
X129709841Y-47776996D01*
X129662434Y-47767207D01*
X129613472Y-47755603D01*
X129587719Y-47749499D01*
X129580547Y-47748661D01*
X129580553Y-47748601D01*
X129573055Y-47747835D01*
X129573050Y-47747895D01*
X129565860Y-47747265D01*
X129489083Y-47749500D01*
X127719822Y-47749500D01*
X127652783Y-47729815D01*
X127616013Y-47693321D01*
X127589184Y-47652257D01*
X127589183Y-47652255D01*
X127526333Y-47583981D01*
X127495411Y-47521327D01*
X127503272Y-47451900D01*
X127526330Y-47416020D01*
X127589183Y-47347745D01*
X127713862Y-47156909D01*
X127805430Y-46948155D01*
X127861390Y-46727176D01*
X127863465Y-46702135D01*
X127880214Y-46500006D01*
X127880214Y-46499993D01*
X127861391Y-46272831D01*
X127861389Y-46272820D01*
X127805430Y-46051844D01*
X127713862Y-45843091D01*
X127589185Y-45652257D01*
X127580084Y-45642371D01*
X127526332Y-45583981D01*
X127495411Y-45521329D01*
X127503271Y-45451903D01*
X127526331Y-45416019D01*
X127589183Y-45347745D01*
X127713862Y-45156909D01*
X127805430Y-44948155D01*
X127861390Y-44727176D01*
X127880214Y-44500000D01*
X127880214Y-44499993D01*
X127861391Y-44272831D01*
X127861389Y-44272820D01*
X127805430Y-44051844D01*
X127713862Y-43843091D01*
X127589185Y-43652257D01*
X127580084Y-43642371D01*
X127526332Y-43583981D01*
X127495411Y-43521329D01*
X127503271Y-43451903D01*
X127526333Y-43416018D01*
X127589183Y-43347745D01*
X127713862Y-43156909D01*
X127805430Y-42948155D01*
X127861390Y-42727176D01*
X127861391Y-42727168D01*
X127880214Y-42500006D01*
X127880214Y-42499993D01*
X127861391Y-42272831D01*
X127861389Y-42272820D01*
X127805430Y-42051844D01*
X127713862Y-41843091D01*
X127589185Y-41652257D01*
X127580084Y-41642371D01*
X127526332Y-41583981D01*
X127495411Y-41521329D01*
X127503271Y-41451903D01*
X127526333Y-41416018D01*
X127589183Y-41347745D01*
X127713862Y-41156909D01*
X127805430Y-40948155D01*
X127861390Y-40727176D01*
X127870915Y-40612228D01*
X127880214Y-40500006D01*
X127880214Y-40499993D01*
X127861391Y-40272831D01*
X127861389Y-40272820D01*
X127805430Y-40051844D01*
X127713862Y-39843091D01*
X127589185Y-39652257D01*
X127434791Y-39484541D01*
X127434787Y-39484538D01*
X127254909Y-39344533D01*
X127254900Y-39344527D01*
X127054432Y-39236040D01*
X127054429Y-39236039D01*
X127054426Y-39236037D01*
X127054420Y-39236035D01*
X127054418Y-39236034D01*
X126838826Y-39162020D01*
X126670188Y-39133880D01*
X126613977Y-39124500D01*
X126386023Y-39124500D01*
X126341053Y-39132004D01*
X126161173Y-39162020D01*
X125945581Y-39236034D01*
X125945567Y-39236040D01*
X125745099Y-39344527D01*
X125745090Y-39344533D01*
X125565212Y-39484538D01*
X125565208Y-39484541D01*
X125410814Y-39652257D01*
X125383987Y-39693321D01*
X125330841Y-39738678D01*
X125280178Y-39749500D01*
X116862229Y-39749500D01*
X116795190Y-39729815D01*
X116774548Y-39713181D01*
X111677642Y-34616275D01*
X107736127Y-30674759D01*
X131499500Y-30674759D01*
X131537279Y-30997973D01*
X131540077Y-31021914D01*
X131540077Y-31021916D01*
X131620680Y-31362009D01*
X131620681Y-31362012D01*
X131740223Y-31690452D01*
X131740226Y-31690458D01*
X131897088Y-32002796D01*
X132089146Y-32294805D01*
X132089152Y-32294813D01*
X132189572Y-32414488D01*
X132313817Y-32562558D01*
X132445117Y-32686433D01*
X132568044Y-32802410D01*
X132568050Y-32802415D01*
X132848402Y-33011129D01*
X132919912Y-33052415D01*
X133151096Y-33185889D01*
X133472029Y-33324326D01*
X133806864Y-33424569D01*
X133806866Y-33424569D01*
X133806872Y-33424571D01*
X134151061Y-33485260D01*
X134151062Y-33485260D01*
X134151073Y-33485262D01*
X134412695Y-33500500D01*
X134412697Y-33500500D01*
X134587303Y-33500500D01*
X134587305Y-33500500D01*
X134848927Y-33485262D01*
X134892854Y-33477516D01*
X135193127Y-33424571D01*
X135193130Y-33424569D01*
X135193136Y-33424569D01*
X135527971Y-33324326D01*
X135848904Y-33185889D01*
X136151596Y-33011130D01*
X136431953Y-32802412D01*
X136686183Y-32562558D01*
X136910849Y-32294811D01*
X136989314Y-32175512D01*
X137102911Y-32002796D01*
X137106351Y-31995948D01*
X137259777Y-31690451D01*
X137379319Y-31362011D01*
X137459923Y-31021914D01*
X137500500Y-30674759D01*
X137500500Y-30325241D01*
X137459923Y-29978086D01*
X137379319Y-29637989D01*
X137259777Y-29309549D01*
X137204997Y-29200474D01*
X137102911Y-28997203D01*
X136910853Y-28705194D01*
X136910847Y-28705186D01*
X136816436Y-28592672D01*
X136686183Y-28437442D01*
X136530699Y-28290750D01*
X136431955Y-28197589D01*
X136431949Y-28197584D01*
X136151597Y-27988870D01*
X135848908Y-27814113D01*
X135848895Y-27814107D01*
X135527972Y-27675674D01*
X135193134Y-27575430D01*
X135193127Y-27575428D01*
X134848938Y-27514739D01*
X134848927Y-27514738D01*
X134848927Y-27514737D01*
X134587305Y-27499500D01*
X134412695Y-27499500D01*
X134238280Y-27509658D01*
X134151072Y-27514738D01*
X134151061Y-27514739D01*
X133806872Y-27575428D01*
X133806865Y-27575430D01*
X133472027Y-27675674D01*
X133151104Y-27814107D01*
X133151091Y-27814113D01*
X132848402Y-27988870D01*
X132568050Y-28197584D01*
X132568044Y-28197589D01*
X132313819Y-28437440D01*
X132313817Y-28437442D01*
X132089152Y-28705186D01*
X132089146Y-28705194D01*
X131897088Y-28997203D01*
X131740226Y-29309541D01*
X131740223Y-29309547D01*
X131620681Y-29637987D01*
X131620680Y-29637990D01*
X131540077Y-29978083D01*
X131540077Y-29978085D01*
X131540077Y-29978086D01*
X131499500Y-30325241D01*
X131499500Y-30674759D01*
X107736127Y-30674759D01*
X106575729Y-29514361D01*
X106563949Y-29500730D01*
X106556482Y-29490701D01*
X106549612Y-29481472D01*
X106549610Y-29481470D01*
X106509587Y-29447886D01*
X106505612Y-29444244D01*
X106502690Y-29441322D01*
X106499780Y-29438411D01*
X106474040Y-29418059D01*
X106415214Y-29368698D01*
X106415213Y-29368697D01*
X106415209Y-29368694D01*
X106409180Y-29364729D01*
X106409212Y-29364680D01*
X106402853Y-29360628D01*
X106402822Y-29360679D01*
X106396680Y-29356891D01*
X106396678Y-29356890D01*
X106396677Y-29356889D01*
X106357474Y-29338608D01*
X106327058Y-29324424D01*
X106283886Y-29302743D01*
X106258433Y-29289960D01*
X106258431Y-29289959D01*
X106258430Y-29289959D01*
X106251645Y-29287489D01*
X106251665Y-29287433D01*
X106244549Y-29284959D01*
X106244531Y-29285015D01*
X106237671Y-29282742D01*
X106209841Y-29276996D01*
X106162434Y-29267207D01*
X106113472Y-29255603D01*
X106087719Y-29249499D01*
X106080547Y-29248661D01*
X106080553Y-29248601D01*
X106073055Y-29247835D01*
X106073050Y-29247895D01*
X106065860Y-29247265D01*
X105989083Y-29249500D01*
X101529136Y-29249500D01*
X101462097Y-29229815D01*
X101425327Y-29193322D01*
X101348164Y-29075215D01*
X101179744Y-28892262D01*
X100983509Y-28739526D01*
X100983507Y-28739525D01*
X100983506Y-28739524D01*
X100764811Y-28621172D01*
X100764802Y-28621169D01*
X100529616Y-28540429D01*
X100284335Y-28499500D01*
X100035665Y-28499500D01*
X99790383Y-28540429D01*
X99555197Y-28621169D01*
X99555188Y-28621172D01*
X99336493Y-28739524D01*
X99140257Y-28892261D01*
X98981230Y-29065010D01*
X98921342Y-29101001D01*
X98851504Y-29098900D01*
X98798770Y-29065010D01*
X98748710Y-29010631D01*
X98639744Y-28892262D01*
X98443509Y-28739526D01*
X98443507Y-28739525D01*
X98443506Y-28739524D01*
X98224811Y-28621172D01*
X98224802Y-28621169D01*
X97989616Y-28540429D01*
X97744335Y-28499500D01*
X97495665Y-28499500D01*
X97250383Y-28540429D01*
X97015197Y-28621169D01*
X97015188Y-28621172D01*
X96796493Y-28739524D01*
X96600257Y-28892261D01*
X96441230Y-29065010D01*
X96381342Y-29101001D01*
X96311504Y-29098900D01*
X96258770Y-29065010D01*
X96208710Y-29010631D01*
X96099744Y-28892262D01*
X95903509Y-28739526D01*
X95903507Y-28739525D01*
X95903506Y-28739524D01*
X95684811Y-28621172D01*
X95684802Y-28621169D01*
X95449616Y-28540429D01*
X95204335Y-28499500D01*
X94955665Y-28499500D01*
X94710383Y-28540429D01*
X94475197Y-28621169D01*
X94475188Y-28621172D01*
X94256493Y-28739524D01*
X94060257Y-28892261D01*
X93901230Y-29065010D01*
X93841342Y-29101001D01*
X93771504Y-29098900D01*
X93718770Y-29065010D01*
X93668710Y-29010631D01*
X93559744Y-28892262D01*
X93363509Y-28739526D01*
X93363507Y-28739525D01*
X93363506Y-28739524D01*
X93144811Y-28621172D01*
X93144802Y-28621169D01*
X92909616Y-28540429D01*
X92664335Y-28499500D01*
X92415665Y-28499500D01*
X92170383Y-28540429D01*
X91935197Y-28621169D01*
X91935188Y-28621172D01*
X91716491Y-28739525D01*
X91716488Y-28739528D01*
X91633212Y-28804343D01*
X91568218Y-28829985D01*
X91499678Y-28816418D01*
X91449354Y-28767949D01*
X91448159Y-28765392D01*
X91448047Y-28765454D01*
X91443793Y-28757664D01*
X91357547Y-28642455D01*
X91357544Y-28642452D01*
X91242335Y-28556206D01*
X91242328Y-28556202D01*
X91107482Y-28505908D01*
X91107483Y-28505908D01*
X91047883Y-28499501D01*
X91047881Y-28499500D01*
X91047873Y-28499500D01*
X91047864Y-28499500D01*
X88952129Y-28499500D01*
X88952123Y-28499501D01*
X88892516Y-28505908D01*
X88757671Y-28556202D01*
X88757664Y-28556206D01*
X88642455Y-28642452D01*
X88642452Y-28642455D01*
X88556206Y-28757664D01*
X88556202Y-28757671D01*
X88505908Y-28892517D01*
X88499501Y-28952116D01*
X88499500Y-28952135D01*
X88499500Y-31047870D01*
X88499501Y-31047876D01*
X88505908Y-31107483D01*
X88556202Y-31242328D01*
X88556206Y-31242335D01*
X88642452Y-31357544D01*
X88642455Y-31357547D01*
X88757664Y-31443793D01*
X88757671Y-31443797D01*
X88799961Y-31459570D01*
X88892517Y-31494091D01*
X88952127Y-31500500D01*
X89125500Y-31500499D01*
X89192539Y-31520183D01*
X89238294Y-31572987D01*
X89249500Y-31624499D01*
X89249500Y-33887769D01*
X89229815Y-33954808D01*
X89213181Y-33975450D01*
X83514358Y-39674272D01*
X83500729Y-39686051D01*
X83481468Y-39700390D01*
X83447898Y-39740397D01*
X83444253Y-39744376D01*
X83438409Y-39750222D01*
X83418059Y-39775959D01*
X83368695Y-39834789D01*
X83364729Y-39840819D01*
X83364682Y-39840788D01*
X83360630Y-39847147D01*
X83360679Y-39847177D01*
X83356889Y-39853321D01*
X83324424Y-39922941D01*
X83289960Y-39991566D01*
X83287488Y-39998357D01*
X83287432Y-39998336D01*
X83284960Y-40005450D01*
X83285015Y-40005469D01*
X83282742Y-40012327D01*
X83274974Y-40049945D01*
X83267207Y-40087565D01*
X83255228Y-40138110D01*
X83249498Y-40162286D01*
X83248661Y-40169454D01*
X83248601Y-40169447D01*
X83247835Y-40176945D01*
X83247895Y-40176951D01*
X83247265Y-40184140D01*
X83249500Y-40260916D01*
X83249500Y-70137769D01*
X83229815Y-70204808D01*
X83213181Y-70225450D01*
X82145451Y-71293181D01*
X82084128Y-71326666D01*
X82057770Y-71329500D01*
X80869136Y-71329500D01*
X80802097Y-71309815D01*
X80765327Y-71273322D01*
X80688164Y-71155215D01*
X80519744Y-70972262D01*
X80323509Y-70819526D01*
X80323507Y-70819525D01*
X80323506Y-70819524D01*
X80104811Y-70701172D01*
X80104802Y-70701169D01*
X79869616Y-70620429D01*
X79624335Y-70579500D01*
X79375665Y-70579500D01*
X79130383Y-70620429D01*
X78895197Y-70701169D01*
X78895188Y-70701172D01*
X78676493Y-70819524D01*
X78480257Y-70972261D01*
X78311833Y-71155217D01*
X78175826Y-71363393D01*
X78075936Y-71591118D01*
X78014892Y-71832175D01*
X78014890Y-71832187D01*
X77994357Y-72079994D01*
X77994357Y-72080005D01*
X78014890Y-72327812D01*
X78014892Y-72327824D01*
X78075936Y-72568881D01*
X78175826Y-72796606D01*
X78311833Y-73004782D01*
X78311835Y-73004784D01*
X78311836Y-73004785D01*
X78480256Y-73187738D01*
X78676491Y-73340474D01*
X78684513Y-73344815D01*
X78734106Y-73394032D01*
X78749500Y-73453872D01*
X78749500Y-80046128D01*
X78729815Y-80113167D01*
X78684522Y-80155179D01*
X78676491Y-80159526D01*
X78640503Y-80187537D01*
X78480257Y-80312261D01*
X78311833Y-80495217D01*
X78175826Y-80703393D01*
X78075936Y-80931118D01*
X78014892Y-81172175D01*
X78014890Y-81172187D01*
X77994357Y-81419994D01*
X77994357Y-81420005D01*
X78014890Y-81667812D01*
X78014892Y-81667824D01*
X78075936Y-81908881D01*
X78175826Y-82136606D01*
X78311833Y-82344782D01*
X78311836Y-82344785D01*
X78480256Y-82527738D01*
X78676491Y-82680474D01*
X78895190Y-82798828D01*
X79130386Y-82879571D01*
X79375665Y-82920500D01*
X79624335Y-82920500D01*
X79869614Y-82879571D01*
X80104810Y-82798828D01*
X80323509Y-82680474D01*
X80519744Y-82527738D01*
X80688164Y-82344785D01*
X80824173Y-82136607D01*
X80924063Y-81908881D01*
X80985108Y-81667821D01*
X80988339Y-81628827D01*
X81005643Y-81420005D01*
X81005643Y-81419994D01*
X80985109Y-81172187D01*
X80985107Y-81172175D01*
X80924063Y-80931118D01*
X80824173Y-80703393D01*
X80688166Y-80495217D01*
X80666557Y-80471744D01*
X80519744Y-80312262D01*
X80323509Y-80159526D01*
X80315477Y-80155179D01*
X80265891Y-80105961D01*
X80250500Y-80046128D01*
X80250500Y-73453872D01*
X80270185Y-73386833D01*
X80315487Y-73344815D01*
X80323509Y-73340474D01*
X80519744Y-73187738D01*
X80688164Y-73004785D01*
X80765327Y-72886677D01*
X80818474Y-72841322D01*
X80869136Y-72830500D01*
X82356295Y-72830500D01*
X82374265Y-72831809D01*
X82398023Y-72835289D01*
X82450068Y-72830735D01*
X82455470Y-72830500D01*
X82463704Y-72830500D01*
X82463709Y-72830500D01*
X82475327Y-72829141D01*
X82496276Y-72826693D01*
X82509028Y-72825577D01*
X82572797Y-72819999D01*
X82572805Y-72819996D01*
X82579866Y-72818539D01*
X82579878Y-72818598D01*
X82587243Y-72816965D01*
X82587229Y-72816906D01*
X82594246Y-72815241D01*
X82594255Y-72815241D01*
X82666423Y-72788974D01*
X82739334Y-72764814D01*
X82739343Y-72764807D01*
X82745882Y-72761760D01*
X82745908Y-72761816D01*
X82752690Y-72758532D01*
X82752663Y-72758478D01*
X82759106Y-72755240D01*
X82759117Y-72755237D01*
X82823283Y-72713034D01*
X82888656Y-72672712D01*
X82888662Y-72672705D01*
X82894325Y-72668229D01*
X82894362Y-72668277D01*
X82900204Y-72663518D01*
X82900164Y-72663471D01*
X82905686Y-72658836D01*
X82905696Y-72658830D01*
X82927398Y-72635825D01*
X82958386Y-72602982D01*
X84227047Y-71334319D01*
X84485638Y-71075727D01*
X84499267Y-71063950D01*
X84518530Y-71049610D01*
X84530509Y-71035333D01*
X84588677Y-70996631D01*
X84658538Y-70995519D01*
X84717909Y-71032354D01*
X84747942Y-71095440D01*
X84749500Y-71115037D01*
X84749500Y-102686294D01*
X84748191Y-102704263D01*
X84744710Y-102728025D01*
X84749264Y-102780064D01*
X84749500Y-102785470D01*
X84749500Y-102793709D01*
X84753306Y-102826274D01*
X84760000Y-102902791D01*
X84761461Y-102909867D01*
X84761403Y-102909878D01*
X84763034Y-102917237D01*
X84763092Y-102917224D01*
X84764757Y-102924250D01*
X84791025Y-102996424D01*
X84815185Y-103069331D01*
X84818236Y-103075874D01*
X84818182Y-103075898D01*
X84821470Y-103082688D01*
X84821521Y-103082663D01*
X84824761Y-103089113D01*
X84824762Y-103089114D01*
X84824763Y-103089117D01*
X84866965Y-103153282D01*
X84866965Y-103153283D01*
X84907287Y-103218655D01*
X84911766Y-103224319D01*
X84911719Y-103224356D01*
X84916482Y-103230202D01*
X84916528Y-103230164D01*
X84921173Y-103235700D01*
X84977017Y-103288385D01*
X89053181Y-107364549D01*
X89086666Y-107425872D01*
X89089500Y-107452230D01*
X89089500Y-108626128D01*
X89069815Y-108693167D01*
X89024522Y-108735179D01*
X89016491Y-108739526D01*
X88985426Y-108763705D01*
X88820257Y-108892261D01*
X88651833Y-109075217D01*
X88515826Y-109283393D01*
X88415936Y-109511118D01*
X88354892Y-109752175D01*
X88354890Y-109752187D01*
X88334357Y-109999994D01*
X88334357Y-110000005D01*
X88354890Y-110247812D01*
X88354892Y-110247824D01*
X88415936Y-110488881D01*
X88515826Y-110716606D01*
X88651833Y-110924782D01*
X88651836Y-110924785D01*
X88820256Y-111107738D01*
X89016491Y-111260474D01*
X89125840Y-111319651D01*
X89234332Y-111378364D01*
X89235190Y-111378828D01*
X89424426Y-111443793D01*
X89468964Y-111459083D01*
X89470386Y-111459571D01*
X89715665Y-111500500D01*
X89964335Y-111500500D01*
X90209614Y-111459571D01*
X90444810Y-111378828D01*
X90663509Y-111260474D01*
X90859744Y-111107738D01*
X91018771Y-110934988D01*
X91078657Y-110898999D01*
X91148495Y-110901099D01*
X91201228Y-110934988D01*
X91360256Y-111107738D01*
X91556491Y-111260474D01*
X91665840Y-111319651D01*
X91774332Y-111378364D01*
X91775190Y-111378828D01*
X91964426Y-111443793D01*
X92008964Y-111459083D01*
X92010386Y-111459571D01*
X92255665Y-111500500D01*
X92504335Y-111500500D01*
X92749614Y-111459571D01*
X92984810Y-111378828D01*
X93203509Y-111260474D01*
X93399744Y-111107738D01*
X93559111Y-110934618D01*
X93618996Y-110898629D01*
X93688834Y-110900729D01*
X93741568Y-110934619D01*
X93900592Y-111107364D01*
X93900602Y-111107373D01*
X94096762Y-111260051D01*
X94096771Y-111260057D01*
X94315385Y-111378364D01*
X94315396Y-111378369D01*
X94550507Y-111459083D01*
X94669999Y-111479023D01*
X94670000Y-111479022D01*
X94670000Y-110612301D01*
X94689685Y-110545262D01*
X94742489Y-110499507D01*
X94811647Y-110489563D01*
X94884237Y-110500000D01*
X94884238Y-110500000D01*
X94955762Y-110500000D01*
X94955763Y-110500000D01*
X95028352Y-110489563D01*
X95097510Y-110499507D01*
X95150314Y-110545261D01*
X95169999Y-110612301D01*
X95169999Y-111479022D01*
X95170000Y-111479023D01*
X95289492Y-111459083D01*
X95524603Y-111378369D01*
X95524614Y-111378364D01*
X95743228Y-111260057D01*
X95743237Y-111260051D01*
X95939397Y-111107373D01*
X95939401Y-111107370D01*
X96098430Y-110934620D01*
X96158318Y-110898629D01*
X96228156Y-110900730D01*
X96280889Y-110934619D01*
X96440256Y-111107738D01*
X96520268Y-111170014D01*
X96635947Y-111260051D01*
X96636491Y-111260474D01*
X96644513Y-111264815D01*
X96694106Y-111314032D01*
X96709500Y-111373872D01*
X96709500Y-112137770D01*
X96689815Y-112204809D01*
X96673181Y-112225451D01*
X96185451Y-112713181D01*
X96124128Y-112746666D01*
X96097770Y-112749500D01*
X88862229Y-112749500D01*
X88795190Y-112729815D01*
X88774548Y-112713181D01*
X82682712Y-106621345D01*
X76575729Y-100514361D01*
X76563949Y-100500730D01*
X76555277Y-100489082D01*
X76549612Y-100481472D01*
X76541276Y-100474477D01*
X76509587Y-100447886D01*
X76505612Y-100444244D01*
X76502690Y-100441322D01*
X76499780Y-100438411D01*
X76474040Y-100418059D01*
X76415209Y-100368694D01*
X76409180Y-100364729D01*
X76409212Y-100364680D01*
X76402853Y-100360628D01*
X76402822Y-100360679D01*
X76396680Y-100356891D01*
X76396678Y-100356890D01*
X76396677Y-100356889D01*
X76357474Y-100338608D01*
X76327058Y-100324424D01*
X76292894Y-100307267D01*
X76258433Y-100289960D01*
X76258431Y-100289959D01*
X76258430Y-100289959D01*
X76251645Y-100287489D01*
X76251665Y-100287433D01*
X76244549Y-100284959D01*
X76244531Y-100285015D01*
X76237671Y-100282742D01*
X76206896Y-100276388D01*
X76162434Y-100267207D01*
X76113472Y-100255603D01*
X76087719Y-100249499D01*
X76080547Y-100248661D01*
X76080553Y-100248601D01*
X76073055Y-100247835D01*
X76073050Y-100247895D01*
X76065860Y-100247265D01*
X75989083Y-100249500D01*
X73869136Y-100249500D01*
X73802097Y-100229815D01*
X73765327Y-100193322D01*
X73729033Y-100137770D01*
X73688164Y-100075215D01*
X73519744Y-99892262D01*
X73323509Y-99739526D01*
X73323507Y-99739525D01*
X73323506Y-99739524D01*
X73104811Y-99621172D01*
X73104802Y-99621169D01*
X72869616Y-99540429D01*
X72624335Y-99499500D01*
X72375665Y-99499500D01*
X72130383Y-99540429D01*
X71895197Y-99621169D01*
X71895188Y-99621172D01*
X71676493Y-99739524D01*
X71480257Y-99892261D01*
X71311833Y-100075217D01*
X71175826Y-100283393D01*
X71075936Y-100511118D01*
X71014892Y-100752175D01*
X71014890Y-100752187D01*
X70994357Y-100999994D01*
X70994357Y-101000005D01*
X71014890Y-101247812D01*
X71014892Y-101247824D01*
X71075936Y-101488881D01*
X71175826Y-101716606D01*
X71311833Y-101924782D01*
X71311835Y-101924784D01*
X71311836Y-101924785D01*
X71480256Y-102107738D01*
X71676491Y-102260474D01*
X71785840Y-102319651D01*
X71894332Y-102378364D01*
X71895190Y-102378828D01*
X72114141Y-102453994D01*
X72128964Y-102459083D01*
X72130386Y-102459571D01*
X72375665Y-102500500D01*
X72624335Y-102500500D01*
X72869614Y-102459571D01*
X73104810Y-102378828D01*
X73323509Y-102260474D01*
X73519744Y-102107738D01*
X73688164Y-101924785D01*
X73765327Y-101806677D01*
X73818474Y-101761322D01*
X73869136Y-101750500D01*
X75637770Y-101750500D01*
X75704809Y-101770185D01*
X75725451Y-101786819D01*
X87726452Y-113787819D01*
X87759937Y-113849142D01*
X87754953Y-113918834D01*
X87713081Y-113974767D01*
X87647617Y-113999184D01*
X87638771Y-113999500D01*
X51124500Y-113999500D01*
X51057461Y-113979815D01*
X51011706Y-113927011D01*
X51000500Y-113875500D01*
X51000500Y-109674759D01*
X52499500Y-109674759D01*
X52529113Y-109928111D01*
X52540077Y-110021914D01*
X52540077Y-110021916D01*
X52620680Y-110362009D01*
X52620681Y-110362012D01*
X52740223Y-110690452D01*
X52740226Y-110690458D01*
X52897088Y-111002796D01*
X53089146Y-111294805D01*
X53089152Y-111294813D01*
X53159651Y-111378830D01*
X53313817Y-111562558D01*
X53445117Y-111686433D01*
X53568044Y-111802410D01*
X53568050Y-111802415D01*
X53848402Y-112011129D01*
X53848404Y-112011130D01*
X54151096Y-112185889D01*
X54472029Y-112324326D01*
X54806864Y-112424569D01*
X54806866Y-112424569D01*
X54806872Y-112424571D01*
X55151061Y-112485260D01*
X55151062Y-112485260D01*
X55151073Y-112485262D01*
X55412695Y-112500500D01*
X55412697Y-112500500D01*
X55587303Y-112500500D01*
X55587305Y-112500500D01*
X55848927Y-112485262D01*
X55892854Y-112477516D01*
X56193127Y-112424571D01*
X56193130Y-112424569D01*
X56193136Y-112424569D01*
X56527971Y-112324326D01*
X56848904Y-112185889D01*
X57151596Y-112011130D01*
X57431953Y-111802412D01*
X57686183Y-111562558D01*
X57910849Y-111294811D01*
X58102913Y-111002793D01*
X58259777Y-110690451D01*
X58379319Y-110362011D01*
X58459923Y-110021914D01*
X58500500Y-109674759D01*
X58500500Y-109325241D01*
X58459923Y-108978086D01*
X58379319Y-108637989D01*
X58292799Y-108400276D01*
X62624910Y-108400276D01*
X62624910Y-113211858D01*
X80269547Y-113211858D01*
X80269547Y-108400276D01*
X62624910Y-108400276D01*
X58292799Y-108400276D01*
X58259777Y-108309549D01*
X58102913Y-107997207D01*
X58102911Y-107997203D01*
X57910853Y-107705194D01*
X57910847Y-107705186D01*
X57834251Y-107613903D01*
X57686183Y-107437442D01*
X57544891Y-107304140D01*
X57431955Y-107197589D01*
X57431949Y-107197584D01*
X57151597Y-106988870D01*
X56848908Y-106814113D01*
X56848895Y-106814107D01*
X56527972Y-106675674D01*
X56193134Y-106575430D01*
X56193127Y-106575428D01*
X55848938Y-106514739D01*
X55848927Y-106514738D01*
X55848927Y-106514737D01*
X55587305Y-106499500D01*
X55412695Y-106499500D01*
X55238280Y-106509658D01*
X55151072Y-106514738D01*
X55151061Y-106514739D01*
X54806872Y-106575428D01*
X54806865Y-106575430D01*
X54472027Y-106675674D01*
X54151104Y-106814107D01*
X54151091Y-106814113D01*
X53848402Y-106988870D01*
X53568050Y-107197584D01*
X53568044Y-107197589D01*
X53313819Y-107437440D01*
X53313817Y-107437442D01*
X53089152Y-107705186D01*
X53089146Y-107705194D01*
X52897088Y-107997203D01*
X52740226Y-108309541D01*
X52740223Y-108309547D01*
X52620681Y-108637987D01*
X52620680Y-108637990D01*
X52540077Y-108978083D01*
X52540077Y-108978085D01*
X52540077Y-108978086D01*
X52499500Y-109325241D01*
X52499500Y-109674759D01*
X51000500Y-109674759D01*
X51000500Y-101000005D01*
X51994859Y-101000005D01*
X52015385Y-101247729D01*
X52015387Y-101247738D01*
X52076412Y-101488717D01*
X52176266Y-101716364D01*
X52276564Y-101869882D01*
X52977050Y-101169395D01*
X53038373Y-101135910D01*
X53108064Y-101140894D01*
X53163998Y-101182765D01*
X53168539Y-101189254D01*
X53215813Y-101261612D01*
X53316157Y-101339713D01*
X53316160Y-101339714D01*
X53316511Y-101339987D01*
X53357324Y-101396697D01*
X53360999Y-101466470D01*
X53328030Y-101525522D01*
X52629942Y-102223609D01*
X52676768Y-102260055D01*
X52676770Y-102260056D01*
X52895385Y-102378364D01*
X52895396Y-102378369D01*
X53130506Y-102459083D01*
X53375707Y-102500000D01*
X53624293Y-102500000D01*
X53869493Y-102459083D01*
X54104603Y-102378369D01*
X54104614Y-102378364D01*
X54323228Y-102260057D01*
X54323231Y-102260055D01*
X54370056Y-102223609D01*
X53669276Y-101522829D01*
X53635791Y-101461506D01*
X53640775Y-101391814D01*
X53682647Y-101335881D01*
X53697933Y-101326097D01*
X53737251Y-101304820D01*
X53823371Y-101211269D01*
X53824083Y-101209643D01*
X53825652Y-101207777D01*
X53828992Y-101202666D01*
X53829609Y-101203069D01*
X53869036Y-101156158D01*
X53935770Y-101135464D01*
X54003099Y-101154135D01*
X54025322Y-101171769D01*
X54723434Y-101869882D01*
X54823731Y-101716369D01*
X54923587Y-101488717D01*
X54984612Y-101247738D01*
X54984614Y-101247729D01*
X55005141Y-101000005D01*
X55005141Y-100999994D01*
X54984614Y-100752270D01*
X54984612Y-100752261D01*
X54923587Y-100511282D01*
X54823731Y-100283630D01*
X54723434Y-100130116D01*
X54022949Y-100830602D01*
X53961626Y-100864087D01*
X53891934Y-100859103D01*
X53836001Y-100817231D01*
X53831460Y-100810743D01*
X53784189Y-100738391D01*
X53784187Y-100738388D01*
X53728673Y-100695180D01*
X53683843Y-100660287D01*
X53683840Y-100660285D01*
X53683488Y-100660012D01*
X53642675Y-100603301D01*
X53639000Y-100533529D01*
X53671969Y-100474477D01*
X54370057Y-99776389D01*
X54323229Y-99739943D01*
X54104614Y-99621635D01*
X54104603Y-99621630D01*
X53869493Y-99540916D01*
X53624293Y-99500000D01*
X53375707Y-99500000D01*
X53130506Y-99540916D01*
X52895396Y-99621630D01*
X52895390Y-99621632D01*
X52676761Y-99739949D01*
X52629942Y-99776388D01*
X52629942Y-99776390D01*
X53330723Y-100477170D01*
X53364208Y-100538493D01*
X53359224Y-100608184D01*
X53317352Y-100664118D01*
X53302059Y-100673906D01*
X53262749Y-100695179D01*
X53262748Y-100695179D01*
X53176626Y-100788733D01*
X53176626Y-100788734D01*
X53175911Y-100790365D01*
X53174340Y-100792233D01*
X53171008Y-100797334D01*
X53170391Y-100796931D01*
X53130952Y-100843849D01*
X53064215Y-100864535D01*
X52996888Y-100845857D01*
X52974677Y-100828230D01*
X52276564Y-100130116D01*
X52176267Y-100283632D01*
X52076412Y-100511282D01*
X52015387Y-100752261D01*
X52015385Y-100752270D01*
X51994859Y-100999994D01*
X51994859Y-101000005D01*
X51000500Y-101000005D01*
X51000500Y-91830000D01*
X78015960Y-91830000D01*
X78076411Y-92068716D01*
X78176267Y-92296367D01*
X78312232Y-92504478D01*
X78480592Y-92687364D01*
X78480602Y-92687373D01*
X78676762Y-92840051D01*
X78676771Y-92840057D01*
X78895385Y-92958364D01*
X78895396Y-92958369D01*
X79130507Y-93039083D01*
X79249999Y-93059023D01*
X79250000Y-93059022D01*
X79250000Y-92090575D01*
X79269685Y-92023536D01*
X79322489Y-91977781D01*
X79391647Y-91967837D01*
X79393331Y-91968091D01*
X79425699Y-91973218D01*
X79468515Y-91980000D01*
X79468519Y-91980000D01*
X79531485Y-91980000D01*
X79574300Y-91973218D01*
X79606602Y-91968102D01*
X79675894Y-91977056D01*
X79729347Y-92022052D01*
X79749987Y-92088803D01*
X79750000Y-92090575D01*
X79750000Y-93059023D01*
X79869492Y-93039083D01*
X80104603Y-92958369D01*
X80104614Y-92958364D01*
X80323228Y-92840057D01*
X80323237Y-92840051D01*
X80519397Y-92687373D01*
X80519407Y-92687364D01*
X80687767Y-92504478D01*
X80823732Y-92296367D01*
X80923588Y-92068716D01*
X80984040Y-91830000D01*
X80010576Y-91830000D01*
X79943537Y-91810315D01*
X79897782Y-91757511D01*
X79887838Y-91688353D01*
X79888103Y-91686603D01*
X79904986Y-91580003D01*
X79904986Y-91579996D01*
X79888103Y-91473397D01*
X79897058Y-91404104D01*
X79942054Y-91350652D01*
X80008806Y-91330013D01*
X80010576Y-91330000D01*
X80984040Y-91330000D01*
X80923588Y-91091283D01*
X80823732Y-90863632D01*
X80687767Y-90655521D01*
X80519407Y-90472635D01*
X80519397Y-90472626D01*
X80323237Y-90319948D01*
X80323228Y-90319942D01*
X80104614Y-90201635D01*
X80104603Y-90201630D01*
X79869492Y-90120916D01*
X79750000Y-90100976D01*
X79750000Y-91069424D01*
X79730315Y-91136463D01*
X79677511Y-91182218D01*
X79608353Y-91192162D01*
X79606602Y-91191897D01*
X79531486Y-91180000D01*
X79531481Y-91180000D01*
X79468519Y-91180000D01*
X79468514Y-91180000D01*
X79393398Y-91191897D01*
X79324104Y-91182942D01*
X79270652Y-91137946D01*
X79250013Y-91071194D01*
X79250000Y-91069424D01*
X79250000Y-90100976D01*
X79249999Y-90100976D01*
X79130507Y-90120916D01*
X78895396Y-90201630D01*
X78895385Y-90201635D01*
X78676771Y-90319942D01*
X78676762Y-90319948D01*
X78480602Y-90472626D01*
X78480592Y-90472635D01*
X78312232Y-90655521D01*
X78176267Y-90863632D01*
X78076411Y-91091283D01*
X78015960Y-91330000D01*
X78989424Y-91330000D01*
X79056463Y-91349685D01*
X79102218Y-91402489D01*
X79112162Y-91471647D01*
X79111897Y-91473397D01*
X79095014Y-91579996D01*
X79095014Y-91580003D01*
X79111897Y-91686603D01*
X79102942Y-91755896D01*
X79057946Y-91809348D01*
X78991194Y-91829987D01*
X78989424Y-91830000D01*
X78015960Y-91830000D01*
X51000500Y-91830000D01*
X51000500Y-60000005D01*
X51994859Y-60000005D01*
X52015385Y-60247729D01*
X52015387Y-60247738D01*
X52076412Y-60488717D01*
X52176266Y-60716364D01*
X52276564Y-60869882D01*
X52977050Y-60169395D01*
X53038373Y-60135910D01*
X53108064Y-60140894D01*
X53163998Y-60182765D01*
X53168539Y-60189254D01*
X53215813Y-60261612D01*
X53316157Y-60339713D01*
X53316160Y-60339714D01*
X53316511Y-60339987D01*
X53357324Y-60396697D01*
X53360999Y-60466470D01*
X53328030Y-60525522D01*
X52629942Y-61223609D01*
X52676768Y-61260055D01*
X52676770Y-61260056D01*
X52895385Y-61378364D01*
X52895396Y-61378369D01*
X53130506Y-61459083D01*
X53375707Y-61500000D01*
X53624293Y-61500000D01*
X53869493Y-61459083D01*
X54104603Y-61378369D01*
X54104614Y-61378364D01*
X54323228Y-61260057D01*
X54323231Y-61260055D01*
X54370056Y-61223609D01*
X53669276Y-60522829D01*
X53635791Y-60461506D01*
X53640775Y-60391814D01*
X53682647Y-60335881D01*
X53697933Y-60326097D01*
X53737251Y-60304820D01*
X53823371Y-60211269D01*
X53824083Y-60209643D01*
X53825652Y-60207777D01*
X53828992Y-60202666D01*
X53829609Y-60203069D01*
X53869036Y-60156158D01*
X53935770Y-60135464D01*
X54003099Y-60154135D01*
X54025322Y-60171769D01*
X54723434Y-60869882D01*
X54823731Y-60716369D01*
X54923587Y-60488717D01*
X54984612Y-60247738D01*
X54984614Y-60247729D01*
X55005141Y-60000005D01*
X55005141Y-59999994D01*
X54984614Y-59752270D01*
X54984612Y-59752261D01*
X54923587Y-59511282D01*
X54823731Y-59283630D01*
X54723434Y-59130116D01*
X54022949Y-59830602D01*
X53961626Y-59864087D01*
X53891934Y-59859103D01*
X53836001Y-59817231D01*
X53831460Y-59810743D01*
X53784189Y-59738391D01*
X53784187Y-59738388D01*
X53728673Y-59695180D01*
X53683843Y-59660287D01*
X53683840Y-59660285D01*
X53683488Y-59660012D01*
X53642675Y-59603301D01*
X53639000Y-59533529D01*
X53671969Y-59474477D01*
X54370057Y-58776389D01*
X54323229Y-58739943D01*
X54104614Y-58621635D01*
X54104603Y-58621630D01*
X53869493Y-58540916D01*
X53624293Y-58500000D01*
X53375707Y-58500000D01*
X53130506Y-58540916D01*
X52895396Y-58621630D01*
X52895390Y-58621632D01*
X52676761Y-58739949D01*
X52629942Y-58776388D01*
X52629942Y-58776390D01*
X53330723Y-59477170D01*
X53364208Y-59538493D01*
X53359224Y-59608184D01*
X53317352Y-59664118D01*
X53302059Y-59673906D01*
X53262749Y-59695179D01*
X53262748Y-59695179D01*
X53176626Y-59788733D01*
X53176626Y-59788734D01*
X53175911Y-59790365D01*
X53174340Y-59792233D01*
X53171008Y-59797334D01*
X53170391Y-59796931D01*
X53130952Y-59843849D01*
X53064215Y-59864535D01*
X52996888Y-59845857D01*
X52974677Y-59828230D01*
X52276564Y-59130116D01*
X52176267Y-59283632D01*
X52076412Y-59511282D01*
X52015387Y-59752261D01*
X52015385Y-59752270D01*
X51994859Y-59999994D01*
X51994859Y-60000005D01*
X51000500Y-60000005D01*
X51000500Y-53250001D01*
X58939390Y-53250001D01*
X58959804Y-53535433D01*
X59020628Y-53815037D01*
X59120635Y-54083166D01*
X59257770Y-54334309D01*
X59257775Y-54334317D01*
X59429254Y-54563387D01*
X59429270Y-54563405D01*
X59631594Y-54765729D01*
X59631612Y-54765745D01*
X59860682Y-54937224D01*
X59860690Y-54937229D01*
X60111833Y-55074364D01*
X60111832Y-55074364D01*
X60111836Y-55074365D01*
X60111839Y-55074367D01*
X60379954Y-55174369D01*
X60379960Y-55174370D01*
X60379962Y-55174371D01*
X60659566Y-55235195D01*
X60659568Y-55235195D01*
X60659572Y-55235196D01*
X60913220Y-55253337D01*
X60944999Y-55255610D01*
X60945000Y-55255610D01*
X60945001Y-55255610D01*
X60973595Y-55253564D01*
X61230428Y-55235196D01*
X61510046Y-55174369D01*
X61778161Y-55074367D01*
X62029315Y-54937226D01*
X62258395Y-54765739D01*
X62460739Y-54563395D01*
X62632226Y-54334315D01*
X62632230Y-54334309D01*
X62697337Y-54215073D01*
X62746742Y-54165668D01*
X62806169Y-54150500D01*
X63575639Y-54150500D01*
X63642678Y-54170185D01*
X63663320Y-54186819D01*
X70056236Y-60579736D01*
X70068871Y-60594529D01*
X70077110Y-60605869D01*
X70077116Y-60605875D01*
X70128712Y-60652332D01*
X70131067Y-60654567D01*
X70146616Y-60670116D01*
X70146626Y-60670125D01*
X70163719Y-60683967D01*
X70166187Y-60686075D01*
X70194168Y-60711269D01*
X70217784Y-60732533D01*
X70217786Y-60732534D01*
X70229919Y-60739539D01*
X70245951Y-60750557D01*
X70256851Y-60759384D01*
X70256855Y-60759386D01*
X70318729Y-60790912D01*
X70321577Y-60792458D01*
X70381716Y-60827179D01*
X70395051Y-60831511D01*
X70413018Y-60838953D01*
X70425513Y-60845320D01*
X70492604Y-60863297D01*
X70495697Y-60864213D01*
X70561744Y-60885674D01*
X70575688Y-60887139D01*
X70594814Y-60890685D01*
X70604441Y-60893264D01*
X70608355Y-60894313D01*
X70677720Y-60897947D01*
X70680935Y-60898200D01*
X70702808Y-60900500D01*
X70724798Y-60900500D01*
X70728041Y-60900584D01*
X70797388Y-60904219D01*
X70811227Y-60902027D01*
X70830627Y-60900500D01*
X71235089Y-60900500D01*
X71302128Y-60920185D01*
X71326315Y-60940514D01*
X71480256Y-61107738D01*
X71676491Y-61260474D01*
X71785840Y-61319651D01*
X71894332Y-61378364D01*
X71895190Y-61378828D01*
X72114141Y-61453994D01*
X72128964Y-61459083D01*
X72130386Y-61459571D01*
X72375665Y-61500500D01*
X72624335Y-61500500D01*
X72869614Y-61459571D01*
X73104810Y-61378828D01*
X73323509Y-61260474D01*
X73519744Y-61107738D01*
X73673682Y-60940516D01*
X73733568Y-60904527D01*
X73764911Y-60900500D01*
X74575639Y-60900500D01*
X74642678Y-60920185D01*
X74663320Y-60936819D01*
X76226235Y-62499734D01*
X76238872Y-62514529D01*
X76247113Y-62525872D01*
X76298722Y-62572341D01*
X76301078Y-62574577D01*
X76316619Y-62590118D01*
X76333702Y-62603952D01*
X76336170Y-62606060D01*
X76387781Y-62652531D01*
X76387782Y-62652531D01*
X76387784Y-62652533D01*
X76399918Y-62659538D01*
X76415955Y-62670560D01*
X76426849Y-62679382D01*
X76426851Y-62679383D01*
X76488747Y-62710920D01*
X76491552Y-62712443D01*
X76510998Y-62723670D01*
X76551707Y-62747175D01*
X76551712Y-62747177D01*
X76551713Y-62747177D01*
X76551716Y-62747179D01*
X76565050Y-62751511D01*
X76583022Y-62758956D01*
X76595512Y-62765320D01*
X76621281Y-62772225D01*
X76662596Y-62783296D01*
X76665708Y-62784218D01*
X76731741Y-62805673D01*
X76731744Y-62805674D01*
X76745684Y-62807138D01*
X76764812Y-62810684D01*
X76778354Y-62814313D01*
X76847720Y-62817947D01*
X76850935Y-62818200D01*
X76872808Y-62820500D01*
X76894797Y-62820500D01*
X76898040Y-62820584D01*
X76967388Y-62824219D01*
X76981227Y-62822027D01*
X77000627Y-62820500D01*
X78235089Y-62820500D01*
X78302128Y-62840185D01*
X78326315Y-62860514D01*
X78480256Y-63027738D01*
X78676491Y-63180474D01*
X78676493Y-63180475D01*
X78889474Y-63295735D01*
X78895190Y-63298828D01*
X79130386Y-63379571D01*
X79375665Y-63420500D01*
X79624335Y-63420500D01*
X79869614Y-63379571D01*
X80104810Y-63298828D01*
X80323509Y-63180474D01*
X80519744Y-63027738D01*
X80688164Y-62844785D01*
X80824173Y-62636607D01*
X80924063Y-62408881D01*
X80985108Y-62167821D01*
X80990871Y-62098270D01*
X81005643Y-61920005D01*
X81005643Y-61919994D01*
X80985109Y-61672187D01*
X80985107Y-61672175D01*
X80924063Y-61431118D01*
X80824173Y-61203393D01*
X80688166Y-60995217D01*
X80637811Y-60940517D01*
X80519744Y-60812262D01*
X80323509Y-60659526D01*
X80323507Y-60659525D01*
X80323506Y-60659524D01*
X80104811Y-60541172D01*
X80104802Y-60541169D01*
X79869616Y-60460429D01*
X79624335Y-60419500D01*
X79375665Y-60419500D01*
X79130383Y-60460429D01*
X78895197Y-60541169D01*
X78895188Y-60541172D01*
X78676493Y-60659524D01*
X78545332Y-60761611D01*
X78480256Y-60812262D01*
X78326317Y-60979483D01*
X78266432Y-61015473D01*
X78235089Y-61019500D01*
X77344361Y-61019500D01*
X77277322Y-60999815D01*
X77256680Y-60983181D01*
X75693764Y-59420265D01*
X75681126Y-59405468D01*
X75672887Y-59394128D01*
X75621277Y-59347657D01*
X75618922Y-59345423D01*
X75603382Y-59329882D01*
X75586295Y-59316043D01*
X75583831Y-59313939D01*
X75532220Y-59267470D01*
X75532213Y-59267465D01*
X75520070Y-59260454D01*
X75504043Y-59249438D01*
X75493153Y-59240620D01*
X75493151Y-59240619D01*
X75493149Y-59240617D01*
X75460613Y-59224039D01*
X75431266Y-59209085D01*
X75428414Y-59207537D01*
X75368282Y-59172820D01*
X75354949Y-59168488D01*
X75336978Y-59161043D01*
X75324498Y-59154684D01*
X75324486Y-59154679D01*
X75257409Y-59136705D01*
X75254309Y-59135787D01*
X75188256Y-59114326D01*
X75188251Y-59114325D01*
X75188249Y-59114325D01*
X75174314Y-59112860D01*
X75155189Y-59109315D01*
X75141653Y-59105688D01*
X75141643Y-59105686D01*
X75072290Y-59102051D01*
X75069059Y-59101797D01*
X75054537Y-59100271D01*
X75047192Y-59099500D01*
X75047189Y-59099500D01*
X75025203Y-59099500D01*
X75021959Y-59099415D01*
X74952612Y-59095781D01*
X74952611Y-59095781D01*
X74938772Y-59097973D01*
X74919373Y-59099500D01*
X73764911Y-59099500D01*
X73697872Y-59079815D01*
X73673684Y-59059485D01*
X73519744Y-58892262D01*
X73323509Y-58739526D01*
X73323507Y-58739525D01*
X73323506Y-58739524D01*
X73104811Y-58621172D01*
X73104802Y-58621169D01*
X72869616Y-58540429D01*
X72624335Y-58499500D01*
X72375665Y-58499500D01*
X72130383Y-58540429D01*
X71895197Y-58621169D01*
X71895188Y-58621172D01*
X71676493Y-58739524D01*
X71629129Y-58776389D01*
X71480256Y-58892262D01*
X71326317Y-59059483D01*
X71266432Y-59095473D01*
X71235089Y-59099500D01*
X71174362Y-59099500D01*
X71107323Y-59079815D01*
X71086681Y-59063181D01*
X64693764Y-52670265D01*
X64681126Y-52655468D01*
X64672887Y-52644128D01*
X64621277Y-52597657D01*
X64618922Y-52595423D01*
X64603382Y-52579882D01*
X64586295Y-52566043D01*
X64583831Y-52563939D01*
X64532220Y-52517470D01*
X64532213Y-52517465D01*
X64520070Y-52510454D01*
X64504043Y-52499438D01*
X64493153Y-52490620D01*
X64493151Y-52490619D01*
X64493149Y-52490617D01*
X64474259Y-52480992D01*
X64431266Y-52459085D01*
X64428414Y-52457537D01*
X64368282Y-52422820D01*
X64354949Y-52418488D01*
X64336978Y-52411043D01*
X64324498Y-52404684D01*
X64324486Y-52404679D01*
X64257409Y-52386705D01*
X64254309Y-52385787D01*
X64188256Y-52364326D01*
X64188251Y-52364325D01*
X64188249Y-52364325D01*
X64174314Y-52362860D01*
X64155189Y-52359315D01*
X64141653Y-52355688D01*
X64141643Y-52355686D01*
X64072290Y-52352051D01*
X64069059Y-52351797D01*
X64054537Y-52350271D01*
X64047192Y-52349500D01*
X64047189Y-52349500D01*
X64025203Y-52349500D01*
X64021959Y-52349415D01*
X63952612Y-52345781D01*
X63952611Y-52345781D01*
X63938772Y-52347973D01*
X63919373Y-52349500D01*
X62806169Y-52349500D01*
X62739130Y-52329815D01*
X62697337Y-52284927D01*
X62632229Y-52165689D01*
X62632224Y-52165682D01*
X62460745Y-51936612D01*
X62460729Y-51936594D01*
X62258405Y-51734270D01*
X62258387Y-51734254D01*
X62029317Y-51562775D01*
X62029309Y-51562770D01*
X61778166Y-51425635D01*
X61778167Y-51425635D01*
X61608166Y-51362228D01*
X61510046Y-51325631D01*
X61510043Y-51325630D01*
X61510037Y-51325628D01*
X61230433Y-51264804D01*
X60945001Y-51244390D01*
X60944999Y-51244390D01*
X60659566Y-51264804D01*
X60379962Y-51325628D01*
X60111833Y-51425635D01*
X59860690Y-51562770D01*
X59860682Y-51562775D01*
X59631612Y-51734254D01*
X59631594Y-51734270D01*
X59429270Y-51936594D01*
X59429254Y-51936612D01*
X59257775Y-52165682D01*
X59257770Y-52165690D01*
X59120635Y-52416833D01*
X59020628Y-52684962D01*
X58959804Y-52964566D01*
X58939390Y-53249998D01*
X58939390Y-53250001D01*
X51000500Y-53250001D01*
X51000500Y-49797870D01*
X58944500Y-49797870D01*
X58944501Y-49797876D01*
X58950908Y-49857483D01*
X59001202Y-49992328D01*
X59001206Y-49992335D01*
X59087452Y-50107544D01*
X59087455Y-50107547D01*
X59202664Y-50193793D01*
X59202671Y-50193797D01*
X59337517Y-50244091D01*
X59337516Y-50244091D01*
X59344444Y-50244835D01*
X59397127Y-50250500D01*
X62492872Y-50250499D01*
X62552483Y-50244091D01*
X62687331Y-50193796D01*
X62802546Y-50107546D01*
X62888796Y-49992331D01*
X62939091Y-49857483D01*
X62945500Y-49797873D01*
X62945499Y-46702128D01*
X62939091Y-46642517D01*
X62888796Y-46507669D01*
X62888795Y-46507668D01*
X62888793Y-46507664D01*
X62802547Y-46392455D01*
X62802544Y-46392452D01*
X62687335Y-46306206D01*
X62687328Y-46306202D01*
X62552482Y-46255908D01*
X62552483Y-46255908D01*
X62492883Y-46249501D01*
X62492881Y-46249500D01*
X62492873Y-46249500D01*
X62492865Y-46249500D01*
X62024500Y-46249500D01*
X61957461Y-46229815D01*
X61911706Y-46177011D01*
X61900500Y-46125500D01*
X61900500Y-42197401D01*
X69795746Y-42197401D01*
X69805745Y-42407327D01*
X69855296Y-42611578D01*
X69855298Y-42611582D01*
X69942598Y-42802743D01*
X69942601Y-42802748D01*
X69942602Y-42802750D01*
X69942604Y-42802753D01*
X70005627Y-42891256D01*
X70064515Y-42973953D01*
X70064520Y-42973959D01*
X70216620Y-43118985D01*
X70311578Y-43180011D01*
X70393428Y-43232613D01*
X70588543Y-43310725D01*
X70691729Y-43330612D01*
X70794914Y-43350500D01*
X70794915Y-43350500D01*
X72152419Y-43350500D01*
X72152425Y-43350500D01*
X72309218Y-43335528D01*
X72510875Y-43276316D01*
X72697682Y-43180011D01*
X72862886Y-43050092D01*
X73000519Y-42891256D01*
X73105604Y-42709244D01*
X73174344Y-42510633D01*
X73204254Y-42302602D01*
X73194254Y-42092670D01*
X73144704Y-41888424D01*
X73124001Y-41843091D01*
X73057401Y-41697256D01*
X73057398Y-41697251D01*
X73057397Y-41697250D01*
X73057396Y-41697247D01*
X72935486Y-41526048D01*
X72935484Y-41526046D01*
X72935479Y-41526040D01*
X72783379Y-41381014D01*
X72606574Y-41267388D01*
X72568396Y-41252104D01*
X72481353Y-41217257D01*
X72411455Y-41189274D01*
X72205086Y-41149500D01*
X72205085Y-41149500D01*
X70847575Y-41149500D01*
X70690782Y-41164472D01*
X70690778Y-41164473D01*
X70489127Y-41223683D01*
X70302313Y-41319991D01*
X70137116Y-41449905D01*
X70137112Y-41449909D01*
X69999478Y-41608746D01*
X69894398Y-41790750D01*
X69825656Y-41989365D01*
X69825656Y-41989367D01*
X69810804Y-42092670D01*
X69795746Y-42197401D01*
X61900500Y-42197401D01*
X61900500Y-39424361D01*
X61920185Y-39357322D01*
X61936819Y-39336680D01*
X62226112Y-39047387D01*
X62579742Y-38693756D01*
X62594525Y-38681130D01*
X62605871Y-38672888D01*
X62652339Y-38621278D01*
X62654540Y-38618958D01*
X62670120Y-38603380D01*
X62683975Y-38586268D01*
X62686054Y-38583834D01*
X62732533Y-38532216D01*
X62739537Y-38520083D01*
X62750563Y-38504041D01*
X62759383Y-38493149D01*
X62772306Y-38467785D01*
X62790919Y-38431254D01*
X62792452Y-38428432D01*
X62795922Y-38422422D01*
X62827179Y-38368284D01*
X62831510Y-38354951D01*
X62838955Y-38336976D01*
X62845320Y-38324487D01*
X62863298Y-38257390D01*
X62864213Y-38254304D01*
X62885674Y-38188255D01*
X62887139Y-38174317D01*
X62890687Y-38155175D01*
X62894313Y-38141645D01*
X62894313Y-38141637D01*
X62895329Y-38135229D01*
X62897276Y-38135537D01*
X62917335Y-38078458D01*
X62972461Y-38035529D01*
X63042045Y-38029218D01*
X63103995Y-38061528D01*
X63138642Y-38122202D01*
X63142000Y-38150864D01*
X63142000Y-38850000D01*
X64031393Y-38850000D01*
X64098432Y-38869685D01*
X64144187Y-38922489D01*
X64154921Y-38984807D01*
X64144843Y-39099998D01*
X64144843Y-39100001D01*
X64154921Y-39215193D01*
X64141154Y-39283693D01*
X64092539Y-39333876D01*
X64031393Y-39350000D01*
X63142000Y-39350000D01*
X63142000Y-41005844D01*
X63148401Y-41065372D01*
X63148403Y-41065379D01*
X63198645Y-41200086D01*
X63198649Y-41200093D01*
X63284809Y-41315187D01*
X63284812Y-41315190D01*
X63399906Y-41401350D01*
X63399913Y-41401354D01*
X63534620Y-41451596D01*
X63534627Y-41451598D01*
X63594155Y-41457999D01*
X63594172Y-41458000D01*
X65250000Y-41458000D01*
X65250000Y-40568607D01*
X65269685Y-40501568D01*
X65322489Y-40455813D01*
X65384808Y-40445079D01*
X65441055Y-40450000D01*
X65558945Y-40450000D01*
X65615192Y-40445079D01*
X65683692Y-40458845D01*
X65733875Y-40507461D01*
X65750000Y-40568607D01*
X65750000Y-41458000D01*
X67405828Y-41458000D01*
X67405844Y-41457999D01*
X67465372Y-41451598D01*
X67465379Y-41451596D01*
X67600086Y-41401354D01*
X67600093Y-41401350D01*
X67715187Y-41315190D01*
X67715190Y-41315187D01*
X67801350Y-41200093D01*
X67801354Y-41200086D01*
X67851596Y-41065379D01*
X67851598Y-41065372D01*
X67857999Y-41005844D01*
X67858000Y-41005827D01*
X67858000Y-39350000D01*
X66968607Y-39350000D01*
X66901568Y-39330315D01*
X66855813Y-39277511D01*
X66845079Y-39215193D01*
X66855157Y-39100001D01*
X66855157Y-39099998D01*
X66845079Y-38984807D01*
X66858846Y-38916307D01*
X66907461Y-38866124D01*
X66968607Y-38850000D01*
X67858000Y-38850000D01*
X67858000Y-37194172D01*
X67857999Y-37194155D01*
X67851598Y-37134627D01*
X67851596Y-37134620D01*
X67801354Y-36999913D01*
X67801350Y-36999906D01*
X67715190Y-36884812D01*
X67715187Y-36884809D01*
X67600093Y-36798649D01*
X67600086Y-36798645D01*
X67465379Y-36748403D01*
X67465372Y-36748401D01*
X67405844Y-36742000D01*
X65750000Y-36742000D01*
X65750000Y-37631393D01*
X65730315Y-37698432D01*
X65677511Y-37744187D01*
X65615192Y-37754921D01*
X65558945Y-37750000D01*
X65441055Y-37750000D01*
X65384808Y-37754921D01*
X65316308Y-37741155D01*
X65266125Y-37692539D01*
X65250000Y-37631393D01*
X65250000Y-36742000D01*
X63594155Y-36742000D01*
X63534627Y-36748401D01*
X63534620Y-36748403D01*
X63399913Y-36798645D01*
X63399906Y-36798649D01*
X63284812Y-36884809D01*
X63284809Y-36884812D01*
X63198649Y-36999906D01*
X63198645Y-36999913D01*
X63148403Y-37134620D01*
X63148401Y-37134626D01*
X63147789Y-37140325D01*
X63121051Y-37204875D01*
X63063658Y-37244723D01*
X62993833Y-37247216D01*
X62933744Y-37211563D01*
X62902470Y-37149083D01*
X62900500Y-37127068D01*
X62900500Y-33038102D01*
X62920185Y-32971063D01*
X62972989Y-32925308D01*
X63042147Y-32915364D01*
X63105703Y-32944389D01*
X63137575Y-32987209D01*
X63193163Y-33110721D01*
X63352145Y-33373709D01*
X63355924Y-33379960D01*
X63549942Y-33627605D01*
X63772394Y-33850057D01*
X64020039Y-34044075D01*
X64020044Y-34044078D01*
X64020048Y-34044081D01*
X64289279Y-34206837D01*
X64576165Y-34335954D01*
X64576175Y-34335957D01*
X64576183Y-34335960D01*
X64776403Y-34398350D01*
X64876522Y-34429549D01*
X65185971Y-34486258D01*
X65500000Y-34505253D01*
X65814029Y-34486258D01*
X66123478Y-34429549D01*
X66383174Y-34348624D01*
X66423816Y-34335960D01*
X66423817Y-34335959D01*
X66423835Y-34335954D01*
X66710721Y-34206837D01*
X66979952Y-34044081D01*
X67227602Y-33850060D01*
X67450060Y-33627602D01*
X67644081Y-33379952D01*
X67806837Y-33110721D01*
X67935954Y-32823835D01*
X67943226Y-32800500D01*
X68011741Y-32580626D01*
X68029549Y-32523478D01*
X68086258Y-32214029D01*
X68105253Y-31900000D01*
X68086258Y-31585971D01*
X68029549Y-31276522D01*
X67977373Y-31109082D01*
X67935960Y-30976183D01*
X67935956Y-30976172D01*
X67935954Y-30976165D01*
X67806837Y-30689279D01*
X67644081Y-30420048D01*
X67644078Y-30420044D01*
X67644075Y-30420039D01*
X67450057Y-30172394D01*
X67227605Y-29949942D01*
X66979960Y-29755924D01*
X66941399Y-29732613D01*
X66710721Y-29593163D01*
X66423835Y-29464046D01*
X66423830Y-29464044D01*
X66423827Y-29464043D01*
X66423816Y-29464039D01*
X66123486Y-29370453D01*
X66123482Y-29370452D01*
X66123478Y-29370451D01*
X65814029Y-29313742D01*
X65814028Y-29313741D01*
X65814023Y-29313741D01*
X65527229Y-29296394D01*
X65500000Y-29294747D01*
X65499999Y-29294747D01*
X65185976Y-29313741D01*
X65185970Y-29313742D01*
X65185971Y-29313742D01*
X64876522Y-29370451D01*
X64876519Y-29370451D01*
X64876513Y-29370453D01*
X64576183Y-29464039D01*
X64576172Y-29464043D01*
X64576166Y-29464045D01*
X64576165Y-29464046D01*
X64478566Y-29507972D01*
X64289283Y-29593161D01*
X64289281Y-29593162D01*
X64020039Y-29755924D01*
X63772394Y-29949942D01*
X63549942Y-30172394D01*
X63355924Y-30420039D01*
X63193162Y-30689281D01*
X63193153Y-30689297D01*
X63086446Y-30926391D01*
X63040982Y-30979446D01*
X62974052Y-30999498D01*
X62973371Y-30999500D01*
X62680627Y-30999500D01*
X62661228Y-30997973D01*
X62647389Y-30995781D01*
X62647388Y-30995781D01*
X62578046Y-30999415D01*
X62574803Y-30999500D01*
X62552808Y-30999500D01*
X62537403Y-31001118D01*
X62530933Y-31001798D01*
X62527702Y-31002052D01*
X62458356Y-31005687D01*
X62444809Y-31009317D01*
X62425686Y-31012860D01*
X62411745Y-31014325D01*
X62411743Y-31014325D01*
X62345702Y-31035784D01*
X62342590Y-31036705D01*
X62275517Y-31054677D01*
X62275503Y-31054683D01*
X62263022Y-31061043D01*
X62245049Y-31068488D01*
X62231715Y-31072820D01*
X62171592Y-31107533D01*
X62168740Y-31109082D01*
X62106853Y-31140616D01*
X62106837Y-31140626D01*
X62095948Y-31149444D01*
X62079923Y-31160458D01*
X62067785Y-31167466D01*
X62067781Y-31167469D01*
X62016172Y-31213936D01*
X62013710Y-31216039D01*
X61996627Y-31229875D01*
X61996610Y-31229890D01*
X61981065Y-31245435D01*
X61978713Y-31247666D01*
X61927114Y-31294126D01*
X61918869Y-31305474D01*
X61906236Y-31320263D01*
X61420263Y-31806236D01*
X61405474Y-31818869D01*
X61394126Y-31827114D01*
X61347666Y-31878713D01*
X61345435Y-31881065D01*
X61329890Y-31896610D01*
X61329875Y-31896627D01*
X61316039Y-31913710D01*
X61313936Y-31916172D01*
X61267469Y-31967781D01*
X61267466Y-31967785D01*
X61260458Y-31979923D01*
X61249444Y-31995948D01*
X61240626Y-32006837D01*
X61240616Y-32006853D01*
X61209082Y-32068740D01*
X61207533Y-32071592D01*
X61172821Y-32131713D01*
X61168487Y-32145053D01*
X61161045Y-32163020D01*
X61154680Y-32175512D01*
X61136706Y-32242584D01*
X61135785Y-32245692D01*
X61114326Y-32311742D01*
X61114325Y-32311745D01*
X61112860Y-32325686D01*
X61109315Y-32344812D01*
X61105686Y-32358352D01*
X61102051Y-32427710D01*
X61101797Y-32430941D01*
X61099500Y-32452810D01*
X61099500Y-32474797D01*
X61099415Y-32478042D01*
X61095781Y-32547389D01*
X61097973Y-32561231D01*
X61099499Y-32580626D01*
X61099499Y-37575638D01*
X61079814Y-37642677D01*
X61063180Y-37663319D01*
X60420263Y-38306236D01*
X60405474Y-38318869D01*
X60394126Y-38327114D01*
X60347666Y-38378713D01*
X60345435Y-38381065D01*
X60329890Y-38396610D01*
X60329875Y-38396627D01*
X60316039Y-38413710D01*
X60313936Y-38416172D01*
X60267469Y-38467781D01*
X60267466Y-38467785D01*
X60260458Y-38479923D01*
X60249444Y-38495948D01*
X60240626Y-38506837D01*
X60240616Y-38506853D01*
X60209082Y-38568740D01*
X60207533Y-38571592D01*
X60172821Y-38631713D01*
X60168487Y-38645053D01*
X60161045Y-38663020D01*
X60154680Y-38675512D01*
X60136706Y-38742584D01*
X60135785Y-38745692D01*
X60114326Y-38811742D01*
X60114325Y-38811745D01*
X60112860Y-38825686D01*
X60109315Y-38844812D01*
X60105686Y-38858352D01*
X60102051Y-38927710D01*
X60101797Y-38930941D01*
X60099500Y-38952810D01*
X60099500Y-38974797D01*
X60099415Y-38978042D01*
X60095781Y-39047387D01*
X60097973Y-39061225D01*
X60099500Y-39080626D01*
X60099500Y-46125500D01*
X60079815Y-46192539D01*
X60027011Y-46238294D01*
X59975500Y-46249500D01*
X59397129Y-46249500D01*
X59397123Y-46249501D01*
X59337516Y-46255908D01*
X59202671Y-46306202D01*
X59202664Y-46306206D01*
X59087455Y-46392452D01*
X59087452Y-46392455D01*
X59001206Y-46507664D01*
X59001202Y-46507671D01*
X58950908Y-46642517D01*
X58944501Y-46702116D01*
X58944501Y-46702123D01*
X58944500Y-46702135D01*
X58944500Y-49797870D01*
X51000500Y-49797870D01*
X51000500Y-30924759D01*
X52749500Y-30924759D01*
X52781016Y-31194393D01*
X52790077Y-31271914D01*
X52790077Y-31271916D01*
X52870680Y-31612009D01*
X52870681Y-31612012D01*
X52990223Y-31940452D01*
X52990226Y-31940458D01*
X53147088Y-32252796D01*
X53339146Y-32544805D01*
X53339152Y-32544813D01*
X53354042Y-32562558D01*
X53563817Y-32812558D01*
X53627880Y-32872998D01*
X53818044Y-33052410D01*
X53818050Y-33052415D01*
X54098402Y-33261129D01*
X54176630Y-33306294D01*
X54401096Y-33435889D01*
X54722029Y-33574326D01*
X55056864Y-33674569D01*
X55056866Y-33674569D01*
X55056872Y-33674571D01*
X55401061Y-33735260D01*
X55401062Y-33735260D01*
X55401073Y-33735262D01*
X55662695Y-33750500D01*
X55662697Y-33750500D01*
X55837303Y-33750500D01*
X55837305Y-33750500D01*
X56098927Y-33735262D01*
X56142854Y-33727516D01*
X56443127Y-33674571D01*
X56443130Y-33674569D01*
X56443136Y-33674569D01*
X56777971Y-33574326D01*
X57098904Y-33435889D01*
X57401596Y-33261130D01*
X57681953Y-33052412D01*
X57936183Y-32812558D01*
X58160849Y-32544811D01*
X58352913Y-32252793D01*
X58509777Y-31940451D01*
X58629319Y-31612011D01*
X58709923Y-31271914D01*
X58750500Y-30924759D01*
X58750500Y-30575241D01*
X58709923Y-30228086D01*
X58629319Y-29887989D01*
X58509777Y-29559549D01*
X58352913Y-29247207D01*
X58352911Y-29247203D01*
X58160853Y-28955194D01*
X58160847Y-28955186D01*
X58084251Y-28863903D01*
X57944540Y-28697401D01*
X69795746Y-28697401D01*
X69805745Y-28907327D01*
X69855296Y-29111578D01*
X69855298Y-29111582D01*
X69942598Y-29302743D01*
X69942601Y-29302748D01*
X69942602Y-29302750D01*
X69942604Y-29302753D01*
X70045958Y-29447893D01*
X70064515Y-29473953D01*
X70064520Y-29473959D01*
X70216620Y-29618985D01*
X70311578Y-29680011D01*
X70393428Y-29732613D01*
X70588543Y-29810725D01*
X70691728Y-29830612D01*
X70794914Y-29850500D01*
X70794915Y-29850500D01*
X72152419Y-29850500D01*
X72152425Y-29850500D01*
X72309218Y-29835528D01*
X72510875Y-29776316D01*
X72697682Y-29680011D01*
X72862886Y-29550092D01*
X73000519Y-29391256D01*
X73015835Y-29364729D01*
X73082363Y-29249499D01*
X73105604Y-29209244D01*
X73174344Y-29010633D01*
X73204254Y-28802602D01*
X73194254Y-28592670D01*
X73144704Y-28388424D01*
X73144701Y-28388417D01*
X73057401Y-28197256D01*
X73057398Y-28197251D01*
X73057397Y-28197250D01*
X73057396Y-28197247D01*
X72935486Y-28026048D01*
X72935484Y-28026046D01*
X72935479Y-28026040D01*
X72783379Y-27881014D01*
X72606574Y-27767388D01*
X72599957Y-27764739D01*
X72411457Y-27689275D01*
X72411455Y-27689274D01*
X72205086Y-27649500D01*
X72205085Y-27649500D01*
X70847575Y-27649500D01*
X70690782Y-27664472D01*
X70690778Y-27664473D01*
X70489127Y-27723683D01*
X70302313Y-27819991D01*
X70137116Y-27949905D01*
X70137112Y-27949909D01*
X69999478Y-28108746D01*
X69894398Y-28290750D01*
X69825656Y-28489365D01*
X69825656Y-28489367D01*
X69797178Y-28687442D01*
X69795746Y-28697401D01*
X57944540Y-28697401D01*
X57936183Y-28687442D01*
X57743770Y-28505909D01*
X57681955Y-28447589D01*
X57681949Y-28447584D01*
X57401597Y-28238870D01*
X57098908Y-28064113D01*
X57098895Y-28064107D01*
X56777972Y-27925674D01*
X56443134Y-27825430D01*
X56443127Y-27825428D01*
X56098938Y-27764739D01*
X56098927Y-27764738D01*
X56098927Y-27764737D01*
X55837305Y-27749500D01*
X55662695Y-27749500D01*
X55488280Y-27759658D01*
X55401072Y-27764738D01*
X55401061Y-27764739D01*
X55056872Y-27825428D01*
X55056865Y-27825430D01*
X54722027Y-27925674D01*
X54401104Y-28064107D01*
X54401091Y-28064113D01*
X54098402Y-28238870D01*
X53818050Y-28447584D01*
X53818044Y-28447589D01*
X53563819Y-28687440D01*
X53563817Y-28687442D01*
X53339152Y-28955186D01*
X53339146Y-28955194D01*
X53147088Y-29247203D01*
X52990226Y-29559541D01*
X52990223Y-29559547D01*
X52870681Y-29887987D01*
X52870680Y-29887990D01*
X52790077Y-30228083D01*
X52790077Y-30228085D01*
X52790077Y-30228086D01*
X52749500Y-30575241D01*
X52749500Y-30924759D01*
X51000500Y-30924759D01*
X51000500Y-26124500D01*
X51020185Y-26057461D01*
X51072989Y-26011706D01*
X51124500Y-26000500D01*
X138875500Y-26000500D01*
X138942539Y-26020185D01*
G37*
%TD.AperFunction*%
%TA.AperFunction,Conductor*%
G36*
X91616259Y-31184558D02*
G01*
X91633214Y-31195657D01*
X91716488Y-31260472D01*
X91716492Y-31260475D01*
X91724516Y-31264817D01*
X91774107Y-31314036D01*
X91789499Y-31373872D01*
X91789499Y-34476298D01*
X91788190Y-34494268D01*
X91784711Y-34518020D01*
X91784710Y-34518027D01*
X91789264Y-34570063D01*
X91789500Y-34575470D01*
X91789500Y-34583709D01*
X91793306Y-34616274D01*
X91800000Y-34692791D01*
X91801461Y-34699867D01*
X91801403Y-34699878D01*
X91803034Y-34707237D01*
X91803092Y-34707224D01*
X91804757Y-34714250D01*
X91831025Y-34786424D01*
X91855185Y-34859331D01*
X91858236Y-34865874D01*
X91858182Y-34865898D01*
X91861470Y-34872688D01*
X91861521Y-34872663D01*
X91864761Y-34879113D01*
X91864762Y-34879114D01*
X91864763Y-34879117D01*
X91906964Y-34943283D01*
X91906965Y-34943283D01*
X91947287Y-35008655D01*
X91951766Y-35014319D01*
X91951719Y-35014356D01*
X91956482Y-35020202D01*
X91956528Y-35020164D01*
X91961173Y-35025700D01*
X92017018Y-35078386D01*
X103924267Y-46985634D01*
X103936048Y-46999266D01*
X103950390Y-47018530D01*
X103990420Y-47052119D01*
X103994392Y-47055759D01*
X104000223Y-47061590D01*
X104000222Y-47061590D01*
X104025944Y-47081927D01*
X104084786Y-47131302D01*
X104084794Y-47131306D01*
X104090824Y-47135273D01*
X104090790Y-47135323D01*
X104097137Y-47139366D01*
X104097169Y-47139316D01*
X104103318Y-47143108D01*
X104103320Y-47143109D01*
X104103323Y-47143111D01*
X104172930Y-47175569D01*
X104241567Y-47210040D01*
X104241576Y-47210042D01*
X104248355Y-47212510D01*
X104248334Y-47212567D01*
X104255451Y-47215040D01*
X104255470Y-47214984D01*
X104262330Y-47217257D01*
X104337531Y-47232784D01*
X104337532Y-47232784D01*
X104412279Y-47250500D01*
X104412288Y-47250500D01*
X104419452Y-47251338D01*
X104419445Y-47251397D01*
X104426946Y-47252163D01*
X104426952Y-47252104D01*
X104434140Y-47252733D01*
X104434143Y-47252732D01*
X104434144Y-47252733D01*
X104510898Y-47250500D01*
X125280178Y-47250500D01*
X125347217Y-47270185D01*
X125383987Y-47306679D01*
X125410816Y-47347745D01*
X125410818Y-47347747D01*
X125473665Y-47416018D01*
X125504587Y-47478673D01*
X125496726Y-47548099D01*
X125473666Y-47583982D01*
X125410812Y-47652260D01*
X125286137Y-47843091D01*
X125194569Y-48051844D01*
X125138610Y-48272820D01*
X125138608Y-48272831D01*
X125119786Y-48499993D01*
X125119786Y-48500006D01*
X125138608Y-48727168D01*
X125138610Y-48727179D01*
X125194569Y-48948155D01*
X125286137Y-49156908D01*
X125410814Y-49347742D01*
X125565208Y-49515458D01*
X125565212Y-49515461D01*
X125745094Y-49655469D01*
X125745096Y-49655470D01*
X125745099Y-49655472D01*
X125861646Y-49718543D01*
X125945574Y-49763963D01*
X126025334Y-49791345D01*
X126161175Y-49837980D01*
X126166147Y-49839239D01*
X126165689Y-49841045D01*
X126221285Y-49867943D01*
X126225702Y-49872149D01*
X126330723Y-49977170D01*
X126364208Y-50038493D01*
X126359224Y-50108185D01*
X126317352Y-50164118D01*
X126302059Y-50173906D01*
X126262749Y-50195179D01*
X126262748Y-50195179D01*
X126176626Y-50288733D01*
X126176626Y-50288734D01*
X126175911Y-50290365D01*
X126174340Y-50292233D01*
X126171008Y-50297334D01*
X126170391Y-50296931D01*
X126130952Y-50343849D01*
X126064215Y-50364535D01*
X125996888Y-50345857D01*
X125974677Y-50328230D01*
X125385072Y-49738625D01*
X125326401Y-49822419D01*
X125226570Y-50036507D01*
X125226566Y-50036516D01*
X125165432Y-50264673D01*
X125165430Y-50264684D01*
X125144843Y-50499998D01*
X125144843Y-50500001D01*
X125165430Y-50735315D01*
X125165432Y-50735326D01*
X125226566Y-50963483D01*
X125226570Y-50963492D01*
X125326400Y-51177579D01*
X125326402Y-51177583D01*
X125385072Y-51261373D01*
X125385073Y-51261373D01*
X125977050Y-50669395D01*
X126038373Y-50635910D01*
X126108064Y-50640894D01*
X126163998Y-50682765D01*
X126168539Y-50689254D01*
X126215813Y-50761612D01*
X126215816Y-50761614D01*
X126316510Y-50839988D01*
X126357323Y-50896698D01*
X126360998Y-50966471D01*
X126328029Y-51025522D01*
X125738625Y-51614925D01*
X125822421Y-51673599D01*
X126036507Y-51773429D01*
X126036516Y-51773433D01*
X126264673Y-51834567D01*
X126264684Y-51834569D01*
X126499998Y-51855157D01*
X126500002Y-51855157D01*
X126735315Y-51834569D01*
X126735326Y-51834567D01*
X126963483Y-51773433D01*
X126963492Y-51773429D01*
X127177578Y-51673600D01*
X127177582Y-51673598D01*
X127261373Y-51614926D01*
X127261373Y-51614925D01*
X126669276Y-51022829D01*
X126635791Y-50961506D01*
X126640775Y-50891815D01*
X126682646Y-50835881D01*
X126697933Y-50826097D01*
X126737251Y-50804820D01*
X126823371Y-50711269D01*
X126824083Y-50709643D01*
X126825652Y-50707777D01*
X126828992Y-50702666D01*
X126829609Y-50703069D01*
X126869036Y-50656158D01*
X126935770Y-50635464D01*
X127003099Y-50654135D01*
X127025322Y-50671769D01*
X127614925Y-51261373D01*
X127614926Y-51261373D01*
X127673598Y-51177582D01*
X127673600Y-51177578D01*
X127773429Y-50963492D01*
X127773433Y-50963483D01*
X127834567Y-50735326D01*
X127834569Y-50735315D01*
X127855157Y-50500001D01*
X127855157Y-50499998D01*
X127834569Y-50264684D01*
X127834567Y-50264673D01*
X127773433Y-50036516D01*
X127773429Y-50036507D01*
X127673600Y-49822423D01*
X127673599Y-49822421D01*
X127614925Y-49738626D01*
X127614925Y-49738625D01*
X127022949Y-50330602D01*
X126961626Y-50364087D01*
X126891934Y-50359103D01*
X126836001Y-50317231D01*
X126831460Y-50310743D01*
X126784189Y-50238391D01*
X126784186Y-50238387D01*
X126683487Y-50160010D01*
X126642674Y-50103300D01*
X126639000Y-50033527D01*
X126671969Y-49974476D01*
X126774295Y-49872150D01*
X126833939Y-49839581D01*
X126833853Y-49839239D01*
X126835184Y-49838901D01*
X126835618Y-49838665D01*
X126837693Y-49838266D01*
X126838824Y-49837980D01*
X126906744Y-49814662D01*
X127054426Y-49763963D01*
X127254906Y-49655469D01*
X127434794Y-49515456D01*
X127589183Y-49347745D01*
X127616012Y-49306679D01*
X127669159Y-49261322D01*
X127719822Y-49250500D01*
X129137770Y-49250500D01*
X129204809Y-49270185D01*
X129225450Y-49286818D01*
X131213181Y-51274549D01*
X131246665Y-51335870D01*
X131249499Y-51362228D01*
X131249499Y-58387770D01*
X131229814Y-58454809D01*
X131213180Y-58475451D01*
X130264358Y-59424272D01*
X130250729Y-59436051D01*
X130231468Y-59450390D01*
X130197898Y-59490397D01*
X130194253Y-59494376D01*
X130188409Y-59500222D01*
X130168059Y-59525959D01*
X130118695Y-59584789D01*
X130114729Y-59590819D01*
X130114682Y-59590788D01*
X130110630Y-59597147D01*
X130110679Y-59597177D01*
X130106889Y-59603321D01*
X130074422Y-59672945D01*
X130070298Y-59681156D01*
X130022618Y-59732228D01*
X129959490Y-59749500D01*
X128869136Y-59749500D01*
X128802097Y-59729815D01*
X128765327Y-59693322D01*
X128688164Y-59575215D01*
X128519744Y-59392262D01*
X128323509Y-59239526D01*
X128323507Y-59239525D01*
X128323506Y-59239524D01*
X128104811Y-59121172D01*
X128104802Y-59121169D01*
X127869616Y-59040429D01*
X127624335Y-58999500D01*
X127375665Y-58999500D01*
X127130383Y-59040429D01*
X126895197Y-59121169D01*
X126895188Y-59121172D01*
X126676493Y-59239524D01*
X126480257Y-59392261D01*
X126311833Y-59575217D01*
X126175826Y-59783393D01*
X126075936Y-60011118D01*
X126014892Y-60252175D01*
X126014890Y-60252187D01*
X125994357Y-60499994D01*
X125994357Y-60500005D01*
X126014890Y-60747812D01*
X126014892Y-60747824D01*
X126075936Y-60988881D01*
X126175826Y-61216606D01*
X126311833Y-61424782D01*
X126311835Y-61424784D01*
X126311836Y-61424785D01*
X126480256Y-61607738D01*
X126676491Y-61760474D01*
X126785840Y-61819651D01*
X126894332Y-61878364D01*
X126895190Y-61878828D01*
X127114141Y-61953994D01*
X127128964Y-61959083D01*
X127130386Y-61959571D01*
X127375665Y-62000500D01*
X127624335Y-62000500D01*
X127869614Y-61959571D01*
X128104810Y-61878828D01*
X128323509Y-61760474D01*
X128519744Y-61607738D01*
X128688164Y-61424785D01*
X128765327Y-61306677D01*
X128818474Y-61261322D01*
X128869136Y-61250500D01*
X130387770Y-61250500D01*
X130454809Y-61270185D01*
X130475451Y-61286819D01*
X132713180Y-63524548D01*
X132746665Y-63585871D01*
X132749499Y-63612229D01*
X132749500Y-100137770D01*
X132729815Y-100204809D01*
X132713181Y-100225451D01*
X120475451Y-112463181D01*
X120414128Y-112496666D01*
X120387770Y-112499500D01*
X98572230Y-112499500D01*
X98505191Y-112479815D01*
X98484549Y-112463181D01*
X98246819Y-112225451D01*
X98213334Y-112164128D01*
X98210500Y-112137770D01*
X98210500Y-111373872D01*
X98230185Y-111306833D01*
X98275487Y-111264815D01*
X98283509Y-111260474D01*
X98366786Y-111195656D01*
X98431779Y-111170014D01*
X98500319Y-111183580D01*
X98550644Y-111232048D01*
X98551841Y-111234606D01*
X98551953Y-111234546D01*
X98556206Y-111242335D01*
X98642452Y-111357544D01*
X98642455Y-111357547D01*
X98757664Y-111443793D01*
X98757671Y-111443797D01*
X98892517Y-111494091D01*
X98892516Y-111494091D01*
X98899444Y-111494835D01*
X98952127Y-111500500D01*
X101047872Y-111500499D01*
X101107483Y-111494091D01*
X101242331Y-111443796D01*
X101357546Y-111357546D01*
X101443796Y-111242331D01*
X101494091Y-111107483D01*
X101500500Y-111047873D01*
X101500500Y-110874500D01*
X101520185Y-110807461D01*
X101572989Y-110761706D01*
X101624500Y-110750500D01*
X115686295Y-110750500D01*
X115704265Y-110751809D01*
X115728023Y-110755289D01*
X115780068Y-110750735D01*
X115785470Y-110750500D01*
X115793704Y-110750500D01*
X115793709Y-110750500D01*
X115805327Y-110749141D01*
X115826276Y-110746693D01*
X115839028Y-110745577D01*
X115902797Y-110739999D01*
X115902805Y-110739996D01*
X115909866Y-110738539D01*
X115909878Y-110738598D01*
X115917243Y-110736965D01*
X115917229Y-110736906D01*
X115924246Y-110735241D01*
X115924255Y-110735241D01*
X115996423Y-110708974D01*
X116069334Y-110684814D01*
X116069343Y-110684807D01*
X116075882Y-110681760D01*
X116075908Y-110681816D01*
X116082690Y-110678532D01*
X116082663Y-110678478D01*
X116089106Y-110675240D01*
X116089117Y-110675237D01*
X116153283Y-110633034D01*
X116218656Y-110592712D01*
X116218662Y-110592705D01*
X116224325Y-110588229D01*
X116224362Y-110588277D01*
X116230204Y-110583518D01*
X116230164Y-110583471D01*
X116235691Y-110578832D01*
X116235696Y-110578830D01*
X116288386Y-110522981D01*
X124524548Y-102286818D01*
X124585871Y-102253334D01*
X124612229Y-102250500D01*
X126130864Y-102250500D01*
X126197903Y-102270185D01*
X126234672Y-102306677D01*
X126311836Y-102424785D01*
X126480256Y-102607738D01*
X126676491Y-102760474D01*
X126676493Y-102760475D01*
X126894332Y-102878364D01*
X126895190Y-102878828D01*
X127114141Y-102953994D01*
X127128964Y-102959083D01*
X127130386Y-102959571D01*
X127375665Y-103000500D01*
X127624335Y-103000500D01*
X127869614Y-102959571D01*
X128104810Y-102878828D01*
X128323509Y-102760474D01*
X128519744Y-102607738D01*
X128688164Y-102424785D01*
X128824173Y-102216607D01*
X128924063Y-101988881D01*
X128985108Y-101747821D01*
X128985116Y-101747729D01*
X129005643Y-101500005D01*
X129005643Y-101499994D01*
X128985109Y-101252187D01*
X128985107Y-101252175D01*
X128924063Y-101011118D01*
X128824173Y-100783393D01*
X128688166Y-100575217D01*
X128632144Y-100514361D01*
X128519744Y-100392262D01*
X128323509Y-100239526D01*
X128323507Y-100239525D01*
X128323506Y-100239524D01*
X128104811Y-100121172D01*
X128104802Y-100121169D01*
X127869616Y-100040429D01*
X127624335Y-99999500D01*
X127375665Y-99999500D01*
X127130383Y-100040429D01*
X126895197Y-100121169D01*
X126895188Y-100121172D01*
X126676493Y-100239524D01*
X126516902Y-100363739D01*
X126480256Y-100392262D01*
X126370690Y-100511282D01*
X126311836Y-100575215D01*
X126234673Y-100693322D01*
X126181526Y-100738678D01*
X126130864Y-100749500D01*
X125124500Y-100749500D01*
X125057461Y-100729815D01*
X125011706Y-100677011D01*
X125000500Y-100625500D01*
X125000500Y-93563705D01*
X125001809Y-93545735D01*
X125005289Y-93521974D01*
X125000736Y-93469939D01*
X125000500Y-93464532D01*
X125000500Y-93456297D01*
X125000500Y-93456296D01*
X125000500Y-93456291D01*
X124996691Y-93423707D01*
X124989998Y-93347202D01*
X124989996Y-93347197D01*
X124988538Y-93340133D01*
X124988597Y-93340120D01*
X124986967Y-93332764D01*
X124986908Y-93332779D01*
X124985241Y-93325751D01*
X124985241Y-93325745D01*
X124958966Y-93253556D01*
X124934813Y-93180665D01*
X124934808Y-93180658D01*
X124931760Y-93174119D01*
X124931815Y-93174092D01*
X124928529Y-93167305D01*
X124928476Y-93167332D01*
X124925238Y-93160883D01*
X124883023Y-93096700D01*
X124842709Y-93031341D01*
X124838233Y-93025681D01*
X124838280Y-93025643D01*
X124833519Y-93019799D01*
X124833474Y-93019838D01*
X124828834Y-93014308D01*
X124772964Y-92961596D01*
X100825729Y-69014361D01*
X100813949Y-69000730D01*
X100806482Y-68990701D01*
X100799612Y-68981472D01*
X100799610Y-68981470D01*
X100759587Y-68947886D01*
X100755612Y-68944244D01*
X100752690Y-68941322D01*
X100749780Y-68938411D01*
X100724040Y-68918059D01*
X100665209Y-68868694D01*
X100659180Y-68864729D01*
X100659212Y-68864680D01*
X100652853Y-68860628D01*
X100652822Y-68860679D01*
X100646680Y-68856891D01*
X100646678Y-68856890D01*
X100646677Y-68856889D01*
X100597824Y-68834108D01*
X100577058Y-68824424D01*
X100542894Y-68807267D01*
X100508433Y-68789960D01*
X100508431Y-68789959D01*
X100508430Y-68789959D01*
X100501645Y-68787489D01*
X100501665Y-68787433D01*
X100494549Y-68784959D01*
X100494531Y-68785015D01*
X100487670Y-68782741D01*
X100422222Y-68769228D01*
X100412434Y-68767207D01*
X100394066Y-68762854D01*
X100336741Y-68749267D01*
X100277658Y-68716291D01*
X94003229Y-62441861D01*
X93991449Y-62428230D01*
X93983982Y-62418201D01*
X93977112Y-62408972D01*
X93975402Y-62407537D01*
X93937087Y-62375386D01*
X93933112Y-62371744D01*
X93930190Y-62368822D01*
X93927280Y-62365911D01*
X93901540Y-62345559D01*
X93842709Y-62296194D01*
X93836680Y-62292229D01*
X93836712Y-62292180D01*
X93830353Y-62288128D01*
X93830322Y-62288179D01*
X93824180Y-62284391D01*
X93824178Y-62284390D01*
X93824177Y-62284389D01*
X93784974Y-62266108D01*
X93754558Y-62251924D01*
X93720394Y-62234767D01*
X93685933Y-62217460D01*
X93685931Y-62217459D01*
X93685930Y-62217459D01*
X93679145Y-62214989D01*
X93679165Y-62214933D01*
X93672049Y-62212459D01*
X93672031Y-62212515D01*
X93665171Y-62210242D01*
X93637341Y-62204496D01*
X93589934Y-62194707D01*
X93540972Y-62183103D01*
X93515219Y-62176999D01*
X93508047Y-62176161D01*
X93508053Y-62176101D01*
X93500555Y-62175335D01*
X93500550Y-62175395D01*
X93493360Y-62174765D01*
X93416583Y-62177000D01*
X91730440Y-62177000D01*
X91663401Y-62157315D01*
X91624850Y-62118014D01*
X91612693Y-62098270D01*
X91526645Y-62000500D01*
X91456425Y-61920715D01*
X91456424Y-61920714D01*
X91456420Y-61920710D01*
X91272397Y-61772122D01*
X91065909Y-61656771D01*
X90842892Y-61577974D01*
X90842882Y-61577971D01*
X90609773Y-61538000D01*
X90609764Y-61538000D01*
X88654472Y-61538000D01*
X88654467Y-61538000D01*
X88477828Y-61553033D01*
X88248929Y-61612634D01*
X88033404Y-61710057D01*
X88033398Y-61710060D01*
X87837439Y-61842504D01*
X87837432Y-61842510D01*
X87666668Y-62006174D01*
X87526024Y-62196338D01*
X87526021Y-62196342D01*
X87419539Y-62407537D01*
X87419536Y-62407543D01*
X87350275Y-62633706D01*
X87320233Y-62868315D01*
X87330270Y-63104625D01*
X87330270Y-63104626D01*
X87380103Y-63335848D01*
X87414118Y-63420500D01*
X87468293Y-63555320D01*
X87487104Y-63585871D01*
X87592306Y-63756729D01*
X87748575Y-63934285D01*
X87748579Y-63934289D01*
X87932603Y-64082878D01*
X87932605Y-64082879D01*
X87947883Y-64091414D01*
X87996810Y-64141293D01*
X88011003Y-64209706D01*
X87985956Y-64274932D01*
X87956847Y-64302403D01*
X87837758Y-64382893D01*
X87837748Y-64382901D01*
X87667045Y-64546506D01*
X87526452Y-64736601D01*
X87420001Y-64947731D01*
X87350765Y-65173809D01*
X87345171Y-65217500D01*
X89091924Y-65217500D01*
X89158963Y-65237185D01*
X89204718Y-65289989D01*
X89214662Y-65359147D01*
X89214397Y-65360897D01*
X89197514Y-65467496D01*
X89197514Y-65467503D01*
X89214397Y-65574103D01*
X89205442Y-65643396D01*
X89160446Y-65696848D01*
X89093694Y-65717487D01*
X89091924Y-65717500D01*
X87346488Y-65717500D01*
X87380583Y-65875701D01*
X87380583Y-65875702D01*
X87468741Y-66095092D01*
X87592711Y-66296433D01*
X87748918Y-66473918D01*
X87748920Y-66473920D01*
X87932882Y-66622460D01*
X87932887Y-66622463D01*
X87947858Y-66630827D01*
X87996785Y-66680706D01*
X88010978Y-66749119D01*
X87985931Y-66814345D01*
X87956822Y-66841816D01*
X87837441Y-66922502D01*
X87837432Y-66922510D01*
X87666668Y-67086173D01*
X87666667Y-67086174D01*
X87577501Y-67206735D01*
X87521811Y-67248929D01*
X87477806Y-67257000D01*
X87306205Y-67257000D01*
X87288235Y-67255691D01*
X87264472Y-67252210D01*
X87219390Y-67256155D01*
X87212433Y-67256764D01*
X87207032Y-67257000D01*
X87198787Y-67257000D01*
X87172722Y-67260046D01*
X87166205Y-67260808D01*
X87160903Y-67261271D01*
X87089701Y-67267501D01*
X87082634Y-67268961D01*
X87082622Y-67268904D01*
X87075253Y-67270538D01*
X87075267Y-67270595D01*
X87068239Y-67272260D01*
X87013036Y-67292352D01*
X86996063Y-67298530D01*
X86923166Y-67322686D01*
X86923164Y-67322686D01*
X86923161Y-67322688D01*
X86916622Y-67325737D01*
X86916597Y-67325685D01*
X86909808Y-67328971D01*
X86909834Y-67329022D01*
X86903384Y-67332261D01*
X86839216Y-67374464D01*
X86773847Y-67414785D01*
X86768177Y-67419269D01*
X86768141Y-67419223D01*
X86762298Y-67423984D01*
X86762335Y-67424028D01*
X86756810Y-67428664D01*
X86704114Y-67484517D01*
X85014358Y-69174272D01*
X85000729Y-69186051D01*
X84981468Y-69200391D01*
X84981466Y-69200393D01*
X84969488Y-69214668D01*
X84911317Y-69253369D01*
X84841456Y-69254477D01*
X84782086Y-69217639D01*
X84752057Y-69154552D01*
X84750500Y-69134961D01*
X84750500Y-60500005D01*
X106994858Y-60500005D01*
X107015385Y-60747729D01*
X107015387Y-60747738D01*
X107076412Y-60988717D01*
X107176266Y-61216364D01*
X107276564Y-61369882D01*
X107977050Y-60669395D01*
X108038373Y-60635910D01*
X108108064Y-60640894D01*
X108163998Y-60682765D01*
X108168539Y-60689254D01*
X108215813Y-60761612D01*
X108316157Y-60839713D01*
X108316160Y-60839714D01*
X108316511Y-60839987D01*
X108357324Y-60896697D01*
X108360999Y-60966470D01*
X108328030Y-61025522D01*
X107629942Y-61723609D01*
X107676768Y-61760055D01*
X107676770Y-61760056D01*
X107895385Y-61878364D01*
X107895396Y-61878369D01*
X108130506Y-61959083D01*
X108375707Y-62000000D01*
X108624293Y-62000000D01*
X108869493Y-61959083D01*
X109104603Y-61878369D01*
X109104614Y-61878364D01*
X109323228Y-61760057D01*
X109323231Y-61760055D01*
X109370056Y-61723609D01*
X108669276Y-61022829D01*
X108635791Y-60961506D01*
X108640775Y-60891814D01*
X108682647Y-60835881D01*
X108697933Y-60826097D01*
X108737251Y-60804820D01*
X108823371Y-60711269D01*
X108824083Y-60709643D01*
X108825652Y-60707777D01*
X108828992Y-60702666D01*
X108829609Y-60703069D01*
X108869036Y-60656158D01*
X108935770Y-60635464D01*
X109003099Y-60654135D01*
X109025322Y-60671769D01*
X109723434Y-61369882D01*
X109823731Y-61216369D01*
X109923587Y-60988717D01*
X109984612Y-60747738D01*
X109984614Y-60747729D01*
X110005141Y-60500005D01*
X110005141Y-60499994D01*
X109984614Y-60252270D01*
X109984612Y-60252261D01*
X109923587Y-60011282D01*
X109823731Y-59783630D01*
X109723434Y-59630116D01*
X109022949Y-60330602D01*
X108961626Y-60364087D01*
X108891934Y-60359103D01*
X108836001Y-60317231D01*
X108831460Y-60310743D01*
X108784189Y-60238391D01*
X108784187Y-60238388D01*
X108784186Y-60238388D01*
X108683843Y-60160287D01*
X108683840Y-60160285D01*
X108683488Y-60160012D01*
X108642675Y-60103301D01*
X108639000Y-60033529D01*
X108671969Y-59974477D01*
X109370057Y-59276389D01*
X109323229Y-59239943D01*
X109104614Y-59121635D01*
X109104603Y-59121630D01*
X108869493Y-59040916D01*
X108624293Y-59000000D01*
X108375707Y-59000000D01*
X108130506Y-59040916D01*
X107895396Y-59121630D01*
X107895390Y-59121632D01*
X107676761Y-59239949D01*
X107629942Y-59276388D01*
X107629942Y-59276390D01*
X108330723Y-59977170D01*
X108364208Y-60038493D01*
X108359224Y-60108184D01*
X108317352Y-60164118D01*
X108302059Y-60173906D01*
X108262749Y-60195179D01*
X108262748Y-60195179D01*
X108176626Y-60288733D01*
X108176626Y-60288734D01*
X108175911Y-60290365D01*
X108174340Y-60292233D01*
X108171008Y-60297334D01*
X108170391Y-60296931D01*
X108130952Y-60343849D01*
X108064215Y-60364535D01*
X107996888Y-60345857D01*
X107974677Y-60328230D01*
X107276564Y-59630116D01*
X107176267Y-59783632D01*
X107076412Y-60011282D01*
X107015387Y-60252261D01*
X107015385Y-60252270D01*
X106994858Y-60499994D01*
X106994858Y-60500005D01*
X84750500Y-60500005D01*
X84750500Y-40612228D01*
X84770185Y-40545189D01*
X84786814Y-40524552D01*
X90485638Y-34825727D01*
X90499267Y-34813950D01*
X90518530Y-34799610D01*
X90518532Y-34799606D01*
X90518534Y-34799606D01*
X90536663Y-34777999D01*
X90552113Y-34759585D01*
X90555767Y-34755599D01*
X90561589Y-34749778D01*
X90581928Y-34724054D01*
X90596050Y-34707224D01*
X90631302Y-34665214D01*
X90631304Y-34665209D01*
X90635272Y-34659179D01*
X90635323Y-34659212D01*
X90639369Y-34652860D01*
X90639317Y-34652828D01*
X90643109Y-34646679D01*
X90643111Y-34646677D01*
X90675569Y-34577069D01*
X90710040Y-34508433D01*
X90710043Y-34508417D01*
X90712510Y-34501644D01*
X90712568Y-34501665D01*
X90715043Y-34494546D01*
X90714985Y-34494527D01*
X90717256Y-34487672D01*
X90719605Y-34476298D01*
X90732784Y-34412467D01*
X90750500Y-34337721D01*
X90750500Y-34337720D01*
X90751339Y-34330548D01*
X90751397Y-34330554D01*
X90752164Y-34323056D01*
X90752104Y-34323051D01*
X90752733Y-34315860D01*
X90751266Y-34265450D01*
X90750500Y-34239102D01*
X90750500Y-31624499D01*
X90770185Y-31557460D01*
X90822989Y-31511705D01*
X90874500Y-31500499D01*
X91047871Y-31500499D01*
X91047872Y-31500499D01*
X91107483Y-31494091D01*
X91242331Y-31443796D01*
X91357546Y-31357546D01*
X91443796Y-31242331D01*
X91443797Y-31242326D01*
X91448047Y-31234546D01*
X91451288Y-31236316D01*
X91482541Y-31194393D01*
X91547956Y-31169844D01*
X91616259Y-31184558D01*
G37*
%TD.AperFunction*%
%TA.AperFunction,Conductor*%
G36*
X93132309Y-63697685D02*
G01*
X93152951Y-63714319D01*
X99424267Y-69985634D01*
X99436048Y-69999266D01*
X99450390Y-70018530D01*
X99490420Y-70052119D01*
X99494392Y-70055759D01*
X99499500Y-70060867D01*
X99500224Y-70061591D01*
X99500227Y-70061594D01*
X99525947Y-70081931D01*
X99584788Y-70131304D01*
X99590818Y-70135270D01*
X99590785Y-70135319D01*
X99597143Y-70139369D01*
X99597175Y-70139319D01*
X99603320Y-70143109D01*
X99603323Y-70143111D01*
X99672936Y-70175572D01*
X99741567Y-70210040D01*
X99741572Y-70210041D01*
X99748361Y-70212513D01*
X99748340Y-70212570D01*
X99755455Y-70215043D01*
X99755475Y-70214986D01*
X99762330Y-70217258D01*
X99837558Y-70232790D01*
X99913256Y-70250732D01*
X99972340Y-70283708D01*
X123463181Y-93774548D01*
X123496666Y-93835871D01*
X123499500Y-93862229D01*
X123499500Y-101137770D01*
X123479815Y-101204809D01*
X123463181Y-101225451D01*
X115475451Y-109213181D01*
X115414128Y-109246666D01*
X115387770Y-109249500D01*
X101624499Y-109249500D01*
X101557460Y-109229815D01*
X101511705Y-109177011D01*
X101500499Y-109125500D01*
X101500499Y-108952129D01*
X101500498Y-108952123D01*
X101494091Y-108892516D01*
X101443797Y-108757671D01*
X101443793Y-108757664D01*
X101357547Y-108642455D01*
X101357544Y-108642452D01*
X101242335Y-108556206D01*
X101242328Y-108556202D01*
X101107482Y-108505908D01*
X101107483Y-108505908D01*
X101047883Y-108499501D01*
X101047881Y-108499500D01*
X101047873Y-108499500D01*
X101047864Y-108499500D01*
X98952129Y-108499500D01*
X98952123Y-108499501D01*
X98892516Y-108505908D01*
X98757671Y-108556202D01*
X98757664Y-108556206D01*
X98642455Y-108642452D01*
X98642452Y-108642455D01*
X98556206Y-108757664D01*
X98551953Y-108765454D01*
X98548750Y-108763705D01*
X98517200Y-108805800D01*
X98451721Y-108830178D01*
X98383457Y-108815286D01*
X98366786Y-108804343D01*
X98357751Y-108797311D01*
X98283509Y-108739526D01*
X98104136Y-108642454D01*
X98064811Y-108621172D01*
X98064802Y-108621169D01*
X97829616Y-108540429D01*
X97584335Y-108499500D01*
X97335665Y-108499500D01*
X97090383Y-108540429D01*
X96855197Y-108621169D01*
X96855188Y-108621172D01*
X96636493Y-108739524D01*
X96440255Y-108892262D01*
X96440252Y-108892265D01*
X96280889Y-109065379D01*
X96221002Y-109101370D01*
X96151164Y-109099269D01*
X96098431Y-109065379D01*
X95939407Y-108892635D01*
X95939397Y-108892626D01*
X95743237Y-108739948D01*
X95743228Y-108739942D01*
X95524614Y-108621635D01*
X95524603Y-108621630D01*
X95289492Y-108540916D01*
X95170000Y-108520976D01*
X95169999Y-108520976D01*
X95169999Y-109387698D01*
X95150314Y-109454738D01*
X95097510Y-109500492D01*
X95028353Y-109510436D01*
X94955764Y-109500000D01*
X94955763Y-109500000D01*
X94884237Y-109500000D01*
X94884233Y-109500000D01*
X94811645Y-109510436D01*
X94742487Y-109500492D01*
X94689684Y-109454736D01*
X94670000Y-109387698D01*
X94670000Y-108520976D01*
X94669999Y-108520976D01*
X94550507Y-108540916D01*
X94315396Y-108621630D01*
X94315385Y-108621635D01*
X94096771Y-108739942D01*
X94096762Y-108739948D01*
X93900602Y-108892626D01*
X93900598Y-108892630D01*
X93741568Y-109065380D01*
X93681681Y-109101370D01*
X93611843Y-109099269D01*
X93559109Y-109065379D01*
X93399744Y-108892262D01*
X93203509Y-108739526D01*
X93195477Y-108735179D01*
X93145891Y-108685961D01*
X93130500Y-108626128D01*
X93130500Y-107732228D01*
X93150185Y-107665189D01*
X93166814Y-107644552D01*
X95485638Y-105325727D01*
X95499267Y-105313950D01*
X95518530Y-105299610D01*
X95518532Y-105299606D01*
X95518534Y-105299606D01*
X95536663Y-105277999D01*
X95552113Y-105259585D01*
X95555767Y-105255599D01*
X95561591Y-105249776D01*
X95581930Y-105224052D01*
X95631302Y-105165214D01*
X95631306Y-105165205D01*
X95635274Y-105159175D01*
X95635325Y-105159208D01*
X95639369Y-105152860D01*
X95639317Y-105152828D01*
X95643104Y-105146685D01*
X95643111Y-105146677D01*
X95675572Y-105077063D01*
X95710040Y-105008433D01*
X95710041Y-105008427D01*
X95712508Y-105001650D01*
X95712566Y-105001671D01*
X95715043Y-104994544D01*
X95714986Y-104994526D01*
X95717255Y-104987679D01*
X95717256Y-104987674D01*
X95717257Y-104987672D01*
X95732790Y-104912441D01*
X95750500Y-104837721D01*
X95750500Y-104837719D01*
X95751339Y-104830548D01*
X95751398Y-104830554D01*
X95752164Y-104823054D01*
X95752105Y-104823049D01*
X95752734Y-104815859D01*
X95750500Y-104739082D01*
X95750500Y-101500005D01*
X106994858Y-101500005D01*
X107015385Y-101747729D01*
X107015387Y-101747738D01*
X107076412Y-101988717D01*
X107176266Y-102216364D01*
X107276564Y-102369882D01*
X107977050Y-101669395D01*
X108038373Y-101635910D01*
X108108064Y-101640894D01*
X108163998Y-101682765D01*
X108168539Y-101689254D01*
X108215813Y-101761612D01*
X108316157Y-101839713D01*
X108316160Y-101839714D01*
X108316511Y-101839987D01*
X108357324Y-101896697D01*
X108360999Y-101966470D01*
X108328030Y-102025522D01*
X107629942Y-102723609D01*
X107676768Y-102760055D01*
X107676770Y-102760056D01*
X107895385Y-102878364D01*
X107895396Y-102878369D01*
X108130506Y-102959083D01*
X108375707Y-103000000D01*
X108624293Y-103000000D01*
X108869493Y-102959083D01*
X109104603Y-102878369D01*
X109104614Y-102878364D01*
X109323228Y-102760057D01*
X109323231Y-102760055D01*
X109370056Y-102723609D01*
X108669276Y-102022829D01*
X108635791Y-101961506D01*
X108640775Y-101891814D01*
X108682647Y-101835881D01*
X108697933Y-101826097D01*
X108737251Y-101804820D01*
X108823371Y-101711269D01*
X108824083Y-101709643D01*
X108825652Y-101707777D01*
X108828992Y-101702666D01*
X108829609Y-101703069D01*
X108869036Y-101656158D01*
X108935770Y-101635464D01*
X109003099Y-101654135D01*
X109025322Y-101671769D01*
X109723434Y-102369882D01*
X109823731Y-102216369D01*
X109923587Y-101988717D01*
X109984612Y-101747738D01*
X109984614Y-101747729D01*
X110005141Y-101500005D01*
X110005141Y-101499994D01*
X109984614Y-101252270D01*
X109984612Y-101252261D01*
X109923587Y-101011282D01*
X109823731Y-100783630D01*
X109723434Y-100630116D01*
X109022949Y-101330602D01*
X108961626Y-101364087D01*
X108891934Y-101359103D01*
X108836001Y-101317231D01*
X108831460Y-101310743D01*
X108784189Y-101238391D01*
X108784187Y-101238388D01*
X108784186Y-101238388D01*
X108683843Y-101160287D01*
X108683840Y-101160285D01*
X108683488Y-101160012D01*
X108642675Y-101103301D01*
X108639000Y-101033529D01*
X108671969Y-100974477D01*
X109370057Y-100276389D01*
X109323229Y-100239943D01*
X109104614Y-100121635D01*
X109104603Y-100121630D01*
X108869493Y-100040916D01*
X108624293Y-100000000D01*
X108375707Y-100000000D01*
X108130506Y-100040916D01*
X107895396Y-100121630D01*
X107895390Y-100121632D01*
X107676761Y-100239949D01*
X107629942Y-100276388D01*
X107629942Y-100276390D01*
X108330723Y-100977170D01*
X108364208Y-101038493D01*
X108359224Y-101108184D01*
X108317352Y-101164118D01*
X108302059Y-101173906D01*
X108262749Y-101195179D01*
X108262748Y-101195179D01*
X108176626Y-101288733D01*
X108176626Y-101288734D01*
X108175911Y-101290365D01*
X108174340Y-101292233D01*
X108171008Y-101297334D01*
X108170391Y-101296931D01*
X108130952Y-101343849D01*
X108064215Y-101364535D01*
X107996888Y-101345857D01*
X107974677Y-101328230D01*
X107276564Y-100630116D01*
X107176267Y-100783632D01*
X107076412Y-101011282D01*
X107015387Y-101252261D01*
X107015385Y-101252270D01*
X106994858Y-101499994D01*
X106994858Y-101500005D01*
X95750500Y-101500005D01*
X95750500Y-72563705D01*
X95751809Y-72545735D01*
X95752129Y-72543547D01*
X95755289Y-72521977D01*
X95750735Y-72469931D01*
X95750500Y-72464528D01*
X95750500Y-72456297D01*
X95750500Y-72456291D01*
X95746693Y-72423724D01*
X95746692Y-72423724D01*
X95739999Y-72347201D01*
X95738539Y-72340129D01*
X95738597Y-72340116D01*
X95736965Y-72332757D01*
X95736906Y-72332772D01*
X95735241Y-72325751D01*
X95735241Y-72325745D01*
X95726542Y-72301844D01*
X95708974Y-72253575D01*
X95684813Y-72180663D01*
X95681764Y-72174124D01*
X95681817Y-72174099D01*
X95678531Y-72167311D01*
X95678479Y-72167338D01*
X95675236Y-72160882D01*
X95633034Y-72096716D01*
X95592714Y-72031347D01*
X95588234Y-72025681D01*
X95588280Y-72025643D01*
X95583519Y-72019799D01*
X95583474Y-72019838D01*
X95578834Y-72014308D01*
X95522982Y-71961613D01*
X93623229Y-70061861D01*
X93611449Y-70048230D01*
X93603982Y-70038201D01*
X93597112Y-70028972D01*
X93595402Y-70027537D01*
X93557087Y-69995386D01*
X93553112Y-69991744D01*
X93550190Y-69988822D01*
X93547280Y-69985911D01*
X93521540Y-69965559D01*
X93462709Y-69916194D01*
X93456680Y-69912229D01*
X93456712Y-69912180D01*
X93450353Y-69908128D01*
X93450322Y-69908179D01*
X93444180Y-69904391D01*
X93444178Y-69904390D01*
X93444177Y-69904389D01*
X93404974Y-69886108D01*
X93374558Y-69871924D01*
X93340394Y-69854767D01*
X93305933Y-69837460D01*
X93305931Y-69837459D01*
X93305930Y-69837459D01*
X93299145Y-69834989D01*
X93299165Y-69834933D01*
X93292049Y-69832459D01*
X93292031Y-69832515D01*
X93285171Y-69830242D01*
X93257341Y-69824496D01*
X93209934Y-69814707D01*
X93160972Y-69803103D01*
X93135219Y-69796999D01*
X93128047Y-69796161D01*
X93128053Y-69796101D01*
X93120555Y-69795335D01*
X93120550Y-69795395D01*
X93113360Y-69794765D01*
X93036583Y-69797000D01*
X91730440Y-69797000D01*
X91663401Y-69777315D01*
X91624850Y-69738014D01*
X91612693Y-69718270D01*
X91456424Y-69540714D01*
X91456420Y-69540710D01*
X91272397Y-69392122D01*
X91257602Y-69383857D01*
X91208677Y-69333976D01*
X91194485Y-69265563D01*
X91219534Y-69200338D01*
X91248636Y-69172872D01*
X91367568Y-69092490D01*
X91538331Y-68928827D01*
X91678978Y-68738659D01*
X91785464Y-68527457D01*
X91854724Y-68301297D01*
X91884767Y-68066685D01*
X91874729Y-67830371D01*
X91824897Y-67599152D01*
X91736707Y-67379680D01*
X91612693Y-67178270D01*
X91456425Y-67000715D01*
X91456424Y-67000714D01*
X91456420Y-67000710D01*
X91272396Y-66852121D01*
X91272394Y-66852120D01*
X91257114Y-66843584D01*
X91208188Y-66793704D01*
X91193996Y-66725291D01*
X91219044Y-66660065D01*
X91248153Y-66632595D01*
X91367244Y-66552104D01*
X91367251Y-66552098D01*
X91537954Y-66388493D01*
X91678547Y-66198398D01*
X91784998Y-65987268D01*
X91854234Y-65761190D01*
X91859829Y-65717500D01*
X90113076Y-65717500D01*
X90046037Y-65697815D01*
X90000282Y-65645011D01*
X89990338Y-65575853D01*
X89990603Y-65574103D01*
X90007486Y-65467503D01*
X90007486Y-65467496D01*
X89990603Y-65360897D01*
X89999558Y-65291604D01*
X90044554Y-65238152D01*
X90111306Y-65217513D01*
X90113076Y-65217500D01*
X91858512Y-65217500D01*
X91824416Y-65059298D01*
X91824416Y-65059297D01*
X91736258Y-64839907D01*
X91612288Y-64638566D01*
X91456081Y-64461081D01*
X91456079Y-64461079D01*
X91272117Y-64312539D01*
X91272113Y-64312536D01*
X91257139Y-64304171D01*
X91208213Y-64254291D01*
X91194021Y-64185878D01*
X91219069Y-64120653D01*
X91248174Y-64093185D01*
X91367568Y-64012490D01*
X91538331Y-63848827D01*
X91606446Y-63756730D01*
X91627499Y-63728265D01*
X91683189Y-63686071D01*
X91727194Y-63678000D01*
X93065270Y-63678000D01*
X93132309Y-63697685D01*
G37*
%TD.AperFunction*%
%TD*%
D27*
X50000000Y-25000000D02*
X140000000Y-25000000D01*
X140000000Y-115000000D01*
X50000000Y-115000000D01*
X50000000Y-25000000D01*
M02*
