%TF.GenerationSoftware,KiCad,Pcbnew,7.0.7*%
%TF.CreationDate,2023-11-09T15:51:25-05:00*%
%TF.ProjectId,CubeSatPower,43756265-5361-4745-906f-7765722e6b69,rev?*%
%TF.SameCoordinates,Original*%
%TF.FileFunction,Soldermask,Bot*%
%TF.FilePolarity,Negative*%
%FSLAX46Y46*%
G04 Gerber Fmt 4.6, Leading zero omitted, Abs format (unit mm)*
G04 Created by KiCad (PCBNEW 7.0.7) date 2023-11-09 15:51:25*
%MOMM*%
%LPD*%
G01*
G04 APERTURE LIST*
G04 Aperture macros list*
%AMRoundRect*
0 Rectangle with rounded corners*
0 $1 Rounding radius*
0 $2 $3 $4 $5 $6 $7 $8 $9 X,Y pos of 4 corners*
0 Add a 4 corners polygon primitive as box body*
4,1,4,$2,$3,$4,$5,$6,$7,$8,$9,$2,$3,0*
0 Add four circle primitives for the rounded corners*
1,1,$1+$1,$2,$3*
1,1,$1+$1,$4,$5*
1,1,$1+$1,$6,$7*
1,1,$1+$1,$8,$9*
0 Add four rect primitives between the rounded corners*
20,1,$1+$1,$2,$3,$4,$5,0*
20,1,$1+$1,$4,$5,$6,$7,0*
20,1,$1+$1,$6,$7,$8,$9,0*
20,1,$1+$1,$8,$9,$2,$3,0*%
G04 Aperture macros list end*
%ADD10R,3.000000X3.000000*%
%ADD11C,3.000000*%
%ADD12C,2.000000*%
%ADD13O,2.000000X2.000000*%
%ADD14R,2.000000X2.000000*%
%ADD15C,5.000000*%
%ADD16RoundRect,0.102000X-1.858000X1.858000X-1.858000X-1.858000X1.858000X-1.858000X1.858000X1.858000X0*%
%ADD17C,4.404000*%
%ADD18O,2.604000X1.404000*%
%ADD19O,3.760000X1.982000*%
%ADD20C,1.750000*%
%ADD21C,1.700000*%
%TA.AperFunction,Profile*%
%ADD22C,0.500000*%
%TD*%
G04 APERTURE END LIST*
D10*
%TO.C,J4*%
X60945000Y-48250000D03*
D11*
X60945000Y-53250000D03*
%TD*%
D12*
%TO.C,5vOut1*%
X72500000Y-60000000D03*
X53500000Y-60000000D03*
X72500000Y-101000000D03*
X53500000Y-101000000D03*
%TD*%
D13*
%TO.C,J2*%
X97460000Y-110000000D03*
X94920000Y-110000000D03*
X92380000Y-110000000D03*
X89840000Y-110000000D03*
D14*
X100000000Y-110000000D03*
%TD*%
D15*
%TO.C,H2*%
X55500000Y-109500000D03*
%TD*%
%TO.C,H4*%
X134500000Y-109500000D03*
%TD*%
%TO.C,H3*%
X134500000Y-30500000D03*
%TD*%
D16*
%TO.C,J1*%
X65500000Y-39100000D03*
D17*
X65500000Y-31900000D03*
D18*
X71500000Y-42250000D03*
X71500000Y-28750000D03*
%TD*%
D12*
%TO.C,3_3VOut1*%
X127500000Y-60500000D03*
X108500000Y-60500000D03*
X127500000Y-101500000D03*
X108500000Y-101500000D03*
%TD*%
%TO.C,R1*%
X79500000Y-61920000D03*
D13*
X79500000Y-72080000D03*
%TD*%
D15*
%TO.C,H1*%
X55750000Y-30750000D03*
%TD*%
D14*
%TO.C,J3*%
X90000000Y-30000000D03*
D13*
X92540000Y-30000000D03*
X95080000Y-30000000D03*
X97620000Y-30000000D03*
X100160000Y-30000000D03*
%TD*%
D19*
%TO.C,U2*%
X89602500Y-78167500D03*
X89602500Y-65467500D03*
X89602500Y-80707500D03*
X89602500Y-68007500D03*
X89602500Y-70547500D03*
X89602500Y-62927500D03*
X89602500Y-75627500D03*
X89602500Y-73087500D03*
%TD*%
D20*
%TO.C,U1*%
X126500000Y-40500000D03*
X126500000Y-42500000D03*
X126500000Y-44500000D03*
X126500000Y-46500000D03*
X126500000Y-48500000D03*
D21*
X126500000Y-50500000D03*
%TD*%
D12*
%TO.C,R2*%
X79500000Y-81420000D03*
D13*
X79500000Y-91580000D03*
%TD*%
D22*
X50000000Y-25000000D02*
X140000000Y-25000000D01*
X140000000Y-115000000D01*
X50000000Y-115000000D01*
X50000000Y-25000000D01*
M02*
