M48
; DRILL file {KiCad 7.0.7} date Thu Nov  9 15:51:31 2023
; FORMAT={2:4/ absolute / inch / keep zeros}
; #@! TF.CreationDate,2023-11-09T15:51:31-05:00
; #@! TF.GenerationSoftware,Kicad,Pcbnew,7.0.7
; #@! TF.FileFunction,MixedPlating,1,2
FMAT,2
INCH
; #@! TA.AperFunction,Plated,PTH,ComponentDrill
T1C0.0236
; #@! TA.AperFunction,Plated,PTH,ComponentDrill
T2C0.0300
; #@! TA.AperFunction,Plated,PTH,ComponentDrill
T3C0.0315
; #@! TA.AperFunction,Plated,PTH,ComponentDrill
T4C0.0394
; #@! TA.AperFunction,Plated,PTH,ComponentDrill
T5C0.0512
; #@! TA.AperFunction,Plated,PTH,ComponentDrill
T6C0.1063
; #@! TA.AperFunction,NonPlated,NPTH,ComponentDrill
T7C0.1969
%
G90
G05
T2
X021063Y-023622
X021063Y-039764
X028543Y-023622
X028543Y-039764
X042717Y-023819
X042717Y-039961
X049803Y-015945
X049803Y-016732
X049803Y-017520
X049803Y-018307
X049803Y-019094
X049803Y-019882
X050197Y-023819
X050197Y-039961
T3
X031299Y-024378
X031299Y-028378
X031299Y-032055
X031299Y-036055
X035277Y-024775
X035277Y-025775
X035277Y-026775
X035277Y-027775
X035277Y-028775
X035277Y-029775
X035277Y-030775
X035277Y-031775
T4
X035370Y-043307
X035433Y-011811
X036370Y-043307
X036433Y-011811
X037370Y-043307
X037433Y-011811
X038370Y-043307
X038433Y-011811
X039370Y-043307
X039433Y-011811
T5
X023994Y-018996
X023994Y-020965
T6
X025787Y-012559
X025787Y-015394
T7
X021850Y-043110
X021949Y-012106
X052953Y-012008
X052953Y-043110
T1
X028366Y-011319G85X027933Y-011319
G05
X028366Y-016634G85X027933Y-016634
G05
T0
M30
