%TF.GenerationSoftware,KiCad,Pcbnew,7.0.7*%
%TF.CreationDate,2023-11-09T15:51:25-05:00*%
%TF.ProjectId,CubeSatPower,43756265-5361-4745-906f-7765722e6b69,rev?*%
%TF.SameCoordinates,Original*%
%TF.FileFunction,Legend,Top*%
%TF.FilePolarity,Positive*%
%FSLAX46Y46*%
G04 Gerber Fmt 4.6, Leading zero omitted, Abs format (unit mm)*
G04 Created by KiCad (PCBNEW 7.0.7) date 2023-11-09 15:51:25*
%MOMM*%
%LPD*%
G01*
G04 APERTURE LIST*
%ADD10C,0.150000*%
%ADD11C,0.100000*%
%ADD12C,0.120000*%
%ADD13C,0.127000*%
%TA.AperFunction,Profile*%
%ADD14C,0.500000*%
%TD*%
G04 APERTURE END LIST*
D10*
X140000000Y-109500000D02*
G75*
G03*
X140000000Y-109500000I-5500000J0D01*
G01*
X61250000Y-30750000D02*
G75*
G03*
X61250000Y-30750000I-5500000J0D01*
G01*
X140000000Y-30500000D02*
G75*
G03*
X140000000Y-30500000I-5500000J0D01*
G01*
X61000000Y-109500000D02*
G75*
G03*
X61000000Y-109500000I-5500000J0D01*
G01*
X66659819Y-51083333D02*
X67374104Y-51083333D01*
X67374104Y-51083333D02*
X67516961Y-51130952D01*
X67516961Y-51130952D02*
X67612200Y-51226190D01*
X67612200Y-51226190D02*
X67659819Y-51369047D01*
X67659819Y-51369047D02*
X67659819Y-51464285D01*
X66993152Y-50178571D02*
X67659819Y-50178571D01*
X66612200Y-50416666D02*
X67326485Y-50654761D01*
X67326485Y-50654761D02*
X67326485Y-50035714D01*
D11*
X64042580Y-78619047D02*
X64042580Y-78142857D01*
X64042580Y-78142857D02*
X63566390Y-78095238D01*
X63566390Y-78095238D02*
X63614009Y-78142857D01*
X63614009Y-78142857D02*
X63661628Y-78238095D01*
X63661628Y-78238095D02*
X63661628Y-78476190D01*
X63661628Y-78476190D02*
X63614009Y-78571428D01*
X63614009Y-78571428D02*
X63566390Y-78619047D01*
X63566390Y-78619047D02*
X63471152Y-78666666D01*
X63471152Y-78666666D02*
X63233057Y-78666666D01*
X63233057Y-78666666D02*
X63137819Y-78619047D01*
X63137819Y-78619047D02*
X63090200Y-78571428D01*
X63090200Y-78571428D02*
X63042580Y-78476190D01*
X63042580Y-78476190D02*
X63042580Y-78238095D01*
X63042580Y-78238095D02*
X63090200Y-78142857D01*
X63090200Y-78142857D02*
X63137819Y-78095238D01*
X63709247Y-79000000D02*
X63042580Y-79238095D01*
X63042580Y-79238095D02*
X63709247Y-79476190D01*
X64042580Y-80047619D02*
X64042580Y-80238095D01*
X64042580Y-80238095D02*
X63994961Y-80333333D01*
X63994961Y-80333333D02*
X63899723Y-80428571D01*
X63899723Y-80428571D02*
X63709247Y-80476190D01*
X63709247Y-80476190D02*
X63375914Y-80476190D01*
X63375914Y-80476190D02*
X63185438Y-80428571D01*
X63185438Y-80428571D02*
X63090200Y-80333333D01*
X63090200Y-80333333D02*
X63042580Y-80238095D01*
X63042580Y-80238095D02*
X63042580Y-80047619D01*
X63042580Y-80047619D02*
X63090200Y-79952381D01*
X63090200Y-79952381D02*
X63185438Y-79857143D01*
X63185438Y-79857143D02*
X63375914Y-79809524D01*
X63375914Y-79809524D02*
X63709247Y-79809524D01*
X63709247Y-79809524D02*
X63899723Y-79857143D01*
X63899723Y-79857143D02*
X63994961Y-79952381D01*
X63994961Y-79952381D02*
X64042580Y-80047619D01*
X63709247Y-81333333D02*
X63042580Y-81333333D01*
X63709247Y-80904762D02*
X63185438Y-80904762D01*
X63185438Y-80904762D02*
X63090200Y-80952381D01*
X63090200Y-80952381D02*
X63042580Y-81047619D01*
X63042580Y-81047619D02*
X63042580Y-81190476D01*
X63042580Y-81190476D02*
X63090200Y-81285714D01*
X63090200Y-81285714D02*
X63137819Y-81333333D01*
X63709247Y-81666667D02*
X63709247Y-82047619D01*
X64042580Y-81809524D02*
X63185438Y-81809524D01*
X63185438Y-81809524D02*
X63090200Y-81857143D01*
X63090200Y-81857143D02*
X63042580Y-81952381D01*
X63042580Y-81952381D02*
X63042580Y-82047619D01*
X63042580Y-82904762D02*
X63042580Y-82333334D01*
X63042580Y-82619048D02*
X64042580Y-82619048D01*
X64042580Y-82619048D02*
X63899723Y-82523810D01*
X63899723Y-82523810D02*
X63804485Y-82428572D01*
X63804485Y-82428572D02*
X63756866Y-82333334D01*
D10*
X101784819Y-110333333D02*
X102499104Y-110333333D01*
X102499104Y-110333333D02*
X102641961Y-110380952D01*
X102641961Y-110380952D02*
X102737200Y-110476190D01*
X102737200Y-110476190D02*
X102784819Y-110619047D01*
X102784819Y-110619047D02*
X102784819Y-110714285D01*
X101880057Y-109904761D02*
X101832438Y-109857142D01*
X101832438Y-109857142D02*
X101784819Y-109761904D01*
X101784819Y-109761904D02*
X101784819Y-109523809D01*
X101784819Y-109523809D02*
X101832438Y-109428571D01*
X101832438Y-109428571D02*
X101880057Y-109380952D01*
X101880057Y-109380952D02*
X101975295Y-109333333D01*
X101975295Y-109333333D02*
X102070533Y-109333333D01*
X102070533Y-109333333D02*
X102213390Y-109380952D01*
X102213390Y-109380952D02*
X102784819Y-109952380D01*
X102784819Y-109952380D02*
X102784819Y-109333333D01*
X54738095Y-103954819D02*
X54738095Y-102954819D01*
X54738095Y-103431009D02*
X55309523Y-103431009D01*
X55309523Y-103954819D02*
X55309523Y-102954819D01*
X55738095Y-103050057D02*
X55785714Y-103002438D01*
X55785714Y-103002438D02*
X55880952Y-102954819D01*
X55880952Y-102954819D02*
X56119047Y-102954819D01*
X56119047Y-102954819D02*
X56214285Y-103002438D01*
X56214285Y-103002438D02*
X56261904Y-103050057D01*
X56261904Y-103050057D02*
X56309523Y-103145295D01*
X56309523Y-103145295D02*
X56309523Y-103240533D01*
X56309523Y-103240533D02*
X56261904Y-103383390D01*
X56261904Y-103383390D02*
X55690476Y-103954819D01*
X55690476Y-103954819D02*
X56309523Y-103954819D01*
X133738095Y-103954819D02*
X133738095Y-102954819D01*
X133738095Y-103431009D02*
X134309523Y-103431009D01*
X134309523Y-103954819D02*
X134309523Y-102954819D01*
X135214285Y-103288152D02*
X135214285Y-103954819D01*
X134976190Y-102907200D02*
X134738095Y-103621485D01*
X134738095Y-103621485D02*
X135357142Y-103621485D01*
X133738095Y-24954819D02*
X133738095Y-23954819D01*
X133738095Y-24431009D02*
X134309523Y-24431009D01*
X134309523Y-24954819D02*
X134309523Y-23954819D01*
X134690476Y-23954819D02*
X135309523Y-23954819D01*
X135309523Y-23954819D02*
X134976190Y-24335771D01*
X134976190Y-24335771D02*
X135119047Y-24335771D01*
X135119047Y-24335771D02*
X135214285Y-24383390D01*
X135214285Y-24383390D02*
X135261904Y-24431009D01*
X135261904Y-24431009D02*
X135309523Y-24526247D01*
X135309523Y-24526247D02*
X135309523Y-24764342D01*
X135309523Y-24764342D02*
X135261904Y-24859580D01*
X135261904Y-24859580D02*
X135214285Y-24907200D01*
X135214285Y-24907200D02*
X135119047Y-24954819D01*
X135119047Y-24954819D02*
X134833333Y-24954819D01*
X134833333Y-24954819D02*
X134738095Y-24907200D01*
X134738095Y-24907200D02*
X134690476Y-24859580D01*
X84469563Y-31009880D02*
X85184163Y-31009880D01*
X85184163Y-31009880D02*
X85327083Y-31057520D01*
X85327083Y-31057520D02*
X85422364Y-31152800D01*
X85422364Y-31152800D02*
X85470004Y-31295720D01*
X85470004Y-31295720D02*
X85470004Y-31391000D01*
X85470004Y-30009439D02*
X85470004Y-30581119D01*
X85470004Y-30295279D02*
X84469563Y-30295279D01*
X84469563Y-30295279D02*
X84612483Y-30390559D01*
X84612483Y-30390559D02*
X84707763Y-30485839D01*
X84707763Y-30485839D02*
X84755403Y-30581119D01*
D11*
X119042580Y-77642857D02*
X119042580Y-78261904D01*
X119042580Y-78261904D02*
X118661628Y-77928571D01*
X118661628Y-77928571D02*
X118661628Y-78071428D01*
X118661628Y-78071428D02*
X118614009Y-78166666D01*
X118614009Y-78166666D02*
X118566390Y-78214285D01*
X118566390Y-78214285D02*
X118471152Y-78261904D01*
X118471152Y-78261904D02*
X118233057Y-78261904D01*
X118233057Y-78261904D02*
X118137819Y-78214285D01*
X118137819Y-78214285D02*
X118090200Y-78166666D01*
X118090200Y-78166666D02*
X118042580Y-78071428D01*
X118042580Y-78071428D02*
X118042580Y-77785714D01*
X118042580Y-77785714D02*
X118090200Y-77690476D01*
X118090200Y-77690476D02*
X118137819Y-77642857D01*
X117947342Y-78452381D02*
X117947342Y-79214285D01*
X119042580Y-79357143D02*
X119042580Y-79976190D01*
X119042580Y-79976190D02*
X118661628Y-79642857D01*
X118661628Y-79642857D02*
X118661628Y-79785714D01*
X118661628Y-79785714D02*
X118614009Y-79880952D01*
X118614009Y-79880952D02*
X118566390Y-79928571D01*
X118566390Y-79928571D02*
X118471152Y-79976190D01*
X118471152Y-79976190D02*
X118233057Y-79976190D01*
X118233057Y-79976190D02*
X118137819Y-79928571D01*
X118137819Y-79928571D02*
X118090200Y-79880952D01*
X118090200Y-79880952D02*
X118042580Y-79785714D01*
X118042580Y-79785714D02*
X118042580Y-79500000D01*
X118042580Y-79500000D02*
X118090200Y-79404762D01*
X118090200Y-79404762D02*
X118137819Y-79357143D01*
X119042580Y-80261905D02*
X118042580Y-80595238D01*
X118042580Y-80595238D02*
X119042580Y-80928571D01*
X119042580Y-81452381D02*
X119042580Y-81642857D01*
X119042580Y-81642857D02*
X118994961Y-81738095D01*
X118994961Y-81738095D02*
X118899723Y-81833333D01*
X118899723Y-81833333D02*
X118709247Y-81880952D01*
X118709247Y-81880952D02*
X118375914Y-81880952D01*
X118375914Y-81880952D02*
X118185438Y-81833333D01*
X118185438Y-81833333D02*
X118090200Y-81738095D01*
X118090200Y-81738095D02*
X118042580Y-81642857D01*
X118042580Y-81642857D02*
X118042580Y-81452381D01*
X118042580Y-81452381D02*
X118090200Y-81357143D01*
X118090200Y-81357143D02*
X118185438Y-81261905D01*
X118185438Y-81261905D02*
X118375914Y-81214286D01*
X118375914Y-81214286D02*
X118709247Y-81214286D01*
X118709247Y-81214286D02*
X118899723Y-81261905D01*
X118899723Y-81261905D02*
X118994961Y-81357143D01*
X118994961Y-81357143D02*
X119042580Y-81452381D01*
X118709247Y-82738095D02*
X118042580Y-82738095D01*
X118709247Y-82309524D02*
X118185438Y-82309524D01*
X118185438Y-82309524D02*
X118090200Y-82357143D01*
X118090200Y-82357143D02*
X118042580Y-82452381D01*
X118042580Y-82452381D02*
X118042580Y-82595238D01*
X118042580Y-82595238D02*
X118090200Y-82690476D01*
X118090200Y-82690476D02*
X118137819Y-82738095D01*
X118709247Y-83071429D02*
X118709247Y-83452381D01*
X119042580Y-83214286D02*
X118185438Y-83214286D01*
X118185438Y-83214286D02*
X118090200Y-83261905D01*
X118090200Y-83261905D02*
X118042580Y-83357143D01*
X118042580Y-83357143D02*
X118042580Y-83452381D01*
X118042580Y-84309524D02*
X118042580Y-83738096D01*
X118042580Y-84023810D02*
X119042580Y-84023810D01*
X119042580Y-84023810D02*
X118899723Y-83928572D01*
X118899723Y-83928572D02*
X118804485Y-83833334D01*
X118804485Y-83833334D02*
X118756866Y-83738096D01*
D10*
X82324819Y-67166666D02*
X81848628Y-67499999D01*
X82324819Y-67738094D02*
X81324819Y-67738094D01*
X81324819Y-67738094D02*
X81324819Y-67357142D01*
X81324819Y-67357142D02*
X81372438Y-67261904D01*
X81372438Y-67261904D02*
X81420057Y-67214285D01*
X81420057Y-67214285D02*
X81515295Y-67166666D01*
X81515295Y-67166666D02*
X81658152Y-67166666D01*
X81658152Y-67166666D02*
X81753390Y-67214285D01*
X81753390Y-67214285D02*
X81801009Y-67261904D01*
X81801009Y-67261904D02*
X81848628Y-67357142D01*
X81848628Y-67357142D02*
X81848628Y-67738094D01*
X82324819Y-66214285D02*
X82324819Y-66785713D01*
X82324819Y-66499999D02*
X81324819Y-66499999D01*
X81324819Y-66499999D02*
X81467676Y-66595237D01*
X81467676Y-66595237D02*
X81562914Y-66690475D01*
X81562914Y-66690475D02*
X81610533Y-66785713D01*
X54988095Y-25204819D02*
X54988095Y-24204819D01*
X54988095Y-24681009D02*
X55559523Y-24681009D01*
X55559523Y-25204819D02*
X55559523Y-24204819D01*
X56559523Y-25204819D02*
X55988095Y-25204819D01*
X56273809Y-25204819D02*
X56273809Y-24204819D01*
X56273809Y-24204819D02*
X56178571Y-24347676D01*
X56178571Y-24347676D02*
X56083333Y-24442914D01*
X56083333Y-24442914D02*
X55988095Y-24490533D01*
X87124819Y-30333333D02*
X87839104Y-30333333D01*
X87839104Y-30333333D02*
X87981961Y-30380952D01*
X87981961Y-30380952D02*
X88077200Y-30476190D01*
X88077200Y-30476190D02*
X88124819Y-30619047D01*
X88124819Y-30619047D02*
X88124819Y-30714285D01*
X87124819Y-29952380D02*
X87124819Y-29333333D01*
X87124819Y-29333333D02*
X87505771Y-29666666D01*
X87505771Y-29666666D02*
X87505771Y-29523809D01*
X87505771Y-29523809D02*
X87553390Y-29428571D01*
X87553390Y-29428571D02*
X87601009Y-29380952D01*
X87601009Y-29380952D02*
X87696247Y-29333333D01*
X87696247Y-29333333D02*
X87934342Y-29333333D01*
X87934342Y-29333333D02*
X88029580Y-29380952D01*
X88029580Y-29380952D02*
X88077200Y-29428571D01*
X88077200Y-29428571D02*
X88124819Y-29523809D01*
X88124819Y-29523809D02*
X88124819Y-29809523D01*
X88124819Y-29809523D02*
X88077200Y-29904761D01*
X88077200Y-29904761D02*
X88029580Y-29952380D01*
X97892574Y-71386565D02*
X97892574Y-72023986D01*
X97892574Y-72023986D02*
X97930070Y-72098976D01*
X97930070Y-72098976D02*
X97967565Y-72136472D01*
X97967565Y-72136472D02*
X98042556Y-72173967D01*
X98042556Y-72173967D02*
X98192537Y-72173967D01*
X98192537Y-72173967D02*
X98267528Y-72136472D01*
X98267528Y-72136472D02*
X98305023Y-72098976D01*
X98305023Y-72098976D02*
X98342518Y-72023986D01*
X98342518Y-72023986D02*
X98342518Y-71386565D01*
X98679976Y-71461556D02*
X98717471Y-71424060D01*
X98717471Y-71424060D02*
X98792462Y-71386565D01*
X98792462Y-71386565D02*
X98979939Y-71386565D01*
X98979939Y-71386565D02*
X99054929Y-71424060D01*
X99054929Y-71424060D02*
X99092425Y-71461556D01*
X99092425Y-71461556D02*
X99129920Y-71536546D01*
X99129920Y-71536546D02*
X99129920Y-71611537D01*
X99129920Y-71611537D02*
X99092425Y-71724023D01*
X99092425Y-71724023D02*
X98642481Y-72173967D01*
X98642481Y-72173967D02*
X99129920Y-72173967D01*
X96984405Y-76685652D02*
X97222500Y-77352319D01*
X97460595Y-76685652D02*
X97222500Y-77352319D01*
X97222500Y-77352319D02*
X97127262Y-77590414D01*
X97127262Y-77590414D02*
X97079643Y-77638033D01*
X97079643Y-77638033D02*
X96984405Y-77685652D01*
X99302500Y-73542319D02*
X99302500Y-72542319D01*
X99635833Y-72542319D02*
X100207261Y-72542319D01*
X99921547Y-73542319D02*
X99921547Y-72542319D01*
X101064404Y-72589938D02*
X100969166Y-72542319D01*
X100969166Y-72542319D02*
X100826309Y-72542319D01*
X100826309Y-72542319D02*
X100683452Y-72589938D01*
X100683452Y-72589938D02*
X100588214Y-72685176D01*
X100588214Y-72685176D02*
X100540595Y-72780414D01*
X100540595Y-72780414D02*
X100492976Y-72970890D01*
X100492976Y-72970890D02*
X100492976Y-73113747D01*
X100492976Y-73113747D02*
X100540595Y-73304223D01*
X100540595Y-73304223D02*
X100588214Y-73399461D01*
X100588214Y-73399461D02*
X100683452Y-73494700D01*
X100683452Y-73494700D02*
X100826309Y-73542319D01*
X100826309Y-73542319D02*
X100921547Y-73542319D01*
X100921547Y-73542319D02*
X101064404Y-73494700D01*
X101064404Y-73494700D02*
X101112023Y-73447080D01*
X101112023Y-73447080D02*
X101112023Y-73113747D01*
X101112023Y-73113747D02*
X100921547Y-73113747D01*
X102254880Y-72494700D02*
X101397738Y-73780414D01*
X102588214Y-73542319D02*
X102588214Y-72542319D01*
X102588214Y-72542319D02*
X102921547Y-73256604D01*
X102921547Y-73256604D02*
X103254880Y-72542319D01*
X103254880Y-72542319D02*
X103254880Y-73542319D01*
X103731071Y-73542319D02*
X103731071Y-72542319D01*
X103731071Y-72542319D02*
X104112023Y-72542319D01*
X104112023Y-72542319D02*
X104207261Y-72589938D01*
X104207261Y-72589938D02*
X104254880Y-72637557D01*
X104254880Y-72637557D02*
X104302499Y-72732795D01*
X104302499Y-72732795D02*
X104302499Y-72875652D01*
X104302499Y-72875652D02*
X104254880Y-72970890D01*
X104254880Y-72970890D02*
X104207261Y-73018509D01*
X104207261Y-73018509D02*
X104112023Y-73066128D01*
X104112023Y-73066128D02*
X103731071Y-73066128D01*
X104731071Y-72542319D02*
X104731071Y-73351842D01*
X104731071Y-73351842D02*
X104778690Y-73447080D01*
X104778690Y-73447080D02*
X104826309Y-73494700D01*
X104826309Y-73494700D02*
X104921547Y-73542319D01*
X104921547Y-73542319D02*
X105112023Y-73542319D01*
X105112023Y-73542319D02*
X105207261Y-73494700D01*
X105207261Y-73494700D02*
X105254880Y-73447080D01*
X105254880Y-73447080D02*
X105302499Y-73351842D01*
X105302499Y-73351842D02*
X105302499Y-72542319D01*
X100135595Y-81162319D02*
X100659404Y-80495652D01*
X100135595Y-80495652D02*
X100659404Y-81162319D01*
D11*
X107738095Y-45457419D02*
X107738095Y-46266942D01*
X107738095Y-46266942D02*
X107785714Y-46362180D01*
X107785714Y-46362180D02*
X107833333Y-46409800D01*
X107833333Y-46409800D02*
X107928571Y-46457419D01*
X107928571Y-46457419D02*
X108119047Y-46457419D01*
X108119047Y-46457419D02*
X108214285Y-46409800D01*
X108214285Y-46409800D02*
X108261904Y-46362180D01*
X108261904Y-46362180D02*
X108309523Y-46266942D01*
X108309523Y-46266942D02*
X108309523Y-45457419D01*
X109309523Y-46457419D02*
X108738095Y-46457419D01*
X109023809Y-46457419D02*
X109023809Y-45457419D01*
X109023809Y-45457419D02*
X108928571Y-45600276D01*
X108928571Y-45600276D02*
X108833333Y-45695514D01*
X108833333Y-45695514D02*
X108738095Y-45743133D01*
D10*
X82324819Y-86666666D02*
X81848628Y-86999999D01*
X82324819Y-87238094D02*
X81324819Y-87238094D01*
X81324819Y-87238094D02*
X81324819Y-86857142D01*
X81324819Y-86857142D02*
X81372438Y-86761904D01*
X81372438Y-86761904D02*
X81420057Y-86714285D01*
X81420057Y-86714285D02*
X81515295Y-86666666D01*
X81515295Y-86666666D02*
X81658152Y-86666666D01*
X81658152Y-86666666D02*
X81753390Y-86714285D01*
X81753390Y-86714285D02*
X81801009Y-86761904D01*
X81801009Y-86761904D02*
X81848628Y-86857142D01*
X81848628Y-86857142D02*
X81848628Y-87238094D01*
X81420057Y-86285713D02*
X81372438Y-86238094D01*
X81372438Y-86238094D02*
X81324819Y-86142856D01*
X81324819Y-86142856D02*
X81324819Y-85904761D01*
X81324819Y-85904761D02*
X81372438Y-85809523D01*
X81372438Y-85809523D02*
X81420057Y-85761904D01*
X81420057Y-85761904D02*
X81515295Y-85714285D01*
X81515295Y-85714285D02*
X81610533Y-85714285D01*
X81610533Y-85714285D02*
X81753390Y-85761904D01*
X81753390Y-85761904D02*
X82324819Y-86333332D01*
X82324819Y-86333332D02*
X82324819Y-85714285D01*
D12*
%TO.C,J4*%
X56785000Y-45450000D02*
X56045000Y-45450000D01*
X56045000Y-45450000D02*
X56045000Y-45950000D01*
X66206000Y-45690000D02*
X56285000Y-45690000D01*
X66206000Y-45690000D02*
X66206000Y-55810000D01*
X63246000Y-45690000D02*
X63246000Y-55810000D01*
X58345000Y-45690000D02*
X58345000Y-55810000D01*
X56845000Y-45690000D02*
X56845000Y-55810000D01*
X56285000Y-45690000D02*
X56285000Y-55810000D01*
X59922000Y-52023000D02*
X59876000Y-51976000D01*
X59706000Y-52216000D02*
X59671000Y-52181000D01*
X62220000Y-54320000D02*
X62184000Y-54285000D01*
X62014000Y-54525000D02*
X61968000Y-54478000D01*
X66206000Y-55810000D02*
X56285000Y-55810000D01*
X61628999Y-46715001D02*
G75*
G03*
X60261958Y-46714574I-684000J-1534992D01*
G01*
X62479999Y-48933999D02*
G75*
G03*
X62480426Y-47566958I-1534992J684000D01*
G01*
X59410001Y-47566000D02*
G75*
G03*
X59264748Y-48278805I1535000J-683999D01*
G01*
X59265001Y-48250000D02*
G75*
G03*
X59410245Y-48933318I1679999J0D01*
G01*
X60261000Y-49785000D02*
G75*
G03*
X61628042Y-49785426I684000J1535000D01*
G01*
X62625000Y-53250000D02*
G75*
G03*
X62625000Y-53250000I-1680000J0D01*
G01*
D11*
%TO.C,5vOut1*%
X52500000Y-59000000D02*
X73500000Y-59000000D01*
X73500000Y-59000000D02*
X73500000Y-102000000D01*
X73500000Y-102000000D02*
X52500000Y-102000000D01*
X52500000Y-102000000D02*
X52500000Y-59000000D01*
D12*
%TO.C,J2*%
X101330000Y-108670000D02*
X101330000Y-110000000D01*
X100000000Y-108670000D02*
X101330000Y-108670000D01*
X98730000Y-108670000D02*
X88510000Y-108670000D01*
X98730000Y-108670000D02*
X98730000Y-111330000D01*
X88510000Y-108670000D02*
X88510000Y-111330000D01*
X98730000Y-111330000D02*
X88510000Y-111330000D01*
D13*
%TO.C,J1*%
X81850000Y-27750000D02*
X63650000Y-27750000D01*
X63650000Y-27750000D02*
X63650000Y-29722000D01*
X63650000Y-34078000D02*
X63650000Y-36922000D01*
X61340000Y-38040000D02*
X61340000Y-39310000D01*
X61340000Y-39310000D02*
X62610000Y-39310000D01*
X61340000Y-39310000D02*
X60070000Y-39310000D01*
X61340000Y-40580000D02*
X61340000Y-39310000D01*
X81850000Y-43250000D02*
X81850000Y-27750000D01*
X63650000Y-43250000D02*
X63650000Y-41278000D01*
X63650000Y-43250000D02*
X81850000Y-43250000D01*
D11*
%TO.C,3_3VOut1*%
X107500000Y-59500000D02*
X128500000Y-59500000D01*
X128500000Y-59500000D02*
X128500000Y-102500000D01*
X128500000Y-102500000D02*
X107500000Y-102500000D01*
X107500000Y-102500000D02*
X107500000Y-59500000D01*
D12*
%TO.C,R1*%
X79500000Y-62960000D02*
X79500000Y-63730000D01*
X80870000Y-63730000D02*
X78130000Y-63730000D01*
X78130000Y-63730000D02*
X78130000Y-70270000D01*
X80870000Y-70270000D02*
X80870000Y-63730000D01*
X78130000Y-70270000D02*
X80870000Y-70270000D01*
X79500000Y-71040000D02*
X79500000Y-70270000D01*
%TO.C,J3*%
X88670000Y-31330000D02*
X88670000Y-30000000D01*
X90000000Y-31330000D02*
X88670000Y-31330000D01*
X91270000Y-31330000D02*
X101490000Y-31330000D01*
X91270000Y-31330000D02*
X91270000Y-28670000D01*
X101490000Y-31330000D02*
X101490000Y-28670000D01*
X91270000Y-28670000D02*
X101490000Y-28670000D01*
D13*
%TO.C,U2*%
X87062500Y-61022500D02*
X102937500Y-61022500D01*
X87062500Y-81977500D02*
X87062500Y-61022500D01*
X95952500Y-76897500D02*
X95317500Y-77532500D01*
X95952500Y-76897500D02*
X96587500Y-77532500D01*
X95952500Y-80707500D02*
X95952500Y-76897500D01*
X95952500Y-80707500D02*
X99762500Y-80707500D01*
X99762500Y-80707500D02*
X99127500Y-80072500D01*
X99762500Y-80707500D02*
X99127500Y-81342500D01*
X102937500Y-61022500D02*
X102937500Y-81977500D01*
X102937500Y-81977500D02*
X87062500Y-81977500D01*
D11*
%TO.C,U1*%
X87500000Y-35500000D02*
X129500000Y-35500000D01*
X129500000Y-35500000D02*
X129500000Y-57500000D01*
X129500000Y-57500000D02*
X87500000Y-57500000D01*
X87500000Y-57500000D02*
X87500000Y-35500000D01*
D12*
%TO.C,R2*%
X79500000Y-82460000D02*
X79500000Y-83230000D01*
X80870000Y-83230000D02*
X78130000Y-83230000D01*
X78130000Y-83230000D02*
X78130000Y-89770000D01*
X80870000Y-89770000D02*
X80870000Y-83230000D01*
X78130000Y-89770000D02*
X80870000Y-89770000D01*
X79500000Y-90540000D02*
X79500000Y-89770000D01*
%TD*%
D14*
X50000000Y-25000000D02*
X140000000Y-25000000D01*
X140000000Y-115000000D01*
X50000000Y-115000000D01*
X50000000Y-25000000D01*
M02*
