%TF.GenerationSoftware,KiCad,Pcbnew,7.0.7*%
%TF.CreationDate,2023-11-09T15:51:25-05:00*%
%TF.ProjectId,CubeSatPower,43756265-5361-4745-906f-7765722e6b69,rev?*%
%TF.SameCoordinates,Original*%
%TF.FileFunction,Copper,L1,Top*%
%TF.FilePolarity,Positive*%
%FSLAX46Y46*%
G04 Gerber Fmt 4.6, Leading zero omitted, Abs format (unit mm)*
G04 Created by KiCad (PCBNEW 7.0.7) date 2023-11-09 15:51:25*
%MOMM*%
%LPD*%
G01*
G04 APERTURE LIST*
%TA.AperFunction,NonConductor*%
%ADD10C,0.500000*%
%TD*%
%TA.AperFunction,ComponentPad*%
%ADD11R,3.000000X3.000000*%
%TD*%
%TA.AperFunction,ComponentPad*%
%ADD12C,3.000000*%
%TD*%
%TA.AperFunction,ComponentPad*%
%ADD13C,2.000000*%
%TD*%
%TA.AperFunction,ComponentPad*%
%ADD14O,2.000000X2.000000*%
%TD*%
%TA.AperFunction,ComponentPad*%
%ADD15R,2.000000X2.000000*%
%TD*%
%TA.AperFunction,ComponentPad*%
%ADD16R,3.716000X3.716000*%
%TD*%
%TA.AperFunction,ComponentPad*%
%ADD17C,4.200000*%
%TD*%
%TA.AperFunction,ComponentPad*%
%ADD18O,2.400000X1.200000*%
%TD*%
%TA.AperFunction,ComponentPad*%
%ADD19O,3.556000X1.778000*%
%TD*%
%TA.AperFunction,ComponentPad*%
%ADD20C,1.750000*%
%TD*%
%TA.AperFunction,ComponentPad*%
%ADD21C,1.700000*%
%TD*%
%TA.AperFunction,Conductor*%
%ADD22C,0.250000*%
%TD*%
%TA.AperFunction,Conductor*%
%ADD23C,0.800000*%
%TD*%
%TA.AperFunction,Profile*%
%ADD24C,0.500000*%
%TD*%
G04 APERTURE END LIST*
D10*
X50000000Y-25000000D02*
X50000000Y-115000000D01*
X140000000Y-25000000D02*
X140000000Y-115000000D01*
X50000000Y-25000000D02*
X140000000Y-25000000D01*
X50000000Y-115000000D02*
X140000000Y-115000000D01*
D11*
%TO.P,J4,1,Pin_1*%
%TO.N,SW_IN*%
X60945000Y-48250000D03*
D12*
%TO.P,J4,2,Pin_2*%
%TO.N,+7.5V*%
X60945000Y-53250000D03*
%TD*%
D13*
%TO.P,5vOut1,1,In+*%
%TO.N,+7.5V*%
X72500000Y-60000000D03*
%TO.P,5vOut1,2,In-*%
%TO.N,GND*%
X53500000Y-60000000D03*
%TO.P,5vOut1,3,Out+*%
%TO.N,+5V*%
X72500000Y-101000000D03*
%TO.P,5vOut1,4,Out-*%
%TO.N,GND*%
X53500000Y-101000000D03*
%TD*%
D14*
%TO.P,J2,2,Pin_2*%
%TO.N,+5V*%
X97460000Y-110000000D03*
%TO.P,J2,3,Pin_3*%
%TO.N,GND*%
X94920000Y-110000000D03*
%TO.P,J2,4,Pin_4*%
%TO.N,SDA*%
X92380000Y-110000000D03*
%TO.P,J2,5,Pin_5*%
%TO.N,SCL*%
X89840000Y-110000000D03*
D15*
%TO.P,J2,E,Pin_1*%
%TO.N,+3.3V*%
X100000000Y-110000000D03*
%TD*%
D16*
%TO.P,J1,1,+*%
%TO.N,GND*%
X65500000Y-39100000D03*
D17*
%TO.P,J1,2,-*%
%TO.N,SW_IN*%
X65500000Y-31900000D03*
D18*
%TO.P,J1,S1*%
%TO.N,N/C*%
X71500000Y-42250000D03*
%TO.P,J1,S2*%
X71500000Y-28750000D03*
%TD*%
D13*
%TO.P,3_3VOut1,1,In+*%
%TO.N,+5V*%
X127500000Y-60500000D03*
%TO.P,3_3VOut1,2,In-*%
%TO.N,GND*%
X108500000Y-60500000D03*
%TO.P,3_3VOut1,3,Out+*%
%TO.N,+3.3V*%
X127500000Y-101500000D03*
%TO.P,3_3VOut1,4,Out-*%
%TO.N,GND*%
X108500000Y-101500000D03*
%TD*%
%TO.P,R1,1*%
%TO.N,+7.5V*%
X79500000Y-61920000D03*
D14*
%TO.P,R1,2*%
%TO.N,A_1*%
X79500000Y-72080000D03*
%TD*%
D15*
%TO.P,J3,1,Pin_1*%
%TO.N,A_1*%
X90000000Y-30000000D03*
D14*
%TO.P,J3,2,Pin_2*%
%TO.N,MISO*%
X92540000Y-30000000D03*
%TO.P,J3,3,Pin_3*%
%TO.N,MOSI*%
X95080000Y-30000000D03*
%TO.P,J3,4,Pin_4*%
%TO.N,SCLK*%
X97620000Y-30000000D03*
%TO.P,J3,5,Pin_5*%
%TO.N,CS*%
X100160000Y-30000000D03*
%TD*%
D19*
%TO.P,U2,ADO,ADO*%
%TO.N,unconnected-(U2-PadADO)*%
X89602500Y-78167500D03*
%TO.P,U2,GND,GND*%
%TO.N,GND*%
X89602500Y-65467500D03*
%TO.P,U2,INT,INT*%
%TO.N,unconnected-(U2-PadINT)*%
X89602500Y-80707500D03*
%TO.P,U2,SCL,SCL*%
%TO.N,SCL*%
X89602500Y-68007500D03*
%TO.P,U2,SDA,SDA*%
%TO.N,SDA*%
X89602500Y-70547500D03*
%TO.P,U2,VCC,VCC*%
%TO.N,+3.3V*%
X89602500Y-62927500D03*
%TO.P,U2,XCL,XCL*%
%TO.N,unconnected-(U2-PadXCL)*%
X89602500Y-75627500D03*
%TO.P,U2,XDA,XDA*%
%TO.N,unconnected-(U2-PadXDA)*%
X89602500Y-73087500D03*
%TD*%
D20*
%TO.P,U1,1,CS*%
%TO.N,CS*%
X126500000Y-40500000D03*
%TO.P,U1,2,SCK*%
%TO.N,SCLK*%
X126500000Y-42500000D03*
%TO.P,U1,3,MOSI*%
%TO.N,MOSI*%
X126500000Y-44500000D03*
%TO.P,U1,4,MISO*%
%TO.N,MISO*%
X126500000Y-46500000D03*
%TO.P,U1,5,Vin*%
%TO.N,+5V*%
X126500000Y-48500000D03*
D21*
%TO.P,U1,6,GND*%
%TO.N,GND*%
X126500000Y-50500000D03*
%TD*%
D13*
%TO.P,R2,1*%
%TO.N,A_1*%
X79500000Y-81420000D03*
D14*
%TO.P,R2,2*%
%TO.N,GND*%
X79500000Y-91580000D03*
%TD*%
D22*
%TO.N,SDA*%
X89602500Y-70547500D02*
X90491500Y-70547500D01*
%TO.N,SCL*%
X88713500Y-68007500D02*
X89602500Y-68007500D01*
%TO.N,MISO*%
X92540000Y-30000000D02*
X92540000Y-30040000D01*
%TO.N,MOSI*%
X95080000Y-30000000D02*
X95080000Y-30580000D01*
D23*
%TO.N,SW_IN*%
X60945000Y-48250000D02*
X61000000Y-48195000D01*
%TD*%
D24*
X50000000Y-25000000D02*
X140000000Y-25000000D01*
X140000000Y-115000000D01*
X50000000Y-115000000D01*
X50000000Y-25000000D01*
M02*
