%TF.GenerationSoftware,KiCad,Pcbnew,7.0.7*%
%TF.CreationDate,2023-11-10T08:01:12-05:00*%
%TF.ProjectId,CubeSat,43756265-5361-4742-9e6b-696361645f70,rev?*%
%TF.SameCoordinates,Original*%
%TF.FileFunction,Copper,L1,Top*%
%TF.FilePolarity,Positive*%
%FSLAX46Y46*%
G04 Gerber Fmt 4.6, Leading zero omitted, Abs format (unit mm)*
G04 Created by KiCad (PCBNEW 7.0.7) date 2023-11-10 08:01:12*
%MOMM*%
%LPD*%
G01*
G04 APERTURE LIST*
%TA.AperFunction,NonConductor*%
%ADD10C,0.500000*%
%TD*%
%ADD11C,0.250000*%
%TA.AperFunction,NonConductor*%
%ADD12C,0.250000*%
%TD*%
%TA.AperFunction,ComponentPad*%
%ADD13O,2.000000X2.000000*%
%TD*%
%TA.AperFunction,ComponentPad*%
%ADD14C,1.600000*%
%TD*%
%TA.AperFunction,ComponentPad*%
%ADD15O,1.600000X1.600000*%
%TD*%
%TA.AperFunction,ComponentPad*%
%ADD16R,2.000000X2.000000*%
%TD*%
%TA.AperFunction,ComponentPad*%
%ADD17C,2.000000*%
%TD*%
%TA.AperFunction,ComponentPad*%
%ADD18C,1.800000*%
%TD*%
%TA.AperFunction,ComponentPad*%
%ADD19R,1.900000X1.900000*%
%TD*%
%TA.AperFunction,ComponentPad*%
%ADD20R,1.800000X1.800000*%
%TD*%
%TA.AperFunction,ComponentPad*%
%ADD21C,1.900000*%
%TD*%
%TA.AperFunction,ComponentPad*%
%ADD22R,1.530000X1.530000*%
%TD*%
%TA.AperFunction,ComponentPad*%
%ADD23R,1.700000X1.700000*%
%TD*%
%TA.AperFunction,ViaPad*%
%ADD24C,2.000000*%
%TD*%
%TA.AperFunction,Conductor*%
%ADD25C,0.500000*%
%TD*%
%TA.AperFunction,Conductor*%
%ADD26C,0.250000*%
%TD*%
%TA.AperFunction,Profile*%
%ADD27C,0.100000*%
%TD*%
G04 APERTURE END LIST*
D10*
X50000000Y-25000000D02*
X140000000Y-25000000D01*
X140000000Y-115000000D01*
X50000000Y-115000000D01*
X50000000Y-25000000D01*
D11*
D12*
X67021615Y-34497476D02*
X65116853Y-34497476D01*
X65116853Y-34497476D02*
X65116853Y-30497476D01*
X69116853Y-30497476D02*
X69878758Y-30497476D01*
X69878758Y-30497476D02*
X70259710Y-30687952D01*
X70259710Y-30687952D02*
X70640663Y-31068904D01*
X70640663Y-31068904D02*
X70831139Y-31830809D01*
X70831139Y-31830809D02*
X70831139Y-33164142D01*
X70831139Y-33164142D02*
X70640663Y-33926047D01*
X70640663Y-33926047D02*
X70259710Y-34307000D01*
X70259710Y-34307000D02*
X69878758Y-34497476D01*
X69878758Y-34497476D02*
X69116853Y-34497476D01*
X69116853Y-34497476D02*
X68735901Y-34307000D01*
X68735901Y-34307000D02*
X68354948Y-33926047D01*
X68354948Y-33926047D02*
X68164472Y-33164142D01*
X68164472Y-33164142D02*
X68164472Y-31830809D01*
X68164472Y-31830809D02*
X68354948Y-31068904D01*
X68354948Y-31068904D02*
X68735901Y-30687952D01*
X68735901Y-30687952D02*
X69116853Y-30497476D01*
X74640663Y-30687952D02*
X74259710Y-30497476D01*
X74259710Y-30497476D02*
X73688282Y-30497476D01*
X73688282Y-30497476D02*
X73116853Y-30687952D01*
X73116853Y-30687952D02*
X72735901Y-31068904D01*
X72735901Y-31068904D02*
X72545424Y-31449857D01*
X72545424Y-31449857D02*
X72354948Y-32211761D01*
X72354948Y-32211761D02*
X72354948Y-32783190D01*
X72354948Y-32783190D02*
X72545424Y-33545095D01*
X72545424Y-33545095D02*
X72735901Y-33926047D01*
X72735901Y-33926047D02*
X73116853Y-34307000D01*
X73116853Y-34307000D02*
X73688282Y-34497476D01*
X73688282Y-34497476D02*
X74069234Y-34497476D01*
X74069234Y-34497476D02*
X74640663Y-34307000D01*
X74640663Y-34307000D02*
X74831139Y-34116523D01*
X74831139Y-34116523D02*
X74831139Y-32783190D01*
X74831139Y-32783190D02*
X74069234Y-32783190D01*
X76545424Y-34497476D02*
X76545424Y-30497476D01*
X80735901Y-34116523D02*
X80545425Y-34307000D01*
X80545425Y-34307000D02*
X79973996Y-34497476D01*
X79973996Y-34497476D02*
X79593044Y-34497476D01*
X79593044Y-34497476D02*
X79021615Y-34307000D01*
X79021615Y-34307000D02*
X78640663Y-33926047D01*
X78640663Y-33926047D02*
X78450186Y-33545095D01*
X78450186Y-33545095D02*
X78259710Y-32783190D01*
X78259710Y-32783190D02*
X78259710Y-32211761D01*
X78259710Y-32211761D02*
X78450186Y-31449857D01*
X78450186Y-31449857D02*
X78640663Y-31068904D01*
X78640663Y-31068904D02*
X79021615Y-30687952D01*
X79021615Y-30687952D02*
X79593044Y-30497476D01*
X79593044Y-30497476D02*
X79973996Y-30497476D01*
X79973996Y-30497476D02*
X80545425Y-30687952D01*
X80545425Y-30687952D02*
X80735901Y-30878428D01*
D13*
%TO.P,RLED1,1*%
%TO.N,D_Motor*%
X73000000Y-86000000D03*
%TO.P,RLED1,2*%
%TO.N,Net-(D1-A)*%
X62840000Y-86000000D03*
%TD*%
D14*
%TO.P,RNPN1,1*%
%TO.N,D_Motor*%
X93500000Y-74420000D03*
D15*
%TO.P,RNPN1,2*%
%TO.N,Net-(Q1-Pad2)*%
X93500000Y-84580000D03*
%TD*%
D16*
%TO.P,Q1,1*%
%TO.N,GND*%
X90920000Y-94500000D03*
D17*
%TO.P,Q1,2*%
%TO.N,Net-(Q1-Pad2)*%
X93460000Y-94500000D03*
%TO.P,Q1,3*%
%TO.N,Net-(Servo1-Pin_2)*%
X96000000Y-94500000D03*
%TD*%
D18*
%TO.P,U1,1,GND*%
%TO.N,GND*%
X75540000Y-111140000D03*
%TO.P,U1,2,DQ*%
%TO.N,+3.3V*%
X73000000Y-111140000D03*
%TO.P,U1,3,V_{DD}*%
%TO.N,D1*%
X70460000Y-111140000D03*
%TD*%
D19*
%TO.P,J2,1,Pin_1*%
%TO.N,+3.3V*%
X100000000Y-110000000D03*
D13*
%TO.P,J2,2,Pin_2*%
%TO.N,+5V*%
X97460000Y-110000000D03*
%TO.P,J2,3,Pin_3*%
%TO.N,GND*%
X94920000Y-110000000D03*
%TO.P,J2,4,Pin_4*%
%TO.N,SDA*%
X92380000Y-110000000D03*
%TO.P,J2,5,Pin_5*%
%TO.N,SCL*%
X89840000Y-110000000D03*
%TD*%
D19*
%TO.P,AUX_V1,1,Pin_1*%
%TO.N,GND*%
X110800000Y-111000000D03*
D13*
%TO.P,AUX_V1,2,Pin_2*%
X113340000Y-111000000D03*
%TO.P,AUX_V1,3,Pin_3*%
%TO.N,+5V*%
X115880000Y-111000000D03*
%TO.P,AUX_V1,4,Pin_4*%
X118420000Y-111000000D03*
%TO.P,AUX_V1,5,Pin_5*%
%TO.N,+3.3V*%
X120960000Y-111000000D03*
%TO.P,AUX_V1,6,Pin_6*%
X123500000Y-111000000D03*
%TD*%
D20*
%TO.P,D3,1,K*%
%TO.N,GND*%
X54250000Y-77500000D03*
D17*
%TO.P,D3,2,A*%
%TO.N,Net-(D3-A)*%
X56790000Y-77500000D03*
%TD*%
D20*
%TO.P,D2,1,K*%
%TO.N,GND*%
X54225000Y-71500000D03*
D17*
%TO.P,D2,2,A*%
%TO.N,Net-(D2-A)*%
X56765000Y-71500000D03*
%TD*%
D13*
%TO.P,RLED2,1*%
%TO.N,STATE1*%
X73000000Y-71500000D03*
%TO.P,RLED2,2*%
%TO.N,Net-(D2-A)*%
X62840000Y-71500000D03*
%TD*%
D21*
%TO.P,U3,1,SDA*%
%TO.N,SDA*%
X75358000Y-56020000D03*
%TO.P,U3,2,SCL*%
%TO.N,SCL*%
X75358000Y-58560000D03*
%TO.P,U3,3,GND*%
%TO.N,GND*%
X75358000Y-61100000D03*
%TO.P,U3,4,Vin*%
%TO.N,+3.3V*%
X75358000Y-63640000D03*
%TD*%
D13*
%TO.P,RLED3,1*%
%TO.N,STATE2*%
X73080000Y-77500000D03*
%TO.P,RLED3,2*%
%TO.N,Net-(D3-A)*%
X62920000Y-77500000D03*
%TD*%
D21*
%TO.P,HMC5883L1,1,Vin*%
%TO.N,+3.3V*%
X75219000Y-39667460D03*
%TO.P,HMC5883L1,2,GND*%
%TO.N,GND*%
X75219000Y-42207460D03*
%TO.P,HMC5883L1,3,SCL*%
%TO.N,SCL*%
X75219000Y-44747460D03*
%TO.P,HMC5883L1,4,SDA*%
%TO.N,SDA*%
X75219000Y-47287460D03*
%TO.P,HMC5883L1,5,DRDY*%
%TO.N,unconnected-(HMC5883L1-DRDY-Pad5)*%
X75219000Y-49827460D03*
%TD*%
D19*
%TO.P,Servo1,1,Pin_1*%
%TO.N,PWM1*%
X85000000Y-84460000D03*
D13*
%TO.P,Servo1,2,Pin_2*%
%TO.N,Net-(Servo1-Pin_2)*%
X85000000Y-87000000D03*
%TO.P,Servo1,3,Pin_3*%
%TO.N,+5V*%
X85000000Y-89540000D03*
%TD*%
D22*
%TO.P,U2,1,EN*%
%TO.N,unconnected-(U2-EN-Pad1)*%
X100605000Y-62930000D03*
D17*
%TO.P,U2,2,VP*%
%TO.N,unconnected-(U2-VP-Pad2)*%
X103145000Y-62930000D03*
%TO.P,U2,3,VN*%
%TO.N,unconnected-(U2-VN-Pad3)*%
X105685000Y-62930000D03*
%TO.P,U2,4,D34*%
%TO.N,STATE1*%
X108225000Y-62930000D03*
%TO.P,U2,5,D35*%
%TO.N,STATE2*%
X110765000Y-62930000D03*
%TO.P,U2,6,D32*%
%TO.N,unconnected-(U2-D32-Pad6)*%
X113305000Y-62930000D03*
%TO.P,U2,7,D33*%
%TO.N,unconnected-(U2-D33-Pad7)*%
X115845000Y-62930000D03*
%TO.P,U2,8,D25*%
%TO.N,A1*%
X118385000Y-62930000D03*
%TO.P,U2,9,D26*%
%TO.N,D_Motor*%
X120925000Y-62930000D03*
%TO.P,U2,10,D27*%
%TO.N,PWM1*%
X123465000Y-62930000D03*
%TO.P,U2,11,D14*%
%TO.N,D1*%
X126005000Y-62930000D03*
%TO.P,U2,12,D12*%
%TO.N,unconnected-(U2-D12-Pad12)*%
X128545000Y-62930000D03*
%TO.P,U2,13,D13*%
%TO.N,unconnected-(U2-D13-Pad13)*%
X131085000Y-62930000D03*
%TO.P,U2,14,GND*%
%TO.N,GND*%
X133625000Y-62930000D03*
%TO.P,U2,15,VIN*%
%TO.N,unconnected-(U2-VIN-Pad15)*%
X136165000Y-62930000D03*
%TO.P,U2,16,3V3*%
%TO.N,+3.3V*%
X136165000Y-40070000D03*
%TO.P,U2,17,GND*%
%TO.N,unconnected-(U2-GND-Pad17)*%
X133625000Y-40070000D03*
%TO.P,U2,18,D15*%
%TO.N,unconnected-(U2-D15-Pad18)*%
X131085000Y-40070000D03*
%TO.P,U2,19,D2*%
%TO.N,CS*%
X128545000Y-40070000D03*
%TO.P,U2,20,D4*%
%TO.N,GPIO4*%
X126005000Y-40070000D03*
%TO.P,U2,21,RX2*%
%TO.N,GPIO16*%
X123465000Y-40070000D03*
%TO.P,U2,22,TX2*%
%TO.N,GPIO17*%
X120925000Y-40070000D03*
%TO.P,U2,23,D5*%
%TO.N,GPIO5*%
X118385000Y-40070000D03*
%TO.P,U2,24,D18*%
%TO.N,SCLK*%
X115845000Y-40070000D03*
%TO.P,U2,25,D19*%
%TO.N,MISO*%
X113305000Y-40070000D03*
%TO.P,U2,26,D21*%
%TO.N,SDA*%
X110765000Y-40070000D03*
%TO.P,U2,27,RX0*%
%TO.N,RX*%
X108225000Y-40070000D03*
%TO.P,U2,28,TX0*%
%TO.N,TX*%
X105685000Y-40070000D03*
%TO.P,U2,29,D22*%
%TO.N,SCL*%
X103145000Y-40070000D03*
%TO.P,U2,30,D23*%
%TO.N,MOSI*%
X100605000Y-40070000D03*
%TD*%
D23*
%TO.P,J1,1,Pin_1*%
%TO.N,A1*%
X90000000Y-30000000D03*
D13*
%TO.P,J1,2,Pin_2*%
%TO.N,MOSI*%
X92540000Y-30000000D03*
%TO.P,J1,3,Pin_3*%
%TO.N,MISO*%
X95080000Y-30000000D03*
%TO.P,J1,4,Pin_4*%
%TO.N,SCLK*%
X97620000Y-30000000D03*
%TO.P,J1,5,Pin_5*%
%TO.N,CS*%
X100160000Y-30000000D03*
%TD*%
D23*
%TO.P,J3,1,Pin_1*%
%TO.N,SCL*%
X110590000Y-30000000D03*
D13*
%TO.P,J3,2,Pin_2*%
%TO.N,SDA*%
X113130000Y-30000000D03*
%TO.P,J3,3,Pin_3*%
%TO.N,GPIO5*%
X115670000Y-30000000D03*
%TO.P,J3,4,Pin_4*%
%TO.N,GPIO17*%
X118210000Y-30000000D03*
%TO.P,J3,5,Pin_5*%
%TO.N,GPIO16*%
X120750000Y-30000000D03*
%TO.P,J3,6,Pin_6*%
%TO.N,GPIO4*%
X123290000Y-30000000D03*
%TD*%
D21*
%TO.P,GPS_NEO6MV2,1,Vin*%
%TO.N,+3.3V*%
X102856000Y-91048000D03*
%TO.P,GPS_NEO6MV2,2,RX*%
%TO.N,RX*%
X102856000Y-88508000D03*
%TO.P,GPS_NEO6MV2,3,TX*%
%TO.N,TX*%
X102856000Y-85968000D03*
%TO.P,GPS_NEO6MV2,4,GND*%
%TO.N,GND*%
X102856000Y-83428000D03*
%TD*%
D20*
%TO.P,D1,1,K*%
%TO.N,GND*%
X54210000Y-86000000D03*
D17*
%TO.P,D1,2,A*%
%TO.N,Net-(D1-A)*%
X56750000Y-86000000D03*
%TD*%
D24*
%TO.N,GND*%
X85750000Y-52000000D03*
X64500000Y-96000000D03*
X131000000Y-79000000D03*
%TO.N,RX*%
X108225000Y-50225000D03*
%TO.N,TX*%
X105500000Y-50000000D03*
%TD*%
D25*
%TO.N,+5V*%
X85000000Y-95500000D02*
X97460000Y-107960000D01*
X115880000Y-109380000D02*
X115880000Y-111000000D01*
X98420000Y-107000000D02*
X113500000Y-107000000D01*
X85000000Y-89540000D02*
X85000000Y-95500000D01*
X113500000Y-107000000D02*
X115880000Y-109380000D01*
X97460000Y-107960000D02*
X98420000Y-107000000D01*
X97460000Y-107960000D02*
X97460000Y-110000000D01*
%TO.N,+3.3V*%
X75219000Y-39667460D02*
X75136460Y-39750000D01*
%TO.N,SDA*%
X81500000Y-58750000D02*
X78770000Y-56020000D01*
X81500000Y-96500000D02*
X81500000Y-58750000D01*
X92380000Y-107380000D02*
X81500000Y-96500000D01*
X78770000Y-56020000D02*
X75358000Y-56020000D01*
X75256460Y-47250000D02*
X105750000Y-47250000D01*
X92380000Y-110000000D02*
X92380000Y-107380000D01*
X105750000Y-47250000D02*
X110765000Y-42235000D01*
X110765000Y-42235000D02*
X110765000Y-40070000D01*
X110765000Y-36735000D02*
X113130000Y-34370000D01*
X113130000Y-34370000D02*
X113130000Y-30000000D01*
X110765000Y-40070000D02*
X110765000Y-36735000D01*
%TO.N,SCL*%
X103145000Y-40070000D02*
X103145000Y-37605000D01*
X89840000Y-107340000D02*
X79250000Y-96750000D01*
X110590000Y-32660000D02*
X110590000Y-30000000D01*
X78560000Y-58560000D02*
X75358000Y-58560000D01*
X103145000Y-42105000D02*
X103145000Y-40070000D01*
X75219000Y-44747460D02*
X87747460Y-44747460D01*
X103145000Y-37605000D02*
X105250000Y-35500000D01*
X79250000Y-96750000D02*
X79250000Y-59250000D01*
X105250000Y-35500000D02*
X107750000Y-35500000D01*
X100500000Y-44750000D02*
X103145000Y-42105000D01*
X87750000Y-44750000D02*
X100500000Y-44750000D01*
X79250000Y-59250000D02*
X78560000Y-58560000D01*
X107750000Y-35500000D02*
X110590000Y-32660000D01*
X89840000Y-110000000D02*
X89840000Y-107340000D01*
%TO.N,PWM1*%
X111750000Y-78000000D02*
X112000000Y-78000000D01*
%TO.N,RX*%
X96250000Y-69000000D02*
X109500000Y-82250000D01*
X109500000Y-86250000D02*
X107242000Y-88508000D01*
X109500000Y-82250000D02*
X109500000Y-86250000D01*
X96250000Y-62250000D02*
X96250000Y-69000000D01*
X107242000Y-88508000D02*
X102856000Y-88508000D01*
X98000000Y-60500000D02*
X96250000Y-62250000D01*
X108225000Y-50225000D02*
X98000000Y-60450000D01*
%TO.N,TX*%
X105500000Y-50000000D02*
X90250000Y-65250000D01*
X90250000Y-76000000D02*
X100218000Y-85968000D01*
X105500000Y-50000000D02*
X105685000Y-49815000D01*
X90250000Y-65250000D02*
X90250000Y-76000000D01*
X100218000Y-85968000D02*
X102856000Y-85968000D01*
D26*
%TO.N,D_Motor*%
X120925000Y-63075000D02*
X120925000Y-62930000D01*
D25*
X93500000Y-74420000D02*
X93580000Y-74500000D01*
D26*
%TO.N,Net-(Q1-Pad2)*%
X93460000Y-84620000D02*
X93500000Y-84580000D01*
%TO.N,STATE2*%
X110070000Y-62930000D02*
X110765000Y-62930000D01*
D25*
%TO.N,SCLK*%
X97580000Y-30000000D02*
X97620000Y-30000000D01*
X97540000Y-30040000D02*
X97580000Y-30000000D01*
D26*
%TO.N,GPIO4*%
X126005000Y-40070000D02*
X126005000Y-39505000D01*
X126000000Y-40065000D02*
X126005000Y-40070000D01*
%TO.N,GPIO17*%
X118250000Y-30040000D02*
X118210000Y-30000000D01*
X120920000Y-40065000D02*
X120925000Y-40070000D01*
D25*
%TO.N,Net-(Servo1-Pin_2)*%
X85000000Y-87000000D02*
X91000000Y-87000000D01*
X96000000Y-92000000D02*
X96000000Y-94500000D01*
X91000000Y-87000000D02*
X96000000Y-92000000D01*
%TD*%
%TA.AperFunction,Conductor*%
%TO.N,GND*%
G36*
X112793692Y-110769685D02*
G01*
X112839447Y-110822489D01*
X112849391Y-110891647D01*
X112845631Y-110908933D01*
X112840000Y-110928111D01*
X112840000Y-111071888D01*
X112845631Y-111091067D01*
X112845630Y-111160936D01*
X112807855Y-111219714D01*
X112744299Y-111248738D01*
X112726653Y-111250000D01*
X111413347Y-111250000D01*
X111346308Y-111230315D01*
X111300553Y-111177511D01*
X111290609Y-111108353D01*
X111294369Y-111091067D01*
X111300000Y-111071888D01*
X111300000Y-110928111D01*
X111294369Y-110908933D01*
X111294370Y-110839064D01*
X111332145Y-110780286D01*
X111395701Y-110751262D01*
X111413347Y-110750000D01*
X112726653Y-110750000D01*
X112793692Y-110769685D01*
G37*
%TD.AperFunction*%
%TA.AperFunction,Conductor*%
G36*
X105181512Y-51474902D02*
G01*
X105263289Y-51494535D01*
X105500000Y-51513165D01*
X105560181Y-51508428D01*
X105628557Y-51522792D01*
X105678314Y-51571843D01*
X105693653Y-51640008D01*
X105669705Y-51705645D01*
X105657590Y-51719727D01*
X97432417Y-59944901D01*
X97350032Y-60049094D01*
X97334638Y-60082106D01*
X97309939Y-60117378D01*
X95759122Y-61668195D01*
X95745495Y-61679973D01*
X95725941Y-61694531D01*
X95691977Y-61735006D01*
X95688330Y-61738987D01*
X95682418Y-61744900D01*
X95661863Y-61770896D01*
X95611967Y-61830360D01*
X95608001Y-61836391D01*
X95607963Y-61836366D01*
X95603782Y-61842928D01*
X95603821Y-61842952D01*
X95600032Y-61849094D01*
X95567220Y-61919459D01*
X95532391Y-61988810D01*
X95529923Y-61995593D01*
X95529878Y-61995576D01*
X95527322Y-62002932D01*
X95527366Y-62002947D01*
X95525096Y-62009795D01*
X95522570Y-62022031D01*
X95509392Y-62085850D01*
X95502398Y-62115361D01*
X95491498Y-62161351D01*
X95490661Y-62168519D01*
X95490613Y-62168513D01*
X95489823Y-62176244D01*
X95489870Y-62176249D01*
X95489240Y-62183438D01*
X95491500Y-62261079D01*
X95491500Y-68935706D01*
X95490191Y-68953676D01*
X95486658Y-68977791D01*
X95491264Y-69030420D01*
X95491500Y-69035827D01*
X95491500Y-69044178D01*
X95495347Y-69077096D01*
X95502112Y-69154427D01*
X95503572Y-69161494D01*
X95503526Y-69161503D01*
X95505209Y-69169094D01*
X95505254Y-69169084D01*
X95506919Y-69176110D01*
X95533473Y-69249065D01*
X95557886Y-69322737D01*
X95560940Y-69329286D01*
X95560896Y-69329306D01*
X95564284Y-69336304D01*
X95564327Y-69336283D01*
X95567563Y-69342728D01*
X95567565Y-69342732D01*
X95610233Y-69407605D01*
X95650970Y-69473651D01*
X95650972Y-69473653D01*
X95655451Y-69479318D01*
X95655413Y-69479347D01*
X95660320Y-69485372D01*
X95660357Y-69485342D01*
X95665002Y-69490878D01*
X95721482Y-69544163D01*
X108705181Y-82527862D01*
X108738666Y-82589185D01*
X108741500Y-82615543D01*
X108741500Y-85884457D01*
X108721815Y-85951496D01*
X108705181Y-85972138D01*
X106964138Y-87713181D01*
X106902815Y-87746666D01*
X106876457Y-87749500D01*
X104169740Y-87749500D01*
X104102701Y-87729815D01*
X104065932Y-87693323D01*
X104053400Y-87674142D01*
X104010906Y-87609100D01*
X103847201Y-87431269D01*
X103724610Y-87335852D01*
X103683798Y-87279143D01*
X103680123Y-87209370D01*
X103714754Y-87148687D01*
X103724605Y-87140150D01*
X103847201Y-87044731D01*
X104010906Y-86866900D01*
X104143109Y-86664549D01*
X104240203Y-86443197D01*
X104299539Y-86208884D01*
X104319499Y-85968000D01*
X104299539Y-85727116D01*
X104240203Y-85492803D01*
X104143109Y-85271451D01*
X104120434Y-85236745D01*
X104010907Y-85069102D01*
X104010906Y-85069100D01*
X103847201Y-84891269D01*
X103847196Y-84891265D01*
X103847194Y-84891263D01*
X103717689Y-84790465D01*
X103676876Y-84733755D01*
X103673201Y-84663982D01*
X103689184Y-84635975D01*
X103690425Y-84615979D01*
X103025276Y-83950829D01*
X102991791Y-83889506D01*
X102996775Y-83819814D01*
X103038647Y-83763881D01*
X103053933Y-83754097D01*
X103093251Y-83732820D01*
X103179371Y-83639269D01*
X103180083Y-83637643D01*
X103181652Y-83635777D01*
X103184992Y-83630666D01*
X103185609Y-83631069D01*
X103225036Y-83584158D01*
X103291770Y-83563464D01*
X103359099Y-83582135D01*
X103381322Y-83599769D01*
X104043310Y-84261757D01*
X104135606Y-84120490D01*
X104232134Y-83900428D01*
X104291125Y-83667476D01*
X104310969Y-83428005D01*
X104310969Y-83427994D01*
X104291125Y-83188523D01*
X104232134Y-82955571D01*
X104135608Y-82735514D01*
X104043310Y-82594241D01*
X103378949Y-83258602D01*
X103317626Y-83292087D01*
X103247934Y-83287103D01*
X103192001Y-83245231D01*
X103187460Y-83238743D01*
X103140189Y-83166391D01*
X103140186Y-83166387D01*
X103039487Y-83088010D01*
X102998674Y-83031300D01*
X102995000Y-82961527D01*
X103027969Y-82902476D01*
X103690426Y-82240018D01*
X103651794Y-82209950D01*
X103440455Y-82095578D01*
X103440449Y-82095576D01*
X103213176Y-82017553D01*
X102976149Y-81978000D01*
X102735851Y-81978000D01*
X102498823Y-82017553D01*
X102271550Y-82095576D01*
X102271544Y-82095578D01*
X102060204Y-82209950D01*
X102060198Y-82209954D01*
X102021573Y-82240017D01*
X102021573Y-82240019D01*
X102686723Y-82905170D01*
X102720208Y-82966493D01*
X102715224Y-83036185D01*
X102673352Y-83092118D01*
X102658059Y-83101906D01*
X102618749Y-83123179D01*
X102618748Y-83123179D01*
X102532626Y-83216733D01*
X102532626Y-83216734D01*
X102531911Y-83218365D01*
X102530340Y-83220233D01*
X102527008Y-83225334D01*
X102526391Y-83224931D01*
X102486952Y-83271849D01*
X102420215Y-83292535D01*
X102352888Y-83273857D01*
X102330677Y-83256230D01*
X101668687Y-82594241D01*
X101576392Y-82735511D01*
X101479865Y-82955571D01*
X101420874Y-83188523D01*
X101401030Y-83427994D01*
X101401030Y-83428005D01*
X101420874Y-83667476D01*
X101479865Y-83900428D01*
X101576391Y-84120485D01*
X101668688Y-84261756D01*
X102333050Y-83597395D01*
X102394373Y-83563910D01*
X102464065Y-83568894D01*
X102519998Y-83610766D01*
X102524539Y-83617254D01*
X102571813Y-83689612D01*
X102672157Y-83767713D01*
X102672160Y-83767714D01*
X102672511Y-83767987D01*
X102713324Y-83824697D01*
X102716999Y-83894470D01*
X102684030Y-83953522D01*
X102021572Y-84615979D01*
X102022705Y-84634216D01*
X102035124Y-84651473D01*
X102038796Y-84721246D01*
X102004163Y-84781929D01*
X101994310Y-84790466D01*
X101864801Y-84891267D01*
X101701096Y-85069097D01*
X101646068Y-85153323D01*
X101592921Y-85198679D01*
X101542260Y-85209500D01*
X100583543Y-85209500D01*
X100516504Y-85189815D01*
X100495862Y-85173181D01*
X91044819Y-75722138D01*
X91011334Y-75660815D01*
X91008500Y-75634457D01*
X91008500Y-74420001D01*
X92186502Y-74420001D01*
X92206456Y-74648081D01*
X92206457Y-74648089D01*
X92265714Y-74869238D01*
X92265718Y-74869249D01*
X92362475Y-75076745D01*
X92362477Y-75076749D01*
X92493802Y-75264300D01*
X92655700Y-75426198D01*
X92843251Y-75557523D01*
X92968091Y-75615736D01*
X93050750Y-75654281D01*
X93050752Y-75654281D01*
X93050757Y-75654284D01*
X93271913Y-75713543D01*
X93434832Y-75727796D01*
X93499998Y-75733498D01*
X93500000Y-75733498D01*
X93500002Y-75733498D01*
X93557021Y-75728509D01*
X93728087Y-75713543D01*
X93949243Y-75654284D01*
X94156749Y-75557523D01*
X94344300Y-75426198D01*
X94506198Y-75264300D01*
X94637523Y-75076749D01*
X94734284Y-74869243D01*
X94793543Y-74648087D01*
X94813498Y-74420000D01*
X94793543Y-74191913D01*
X94734284Y-73970757D01*
X94637523Y-73763251D01*
X94506198Y-73575700D01*
X94344300Y-73413802D01*
X94156749Y-73282477D01*
X94156745Y-73282475D01*
X93949249Y-73185718D01*
X93949238Y-73185714D01*
X93728089Y-73126457D01*
X93728081Y-73126456D01*
X93500002Y-73106502D01*
X93499998Y-73106502D01*
X93271918Y-73126456D01*
X93271910Y-73126457D01*
X93050761Y-73185714D01*
X93050750Y-73185718D01*
X92843254Y-73282475D01*
X92843252Y-73282476D01*
X92843249Y-73282477D01*
X92843251Y-73282477D01*
X92655700Y-73413802D01*
X92655698Y-73413803D01*
X92655695Y-73413806D01*
X92493806Y-73575695D01*
X92362476Y-73763252D01*
X92362475Y-73763254D01*
X92265718Y-73970750D01*
X92265714Y-73970761D01*
X92206457Y-74191910D01*
X92206456Y-74191918D01*
X92186502Y-74419998D01*
X92186502Y-74420001D01*
X91008500Y-74420001D01*
X91008500Y-65615542D01*
X91028185Y-65548503D01*
X91044819Y-65527861D01*
X98012686Y-58559994D01*
X105064886Y-51507793D01*
X105126207Y-51474310D01*
X105181512Y-51474902D01*
G37*
%TD.AperFunction*%
%TA.AperFunction,Conductor*%
G36*
X138942539Y-26020185D02*
G01*
X138988294Y-26072989D01*
X138999500Y-26124500D01*
X138999500Y-113875500D01*
X138979815Y-113942539D01*
X138927011Y-113988294D01*
X138875500Y-113999500D01*
X51124500Y-113999500D01*
X51057461Y-113979815D01*
X51011706Y-113927011D01*
X51000500Y-113875500D01*
X51000500Y-109674759D01*
X52499500Y-109674759D01*
X52540077Y-110021913D01*
X52540077Y-110021914D01*
X52540077Y-110021916D01*
X52620680Y-110362009D01*
X52620681Y-110362012D01*
X52740223Y-110690452D01*
X52740226Y-110690458D01*
X52897088Y-111002796D01*
X53089146Y-111294805D01*
X53089152Y-111294813D01*
X53178769Y-111401614D01*
X53313817Y-111562558D01*
X53420098Y-111662829D01*
X53568044Y-111802410D01*
X53568050Y-111802415D01*
X53848402Y-112011129D01*
X53950316Y-112069969D01*
X54151096Y-112185889D01*
X54472029Y-112324326D01*
X54806864Y-112424569D01*
X54806866Y-112424569D01*
X54806872Y-112424571D01*
X55151061Y-112485260D01*
X55151062Y-112485260D01*
X55151073Y-112485262D01*
X55412695Y-112500500D01*
X55412697Y-112500500D01*
X55587303Y-112500500D01*
X55587305Y-112500500D01*
X55848927Y-112485262D01*
X55892854Y-112477516D01*
X56193127Y-112424571D01*
X56193130Y-112424569D01*
X56193136Y-112424569D01*
X56527971Y-112324326D01*
X56848904Y-112185889D01*
X57151596Y-112011130D01*
X57431953Y-111802412D01*
X57686183Y-111562558D01*
X57910849Y-111294811D01*
X58012667Y-111140005D01*
X69046673Y-111140005D01*
X69065948Y-111372622D01*
X69123251Y-111598907D01*
X69217015Y-111812668D01*
X69344686Y-112008084D01*
X69436089Y-112107373D01*
X69502780Y-112179818D01*
X69686983Y-112323190D01*
X69686985Y-112323191D01*
X69686988Y-112323193D01*
X69733275Y-112348242D01*
X69892273Y-112434287D01*
X69964501Y-112459083D01*
X70113045Y-112510079D01*
X70113047Y-112510079D01*
X70113049Y-112510080D01*
X70343288Y-112548500D01*
X70343289Y-112548500D01*
X70576711Y-112548500D01*
X70576712Y-112548500D01*
X70806951Y-112510080D01*
X71027727Y-112434287D01*
X71233017Y-112323190D01*
X71417220Y-112179818D01*
X71575314Y-112008083D01*
X71626190Y-111930210D01*
X71679337Y-111884853D01*
X71748569Y-111875429D01*
X71811904Y-111904931D01*
X71833809Y-111930210D01*
X71884686Y-112008084D01*
X71976089Y-112107373D01*
X72042780Y-112179818D01*
X72226983Y-112323190D01*
X72226985Y-112323191D01*
X72226988Y-112323193D01*
X72273275Y-112348242D01*
X72432273Y-112434287D01*
X72504501Y-112459083D01*
X72653045Y-112510079D01*
X72653047Y-112510079D01*
X72653049Y-112510080D01*
X72883288Y-112548500D01*
X72883289Y-112548500D01*
X73116711Y-112548500D01*
X73116712Y-112548500D01*
X73346951Y-112510080D01*
X73567727Y-112434287D01*
X73773017Y-112323190D01*
X73957220Y-112179818D01*
X74115314Y-112008083D01*
X74171267Y-111922439D01*
X74224413Y-111877083D01*
X74293644Y-111867659D01*
X74356980Y-111897161D01*
X74378885Y-111922439D01*
X74388812Y-111937633D01*
X75017050Y-111309395D01*
X75078373Y-111275910D01*
X75148064Y-111280894D01*
X75203998Y-111322765D01*
X75208539Y-111329254D01*
X75255813Y-111401612D01*
X75255816Y-111401614D01*
X75356510Y-111479988D01*
X75397323Y-111536698D01*
X75400998Y-111606471D01*
X75368029Y-111665522D01*
X74741199Y-112292351D01*
X74771650Y-112316050D01*
X74975697Y-112426476D01*
X74975706Y-112426479D01*
X75195139Y-112501811D01*
X75423993Y-112540000D01*
X75656007Y-112540000D01*
X75884860Y-112501811D01*
X76104293Y-112426479D01*
X76104302Y-112426476D01*
X76308350Y-112316050D01*
X76338798Y-112292351D01*
X75709276Y-111662829D01*
X75675791Y-111601506D01*
X75680775Y-111531814D01*
X75722647Y-111475881D01*
X75737933Y-111466097D01*
X75777251Y-111444820D01*
X75863371Y-111351269D01*
X75864083Y-111349643D01*
X75865652Y-111347777D01*
X75868992Y-111342666D01*
X75869609Y-111343069D01*
X75909036Y-111296158D01*
X75975770Y-111275464D01*
X76043099Y-111294135D01*
X76065322Y-111311769D01*
X76691186Y-111937634D01*
X76775484Y-111808606D01*
X76868682Y-111596135D01*
X76925638Y-111371218D01*
X76944798Y-111140005D01*
X76944798Y-111139994D01*
X76925638Y-110908781D01*
X76868682Y-110683864D01*
X76775483Y-110471390D01*
X76691186Y-110342364D01*
X76062949Y-110970602D01*
X76001626Y-111004087D01*
X75931934Y-110999103D01*
X75876001Y-110957231D01*
X75871460Y-110950743D01*
X75824189Y-110878391D01*
X75824187Y-110878388D01*
X75824187Y-110878387D01*
X75723843Y-110800287D01*
X75723840Y-110800285D01*
X75723488Y-110800012D01*
X75682675Y-110743301D01*
X75679000Y-110673529D01*
X75711969Y-110614477D01*
X76338799Y-109987647D01*
X76308349Y-109963949D01*
X76104302Y-109853523D01*
X76104293Y-109853520D01*
X75884860Y-109778188D01*
X75656007Y-109740000D01*
X75423993Y-109740000D01*
X75195139Y-109778188D01*
X74975706Y-109853520D01*
X74975698Y-109853523D01*
X74771644Y-109963952D01*
X74741200Y-109987646D01*
X74741200Y-109987647D01*
X75370723Y-110617170D01*
X75404208Y-110678493D01*
X75399224Y-110748185D01*
X75357352Y-110804118D01*
X75342059Y-110813906D01*
X75302749Y-110835179D01*
X75302748Y-110835179D01*
X75216626Y-110928733D01*
X75216626Y-110928734D01*
X75215911Y-110930365D01*
X75214340Y-110932233D01*
X75211008Y-110937334D01*
X75210391Y-110936931D01*
X75170952Y-110983849D01*
X75104215Y-111004535D01*
X75036888Y-110985857D01*
X75014677Y-110968230D01*
X74388812Y-110342365D01*
X74378885Y-110357560D01*
X74325738Y-110402916D01*
X74256507Y-110412340D01*
X74193171Y-110382838D01*
X74171267Y-110357559D01*
X74115313Y-110271915D01*
X73957223Y-110100185D01*
X73957222Y-110100184D01*
X73957220Y-110100182D01*
X73773017Y-109956810D01*
X73773015Y-109956809D01*
X73773014Y-109956808D01*
X73773011Y-109956806D01*
X73567733Y-109845716D01*
X73567730Y-109845715D01*
X73567727Y-109845713D01*
X73567721Y-109845711D01*
X73567719Y-109845710D01*
X73346954Y-109769920D01*
X73167302Y-109739942D01*
X73116712Y-109731500D01*
X72883288Y-109731500D01*
X72837240Y-109739184D01*
X72653045Y-109769920D01*
X72432280Y-109845710D01*
X72432266Y-109845716D01*
X72226988Y-109956806D01*
X72226985Y-109956808D01*
X72042781Y-110100181D01*
X72042776Y-110100185D01*
X71884686Y-110271916D01*
X71884684Y-110271918D01*
X71833808Y-110349790D01*
X71780662Y-110395146D01*
X71711431Y-110404570D01*
X71648095Y-110375068D01*
X71626192Y-110349790D01*
X71575315Y-110271918D01*
X71575313Y-110271916D01*
X71417223Y-110100185D01*
X71417222Y-110100184D01*
X71417220Y-110100182D01*
X71233017Y-109956810D01*
X71233015Y-109956809D01*
X71233014Y-109956808D01*
X71233011Y-109956806D01*
X71027733Y-109845716D01*
X71027730Y-109845715D01*
X71027727Y-109845713D01*
X71027721Y-109845711D01*
X71027719Y-109845710D01*
X70806954Y-109769920D01*
X70627302Y-109739942D01*
X70576712Y-109731500D01*
X70343288Y-109731500D01*
X70297240Y-109739184D01*
X70113045Y-109769920D01*
X69892280Y-109845710D01*
X69892266Y-109845716D01*
X69686988Y-109956806D01*
X69686985Y-109956808D01*
X69502781Y-110100181D01*
X69502776Y-110100185D01*
X69344686Y-110271915D01*
X69217015Y-110467331D01*
X69123251Y-110681092D01*
X69065948Y-110907377D01*
X69046673Y-111139994D01*
X69046673Y-111140005D01*
X58012667Y-111140005D01*
X58102913Y-111002793D01*
X58259777Y-110690451D01*
X58379319Y-110362011D01*
X58459923Y-110021914D01*
X58500500Y-109674759D01*
X58500500Y-109325241D01*
X58459923Y-108978086D01*
X58379319Y-108637989D01*
X58259777Y-108309549D01*
X58102913Y-107997207D01*
X58102911Y-107997203D01*
X57910853Y-107705194D01*
X57910847Y-107705186D01*
X57834251Y-107613903D01*
X57686183Y-107437442D01*
X57461619Y-107225576D01*
X57431955Y-107197589D01*
X57431949Y-107197584D01*
X57151597Y-106988870D01*
X56848908Y-106814113D01*
X56848895Y-106814107D01*
X56527972Y-106675674D01*
X56193134Y-106575430D01*
X56193127Y-106575428D01*
X55848938Y-106514739D01*
X55848927Y-106514738D01*
X55848927Y-106514737D01*
X55587305Y-106499500D01*
X55412695Y-106499500D01*
X55247477Y-106509123D01*
X55151072Y-106514738D01*
X55151061Y-106514739D01*
X54806872Y-106575428D01*
X54806865Y-106575430D01*
X54472027Y-106675674D01*
X54151104Y-106814107D01*
X54151091Y-106814113D01*
X53848402Y-106988870D01*
X53568050Y-107197584D01*
X53568044Y-107197589D01*
X53313819Y-107437440D01*
X53313817Y-107437442D01*
X53089152Y-107705186D01*
X53089146Y-107705194D01*
X52897088Y-107997203D01*
X52740226Y-108309541D01*
X52740223Y-108309547D01*
X52620681Y-108637987D01*
X52620680Y-108637990D01*
X52540077Y-108978083D01*
X52540077Y-108978085D01*
X52540077Y-108978086D01*
X52499500Y-109325241D01*
X52499500Y-109674759D01*
X51000500Y-109674759D01*
X51000500Y-86947844D01*
X52810000Y-86947844D01*
X52816401Y-87007372D01*
X52816403Y-87007379D01*
X52866645Y-87142086D01*
X52866649Y-87142093D01*
X52952809Y-87257187D01*
X52952812Y-87257190D01*
X53067906Y-87343350D01*
X53067913Y-87343354D01*
X53202620Y-87393596D01*
X53202627Y-87393598D01*
X53262155Y-87399999D01*
X53262172Y-87400000D01*
X53960000Y-87400000D01*
X53960000Y-86561821D01*
X53979685Y-86494782D01*
X54032489Y-86449027D01*
X54101647Y-86439083D01*
X54120547Y-86443329D01*
X54142173Y-86450000D01*
X54243723Y-86450000D01*
X54243724Y-86450000D01*
X54317519Y-86438877D01*
X54386742Y-86448350D01*
X54439857Y-86493744D01*
X54459997Y-86560648D01*
X54460000Y-86561492D01*
X54460000Y-87400000D01*
X55157828Y-87400000D01*
X55157844Y-87399999D01*
X55217372Y-87393598D01*
X55217379Y-87393596D01*
X55352086Y-87343354D01*
X55352093Y-87343350D01*
X55467186Y-87257190D01*
X55556445Y-87137958D01*
X55612379Y-87096087D01*
X55682071Y-87091103D01*
X55736242Y-87117978D01*
X55772198Y-87148687D01*
X55860586Y-87224178D01*
X55860589Y-87224179D01*
X56063037Y-87348240D01*
X56063040Y-87348242D01*
X56282403Y-87439104D01*
X56282404Y-87439104D01*
X56282406Y-87439105D01*
X56513289Y-87494535D01*
X56750000Y-87513165D01*
X56986711Y-87494535D01*
X57217594Y-87439105D01*
X57217596Y-87439104D01*
X57217597Y-87439104D01*
X57436959Y-87348242D01*
X57436960Y-87348241D01*
X57436963Y-87348240D01*
X57639416Y-87224176D01*
X57819969Y-87069969D01*
X57974176Y-86889416D01*
X58098240Y-86686963D01*
X58098801Y-86685610D01*
X58189104Y-86467597D01*
X58189104Y-86467596D01*
X58189105Y-86467594D01*
X58244535Y-86236711D01*
X58263165Y-86000000D01*
X61326835Y-86000000D01*
X61345465Y-86236714D01*
X61400895Y-86467595D01*
X61400895Y-86467597D01*
X61491757Y-86686959D01*
X61491759Y-86686962D01*
X61615820Y-86889410D01*
X61615821Y-86889413D01*
X61615824Y-86889416D01*
X61770031Y-87069969D01*
X61862198Y-87148687D01*
X61950586Y-87224178D01*
X61950589Y-87224179D01*
X62153037Y-87348240D01*
X62153040Y-87348242D01*
X62372403Y-87439104D01*
X62372404Y-87439104D01*
X62372406Y-87439105D01*
X62603289Y-87494535D01*
X62840000Y-87513165D01*
X63076711Y-87494535D01*
X63307594Y-87439105D01*
X63307596Y-87439104D01*
X63307597Y-87439104D01*
X63526959Y-87348242D01*
X63526960Y-87348241D01*
X63526963Y-87348240D01*
X63729416Y-87224176D01*
X63909969Y-87069969D01*
X64064176Y-86889416D01*
X64188240Y-86686963D01*
X64188801Y-86685610D01*
X64279104Y-86467597D01*
X64279104Y-86467596D01*
X64279105Y-86467594D01*
X64334535Y-86236711D01*
X64353165Y-86000000D01*
X64353165Y-85999999D01*
X71486835Y-85999999D01*
X71505465Y-86236714D01*
X71560895Y-86467595D01*
X71560895Y-86467597D01*
X71651757Y-86686959D01*
X71651759Y-86686962D01*
X71775820Y-86889410D01*
X71775821Y-86889413D01*
X71775824Y-86889416D01*
X71930031Y-87069969D01*
X72022198Y-87148687D01*
X72110586Y-87224178D01*
X72110589Y-87224179D01*
X72313037Y-87348240D01*
X72313040Y-87348242D01*
X72532403Y-87439104D01*
X72532404Y-87439104D01*
X72532406Y-87439105D01*
X72763289Y-87494535D01*
X73000000Y-87513165D01*
X73236711Y-87494535D01*
X73467594Y-87439105D01*
X73467596Y-87439104D01*
X73467597Y-87439104D01*
X73686959Y-87348242D01*
X73686960Y-87348241D01*
X73686963Y-87348240D01*
X73889416Y-87224176D01*
X74069969Y-87069969D01*
X74224176Y-86889416D01*
X74348240Y-86686963D01*
X74348801Y-86685610D01*
X74439104Y-86467597D01*
X74439104Y-86467596D01*
X74439105Y-86467594D01*
X74494535Y-86236711D01*
X74513165Y-86000000D01*
X74494535Y-85763289D01*
X74439105Y-85532406D01*
X74439104Y-85532403D01*
X74439104Y-85532402D01*
X74348242Y-85313040D01*
X74348240Y-85313037D01*
X74224179Y-85110589D01*
X74224178Y-85110586D01*
X74123425Y-84992620D01*
X74069969Y-84930031D01*
X73950596Y-84828076D01*
X73889413Y-84775821D01*
X73889410Y-84775820D01*
X73686962Y-84651759D01*
X73686959Y-84651757D01*
X73467596Y-84560895D01*
X73236714Y-84505465D01*
X73059177Y-84491492D01*
X73000000Y-84486835D01*
X72999999Y-84486835D01*
X72763285Y-84505465D01*
X72532404Y-84560895D01*
X72532402Y-84560895D01*
X72313040Y-84651757D01*
X72313037Y-84651759D01*
X72110589Y-84775820D01*
X72110586Y-84775821D01*
X71930031Y-84930031D01*
X71775821Y-85110586D01*
X71775820Y-85110589D01*
X71651759Y-85313037D01*
X71651757Y-85313040D01*
X71560895Y-85532402D01*
X71560895Y-85532404D01*
X71505465Y-85763285D01*
X71486835Y-85999999D01*
X64353165Y-85999999D01*
X64334535Y-85763289D01*
X64279105Y-85532406D01*
X64279104Y-85532403D01*
X64279104Y-85532402D01*
X64188242Y-85313040D01*
X64188240Y-85313037D01*
X64064179Y-85110589D01*
X64064178Y-85110586D01*
X63963425Y-84992620D01*
X63909969Y-84930031D01*
X63790596Y-84828076D01*
X63729413Y-84775821D01*
X63729410Y-84775820D01*
X63526962Y-84651759D01*
X63526959Y-84651757D01*
X63307596Y-84560895D01*
X63076714Y-84505465D01*
X62899177Y-84491492D01*
X62840000Y-84486835D01*
X62839999Y-84486835D01*
X62603285Y-84505465D01*
X62372404Y-84560895D01*
X62372402Y-84560895D01*
X62153040Y-84651757D01*
X62153037Y-84651759D01*
X61950589Y-84775820D01*
X61950586Y-84775821D01*
X61770031Y-84930031D01*
X61615821Y-85110586D01*
X61615820Y-85110589D01*
X61491759Y-85313037D01*
X61491757Y-85313040D01*
X61400895Y-85532402D01*
X61400895Y-85532404D01*
X61345465Y-85763285D01*
X61326835Y-86000000D01*
X58263165Y-86000000D01*
X58244535Y-85763289D01*
X58189105Y-85532406D01*
X58189104Y-85532403D01*
X58189104Y-85532402D01*
X58098242Y-85313040D01*
X58098240Y-85313037D01*
X57974179Y-85110589D01*
X57974178Y-85110586D01*
X57873425Y-84992620D01*
X57819969Y-84930031D01*
X57700596Y-84828076D01*
X57639413Y-84775821D01*
X57639410Y-84775820D01*
X57436962Y-84651759D01*
X57436959Y-84651757D01*
X57217596Y-84560895D01*
X56986714Y-84505465D01*
X56750000Y-84486835D01*
X56513285Y-84505465D01*
X56282404Y-84560895D01*
X56282402Y-84560895D01*
X56063040Y-84651757D01*
X56063037Y-84651759D01*
X55860589Y-84775820D01*
X55860587Y-84775821D01*
X55736243Y-84882021D01*
X55672482Y-84910591D01*
X55603396Y-84900154D01*
X55556446Y-84862042D01*
X55467187Y-84742809D01*
X55352093Y-84656649D01*
X55352086Y-84656645D01*
X55217379Y-84606403D01*
X55217372Y-84606401D01*
X55157844Y-84600000D01*
X54460000Y-84600000D01*
X54460000Y-85438178D01*
X54440315Y-85505217D01*
X54387511Y-85550972D01*
X54318353Y-85560916D01*
X54299454Y-85556670D01*
X54277829Y-85550000D01*
X54277827Y-85550000D01*
X54176276Y-85550000D01*
X54176266Y-85550000D01*
X54102479Y-85561122D01*
X54033255Y-85551649D01*
X53980141Y-85506254D01*
X53960002Y-85439349D01*
X53959999Y-85438507D01*
X53960000Y-84600000D01*
X53262155Y-84600000D01*
X53202627Y-84606401D01*
X53202620Y-84606403D01*
X53067913Y-84656645D01*
X53067906Y-84656649D01*
X52952812Y-84742809D01*
X52952809Y-84742812D01*
X52866649Y-84857906D01*
X52866645Y-84857913D01*
X52816403Y-84992620D01*
X52816401Y-84992627D01*
X52810000Y-85052155D01*
X52810000Y-85750000D01*
X53649997Y-85750000D01*
X53717036Y-85769685D01*
X53762791Y-85822489D01*
X53772735Y-85891647D01*
X53770888Y-85901592D01*
X53756189Y-85965992D01*
X53756189Y-85965993D01*
X53767021Y-86110532D01*
X53764920Y-86110689D01*
X53761405Y-86168139D01*
X53720110Y-86224499D01*
X53654899Y-86249587D01*
X53644784Y-86250000D01*
X52810000Y-86250000D01*
X52810000Y-86947844D01*
X51000500Y-86947844D01*
X51000500Y-78447844D01*
X52850000Y-78447844D01*
X52856401Y-78507372D01*
X52856403Y-78507379D01*
X52906645Y-78642086D01*
X52906649Y-78642093D01*
X52992809Y-78757187D01*
X52992812Y-78757190D01*
X53107906Y-78843350D01*
X53107913Y-78843354D01*
X53242620Y-78893596D01*
X53242627Y-78893598D01*
X53302155Y-78899999D01*
X53302172Y-78900000D01*
X53999999Y-78900000D01*
X54000000Y-78061821D01*
X54019685Y-77994782D01*
X54072489Y-77949027D01*
X54141647Y-77939083D01*
X54160547Y-77943329D01*
X54182173Y-77950000D01*
X54283723Y-77950000D01*
X54283724Y-77950000D01*
X54357519Y-77938877D01*
X54426742Y-77948350D01*
X54479857Y-77993744D01*
X54499997Y-78060648D01*
X54500000Y-78061492D01*
X54500000Y-78900000D01*
X55197828Y-78900000D01*
X55197844Y-78899999D01*
X55257372Y-78893598D01*
X55257379Y-78893596D01*
X55392086Y-78843354D01*
X55392093Y-78843350D01*
X55507186Y-78757190D01*
X55596445Y-78637958D01*
X55652379Y-78596087D01*
X55722071Y-78591103D01*
X55776242Y-78617978D01*
X55851712Y-78682435D01*
X55900586Y-78724178D01*
X55900588Y-78724178D01*
X55931429Y-78743078D01*
X56103037Y-78848240D01*
X56103040Y-78848242D01*
X56322403Y-78939104D01*
X56322404Y-78939104D01*
X56322406Y-78939105D01*
X56553289Y-78994535D01*
X56790000Y-79013165D01*
X57026711Y-78994535D01*
X57257594Y-78939105D01*
X57257596Y-78939104D01*
X57257597Y-78939104D01*
X57476959Y-78848242D01*
X57476960Y-78848241D01*
X57476963Y-78848240D01*
X57679416Y-78724176D01*
X57859969Y-78569969D01*
X58014176Y-78389416D01*
X58138240Y-78186963D01*
X58190212Y-78061492D01*
X58229104Y-77967597D01*
X58229104Y-77967596D01*
X58229105Y-77967594D01*
X58284535Y-77736711D01*
X58303165Y-77500000D01*
X61406835Y-77500000D01*
X61425465Y-77736714D01*
X61480895Y-77967595D01*
X61480895Y-77967597D01*
X61571757Y-78186959D01*
X61571759Y-78186962D01*
X61695820Y-78389410D01*
X61695821Y-78389413D01*
X61695824Y-78389416D01*
X61850031Y-78569969D01*
X61981712Y-78682435D01*
X62030586Y-78724178D01*
X62030588Y-78724178D01*
X62061429Y-78743078D01*
X62233037Y-78848240D01*
X62233040Y-78848242D01*
X62452403Y-78939104D01*
X62452404Y-78939104D01*
X62452406Y-78939105D01*
X62683289Y-78994535D01*
X62920000Y-79013165D01*
X63156711Y-78994535D01*
X63387594Y-78939105D01*
X63387596Y-78939104D01*
X63387597Y-78939104D01*
X63606959Y-78848242D01*
X63606960Y-78848241D01*
X63606963Y-78848240D01*
X63809416Y-78724176D01*
X63989969Y-78569969D01*
X64144176Y-78389416D01*
X64268240Y-78186963D01*
X64320212Y-78061492D01*
X64359104Y-77967597D01*
X64359104Y-77967596D01*
X64359105Y-77967594D01*
X64414535Y-77736711D01*
X64433165Y-77500000D01*
X71566835Y-77500000D01*
X71585465Y-77736714D01*
X71640895Y-77967595D01*
X71640895Y-77967597D01*
X71731757Y-78186959D01*
X71731759Y-78186962D01*
X71855820Y-78389410D01*
X71855821Y-78389413D01*
X71855824Y-78389416D01*
X72010031Y-78569969D01*
X72141712Y-78682435D01*
X72190586Y-78724178D01*
X72190588Y-78724178D01*
X72221429Y-78743078D01*
X72393037Y-78848240D01*
X72393040Y-78848242D01*
X72612403Y-78939104D01*
X72612404Y-78939104D01*
X72612406Y-78939105D01*
X72843289Y-78994535D01*
X73080000Y-79013165D01*
X73316711Y-78994535D01*
X73547594Y-78939105D01*
X73547596Y-78939104D01*
X73547597Y-78939104D01*
X73766959Y-78848242D01*
X73766960Y-78848241D01*
X73766963Y-78848240D01*
X73969416Y-78724176D01*
X74149969Y-78569969D01*
X74304176Y-78389416D01*
X74428240Y-78186963D01*
X74480212Y-78061492D01*
X74519104Y-77967597D01*
X74519104Y-77967596D01*
X74519105Y-77967594D01*
X74574535Y-77736711D01*
X74593165Y-77500000D01*
X74574535Y-77263289D01*
X74519105Y-77032406D01*
X74519104Y-77032403D01*
X74519104Y-77032402D01*
X74428242Y-76813040D01*
X74428240Y-76813037D01*
X74304179Y-76610589D01*
X74304178Y-76610586D01*
X74201937Y-76490878D01*
X74149969Y-76430031D01*
X74024344Y-76322737D01*
X73969413Y-76275821D01*
X73969410Y-76275820D01*
X73766962Y-76151759D01*
X73766959Y-76151757D01*
X73547596Y-76060895D01*
X73316714Y-76005465D01*
X73139177Y-75991492D01*
X73080000Y-75986835D01*
X73079999Y-75986835D01*
X72843285Y-76005465D01*
X72612404Y-76060895D01*
X72612402Y-76060895D01*
X72393040Y-76151757D01*
X72393037Y-76151759D01*
X72190589Y-76275820D01*
X72190586Y-76275821D01*
X72010031Y-76430031D01*
X71855821Y-76610586D01*
X71855820Y-76610589D01*
X71731759Y-76813037D01*
X71731757Y-76813040D01*
X71640895Y-77032402D01*
X71640895Y-77032404D01*
X71585465Y-77263285D01*
X71566835Y-77500000D01*
X64433165Y-77500000D01*
X64414535Y-77263289D01*
X64359105Y-77032406D01*
X64359104Y-77032403D01*
X64359104Y-77032402D01*
X64268242Y-76813040D01*
X64268240Y-76813037D01*
X64144179Y-76610589D01*
X64144178Y-76610586D01*
X64041937Y-76490878D01*
X63989969Y-76430031D01*
X63864344Y-76322737D01*
X63809413Y-76275821D01*
X63809410Y-76275820D01*
X63606962Y-76151759D01*
X63606959Y-76151757D01*
X63387596Y-76060895D01*
X63156714Y-76005465D01*
X62920000Y-75986835D01*
X62683285Y-76005465D01*
X62452404Y-76060895D01*
X62452402Y-76060895D01*
X62233040Y-76151757D01*
X62233037Y-76151759D01*
X62030589Y-76275820D01*
X62030586Y-76275821D01*
X61850031Y-76430031D01*
X61695821Y-76610586D01*
X61695820Y-76610589D01*
X61571759Y-76813037D01*
X61571757Y-76813040D01*
X61480895Y-77032402D01*
X61480895Y-77032404D01*
X61425465Y-77263285D01*
X61406835Y-77500000D01*
X58303165Y-77500000D01*
X58284535Y-77263289D01*
X58229105Y-77032406D01*
X58229104Y-77032403D01*
X58229104Y-77032402D01*
X58138242Y-76813040D01*
X58138240Y-76813037D01*
X58014179Y-76610589D01*
X58014178Y-76610586D01*
X57911937Y-76490878D01*
X57859969Y-76430031D01*
X57734344Y-76322737D01*
X57679413Y-76275821D01*
X57679410Y-76275820D01*
X57476962Y-76151759D01*
X57476959Y-76151757D01*
X57257596Y-76060895D01*
X57026714Y-76005465D01*
X56849177Y-75991492D01*
X56790000Y-75986835D01*
X56789999Y-75986835D01*
X56553285Y-76005465D01*
X56322404Y-76060895D01*
X56322402Y-76060895D01*
X56103040Y-76151757D01*
X56103037Y-76151759D01*
X55900589Y-76275820D01*
X55900587Y-76275821D01*
X55776243Y-76382021D01*
X55712482Y-76410591D01*
X55643396Y-76400154D01*
X55596446Y-76362042D01*
X55507187Y-76242809D01*
X55392093Y-76156649D01*
X55392086Y-76156645D01*
X55257379Y-76106403D01*
X55257372Y-76106401D01*
X55197844Y-76100000D01*
X54499999Y-76100000D01*
X54499999Y-76938178D01*
X54480314Y-77005218D01*
X54427510Y-77050972D01*
X54358352Y-77060916D01*
X54339452Y-77056670D01*
X54317827Y-77050000D01*
X54216276Y-77050000D01*
X54216268Y-77050000D01*
X54142481Y-77061122D01*
X54073256Y-77051649D01*
X54020143Y-77006254D01*
X54000003Y-76939350D01*
X54000000Y-76938507D01*
X54000000Y-76100000D01*
X53302155Y-76100000D01*
X53242627Y-76106401D01*
X53242620Y-76106403D01*
X53107913Y-76156645D01*
X53107906Y-76156649D01*
X52992812Y-76242809D01*
X52992809Y-76242812D01*
X52906649Y-76357906D01*
X52906645Y-76357913D01*
X52856403Y-76492620D01*
X52856401Y-76492627D01*
X52850000Y-76552155D01*
X52850000Y-77250000D01*
X53689997Y-77250000D01*
X53757036Y-77269685D01*
X53802791Y-77322489D01*
X53812735Y-77391647D01*
X53810888Y-77401592D01*
X53796189Y-77465992D01*
X53796189Y-77465993D01*
X53807021Y-77610532D01*
X53804920Y-77610689D01*
X53801405Y-77668139D01*
X53760110Y-77724499D01*
X53694899Y-77749587D01*
X53684784Y-77750000D01*
X52850000Y-77750000D01*
X52850000Y-78447844D01*
X51000500Y-78447844D01*
X51000500Y-72447844D01*
X52825000Y-72447844D01*
X52831401Y-72507372D01*
X52831403Y-72507379D01*
X52881645Y-72642086D01*
X52881649Y-72642093D01*
X52967809Y-72757187D01*
X52967812Y-72757190D01*
X53082906Y-72843350D01*
X53082913Y-72843354D01*
X53217620Y-72893596D01*
X53217627Y-72893598D01*
X53277155Y-72899999D01*
X53277172Y-72900000D01*
X53974999Y-72900000D01*
X53974999Y-72061820D01*
X53994683Y-71994781D01*
X54047487Y-71949026D01*
X54116646Y-71939082D01*
X54135544Y-71943328D01*
X54157173Y-71950000D01*
X54258723Y-71950000D01*
X54258724Y-71950000D01*
X54332519Y-71938877D01*
X54401742Y-71948350D01*
X54454857Y-71993744D01*
X54474997Y-72060648D01*
X54475000Y-72061492D01*
X54475000Y-72900000D01*
X55172828Y-72900000D01*
X55172844Y-72899999D01*
X55232372Y-72893598D01*
X55232379Y-72893596D01*
X55367086Y-72843354D01*
X55367093Y-72843350D01*
X55482186Y-72757190D01*
X55571445Y-72637958D01*
X55627379Y-72596087D01*
X55697071Y-72591103D01*
X55751242Y-72617978D01*
X55829202Y-72684562D01*
X55875586Y-72724178D01*
X55875589Y-72724179D01*
X56078037Y-72848240D01*
X56078040Y-72848242D01*
X56297403Y-72939104D01*
X56297404Y-72939104D01*
X56297406Y-72939105D01*
X56528289Y-72994535D01*
X56765000Y-73013165D01*
X57001711Y-72994535D01*
X57232594Y-72939105D01*
X57232596Y-72939104D01*
X57232597Y-72939104D01*
X57451959Y-72848242D01*
X57451960Y-72848241D01*
X57451963Y-72848240D01*
X57654416Y-72724176D01*
X57834969Y-72569969D01*
X57989176Y-72389416D01*
X58113240Y-72186963D01*
X58165212Y-72061492D01*
X58204104Y-71967597D01*
X58204104Y-71967596D01*
X58204105Y-71967594D01*
X58259535Y-71736711D01*
X58278165Y-71500000D01*
X58278165Y-71499999D01*
X61326835Y-71499999D01*
X61345465Y-71736714D01*
X61400895Y-71967595D01*
X61400895Y-71967597D01*
X61491757Y-72186959D01*
X61491759Y-72186962D01*
X61615820Y-72389410D01*
X61615821Y-72389413D01*
X61615824Y-72389416D01*
X61770031Y-72569969D01*
X61909797Y-72689340D01*
X61950586Y-72724178D01*
X61950589Y-72724179D01*
X62153037Y-72848240D01*
X62153040Y-72848242D01*
X62372403Y-72939104D01*
X62372404Y-72939104D01*
X62372406Y-72939105D01*
X62603289Y-72994535D01*
X62840000Y-73013165D01*
X63076711Y-72994535D01*
X63307594Y-72939105D01*
X63307596Y-72939104D01*
X63307597Y-72939104D01*
X63526959Y-72848242D01*
X63526960Y-72848241D01*
X63526963Y-72848240D01*
X63729416Y-72724176D01*
X63909969Y-72569969D01*
X64064176Y-72389416D01*
X64188240Y-72186963D01*
X64240212Y-72061492D01*
X64279104Y-71967597D01*
X64279104Y-71967596D01*
X64279105Y-71967594D01*
X64334535Y-71736711D01*
X64353165Y-71500000D01*
X64353165Y-71499999D01*
X71486835Y-71499999D01*
X71505465Y-71736714D01*
X71560895Y-71967595D01*
X71560895Y-71967597D01*
X71651757Y-72186959D01*
X71651759Y-72186962D01*
X71775820Y-72389410D01*
X71775821Y-72389413D01*
X71775824Y-72389416D01*
X71930031Y-72569969D01*
X72069797Y-72689340D01*
X72110586Y-72724178D01*
X72110589Y-72724179D01*
X72313037Y-72848240D01*
X72313040Y-72848242D01*
X72532403Y-72939104D01*
X72532404Y-72939104D01*
X72532406Y-72939105D01*
X72763289Y-72994535D01*
X73000000Y-73013165D01*
X73236711Y-72994535D01*
X73467594Y-72939105D01*
X73467596Y-72939104D01*
X73467597Y-72939104D01*
X73686959Y-72848242D01*
X73686960Y-72848241D01*
X73686963Y-72848240D01*
X73889416Y-72724176D01*
X74069969Y-72569969D01*
X74224176Y-72389416D01*
X74348240Y-72186963D01*
X74400212Y-72061492D01*
X74439104Y-71967597D01*
X74439104Y-71967596D01*
X74439105Y-71967594D01*
X74494535Y-71736711D01*
X74513165Y-71500000D01*
X74494535Y-71263289D01*
X74439105Y-71032406D01*
X74439104Y-71032403D01*
X74439104Y-71032402D01*
X74348242Y-70813040D01*
X74348240Y-70813037D01*
X74224179Y-70610589D01*
X74224178Y-70610586D01*
X74123425Y-70492620D01*
X74069969Y-70430031D01*
X73950596Y-70328076D01*
X73889413Y-70275821D01*
X73889410Y-70275820D01*
X73686962Y-70151759D01*
X73686959Y-70151757D01*
X73467596Y-70060895D01*
X73236714Y-70005465D01*
X73000000Y-69986835D01*
X72763285Y-70005465D01*
X72532404Y-70060895D01*
X72532402Y-70060895D01*
X72313040Y-70151757D01*
X72313037Y-70151759D01*
X72110589Y-70275820D01*
X72110586Y-70275821D01*
X71930031Y-70430031D01*
X71775821Y-70610586D01*
X71775820Y-70610589D01*
X71651759Y-70813037D01*
X71651757Y-70813040D01*
X71560895Y-71032402D01*
X71560895Y-71032404D01*
X71505465Y-71263285D01*
X71486835Y-71499999D01*
X64353165Y-71499999D01*
X64334535Y-71263289D01*
X64279105Y-71032406D01*
X64279104Y-71032403D01*
X64279104Y-71032402D01*
X64188242Y-70813040D01*
X64188240Y-70813037D01*
X64064179Y-70610589D01*
X64064178Y-70610586D01*
X63963425Y-70492620D01*
X63909969Y-70430031D01*
X63790596Y-70328076D01*
X63729413Y-70275821D01*
X63729410Y-70275820D01*
X63526962Y-70151759D01*
X63526959Y-70151757D01*
X63307596Y-70060895D01*
X63076714Y-70005465D01*
X62840000Y-69986835D01*
X62603285Y-70005465D01*
X62372404Y-70060895D01*
X62372402Y-70060895D01*
X62153040Y-70151757D01*
X62153037Y-70151759D01*
X61950589Y-70275820D01*
X61950586Y-70275821D01*
X61770031Y-70430031D01*
X61615821Y-70610586D01*
X61615820Y-70610589D01*
X61491759Y-70813037D01*
X61491757Y-70813040D01*
X61400895Y-71032402D01*
X61400895Y-71032404D01*
X61345465Y-71263285D01*
X61326835Y-71499999D01*
X58278165Y-71499999D01*
X58259535Y-71263289D01*
X58204105Y-71032406D01*
X58204104Y-71032403D01*
X58204104Y-71032402D01*
X58113242Y-70813040D01*
X58113240Y-70813037D01*
X57989179Y-70610589D01*
X57989178Y-70610586D01*
X57888425Y-70492620D01*
X57834969Y-70430031D01*
X57715596Y-70328076D01*
X57654413Y-70275821D01*
X57654410Y-70275820D01*
X57451962Y-70151759D01*
X57451959Y-70151757D01*
X57232596Y-70060895D01*
X57001714Y-70005465D01*
X56824177Y-69991492D01*
X56765000Y-69986835D01*
X56764999Y-69986835D01*
X56528285Y-70005465D01*
X56297404Y-70060895D01*
X56297402Y-70060895D01*
X56078040Y-70151757D01*
X56078037Y-70151759D01*
X55875589Y-70275820D01*
X55875587Y-70275821D01*
X55751243Y-70382021D01*
X55687482Y-70410591D01*
X55618396Y-70400154D01*
X55571446Y-70362042D01*
X55482187Y-70242809D01*
X55367093Y-70156649D01*
X55367086Y-70156645D01*
X55232379Y-70106403D01*
X55232372Y-70106401D01*
X55172844Y-70100000D01*
X54475000Y-70100000D01*
X54475000Y-70938178D01*
X54455315Y-71005217D01*
X54402511Y-71050972D01*
X54333353Y-71060916D01*
X54314454Y-71056670D01*
X54292829Y-71050000D01*
X54292827Y-71050000D01*
X54191276Y-71050000D01*
X54191268Y-71050000D01*
X54117481Y-71061122D01*
X54048256Y-71051649D01*
X53995143Y-71006254D01*
X53975003Y-70939350D01*
X53975000Y-70938507D01*
X53975000Y-70100000D01*
X53277155Y-70100000D01*
X53217627Y-70106401D01*
X53217620Y-70106403D01*
X53082913Y-70156645D01*
X53082906Y-70156649D01*
X52967812Y-70242809D01*
X52967809Y-70242812D01*
X52881649Y-70357906D01*
X52881645Y-70357913D01*
X52831403Y-70492620D01*
X52831401Y-70492627D01*
X52825000Y-70552155D01*
X52825000Y-71250000D01*
X53664997Y-71250000D01*
X53732036Y-71269685D01*
X53777791Y-71322489D01*
X53787735Y-71391647D01*
X53785888Y-71401592D01*
X53771189Y-71465992D01*
X53771189Y-71465993D01*
X53782021Y-71610532D01*
X53779920Y-71610689D01*
X53776405Y-71668139D01*
X53735110Y-71724499D01*
X53669899Y-71749587D01*
X53659784Y-71750000D01*
X52825000Y-71750000D01*
X52825000Y-72447844D01*
X51000500Y-72447844D01*
X51000500Y-63640005D01*
X73894501Y-63640005D01*
X73914460Y-63880880D01*
X73973797Y-64115197D01*
X74070891Y-64336550D01*
X74140546Y-64443164D01*
X74203094Y-64538900D01*
X74366799Y-64716731D01*
X74366802Y-64716733D01*
X74366805Y-64716736D01*
X74557533Y-64865186D01*
X74557539Y-64865190D01*
X74557542Y-64865192D01*
X74770119Y-64980233D01*
X74856230Y-65009795D01*
X74998728Y-65058715D01*
X74998730Y-65058715D01*
X74998732Y-65058716D01*
X75237145Y-65098500D01*
X75237146Y-65098500D01*
X75478854Y-65098500D01*
X75478855Y-65098500D01*
X75717268Y-65058716D01*
X75945881Y-64980233D01*
X76158458Y-64865192D01*
X76349201Y-64716731D01*
X76512906Y-64538900D01*
X76645109Y-64336549D01*
X76742203Y-64115197D01*
X76801539Y-63880884D01*
X76821499Y-63640000D01*
X76819590Y-63616963D01*
X76801539Y-63399119D01*
X76801539Y-63399116D01*
X76742203Y-63164803D01*
X76645109Y-62943451D01*
X76636320Y-62929999D01*
X76512907Y-62741102D01*
X76512906Y-62741100D01*
X76349201Y-62563269D01*
X76349196Y-62563265D01*
X76349194Y-62563263D01*
X76219689Y-62462465D01*
X76178876Y-62405755D01*
X76175201Y-62335982D01*
X76191184Y-62307975D01*
X76192425Y-62287979D01*
X75527276Y-61622829D01*
X75493791Y-61561506D01*
X75498775Y-61491814D01*
X75540647Y-61435881D01*
X75555933Y-61426097D01*
X75595251Y-61404820D01*
X75681371Y-61311269D01*
X75682083Y-61309643D01*
X75683652Y-61307777D01*
X75686992Y-61302666D01*
X75687609Y-61303069D01*
X75727036Y-61256158D01*
X75793770Y-61235464D01*
X75861099Y-61254135D01*
X75883322Y-61271769D01*
X76545310Y-61933757D01*
X76637606Y-61792490D01*
X76734134Y-61572428D01*
X76793125Y-61339476D01*
X76812969Y-61100005D01*
X76812969Y-61099994D01*
X76793125Y-60860523D01*
X76734134Y-60627571D01*
X76637608Y-60407514D01*
X76545310Y-60266241D01*
X75880949Y-60930602D01*
X75819626Y-60964087D01*
X75749934Y-60959103D01*
X75694001Y-60917231D01*
X75689460Y-60910743D01*
X75642189Y-60838391D01*
X75642186Y-60838387D01*
X75541487Y-60760010D01*
X75500674Y-60703300D01*
X75497000Y-60633527D01*
X75529969Y-60574476D01*
X76192426Y-59912018D01*
X76191293Y-59893781D01*
X76178877Y-59876527D01*
X76175204Y-59806754D01*
X76209836Y-59746071D01*
X76219690Y-59737533D01*
X76349201Y-59636731D01*
X76512906Y-59458900D01*
X76567931Y-59374677D01*
X76621079Y-59329321D01*
X76671740Y-59318500D01*
X78194457Y-59318500D01*
X78261496Y-59338185D01*
X78282138Y-59354819D01*
X78455181Y-59527861D01*
X78488666Y-59589184D01*
X78491500Y-59615542D01*
X78491500Y-96685706D01*
X78490191Y-96703676D01*
X78486658Y-96727791D01*
X78491264Y-96780420D01*
X78491500Y-96785827D01*
X78491500Y-96794178D01*
X78495347Y-96827096D01*
X78502112Y-96904427D01*
X78503572Y-96911494D01*
X78503526Y-96911503D01*
X78505209Y-96919094D01*
X78505254Y-96919084D01*
X78506919Y-96926110D01*
X78533473Y-96999065D01*
X78557886Y-97072737D01*
X78560940Y-97079286D01*
X78560896Y-97079306D01*
X78564284Y-97086304D01*
X78564327Y-97086283D01*
X78567563Y-97092728D01*
X78567565Y-97092732D01*
X78610233Y-97157605D01*
X78650970Y-97223651D01*
X78650972Y-97223653D01*
X78655451Y-97229318D01*
X78655413Y-97229347D01*
X78660320Y-97235372D01*
X78660357Y-97235342D01*
X78665002Y-97240878D01*
X78721482Y-97294163D01*
X89045181Y-107617862D01*
X89078666Y-107679185D01*
X89081500Y-107705543D01*
X89081500Y-108626154D01*
X89061815Y-108693193D01*
X89022291Y-108731881D01*
X88950585Y-108775823D01*
X88770031Y-108930031D01*
X88615821Y-109110586D01*
X88615820Y-109110589D01*
X88491759Y-109313037D01*
X88491757Y-109313040D01*
X88400895Y-109532402D01*
X88400895Y-109532404D01*
X88345465Y-109763285D01*
X88326835Y-109999999D01*
X88345465Y-110236714D01*
X88400895Y-110467595D01*
X88400895Y-110467597D01*
X88491757Y-110686959D01*
X88491759Y-110686962D01*
X88615820Y-110889410D01*
X88615821Y-110889413D01*
X88631669Y-110907968D01*
X88770031Y-111069969D01*
X88895946Y-111177511D01*
X88950586Y-111224178D01*
X88950588Y-111224178D01*
X89065849Y-111294811D01*
X89153037Y-111348240D01*
X89153040Y-111348242D01*
X89372403Y-111439104D01*
X89372404Y-111439104D01*
X89372406Y-111439105D01*
X89603289Y-111494535D01*
X89840000Y-111513165D01*
X90076711Y-111494535D01*
X90307594Y-111439105D01*
X90307596Y-111439104D01*
X90307597Y-111439104D01*
X90526959Y-111348242D01*
X90526960Y-111348241D01*
X90526963Y-111348240D01*
X90729416Y-111224176D01*
X90909969Y-111069969D01*
X91015711Y-110946160D01*
X91074216Y-110907968D01*
X91144084Y-110907469D01*
X91203131Y-110944823D01*
X91204200Y-110946057D01*
X91288857Y-111045177D01*
X91310031Y-111069969D01*
X91490586Y-111224178D01*
X91490588Y-111224178D01*
X91605849Y-111294811D01*
X91693037Y-111348240D01*
X91693040Y-111348242D01*
X91912403Y-111439104D01*
X91912404Y-111439104D01*
X91912406Y-111439105D01*
X92143289Y-111494535D01*
X92380000Y-111513165D01*
X92616711Y-111494535D01*
X92847594Y-111439105D01*
X92847596Y-111439104D01*
X92847597Y-111439104D01*
X93066959Y-111348242D01*
X93066960Y-111348241D01*
X93066963Y-111348240D01*
X93269416Y-111224176D01*
X93449969Y-111069969D01*
X93559457Y-110941774D01*
X93617964Y-110903580D01*
X93687832Y-110903081D01*
X93744978Y-110938322D01*
X93900598Y-111107370D01*
X93900602Y-111107373D01*
X94096762Y-111260051D01*
X94096771Y-111260057D01*
X94315385Y-111378364D01*
X94315396Y-111378369D01*
X94550507Y-111459083D01*
X94669999Y-111479023D01*
X94670000Y-111479022D01*
X94670000Y-110612301D01*
X94689685Y-110545262D01*
X94742489Y-110499507D01*
X94811647Y-110489563D01*
X94884237Y-110500000D01*
X94884238Y-110500000D01*
X94955762Y-110500000D01*
X94955763Y-110500000D01*
X95028352Y-110489563D01*
X95097510Y-110499507D01*
X95150314Y-110545261D01*
X95169999Y-110612301D01*
X95169999Y-111479022D01*
X95170000Y-111479023D01*
X95289492Y-111459083D01*
X95524603Y-111378369D01*
X95524614Y-111378364D01*
X95743228Y-111260057D01*
X95743237Y-111260051D01*
X95939397Y-111107373D01*
X95939400Y-111107370D01*
X96095021Y-110938322D01*
X96154908Y-110902332D01*
X96224746Y-110904432D01*
X96280541Y-110941773D01*
X96390031Y-111069969D01*
X96515946Y-111177511D01*
X96570586Y-111224178D01*
X96570588Y-111224178D01*
X96685849Y-111294811D01*
X96773037Y-111348240D01*
X96773040Y-111348242D01*
X96992403Y-111439104D01*
X96992404Y-111439104D01*
X96992406Y-111439105D01*
X97223289Y-111494535D01*
X97460000Y-111513165D01*
X97696711Y-111494535D01*
X97927594Y-111439105D01*
X97927596Y-111439104D01*
X97927597Y-111439104D01*
X98146959Y-111348242D01*
X98146960Y-111348241D01*
X98146963Y-111348240D01*
X98349416Y-111224176D01*
X98413958Y-111169051D01*
X98477718Y-111140481D01*
X98546804Y-111150918D01*
X98591876Y-111190540D01*
X98593796Y-111189104D01*
X98599110Y-111196203D01*
X98599111Y-111196204D01*
X98686739Y-111313261D01*
X98803796Y-111400889D01*
X98940799Y-111451989D01*
X98968050Y-111454918D01*
X99001345Y-111458499D01*
X99001362Y-111458500D01*
X100998638Y-111458500D01*
X100998654Y-111458499D01*
X101025692Y-111455591D01*
X101059201Y-111451989D01*
X101196204Y-111400889D01*
X101313261Y-111313261D01*
X101400889Y-111196204D01*
X101451989Y-111059201D01*
X101455591Y-111025692D01*
X101458499Y-110998654D01*
X101458499Y-110998647D01*
X101458500Y-110998638D01*
X101458500Y-109001362D01*
X101458499Y-109001352D01*
X101458499Y-109001345D01*
X101455157Y-108970270D01*
X101451989Y-108940799D01*
X101447972Y-108930030D01*
X101421954Y-108860273D01*
X101400889Y-108803796D01*
X101313261Y-108686739D01*
X101196204Y-108599111D01*
X101196204Y-108599110D01*
X101059203Y-108548011D01*
X100998654Y-108541500D01*
X100998638Y-108541500D01*
X99001362Y-108541500D01*
X99001345Y-108541500D01*
X98940797Y-108548011D01*
X98940795Y-108548011D01*
X98803795Y-108599111D01*
X98686739Y-108686739D01*
X98593796Y-108810896D01*
X98590876Y-108808710D01*
X98553120Y-108845920D01*
X98484740Y-108860273D01*
X98419456Y-108835379D01*
X98413958Y-108830948D01*
X98390480Y-108810896D01*
X98349416Y-108775824D01*
X98349405Y-108775817D01*
X98277709Y-108731881D01*
X98230834Y-108680069D01*
X98218500Y-108626154D01*
X98218500Y-108325542D01*
X98238185Y-108258503D01*
X98254819Y-108237861D01*
X98697862Y-107794819D01*
X98759185Y-107761334D01*
X98785543Y-107758500D01*
X113134457Y-107758500D01*
X113201496Y-107778185D01*
X113222138Y-107794819D01*
X115011155Y-109583836D01*
X115044640Y-109645159D01*
X115039656Y-109714851D01*
X114997784Y-109770784D01*
X114993760Y-109773516D01*
X114990586Y-109775821D01*
X114810031Y-109930031D01*
X114700541Y-110058226D01*
X114642034Y-110096419D01*
X114572166Y-110096917D01*
X114515021Y-110061677D01*
X114359401Y-109892629D01*
X114359397Y-109892626D01*
X114163237Y-109739948D01*
X114163228Y-109739942D01*
X113944614Y-109621635D01*
X113944603Y-109621630D01*
X113709492Y-109540916D01*
X113590000Y-109520976D01*
X113590000Y-110387698D01*
X113570315Y-110454737D01*
X113517511Y-110500492D01*
X113448355Y-110510436D01*
X113375766Y-110500000D01*
X113375763Y-110500000D01*
X113304237Y-110500000D01*
X113231646Y-110510437D01*
X113162487Y-110500493D01*
X113109683Y-110454738D01*
X113089999Y-110387699D01*
X113089999Y-109520976D01*
X112970507Y-109540916D01*
X112735396Y-109621630D01*
X112735385Y-109621635D01*
X112516771Y-109739942D01*
X112516769Y-109739943D01*
X112378862Y-109847281D01*
X112313868Y-109872923D01*
X112245328Y-109859356D01*
X112199015Y-109814751D01*
X112198669Y-109815011D01*
X112197079Y-109812888D01*
X112195003Y-109810888D01*
X112193866Y-109808851D01*
X112193349Y-109807905D01*
X112107190Y-109692812D01*
X112107187Y-109692809D01*
X111992093Y-109606649D01*
X111992086Y-109606645D01*
X111857379Y-109556403D01*
X111857372Y-109556401D01*
X111797844Y-109550000D01*
X111050000Y-109550000D01*
X111050000Y-110387698D01*
X111030315Y-110454737D01*
X110977511Y-110500492D01*
X110908355Y-110510436D01*
X110835766Y-110500000D01*
X110835763Y-110500000D01*
X110764237Y-110500000D01*
X110764233Y-110500000D01*
X110691645Y-110510436D01*
X110622487Y-110500492D01*
X110569684Y-110454736D01*
X110550000Y-110387698D01*
X110550000Y-109550000D01*
X109802155Y-109550000D01*
X109742627Y-109556401D01*
X109742620Y-109556403D01*
X109607913Y-109606645D01*
X109607906Y-109606649D01*
X109492812Y-109692809D01*
X109492809Y-109692812D01*
X109406649Y-109807906D01*
X109406645Y-109807913D01*
X109356403Y-109942620D01*
X109356401Y-109942627D01*
X109350000Y-110002155D01*
X109350000Y-110750000D01*
X110186653Y-110750000D01*
X110253692Y-110769685D01*
X110299447Y-110822489D01*
X110309391Y-110891647D01*
X110305631Y-110908933D01*
X110300000Y-110928111D01*
X110300000Y-111071888D01*
X110305631Y-111091067D01*
X110305630Y-111160936D01*
X110267855Y-111219714D01*
X110204299Y-111248738D01*
X110186653Y-111250000D01*
X109350000Y-111250000D01*
X109350000Y-111997844D01*
X109356401Y-112057372D01*
X109356403Y-112057379D01*
X109406645Y-112192086D01*
X109406649Y-112192093D01*
X109492809Y-112307187D01*
X109492812Y-112307190D01*
X109607906Y-112393350D01*
X109607913Y-112393354D01*
X109742620Y-112443596D01*
X109742627Y-112443598D01*
X109802155Y-112449999D01*
X109802172Y-112450000D01*
X110550000Y-112450000D01*
X110550000Y-111612301D01*
X110569685Y-111545262D01*
X110622489Y-111499507D01*
X110691647Y-111489563D01*
X110764237Y-111500000D01*
X110764238Y-111500000D01*
X110835762Y-111500000D01*
X110835763Y-111500000D01*
X110908353Y-111489563D01*
X110977512Y-111499507D01*
X111030315Y-111545262D01*
X111050000Y-111612301D01*
X111050000Y-112450000D01*
X111797828Y-112450000D01*
X111797844Y-112449999D01*
X111857372Y-112443598D01*
X111857379Y-112443596D01*
X111992086Y-112393354D01*
X111992093Y-112393350D01*
X112107187Y-112307190D01*
X112107190Y-112307187D01*
X112193346Y-112192098D01*
X112193863Y-112191153D01*
X112194625Y-112190390D01*
X112198669Y-112184989D01*
X112199445Y-112185570D01*
X112243265Y-112141744D01*
X112311537Y-112126887D01*
X112377003Y-112151299D01*
X112378862Y-112152719D01*
X112516762Y-112260051D01*
X112516771Y-112260057D01*
X112735385Y-112378364D01*
X112735396Y-112378369D01*
X112970507Y-112459083D01*
X113089999Y-112479022D01*
X113089999Y-111612301D01*
X113109683Y-111545262D01*
X113162487Y-111499507D01*
X113231646Y-111489563D01*
X113238380Y-111490531D01*
X113304237Y-111500000D01*
X113304238Y-111500000D01*
X113375762Y-111500000D01*
X113375763Y-111500000D01*
X113448353Y-111489563D01*
X113517512Y-111499507D01*
X113570315Y-111545262D01*
X113590000Y-111612301D01*
X113590000Y-112479023D01*
X113709492Y-112459083D01*
X113944603Y-112378369D01*
X113944614Y-112378364D01*
X114163228Y-112260057D01*
X114163237Y-112260051D01*
X114359397Y-112107373D01*
X114359400Y-112107370D01*
X114515021Y-111938322D01*
X114574908Y-111902332D01*
X114644746Y-111904432D01*
X114700541Y-111941773D01*
X114810031Y-112069969D01*
X114894069Y-112141744D01*
X114990586Y-112224178D01*
X114990589Y-112224179D01*
X115193037Y-112348240D01*
X115193040Y-112348242D01*
X115412403Y-112439104D01*
X115412404Y-112439104D01*
X115412406Y-112439105D01*
X115643289Y-112494535D01*
X115880000Y-112513165D01*
X116116711Y-112494535D01*
X116347594Y-112439105D01*
X116347596Y-112439104D01*
X116347597Y-112439104D01*
X116566959Y-112348242D01*
X116566960Y-112348241D01*
X116566963Y-112348240D01*
X116769416Y-112224176D01*
X116949969Y-112069969D01*
X117055711Y-111946160D01*
X117114216Y-111907968D01*
X117184084Y-111907469D01*
X117243131Y-111944823D01*
X117244200Y-111946057D01*
X117299777Y-112011129D01*
X117350031Y-112069969D01*
X117530586Y-112224178D01*
X117530589Y-112224179D01*
X117733037Y-112348240D01*
X117733040Y-112348242D01*
X117952403Y-112439104D01*
X117952404Y-112439104D01*
X117952406Y-112439105D01*
X118183289Y-112494535D01*
X118420000Y-112513165D01*
X118656711Y-112494535D01*
X118887594Y-112439105D01*
X118887596Y-112439104D01*
X118887597Y-112439104D01*
X119106959Y-112348242D01*
X119106960Y-112348241D01*
X119106963Y-112348240D01*
X119309416Y-112224176D01*
X119489969Y-112069969D01*
X119595710Y-111946161D01*
X119654217Y-111907969D01*
X119724085Y-111907471D01*
X119783131Y-111944824D01*
X119784269Y-111946138D01*
X119890031Y-112069969D01*
X119974069Y-112141744D01*
X120070586Y-112224178D01*
X120070589Y-112224179D01*
X120273037Y-112348240D01*
X120273040Y-112348242D01*
X120492403Y-112439104D01*
X120492404Y-112439104D01*
X120492406Y-112439105D01*
X120723289Y-112494535D01*
X120960000Y-112513165D01*
X121196711Y-112494535D01*
X121427594Y-112439105D01*
X121427596Y-112439104D01*
X121427597Y-112439104D01*
X121646959Y-112348242D01*
X121646960Y-112348241D01*
X121646963Y-112348240D01*
X121849416Y-112224176D01*
X122029969Y-112069969D01*
X122135711Y-111946160D01*
X122194216Y-111907968D01*
X122264084Y-111907469D01*
X122323131Y-111944823D01*
X122324200Y-111946057D01*
X122379777Y-112011129D01*
X122430031Y-112069969D01*
X122610586Y-112224178D01*
X122610589Y-112224179D01*
X122813037Y-112348240D01*
X122813040Y-112348242D01*
X123032403Y-112439104D01*
X123032404Y-112439104D01*
X123032406Y-112439105D01*
X123263289Y-112494535D01*
X123500000Y-112513165D01*
X123736711Y-112494535D01*
X123967594Y-112439105D01*
X123967596Y-112439104D01*
X123967597Y-112439104D01*
X124186959Y-112348242D01*
X124186960Y-112348241D01*
X124186963Y-112348240D01*
X124389416Y-112224176D01*
X124569969Y-112069969D01*
X124724176Y-111889416D01*
X124848240Y-111686963D01*
X124883638Y-111601506D01*
X124939104Y-111467597D01*
X124939104Y-111467596D01*
X124939105Y-111467594D01*
X124994535Y-111236711D01*
X125013165Y-111000000D01*
X124994535Y-110763289D01*
X124939105Y-110532406D01*
X124939104Y-110532403D01*
X124939104Y-110532402D01*
X124848242Y-110313040D01*
X124848240Y-110313037D01*
X124823042Y-110271918D01*
X124724178Y-110110588D01*
X124724178Y-110110586D01*
X124648446Y-110021916D01*
X124569969Y-109930031D01*
X124428086Y-109808851D01*
X124389413Y-109775821D01*
X124389410Y-109775820D01*
X124224494Y-109674759D01*
X131499500Y-109674759D01*
X131540077Y-110021913D01*
X131540077Y-110021914D01*
X131540077Y-110021916D01*
X131620680Y-110362009D01*
X131620681Y-110362012D01*
X131740223Y-110690452D01*
X131740226Y-110690458D01*
X131897088Y-111002796D01*
X132089146Y-111294805D01*
X132089152Y-111294813D01*
X132178769Y-111401614D01*
X132313817Y-111562558D01*
X132420098Y-111662829D01*
X132568044Y-111802410D01*
X132568050Y-111802415D01*
X132848402Y-112011129D01*
X132950316Y-112069969D01*
X133151096Y-112185889D01*
X133472029Y-112324326D01*
X133806864Y-112424569D01*
X133806866Y-112424569D01*
X133806872Y-112424571D01*
X134151061Y-112485260D01*
X134151062Y-112485260D01*
X134151073Y-112485262D01*
X134412695Y-112500500D01*
X134412697Y-112500500D01*
X134587303Y-112500500D01*
X134587305Y-112500500D01*
X134848927Y-112485262D01*
X134892854Y-112477516D01*
X135193127Y-112424571D01*
X135193130Y-112424569D01*
X135193136Y-112424569D01*
X135527971Y-112324326D01*
X135848904Y-112185889D01*
X136151596Y-112011130D01*
X136431953Y-111802412D01*
X136686183Y-111562558D01*
X136910849Y-111294811D01*
X137102913Y-111002793D01*
X137259777Y-110690451D01*
X137379319Y-110362011D01*
X137459923Y-110021914D01*
X137500500Y-109674759D01*
X137500500Y-109325241D01*
X137459923Y-108978086D01*
X137379319Y-108637989D01*
X137259777Y-108309549D01*
X137102913Y-107997207D01*
X137102911Y-107997203D01*
X136910853Y-107705194D01*
X136910847Y-107705186D01*
X136834251Y-107613903D01*
X136686183Y-107437442D01*
X136461619Y-107225576D01*
X136431955Y-107197589D01*
X136431949Y-107197584D01*
X136151597Y-106988870D01*
X135848908Y-106814113D01*
X135848895Y-106814107D01*
X135527972Y-106675674D01*
X135193134Y-106575430D01*
X135193127Y-106575428D01*
X134848938Y-106514739D01*
X134848927Y-106514738D01*
X134848926Y-106514737D01*
X134587305Y-106499500D01*
X134412695Y-106499500D01*
X134247477Y-106509123D01*
X134151072Y-106514738D01*
X134151061Y-106514739D01*
X133806872Y-106575428D01*
X133806865Y-106575430D01*
X133472027Y-106675674D01*
X133151104Y-106814107D01*
X133151091Y-106814113D01*
X132848402Y-106988870D01*
X132568050Y-107197584D01*
X132568044Y-107197589D01*
X132313819Y-107437440D01*
X132313817Y-107437442D01*
X132089152Y-107705186D01*
X132089146Y-107705194D01*
X131897088Y-107997203D01*
X131740226Y-108309541D01*
X131740223Y-108309547D01*
X131620681Y-108637987D01*
X131620680Y-108637990D01*
X131540077Y-108978083D01*
X131540077Y-108978085D01*
X131540077Y-108978086D01*
X131499500Y-109325241D01*
X131499500Y-109674759D01*
X124224494Y-109674759D01*
X124186962Y-109651759D01*
X124186959Y-109651757D01*
X123967596Y-109560895D01*
X123736714Y-109505465D01*
X123500000Y-109486835D01*
X123263285Y-109505465D01*
X123032404Y-109560895D01*
X123032402Y-109560895D01*
X122813040Y-109651757D01*
X122813037Y-109651759D01*
X122610589Y-109775820D01*
X122610586Y-109775821D01*
X122473823Y-109892629D01*
X122430031Y-109930031D01*
X122351556Y-110021914D01*
X122324290Y-110053838D01*
X122265783Y-110092031D01*
X122195915Y-110092529D01*
X122136869Y-110055176D01*
X122135710Y-110053838D01*
X122108446Y-110021916D01*
X122029969Y-109930031D01*
X121888086Y-109808851D01*
X121849413Y-109775821D01*
X121849410Y-109775820D01*
X121646962Y-109651759D01*
X121646959Y-109651757D01*
X121427596Y-109560895D01*
X121196714Y-109505465D01*
X120960000Y-109486835D01*
X120723285Y-109505465D01*
X120492404Y-109560895D01*
X120492402Y-109560895D01*
X120273040Y-109651757D01*
X120273037Y-109651759D01*
X120070589Y-109775820D01*
X120070586Y-109775821D01*
X119890031Y-109930031D01*
X119784289Y-110053838D01*
X119725782Y-110092031D01*
X119655914Y-110092529D01*
X119596868Y-110055175D01*
X119595804Y-110053947D01*
X119489969Y-109930031D01*
X119446177Y-109892629D01*
X119309413Y-109775821D01*
X119309410Y-109775820D01*
X119106962Y-109651759D01*
X119106959Y-109651757D01*
X118887596Y-109560895D01*
X118656714Y-109505465D01*
X118479177Y-109491492D01*
X118420000Y-109486835D01*
X118419999Y-109486835D01*
X118183285Y-109505465D01*
X117952404Y-109560895D01*
X117952402Y-109560895D01*
X117733040Y-109651757D01*
X117733037Y-109651759D01*
X117530589Y-109775820D01*
X117530586Y-109775821D01*
X117393823Y-109892629D01*
X117350031Y-109930031D01*
X117271556Y-110021914D01*
X117244290Y-110053838D01*
X117185783Y-110092031D01*
X117115915Y-110092529D01*
X117056869Y-110055176D01*
X117055710Y-110053838D01*
X117028446Y-110021916D01*
X116949969Y-109930031D01*
X116769416Y-109775824D01*
X116748954Y-109763285D01*
X116697709Y-109731881D01*
X116650834Y-109680069D01*
X116638500Y-109626154D01*
X116638500Y-109444295D01*
X116639809Y-109426322D01*
X116643341Y-109402211D01*
X116643341Y-109402209D01*
X116638735Y-109349576D01*
X116638499Y-109344161D01*
X116638500Y-109335820D01*
X116634652Y-109302905D01*
X116627887Y-109225573D01*
X116627885Y-109225568D01*
X116626427Y-109218504D01*
X116626475Y-109218493D01*
X116624794Y-109210909D01*
X116624746Y-109210921D01*
X116623079Y-109203893D01*
X116623079Y-109203887D01*
X116596530Y-109130944D01*
X116589783Y-109110584D01*
X116573577Y-109061677D01*
X116572114Y-109057261D01*
X116572112Y-109057257D01*
X116569060Y-109050712D01*
X116569104Y-109050691D01*
X116565720Y-109043701D01*
X116565676Y-109043724D01*
X116562438Y-109037278D01*
X116562435Y-109037268D01*
X116519771Y-108972400D01*
X116479030Y-108906349D01*
X116479025Y-108906344D01*
X116474552Y-108900686D01*
X116474590Y-108900655D01*
X116469681Y-108894629D01*
X116469645Y-108894660D01*
X116465005Y-108889131D01*
X116465003Y-108889129D01*
X116465001Y-108889126D01*
X116433891Y-108859775D01*
X116408517Y-108835835D01*
X114081804Y-106509123D01*
X114070022Y-106495490D01*
X114055472Y-106475946D01*
X114055471Y-106475945D01*
X114055469Y-106475942D01*
X114050154Y-106471482D01*
X114014987Y-106441972D01*
X114010998Y-106438317D01*
X114005102Y-106432421D01*
X114005101Y-106432420D01*
X113983069Y-106414999D01*
X113979102Y-106411862D01*
X113919642Y-106361970D01*
X113919640Y-106361968D01*
X113919635Y-106361965D01*
X113913605Y-106357999D01*
X113913630Y-106357959D01*
X113907069Y-106353779D01*
X113907045Y-106353820D01*
X113900904Y-106350031D01*
X113830540Y-106317220D01*
X113761185Y-106282389D01*
X113754401Y-106279920D01*
X113754416Y-106279876D01*
X113747071Y-106277322D01*
X113747057Y-106277367D01*
X113740205Y-106275096D01*
X113702177Y-106267244D01*
X113664149Y-106259392D01*
X113588656Y-106241500D01*
X113588654Y-106241500D01*
X113588646Y-106241498D01*
X113581482Y-106240661D01*
X113581487Y-106240612D01*
X113573757Y-106239822D01*
X113573753Y-106239870D01*
X113566562Y-106239240D01*
X113488920Y-106241500D01*
X98484294Y-106241500D01*
X98466324Y-106240191D01*
X98442206Y-106236658D01*
X98397029Y-106240612D01*
X98389573Y-106241264D01*
X98384172Y-106241500D01*
X98375819Y-106241500D01*
X98342903Y-106245347D01*
X98265574Y-106252112D01*
X98258506Y-106253572D01*
X98258496Y-106253528D01*
X98250906Y-106255210D01*
X98250917Y-106255254D01*
X98243893Y-106256919D01*
X98243887Y-106256920D01*
X98243887Y-106256921D01*
X98237098Y-106259392D01*
X98170933Y-106283473D01*
X98097257Y-106307887D01*
X98090720Y-106310936D01*
X98090700Y-106310894D01*
X98083696Y-106314285D01*
X98083717Y-106314326D01*
X98077269Y-106317564D01*
X98012394Y-106360233D01*
X97946352Y-106400967D01*
X97940683Y-106405450D01*
X97940653Y-106405413D01*
X97934627Y-106410322D01*
X97934657Y-106410357D01*
X97929132Y-106414993D01*
X97875836Y-106471482D01*
X97547680Y-106799637D01*
X97486357Y-106833122D01*
X97416665Y-106828138D01*
X97372318Y-106799637D01*
X85794819Y-95222138D01*
X85761334Y-95160815D01*
X85758500Y-95134457D01*
X85758500Y-90913845D01*
X85778185Y-90846806D01*
X85817710Y-90808118D01*
X85889411Y-90764179D01*
X85889413Y-90764178D01*
X85889413Y-90764177D01*
X85889416Y-90764176D01*
X86069969Y-90609969D01*
X86224176Y-90429416D01*
X86348240Y-90226963D01*
X86439105Y-90007594D01*
X86494535Y-89776711D01*
X86513165Y-89540000D01*
X86494535Y-89303289D01*
X86439105Y-89072406D01*
X86439104Y-89072403D01*
X86439104Y-89072402D01*
X86348242Y-88853040D01*
X86348240Y-88853037D01*
X86224179Y-88650589D01*
X86224178Y-88650586D01*
X86189340Y-88609797D01*
X86069969Y-88470031D01*
X85946160Y-88364288D01*
X85907968Y-88305782D01*
X85907470Y-88235914D01*
X85944823Y-88176868D01*
X85945975Y-88175869D01*
X86069969Y-88069969D01*
X86224176Y-87889416D01*
X86268117Y-87817710D01*
X86319929Y-87770835D01*
X86373845Y-87758500D01*
X90634457Y-87758500D01*
X90701496Y-87778185D01*
X90722138Y-87794819D01*
X95205182Y-92277863D01*
X95238666Y-92339184D01*
X95241500Y-92365542D01*
X95241500Y-93126154D01*
X95221815Y-93193193D01*
X95182291Y-93231881D01*
X95110585Y-93275823D01*
X94930031Y-93430031D01*
X94824290Y-93553838D01*
X94765783Y-93592031D01*
X94695915Y-93592529D01*
X94636869Y-93555176D01*
X94635710Y-93553838D01*
X94529969Y-93430031D01*
X94389141Y-93309752D01*
X94349413Y-93275821D01*
X94349410Y-93275820D01*
X94146962Y-93151759D01*
X94146959Y-93151757D01*
X93927596Y-93060895D01*
X93696714Y-93005465D01*
X93460000Y-92986835D01*
X93223285Y-93005465D01*
X92992404Y-93060895D01*
X92992402Y-93060895D01*
X92773040Y-93151757D01*
X92773037Y-93151759D01*
X92570586Y-93275821D01*
X92570576Y-93275829D01*
X92552083Y-93291623D01*
X92488321Y-93320191D01*
X92419236Y-93309752D01*
X92366761Y-93263619D01*
X92363578Y-93258210D01*
X92277190Y-93142812D01*
X92277187Y-93142809D01*
X92162093Y-93056649D01*
X92162086Y-93056645D01*
X92027379Y-93006403D01*
X92027372Y-93006401D01*
X91967844Y-93000000D01*
X91170000Y-93000000D01*
X91170000Y-93994486D01*
X91150315Y-94061525D01*
X91097511Y-94107280D01*
X91028353Y-94117224D01*
X91026604Y-94116960D01*
X90989917Y-94111150D01*
X90951088Y-94105000D01*
X90888912Y-94105000D01*
X90850082Y-94111150D01*
X90813396Y-94116960D01*
X90744103Y-94108004D01*
X90690651Y-94063006D01*
X90670013Y-93996255D01*
X90670000Y-93994486D01*
X90670000Y-93000000D01*
X89872155Y-93000000D01*
X89812627Y-93006401D01*
X89812620Y-93006403D01*
X89677913Y-93056645D01*
X89677906Y-93056649D01*
X89562812Y-93142809D01*
X89562809Y-93142812D01*
X89476649Y-93257906D01*
X89476645Y-93257913D01*
X89426403Y-93392620D01*
X89426401Y-93392627D01*
X89420000Y-93452155D01*
X89420000Y-94250000D01*
X90414487Y-94250000D01*
X90481526Y-94269685D01*
X90527281Y-94322489D01*
X90537225Y-94391647D01*
X90536960Y-94393398D01*
X90520076Y-94499998D01*
X90520076Y-94500001D01*
X90536960Y-94606602D01*
X90528006Y-94675895D01*
X90483009Y-94729347D01*
X90416258Y-94749987D01*
X90414487Y-94750000D01*
X89420000Y-94750000D01*
X89420000Y-95547844D01*
X89426401Y-95607372D01*
X89426403Y-95607379D01*
X89476645Y-95742086D01*
X89476649Y-95742093D01*
X89562809Y-95857187D01*
X89562812Y-95857190D01*
X89677906Y-95943350D01*
X89677913Y-95943354D01*
X89812620Y-95993596D01*
X89812627Y-95993598D01*
X89872155Y-95999999D01*
X89872172Y-96000000D01*
X90670000Y-96000000D01*
X90670000Y-95005513D01*
X90689685Y-94938474D01*
X90742489Y-94892719D01*
X90811647Y-94882775D01*
X90813397Y-94883040D01*
X90888911Y-94895000D01*
X90888912Y-94895000D01*
X90951088Y-94895000D01*
X91026603Y-94883040D01*
X91095896Y-94891995D01*
X91149348Y-94936991D01*
X91169987Y-95003743D01*
X91170000Y-95005513D01*
X91170000Y-96000000D01*
X91967828Y-96000000D01*
X91967844Y-95999999D01*
X92027372Y-95993598D01*
X92027379Y-95993596D01*
X92162086Y-95943354D01*
X92162093Y-95943350D01*
X92277187Y-95857190D01*
X92277190Y-95857187D01*
X92368669Y-95734989D01*
X92369988Y-95735976D01*
X92412125Y-95693838D01*
X92480397Y-95678984D01*
X92545862Y-95703398D01*
X92552074Y-95708367D01*
X92570584Y-95724176D01*
X92570586Y-95724177D01*
X92570589Y-95724179D01*
X92773037Y-95848240D01*
X92773040Y-95848242D01*
X92992403Y-95939104D01*
X92992404Y-95939104D01*
X92992406Y-95939105D01*
X93223289Y-95994535D01*
X93460000Y-96013165D01*
X93696711Y-95994535D01*
X93927594Y-95939105D01*
X93927596Y-95939104D01*
X93927597Y-95939104D01*
X94146959Y-95848242D01*
X94146960Y-95848241D01*
X94146963Y-95848240D01*
X94349416Y-95724176D01*
X94529969Y-95569969D01*
X94635713Y-95446158D01*
X94694215Y-95407969D01*
X94764083Y-95407469D01*
X94823129Y-95444823D01*
X94824279Y-95446150D01*
X94930031Y-95569969D01*
X95054306Y-95676110D01*
X95110586Y-95724178D01*
X95110589Y-95724179D01*
X95313037Y-95848240D01*
X95313040Y-95848242D01*
X95532403Y-95939104D01*
X95532404Y-95939104D01*
X95532406Y-95939105D01*
X95763289Y-95994535D01*
X96000000Y-96013165D01*
X96236711Y-95994535D01*
X96467594Y-95939105D01*
X96467596Y-95939104D01*
X96467597Y-95939104D01*
X96686959Y-95848242D01*
X96686960Y-95848241D01*
X96686963Y-95848240D01*
X96889416Y-95724176D01*
X97069969Y-95569969D01*
X97224176Y-95389416D01*
X97348240Y-95186963D01*
X97439105Y-94967594D01*
X97494535Y-94736711D01*
X97513165Y-94500000D01*
X97494535Y-94263289D01*
X97439105Y-94032406D01*
X97439104Y-94032403D01*
X97439104Y-94032402D01*
X97348242Y-93813040D01*
X97348240Y-93813037D01*
X97224179Y-93610589D01*
X97224178Y-93610586D01*
X97175710Y-93553838D01*
X97069969Y-93430031D01*
X96889416Y-93275824D01*
X96860177Y-93257906D01*
X96817709Y-93231881D01*
X96770834Y-93180069D01*
X96758500Y-93126154D01*
X96758500Y-92986835D01*
X96758500Y-92064280D01*
X96759808Y-92046327D01*
X96763341Y-92022211D01*
X96758735Y-91969573D01*
X96758500Y-91964172D01*
X96758500Y-91955824D01*
X96758499Y-91955813D01*
X96754652Y-91922903D01*
X96747887Y-91845576D01*
X96746427Y-91838503D01*
X96746473Y-91838493D01*
X96744790Y-91830902D01*
X96744744Y-91830914D01*
X96743080Y-91823895D01*
X96743079Y-91823887D01*
X96716526Y-91750934D01*
X96692114Y-91677262D01*
X96692113Y-91677260D01*
X96689061Y-91670715D01*
X96689105Y-91670694D01*
X96685717Y-91663695D01*
X96685674Y-91663717D01*
X96682436Y-91657269D01*
X96639766Y-91592394D01*
X96599030Y-91526349D01*
X96594553Y-91520687D01*
X96594590Y-91520656D01*
X96589681Y-91514629D01*
X96589645Y-91514660D01*
X96585005Y-91509131D01*
X96585003Y-91509129D01*
X96585001Y-91509126D01*
X96553891Y-91479775D01*
X96528517Y-91455835D01*
X91581804Y-86509123D01*
X91570022Y-86495490D01*
X91555472Y-86475946D01*
X91555471Y-86475945D01*
X91555469Y-86475942D01*
X91545524Y-86467597D01*
X91514987Y-86441972D01*
X91510998Y-86438317D01*
X91505102Y-86432421D01*
X91505101Y-86432420D01*
X91479103Y-86411863D01*
X91419640Y-86361968D01*
X91419635Y-86361965D01*
X91413605Y-86357999D01*
X91413630Y-86357959D01*
X91407069Y-86353779D01*
X91407045Y-86353820D01*
X91400904Y-86350031D01*
X91330540Y-86317220D01*
X91261185Y-86282389D01*
X91254401Y-86279920D01*
X91254416Y-86279876D01*
X91247071Y-86277322D01*
X91247057Y-86277367D01*
X91240205Y-86275096D01*
X91202177Y-86267244D01*
X91164149Y-86259392D01*
X91088656Y-86241500D01*
X91088654Y-86241500D01*
X91088646Y-86241498D01*
X91081482Y-86240661D01*
X91081487Y-86240612D01*
X91073757Y-86239822D01*
X91073753Y-86239870D01*
X91066562Y-86239240D01*
X90988920Y-86241500D01*
X86373845Y-86241500D01*
X86306806Y-86221815D01*
X86268118Y-86182290D01*
X86224179Y-86110588D01*
X86224178Y-86110587D01*
X86224177Y-86110586D01*
X86224176Y-86110584D01*
X86169050Y-86046040D01*
X86140481Y-85982280D01*
X86150918Y-85913194D01*
X86190540Y-85868122D01*
X86189104Y-85866204D01*
X86196204Y-85860889D01*
X86313261Y-85773261D01*
X86400889Y-85656204D01*
X86451989Y-85519201D01*
X86455591Y-85485692D01*
X86458499Y-85458654D01*
X86458500Y-85458637D01*
X86458500Y-84580001D01*
X92186502Y-84580001D01*
X92206456Y-84808081D01*
X92206457Y-84808089D01*
X92265714Y-85029238D01*
X92265718Y-85029249D01*
X92362475Y-85236745D01*
X92362477Y-85236749D01*
X92493802Y-85424300D01*
X92655700Y-85586198D01*
X92843251Y-85717523D01*
X92912899Y-85750000D01*
X93050750Y-85814281D01*
X93050752Y-85814281D01*
X93050757Y-85814284D01*
X93271913Y-85873543D01*
X93434832Y-85887796D01*
X93499998Y-85893498D01*
X93500000Y-85893498D01*
X93500002Y-85893498D01*
X93557021Y-85888509D01*
X93728087Y-85873543D01*
X93949243Y-85814284D01*
X94156749Y-85717523D01*
X94344300Y-85586198D01*
X94506198Y-85424300D01*
X94637523Y-85236749D01*
X94734284Y-85029243D01*
X94793543Y-84808087D01*
X94813498Y-84580000D01*
X94793543Y-84351913D01*
X94734284Y-84130757D01*
X94729496Y-84120490D01*
X94695736Y-84048091D01*
X94637523Y-83923251D01*
X94506198Y-83735700D01*
X94344300Y-83573802D01*
X94156749Y-83442477D01*
X94156745Y-83442475D01*
X93949249Y-83345718D01*
X93949238Y-83345714D01*
X93728089Y-83286457D01*
X93728081Y-83286456D01*
X93500002Y-83266502D01*
X93499998Y-83266502D01*
X93271918Y-83286456D01*
X93271910Y-83286457D01*
X93050761Y-83345714D01*
X93050750Y-83345718D01*
X92843254Y-83442475D01*
X92843252Y-83442476D01*
X92772856Y-83491767D01*
X92655700Y-83573802D01*
X92655698Y-83573803D01*
X92655695Y-83573806D01*
X92493806Y-83735695D01*
X92493803Y-83735698D01*
X92493802Y-83735700D01*
X92411767Y-83852856D01*
X92362476Y-83923252D01*
X92362475Y-83923254D01*
X92265718Y-84130750D01*
X92265714Y-84130761D01*
X92206457Y-84351910D01*
X92206456Y-84351918D01*
X92186502Y-84579998D01*
X92186502Y-84580001D01*
X86458500Y-84580001D01*
X86458500Y-83461362D01*
X86458499Y-83461345D01*
X86454913Y-83427994D01*
X86451989Y-83400799D01*
X86450237Y-83396102D01*
X86409341Y-83286457D01*
X86400889Y-83263796D01*
X86313261Y-83146739D01*
X86196204Y-83059111D01*
X86196204Y-83059110D01*
X86059203Y-83008011D01*
X85998654Y-83001500D01*
X85998638Y-83001500D01*
X84001362Y-83001500D01*
X84001345Y-83001500D01*
X83940797Y-83008011D01*
X83940795Y-83008011D01*
X83803795Y-83059111D01*
X83686739Y-83146739D01*
X83599111Y-83263795D01*
X83548011Y-83400795D01*
X83548011Y-83400797D01*
X83541500Y-83461345D01*
X83541500Y-85458654D01*
X83548011Y-85519202D01*
X83548011Y-85519204D01*
X83587097Y-85623993D01*
X83599111Y-85656204D01*
X83686739Y-85773261D01*
X83803796Y-85860889D01*
X83810896Y-85866204D01*
X83808598Y-85869273D01*
X83845288Y-85905716D01*
X83860370Y-85973938D01*
X83836174Y-86039485D01*
X83830948Y-86046040D01*
X83775826Y-86110580D01*
X83775820Y-86110589D01*
X83651759Y-86313037D01*
X83651757Y-86313040D01*
X83560895Y-86532402D01*
X83560895Y-86532404D01*
X83505465Y-86763285D01*
X83495538Y-86889416D01*
X83486835Y-87000000D01*
X83491492Y-87059177D01*
X83505465Y-87236714D01*
X83560895Y-87467595D01*
X83560895Y-87467597D01*
X83651757Y-87686959D01*
X83651759Y-87686962D01*
X83775820Y-87889410D01*
X83775821Y-87889413D01*
X83775824Y-87889416D01*
X83930031Y-88069969D01*
X84053838Y-88175710D01*
X84092031Y-88234217D01*
X84092529Y-88304085D01*
X84055176Y-88363131D01*
X84053838Y-88364290D01*
X83930031Y-88470031D01*
X83775821Y-88650586D01*
X83775820Y-88650589D01*
X83651759Y-88853037D01*
X83651757Y-88853040D01*
X83560895Y-89072402D01*
X83560895Y-89072404D01*
X83505465Y-89303285D01*
X83486835Y-89540000D01*
X83505465Y-89776714D01*
X83560895Y-90007595D01*
X83560895Y-90007597D01*
X83651757Y-90226959D01*
X83651759Y-90226962D01*
X83775820Y-90429410D01*
X83775821Y-90429413D01*
X83775824Y-90429416D01*
X83930031Y-90609969D01*
X84069797Y-90729340D01*
X84110586Y-90764178D01*
X84110588Y-90764179D01*
X84182290Y-90808118D01*
X84229165Y-90859929D01*
X84241500Y-90913845D01*
X84241500Y-95435706D01*
X84240191Y-95453676D01*
X84236658Y-95477791D01*
X84241264Y-95530420D01*
X84241500Y-95535827D01*
X84241500Y-95544178D01*
X84245347Y-95577096D01*
X84252112Y-95654427D01*
X84253572Y-95661494D01*
X84253526Y-95661503D01*
X84255209Y-95669094D01*
X84255254Y-95669084D01*
X84256919Y-95676110D01*
X84283473Y-95749065D01*
X84307886Y-95822737D01*
X84310940Y-95829286D01*
X84310896Y-95829306D01*
X84314284Y-95836304D01*
X84314327Y-95836283D01*
X84317568Y-95842737D01*
X84360232Y-95907604D01*
X84379662Y-95939105D01*
X84400970Y-95973651D01*
X84400972Y-95973653D01*
X84405451Y-95979318D01*
X84405413Y-95979347D01*
X84410320Y-95985372D01*
X84410357Y-95985342D01*
X84415002Y-95990878D01*
X84471482Y-96044163D01*
X96665181Y-108237862D01*
X96698666Y-108299185D01*
X96701500Y-108325543D01*
X96701500Y-108626154D01*
X96681815Y-108693193D01*
X96642291Y-108731881D01*
X96570585Y-108775823D01*
X96390031Y-108930031D01*
X96280541Y-109058226D01*
X96222034Y-109096419D01*
X96152166Y-109096917D01*
X96095021Y-109061677D01*
X95939401Y-108892629D01*
X95939397Y-108892626D01*
X95743237Y-108739948D01*
X95743228Y-108739942D01*
X95524614Y-108621635D01*
X95524603Y-108621630D01*
X95289492Y-108540916D01*
X95170000Y-108520976D01*
X95169999Y-108520976D01*
X95169999Y-109387698D01*
X95150314Y-109454738D01*
X95097510Y-109500492D01*
X95028353Y-109510436D01*
X94955764Y-109500000D01*
X94955763Y-109500000D01*
X94884237Y-109500000D01*
X94884233Y-109500000D01*
X94811645Y-109510436D01*
X94742487Y-109500492D01*
X94689684Y-109454736D01*
X94670000Y-109387698D01*
X94670000Y-108520976D01*
X94669999Y-108520976D01*
X94550507Y-108540916D01*
X94315396Y-108621630D01*
X94315385Y-108621635D01*
X94096771Y-108739942D01*
X94096762Y-108739948D01*
X93900602Y-108892626D01*
X93900592Y-108892635D01*
X93744977Y-109061677D01*
X93685090Y-109097668D01*
X93615252Y-109095567D01*
X93559458Y-109058226D01*
X93510877Y-109001345D01*
X93449969Y-108930031D01*
X93269416Y-108775824D01*
X93249347Y-108763525D01*
X93197709Y-108731881D01*
X93150834Y-108680069D01*
X93138500Y-108626154D01*
X93138500Y-107444294D01*
X93139809Y-107426324D01*
X93140229Y-107423449D01*
X93143341Y-107402211D01*
X93138735Y-107349573D01*
X93138500Y-107344172D01*
X93138500Y-107335824D01*
X93138499Y-107335813D01*
X93134652Y-107302903D01*
X93127887Y-107225576D01*
X93126427Y-107218503D01*
X93126473Y-107218493D01*
X93124790Y-107210902D01*
X93124744Y-107210914D01*
X93123080Y-107203895D01*
X93123079Y-107203887D01*
X93096526Y-107130934D01*
X93072114Y-107057262D01*
X93072113Y-107057260D01*
X93069061Y-107050715D01*
X93069105Y-107050694D01*
X93065717Y-107043695D01*
X93065674Y-107043717D01*
X93062436Y-107037269D01*
X93019766Y-106972394D01*
X92979030Y-106906349D01*
X92974553Y-106900687D01*
X92974590Y-106900656D01*
X92969681Y-106894629D01*
X92969645Y-106894660D01*
X92965005Y-106889131D01*
X92965003Y-106889129D01*
X92965001Y-106889126D01*
X92928469Y-106854660D01*
X92908517Y-106835835D01*
X82294819Y-96222137D01*
X82261334Y-96160814D01*
X82258500Y-96134456D01*
X82258500Y-75977791D01*
X89486658Y-75977791D01*
X89491264Y-76030420D01*
X89491500Y-76035827D01*
X89491500Y-76044178D01*
X89495347Y-76077096D01*
X89502112Y-76154427D01*
X89503572Y-76161494D01*
X89503526Y-76161503D01*
X89505209Y-76169094D01*
X89505254Y-76169084D01*
X89506919Y-76176110D01*
X89533473Y-76249065D01*
X89557886Y-76322737D01*
X89560940Y-76329286D01*
X89560896Y-76329306D01*
X89564284Y-76336304D01*
X89564327Y-76336283D01*
X89567568Y-76342737D01*
X89610232Y-76407604D01*
X89624065Y-76430031D01*
X89650970Y-76473651D01*
X89650972Y-76473653D01*
X89655451Y-76479318D01*
X89655413Y-76479347D01*
X89660320Y-76485372D01*
X89660357Y-76485342D01*
X89665002Y-76490878D01*
X89721482Y-76544163D01*
X99636196Y-86458877D01*
X99647977Y-86472509D01*
X99662531Y-86492058D01*
X99703012Y-86526025D01*
X99706986Y-86529667D01*
X99712900Y-86535581D01*
X99738895Y-86556135D01*
X99798360Y-86606032D01*
X99798361Y-86606032D01*
X99798363Y-86606034D01*
X99804396Y-86610002D01*
X99804370Y-86610041D01*
X99810927Y-86614218D01*
X99810953Y-86614178D01*
X99817091Y-86617964D01*
X99817095Y-86617967D01*
X99887452Y-86650775D01*
X99956812Y-86685609D01*
X99956818Y-86685610D01*
X99963606Y-86688082D01*
X99963589Y-86688128D01*
X99970924Y-86690677D01*
X99970940Y-86690632D01*
X99977789Y-86692902D01*
X99977794Y-86692903D01*
X100053850Y-86708607D01*
X100114603Y-86723006D01*
X100129339Y-86726499D01*
X100129340Y-86726499D01*
X100129344Y-86726500D01*
X100129348Y-86726500D01*
X100136517Y-86727338D01*
X100136511Y-86727386D01*
X100144242Y-86728177D01*
X100144247Y-86728130D01*
X100151437Y-86728759D01*
X100151441Y-86728758D01*
X100151442Y-86728759D01*
X100229080Y-86726500D01*
X101542260Y-86726500D01*
X101609299Y-86746185D01*
X101646068Y-86782677D01*
X101701094Y-86866900D01*
X101864799Y-87044731D01*
X101987389Y-87140147D01*
X102028202Y-87196857D01*
X102031877Y-87266630D01*
X101997246Y-87327313D01*
X101987394Y-87335849D01*
X101913201Y-87393596D01*
X101864800Y-87431268D01*
X101701095Y-87609098D01*
X101701092Y-87609102D01*
X101568891Y-87811449D01*
X101471797Y-88032802D01*
X101412460Y-88267119D01*
X101392501Y-88507994D01*
X101392501Y-88508005D01*
X101412460Y-88748880D01*
X101471797Y-88983197D01*
X101568891Y-89204550D01*
X101633401Y-89303289D01*
X101701094Y-89406900D01*
X101864799Y-89584731D01*
X101987389Y-89680147D01*
X102028202Y-89736857D01*
X102031877Y-89806630D01*
X101997246Y-89867313D01*
X101987394Y-89875849D01*
X101903793Y-89940918D01*
X101864800Y-89971268D01*
X101701095Y-90149098D01*
X101701092Y-90149102D01*
X101568891Y-90351449D01*
X101471797Y-90572802D01*
X101412460Y-90807119D01*
X101392501Y-91047994D01*
X101392501Y-91048005D01*
X101412460Y-91288880D01*
X101471797Y-91523197D01*
X101568891Y-91744550D01*
X101701092Y-91946897D01*
X101701094Y-91946900D01*
X101864799Y-92124731D01*
X101864802Y-92124733D01*
X101864805Y-92124736D01*
X102055533Y-92273186D01*
X102055539Y-92273190D01*
X102055542Y-92273192D01*
X102268119Y-92388233D01*
X102386829Y-92428986D01*
X102496728Y-92466715D01*
X102496730Y-92466715D01*
X102496732Y-92466716D01*
X102735145Y-92506500D01*
X102735146Y-92506500D01*
X102976854Y-92506500D01*
X102976855Y-92506500D01*
X103215268Y-92466716D01*
X103443881Y-92388233D01*
X103656458Y-92273192D01*
X103847201Y-92124731D01*
X104010906Y-91946900D01*
X104143109Y-91744549D01*
X104240203Y-91523197D01*
X104299539Y-91288884D01*
X104319499Y-91048000D01*
X104299539Y-90807116D01*
X104240203Y-90572803D01*
X104143109Y-90351451D01*
X104010906Y-90149100D01*
X103847201Y-89971269D01*
X103724610Y-89875852D01*
X103683798Y-89819143D01*
X103680123Y-89749370D01*
X103714754Y-89688687D01*
X103724605Y-89680150D01*
X103847201Y-89584731D01*
X104010906Y-89406900D01*
X104065931Y-89322677D01*
X104119079Y-89277321D01*
X104169740Y-89266500D01*
X107177706Y-89266500D01*
X107195676Y-89267809D01*
X107198174Y-89268174D01*
X107219789Y-89271341D01*
X107272426Y-89266735D01*
X107277828Y-89266500D01*
X107286175Y-89266500D01*
X107286180Y-89266500D01*
X107309835Y-89263734D01*
X107319096Y-89262652D01*
X107396419Y-89255888D01*
X107396422Y-89255887D01*
X107396426Y-89255887D01*
X107396429Y-89255885D01*
X107403493Y-89254427D01*
X107403502Y-89254474D01*
X107411097Y-89252790D01*
X107411087Y-89252744D01*
X107418107Y-89251079D01*
X107418113Y-89251079D01*
X107491065Y-89224526D01*
X107564738Y-89200114D01*
X107564746Y-89200108D01*
X107571284Y-89197061D01*
X107571305Y-89197106D01*
X107578302Y-89193719D01*
X107578280Y-89193675D01*
X107584729Y-89190436D01*
X107584728Y-89190436D01*
X107584732Y-89190435D01*
X107649605Y-89147766D01*
X107715651Y-89107030D01*
X107715655Y-89107025D01*
X107721319Y-89102548D01*
X107721350Y-89102587D01*
X107727374Y-89097680D01*
X107727342Y-89097642D01*
X107732864Y-89093007D01*
X107732874Y-89093001D01*
X107754823Y-89069735D01*
X107786163Y-89036518D01*
X109429084Y-87393596D01*
X109990880Y-86831799D01*
X110004506Y-86820023D01*
X110024058Y-86805469D01*
X110024060Y-86805467D01*
X110058015Y-86765000D01*
X110061675Y-86761005D01*
X110067580Y-86755101D01*
X110088136Y-86729103D01*
X110120380Y-86690677D01*
X110138033Y-86669639D01*
X110142003Y-86663603D01*
X110142043Y-86663629D01*
X110146212Y-86657086D01*
X110146171Y-86657061D01*
X110149964Y-86650911D01*
X110149965Y-86650908D01*
X110149967Y-86650906D01*
X110182773Y-86580552D01*
X110217609Y-86511188D01*
X110217610Y-86511180D01*
X110220079Y-86504400D01*
X110220126Y-86504417D01*
X110222678Y-86497075D01*
X110222631Y-86497060D01*
X110224900Y-86490211D01*
X110224900Y-86490209D01*
X110224902Y-86490206D01*
X110240599Y-86414181D01*
X110258500Y-86338656D01*
X110258500Y-86338654D01*
X110258501Y-86338650D01*
X110259339Y-86331483D01*
X110259386Y-86331488D01*
X110260176Y-86323756D01*
X110260129Y-86323752D01*
X110260758Y-86316555D01*
X110258499Y-86238955D01*
X110258499Y-84351910D01*
X110258499Y-82314280D01*
X110259808Y-82296327D01*
X110263341Y-82272211D01*
X110258735Y-82219573D01*
X110258500Y-82214172D01*
X110258500Y-82205824D01*
X110258499Y-82205813D01*
X110254652Y-82172903D01*
X110247887Y-82095576D01*
X110246427Y-82088503D01*
X110246473Y-82088493D01*
X110244790Y-82080902D01*
X110244744Y-82080914D01*
X110243080Y-82073895D01*
X110243079Y-82073887D01*
X110216526Y-82000934D01*
X110192114Y-81927262D01*
X110192113Y-81927260D01*
X110189061Y-81920715D01*
X110189105Y-81920694D01*
X110185717Y-81913695D01*
X110185674Y-81913717D01*
X110182436Y-81907269D01*
X110139766Y-81842394D01*
X110099030Y-81776349D01*
X110094553Y-81770687D01*
X110094590Y-81770656D01*
X110089681Y-81764629D01*
X110089645Y-81764660D01*
X110085005Y-81759131D01*
X110085003Y-81759129D01*
X110085001Y-81759126D01*
X110053891Y-81729775D01*
X110028517Y-81705835D01*
X106367085Y-78044403D01*
X110987628Y-78044403D01*
X111018416Y-78219014D01*
X111018417Y-78219017D01*
X111018418Y-78219021D01*
X111088648Y-78381832D01*
X111194531Y-78524058D01*
X111330360Y-78638032D01*
X111488812Y-78717609D01*
X111661344Y-78758500D01*
X111661346Y-78758500D01*
X112044173Y-78758500D01*
X112044180Y-78758500D01*
X112176113Y-78743079D01*
X112342732Y-78682435D01*
X112490874Y-78585001D01*
X112612553Y-78456029D01*
X112701209Y-78302472D01*
X112752062Y-78132609D01*
X112762372Y-77955597D01*
X112731582Y-77780979D01*
X112661352Y-77618168D01*
X112555469Y-77475942D01*
X112419640Y-77361968D01*
X112261188Y-77282391D01*
X112088656Y-77241500D01*
X111705820Y-77241500D01*
X111590378Y-77254993D01*
X111573886Y-77256921D01*
X111573883Y-77256922D01*
X111407270Y-77317563D01*
X111259125Y-77414999D01*
X111137448Y-77543969D01*
X111137444Y-77543974D01*
X111048792Y-77697525D01*
X110997938Y-77867389D01*
X110997937Y-77867395D01*
X110987628Y-78044402D01*
X110987628Y-78044403D01*
X106367085Y-78044403D01*
X97044819Y-68722137D01*
X97011334Y-68660814D01*
X97008500Y-68634456D01*
X97008500Y-63743654D01*
X99331500Y-63743654D01*
X99338011Y-63804202D01*
X99338011Y-63804204D01*
X99387928Y-63938033D01*
X99389111Y-63941204D01*
X99476739Y-64058261D01*
X99593796Y-64145889D01*
X99730799Y-64196989D01*
X99758050Y-64199918D01*
X99791345Y-64203499D01*
X99791362Y-64203500D01*
X101418638Y-64203500D01*
X101418654Y-64203499D01*
X101445692Y-64200591D01*
X101479201Y-64196989D01*
X101616204Y-64145889D01*
X101733261Y-64058261D01*
X101820889Y-63941204D01*
X101820889Y-63941201D01*
X101823262Y-63938033D01*
X101879195Y-63896161D01*
X101948887Y-63891177D01*
X102010210Y-63924662D01*
X102016812Y-63931803D01*
X102075031Y-63999969D01*
X102209946Y-64115197D01*
X102255586Y-64154178D01*
X102255588Y-64154178D01*
X102325448Y-64196989D01*
X102458037Y-64278240D01*
X102458040Y-64278242D01*
X102677403Y-64369104D01*
X102677404Y-64369104D01*
X102677406Y-64369105D01*
X102908289Y-64424535D01*
X103145000Y-64443165D01*
X103381711Y-64424535D01*
X103612594Y-64369105D01*
X103612596Y-64369104D01*
X103612597Y-64369104D01*
X103831959Y-64278242D01*
X103831960Y-64278241D01*
X103831963Y-64278240D01*
X104034416Y-64154176D01*
X104214969Y-63999969D01*
X104320713Y-63876158D01*
X104379215Y-63837969D01*
X104449083Y-63837469D01*
X104508129Y-63874823D01*
X104509279Y-63876150D01*
X104615031Y-63999969D01*
X104749946Y-64115197D01*
X104795586Y-64154178D01*
X104795588Y-64154178D01*
X104865448Y-64196989D01*
X104998037Y-64278240D01*
X104998040Y-64278242D01*
X105217403Y-64369104D01*
X105217404Y-64369104D01*
X105217406Y-64369105D01*
X105448289Y-64424535D01*
X105685000Y-64443165D01*
X105921711Y-64424535D01*
X106152594Y-64369105D01*
X106152596Y-64369104D01*
X106152597Y-64369104D01*
X106371959Y-64278242D01*
X106371960Y-64278241D01*
X106371963Y-64278240D01*
X106574416Y-64154176D01*
X106754969Y-63999969D01*
X106860711Y-63876160D01*
X106919216Y-63837968D01*
X106989084Y-63837469D01*
X107048131Y-63874823D01*
X107049200Y-63876057D01*
X107155030Y-63999968D01*
X107155031Y-63999969D01*
X107335586Y-64154178D01*
X107335588Y-64154178D01*
X107405448Y-64196989D01*
X107538037Y-64278240D01*
X107538040Y-64278242D01*
X107757403Y-64369104D01*
X107757404Y-64369104D01*
X107757406Y-64369105D01*
X107988289Y-64424535D01*
X108225000Y-64443165D01*
X108461711Y-64424535D01*
X108692594Y-64369105D01*
X108692596Y-64369104D01*
X108692597Y-64369104D01*
X108911959Y-64278242D01*
X108911960Y-64278241D01*
X108911963Y-64278240D01*
X109114416Y-64154176D01*
X109294969Y-63999969D01*
X109400711Y-63876160D01*
X109459216Y-63837968D01*
X109529084Y-63837469D01*
X109588131Y-63874823D01*
X109589200Y-63876057D01*
X109695030Y-63999968D01*
X109695031Y-63999969D01*
X109875586Y-64154178D01*
X109875588Y-64154178D01*
X109945448Y-64196989D01*
X110078037Y-64278240D01*
X110078040Y-64278242D01*
X110297403Y-64369104D01*
X110297404Y-64369104D01*
X110297406Y-64369105D01*
X110528289Y-64424535D01*
X110765000Y-64443165D01*
X111001711Y-64424535D01*
X111232594Y-64369105D01*
X111232596Y-64369104D01*
X111232597Y-64369104D01*
X111451959Y-64278242D01*
X111451960Y-64278241D01*
X111451963Y-64278240D01*
X111654416Y-64154176D01*
X111834969Y-63999969D01*
X111940711Y-63876160D01*
X111999216Y-63837968D01*
X112069084Y-63837469D01*
X112128131Y-63874823D01*
X112129200Y-63876057D01*
X112235030Y-63999968D01*
X112235031Y-63999969D01*
X112415586Y-64154178D01*
X112415588Y-64154178D01*
X112485448Y-64196989D01*
X112618037Y-64278240D01*
X112618040Y-64278242D01*
X112837403Y-64369104D01*
X112837404Y-64369104D01*
X112837406Y-64369105D01*
X113068289Y-64424535D01*
X113305000Y-64443165D01*
X113541711Y-64424535D01*
X113772594Y-64369105D01*
X113772596Y-64369104D01*
X113772597Y-64369104D01*
X113991959Y-64278242D01*
X113991960Y-64278241D01*
X113991963Y-64278240D01*
X114194416Y-64154176D01*
X114374969Y-63999969D01*
X114480711Y-63876160D01*
X114539216Y-63837968D01*
X114609084Y-63837469D01*
X114668131Y-63874823D01*
X114669200Y-63876057D01*
X114775030Y-63999968D01*
X114775031Y-63999969D01*
X114955586Y-64154178D01*
X114955588Y-64154178D01*
X115025448Y-64196989D01*
X115158037Y-64278240D01*
X115158040Y-64278242D01*
X115377403Y-64369104D01*
X115377404Y-64369104D01*
X115377406Y-64369105D01*
X115608289Y-64424535D01*
X115845000Y-64443165D01*
X116081711Y-64424535D01*
X116312594Y-64369105D01*
X116312596Y-64369104D01*
X116312597Y-64369104D01*
X116531959Y-64278242D01*
X116531960Y-64278241D01*
X116531963Y-64278240D01*
X116734416Y-64154176D01*
X116914969Y-63999969D01*
X117020711Y-63876160D01*
X117079216Y-63837968D01*
X117149084Y-63837469D01*
X117208131Y-63874823D01*
X117209200Y-63876057D01*
X117315030Y-63999968D01*
X117315031Y-63999969D01*
X117495586Y-64154178D01*
X117495588Y-64154178D01*
X117565448Y-64196989D01*
X117698037Y-64278240D01*
X117698040Y-64278242D01*
X117917403Y-64369104D01*
X117917404Y-64369104D01*
X117917406Y-64369105D01*
X118148289Y-64424535D01*
X118385000Y-64443165D01*
X118621711Y-64424535D01*
X118852594Y-64369105D01*
X118852596Y-64369104D01*
X118852597Y-64369104D01*
X119071959Y-64278242D01*
X119071960Y-64278241D01*
X119071963Y-64278240D01*
X119274416Y-64154176D01*
X119454969Y-63999969D01*
X119560711Y-63876160D01*
X119619216Y-63837968D01*
X119689084Y-63837469D01*
X119748131Y-63874823D01*
X119749200Y-63876057D01*
X119855030Y-63999968D01*
X119855031Y-63999969D01*
X120035586Y-64154178D01*
X120035588Y-64154178D01*
X120105448Y-64196989D01*
X120238037Y-64278240D01*
X120238040Y-64278242D01*
X120457403Y-64369104D01*
X120457404Y-64369104D01*
X120457406Y-64369105D01*
X120688289Y-64424535D01*
X120925000Y-64443165D01*
X121161711Y-64424535D01*
X121392594Y-64369105D01*
X121392596Y-64369104D01*
X121392597Y-64369104D01*
X121611959Y-64278242D01*
X121611960Y-64278241D01*
X121611963Y-64278240D01*
X121814416Y-64154176D01*
X121994969Y-63999969D01*
X122100711Y-63876160D01*
X122159216Y-63837968D01*
X122229084Y-63837469D01*
X122288131Y-63874823D01*
X122289200Y-63876057D01*
X122395030Y-63999968D01*
X122395031Y-63999969D01*
X122575586Y-64154178D01*
X122575588Y-64154178D01*
X122645448Y-64196989D01*
X122778037Y-64278240D01*
X122778040Y-64278242D01*
X122997403Y-64369104D01*
X122997404Y-64369104D01*
X122997406Y-64369105D01*
X123228289Y-64424535D01*
X123465000Y-64443165D01*
X123701711Y-64424535D01*
X123932594Y-64369105D01*
X123932596Y-64369104D01*
X123932597Y-64369104D01*
X124151959Y-64278242D01*
X124151960Y-64278241D01*
X124151963Y-64278240D01*
X124354416Y-64154176D01*
X124534969Y-63999969D01*
X124640713Y-63876158D01*
X124699215Y-63837969D01*
X124769083Y-63837469D01*
X124828129Y-63874823D01*
X124829279Y-63876150D01*
X124935031Y-63999969D01*
X125069946Y-64115197D01*
X125115586Y-64154178D01*
X125115588Y-64154178D01*
X125185448Y-64196989D01*
X125318037Y-64278240D01*
X125318040Y-64278242D01*
X125537403Y-64369104D01*
X125537404Y-64369104D01*
X125537406Y-64369105D01*
X125768289Y-64424535D01*
X126005000Y-64443165D01*
X126241711Y-64424535D01*
X126472594Y-64369105D01*
X126472596Y-64369104D01*
X126472597Y-64369104D01*
X126691959Y-64278242D01*
X126691960Y-64278241D01*
X126691963Y-64278240D01*
X126894416Y-64154176D01*
X127074969Y-63999969D01*
X127180711Y-63876160D01*
X127239216Y-63837968D01*
X127309084Y-63837469D01*
X127368131Y-63874823D01*
X127369200Y-63876057D01*
X127475030Y-63999968D01*
X127475031Y-63999969D01*
X127655586Y-64154178D01*
X127655588Y-64154178D01*
X127725448Y-64196989D01*
X127858037Y-64278240D01*
X127858040Y-64278242D01*
X128077403Y-64369104D01*
X128077404Y-64369104D01*
X128077406Y-64369105D01*
X128308289Y-64424535D01*
X128545000Y-64443165D01*
X128781711Y-64424535D01*
X129012594Y-64369105D01*
X129012596Y-64369104D01*
X129012597Y-64369104D01*
X129231959Y-64278242D01*
X129231960Y-64278241D01*
X129231963Y-64278240D01*
X129434416Y-64154176D01*
X129614969Y-63999969D01*
X129720711Y-63876160D01*
X129779216Y-63837968D01*
X129849084Y-63837469D01*
X129908131Y-63874823D01*
X129909200Y-63876057D01*
X130015030Y-63999968D01*
X130015031Y-63999969D01*
X130195586Y-64154178D01*
X130195588Y-64154178D01*
X130265448Y-64196989D01*
X130398037Y-64278240D01*
X130398040Y-64278242D01*
X130617403Y-64369104D01*
X130617404Y-64369104D01*
X130617406Y-64369105D01*
X130848289Y-64424535D01*
X131085000Y-64443165D01*
X131321711Y-64424535D01*
X131552594Y-64369105D01*
X131552596Y-64369104D01*
X131552597Y-64369104D01*
X131771959Y-64278242D01*
X131771960Y-64278241D01*
X131771963Y-64278240D01*
X131974416Y-64154176D01*
X132154969Y-63999969D01*
X132289720Y-63842195D01*
X132348228Y-63804002D01*
X132396802Y-63799388D01*
X132401564Y-63799881D01*
X133008814Y-63192631D01*
X133070137Y-63159146D01*
X133139828Y-63164130D01*
X133195762Y-63206001D01*
X133200810Y-63213272D01*
X133235603Y-63267410D01*
X133235603Y-63267411D01*
X133352219Y-63368460D01*
X133389993Y-63427239D01*
X133389993Y-63497108D01*
X133358697Y-63549854D01*
X132754942Y-64153609D01*
X132801768Y-64190055D01*
X132801770Y-64190056D01*
X133020385Y-64308364D01*
X133020396Y-64308369D01*
X133255506Y-64389083D01*
X133500707Y-64430000D01*
X133749293Y-64430000D01*
X133994493Y-64389083D01*
X134229603Y-64308369D01*
X134229614Y-64308364D01*
X134448228Y-64190057D01*
X134448231Y-64190055D01*
X134495056Y-64153609D01*
X133891301Y-63549854D01*
X133857816Y-63488531D01*
X133862800Y-63418839D01*
X133897780Y-63368460D01*
X133903559Y-63363452D01*
X133903562Y-63363451D01*
X134014395Y-63267413D01*
X134049187Y-63213274D01*
X134101990Y-63167519D01*
X134171149Y-63157575D01*
X134234705Y-63186599D01*
X134241184Y-63192632D01*
X134848433Y-63799881D01*
X134853196Y-63799388D01*
X134921909Y-63812051D01*
X134960276Y-63842192D01*
X135095031Y-63999969D01*
X135229946Y-64115197D01*
X135275586Y-64154178D01*
X135275588Y-64154178D01*
X135345448Y-64196989D01*
X135478037Y-64278240D01*
X135478040Y-64278242D01*
X135697403Y-64369104D01*
X135697404Y-64369104D01*
X135697406Y-64369105D01*
X135928289Y-64424535D01*
X136165000Y-64443165D01*
X136401711Y-64424535D01*
X136632594Y-64369105D01*
X136632596Y-64369104D01*
X136632597Y-64369104D01*
X136851959Y-64278242D01*
X136851960Y-64278241D01*
X136851963Y-64278240D01*
X137054416Y-64154176D01*
X137234969Y-63999969D01*
X137389176Y-63819416D01*
X137513240Y-63616963D01*
X137541038Y-63549854D01*
X137604104Y-63397597D01*
X137604104Y-63397596D01*
X137604105Y-63397594D01*
X137659535Y-63166711D01*
X137678165Y-62930000D01*
X137659535Y-62693289D01*
X137604105Y-62462406D01*
X137604104Y-62462403D01*
X137604104Y-62462402D01*
X137513242Y-62243040D01*
X137513240Y-62243037D01*
X137389179Y-62040589D01*
X137389178Y-62040586D01*
X137326226Y-61966879D01*
X137234969Y-61860031D01*
X137055078Y-61706389D01*
X137054413Y-61705821D01*
X137054410Y-61705820D01*
X136851962Y-61581759D01*
X136851959Y-61581757D01*
X136632596Y-61490895D01*
X136401714Y-61435465D01*
X136165000Y-61416835D01*
X135928285Y-61435465D01*
X135697404Y-61490895D01*
X135697402Y-61490895D01*
X135478040Y-61581757D01*
X135478037Y-61581759D01*
X135275589Y-61705820D01*
X135275586Y-61705821D01*
X135095031Y-61860031D01*
X134960280Y-62017804D01*
X134901773Y-62055997D01*
X134853199Y-62060611D01*
X134848434Y-62060116D01*
X134241184Y-62667367D01*
X134179861Y-62700852D01*
X134110169Y-62695868D01*
X134054236Y-62653996D01*
X134049187Y-62646725D01*
X134014395Y-62592587D01*
X134014392Y-62592584D01*
X133897779Y-62491537D01*
X133860005Y-62432759D01*
X133860005Y-62362889D01*
X133891301Y-62310144D01*
X134495056Y-61706389D01*
X134448229Y-61669943D01*
X134229614Y-61551635D01*
X134229603Y-61551630D01*
X133994493Y-61470916D01*
X133749293Y-61430000D01*
X133500707Y-61430000D01*
X133255506Y-61470916D01*
X133020396Y-61551630D01*
X133020390Y-61551632D01*
X132801761Y-61669949D01*
X132754942Y-61706388D01*
X132754942Y-61706390D01*
X133358697Y-62310145D01*
X133392182Y-62371468D01*
X133387198Y-62441160D01*
X133352220Y-62491538D01*
X133268387Y-62564181D01*
X133235609Y-62592584D01*
X133235604Y-62592588D01*
X133235603Y-62592589D01*
X133200811Y-62646726D01*
X133148007Y-62692481D01*
X133078848Y-62702424D01*
X133015292Y-62673398D01*
X133008815Y-62667367D01*
X132401564Y-62060116D01*
X132396800Y-62060611D01*
X132328087Y-62047946D01*
X132289719Y-62017803D01*
X132154971Y-61860033D01*
X132154967Y-61860030D01*
X132075883Y-61792485D01*
X131974413Y-61705821D01*
X131974410Y-61705820D01*
X131771962Y-61581759D01*
X131771959Y-61581757D01*
X131552596Y-61490895D01*
X131321714Y-61435465D01*
X131085000Y-61416835D01*
X130848285Y-61435465D01*
X130617404Y-61490895D01*
X130617402Y-61490895D01*
X130398040Y-61581757D01*
X130398037Y-61581759D01*
X130195589Y-61705820D01*
X130195586Y-61705821D01*
X130015031Y-61860030D01*
X130015031Y-61860031D01*
X129924200Y-61966381D01*
X129909290Y-61983838D01*
X129850783Y-62022031D01*
X129780915Y-62022529D01*
X129721869Y-61985176D01*
X129720710Y-61983838D01*
X129706226Y-61966879D01*
X129614969Y-61860031D01*
X129435078Y-61706389D01*
X129434413Y-61705821D01*
X129434410Y-61705820D01*
X129231962Y-61581759D01*
X129231959Y-61581757D01*
X129012596Y-61490895D01*
X128781714Y-61435465D01*
X128545000Y-61416835D01*
X128308285Y-61435465D01*
X128077404Y-61490895D01*
X128077402Y-61490895D01*
X127858040Y-61581757D01*
X127858037Y-61581759D01*
X127655589Y-61705820D01*
X127655586Y-61705821D01*
X127475031Y-61860030D01*
X127475031Y-61860031D01*
X127384200Y-61966381D01*
X127369290Y-61983838D01*
X127310783Y-62022031D01*
X127240915Y-62022529D01*
X127181869Y-61985176D01*
X127180710Y-61983838D01*
X127166226Y-61966879D01*
X127074969Y-61860031D01*
X126895078Y-61706389D01*
X126894413Y-61705821D01*
X126894410Y-61705820D01*
X126691962Y-61581759D01*
X126691959Y-61581757D01*
X126472596Y-61490895D01*
X126241714Y-61435465D01*
X126064177Y-61421492D01*
X126005000Y-61416835D01*
X126004999Y-61416835D01*
X125768285Y-61435465D01*
X125537404Y-61490895D01*
X125537402Y-61490895D01*
X125318040Y-61581757D01*
X125318037Y-61581759D01*
X125115589Y-61705820D01*
X125115586Y-61705821D01*
X124935031Y-61860031D01*
X124829289Y-61983838D01*
X124770782Y-62022031D01*
X124700914Y-62022529D01*
X124641868Y-61985175D01*
X124640804Y-61983947D01*
X124534969Y-61860031D01*
X124534968Y-61860030D01*
X124354413Y-61705821D01*
X124354410Y-61705820D01*
X124151962Y-61581759D01*
X124151959Y-61581757D01*
X123932596Y-61490895D01*
X123701714Y-61435465D01*
X123465000Y-61416835D01*
X123228285Y-61435465D01*
X122997404Y-61490895D01*
X122997402Y-61490895D01*
X122778040Y-61581757D01*
X122778037Y-61581759D01*
X122575589Y-61705820D01*
X122575586Y-61705821D01*
X122395031Y-61860030D01*
X122395031Y-61860031D01*
X122304200Y-61966381D01*
X122289290Y-61983838D01*
X122230783Y-62022031D01*
X122160915Y-62022529D01*
X122101869Y-61985176D01*
X122100710Y-61983838D01*
X122086226Y-61966879D01*
X121994969Y-61860031D01*
X121815078Y-61706389D01*
X121814413Y-61705821D01*
X121814410Y-61705820D01*
X121611962Y-61581759D01*
X121611959Y-61581757D01*
X121392596Y-61490895D01*
X121161714Y-61435465D01*
X120925000Y-61416835D01*
X120688285Y-61435465D01*
X120457404Y-61490895D01*
X120457402Y-61490895D01*
X120238040Y-61581757D01*
X120238037Y-61581759D01*
X120035589Y-61705820D01*
X120035586Y-61705821D01*
X119855030Y-61860030D01*
X119855031Y-61860031D01*
X119764200Y-61966381D01*
X119749290Y-61983838D01*
X119690783Y-62022031D01*
X119620915Y-62022529D01*
X119561869Y-61985176D01*
X119560710Y-61983838D01*
X119546226Y-61966879D01*
X119454969Y-61860031D01*
X119275078Y-61706389D01*
X119274413Y-61705821D01*
X119274410Y-61705820D01*
X119071962Y-61581759D01*
X119071959Y-61581757D01*
X118852596Y-61490895D01*
X118621714Y-61435465D01*
X118444177Y-61421492D01*
X118385000Y-61416835D01*
X118384999Y-61416835D01*
X118148285Y-61435465D01*
X117917404Y-61490895D01*
X117917402Y-61490895D01*
X117698040Y-61581757D01*
X117698037Y-61581759D01*
X117495589Y-61705820D01*
X117495586Y-61705821D01*
X117315031Y-61860031D01*
X117209289Y-61983838D01*
X117150782Y-62022031D01*
X117080914Y-62022529D01*
X117021868Y-61985175D01*
X117020804Y-61983947D01*
X116914969Y-61860031D01*
X116914968Y-61860030D01*
X116734413Y-61705821D01*
X116734410Y-61705820D01*
X116531962Y-61581759D01*
X116531959Y-61581757D01*
X116312596Y-61490895D01*
X116081714Y-61435465D01*
X115845000Y-61416835D01*
X115608285Y-61435465D01*
X115377404Y-61490895D01*
X115377402Y-61490895D01*
X115158040Y-61581757D01*
X115158037Y-61581759D01*
X114955589Y-61705820D01*
X114955586Y-61705821D01*
X114775031Y-61860030D01*
X114775031Y-61860031D01*
X114684200Y-61966381D01*
X114669290Y-61983838D01*
X114610783Y-62022031D01*
X114540915Y-62022529D01*
X114481869Y-61985176D01*
X114480710Y-61983838D01*
X114466226Y-61966879D01*
X114374969Y-61860031D01*
X114195078Y-61706389D01*
X114194413Y-61705821D01*
X114194410Y-61705820D01*
X113991962Y-61581759D01*
X113991959Y-61581757D01*
X113772596Y-61490895D01*
X113541714Y-61435465D01*
X113364177Y-61421492D01*
X113305000Y-61416835D01*
X113304999Y-61416835D01*
X113068285Y-61435465D01*
X112837404Y-61490895D01*
X112837402Y-61490895D01*
X112618040Y-61581757D01*
X112618037Y-61581759D01*
X112415589Y-61705820D01*
X112415586Y-61705821D01*
X112235030Y-61860030D01*
X112235031Y-61860031D01*
X112144200Y-61966381D01*
X112129290Y-61983838D01*
X112070783Y-62022031D01*
X112000915Y-62022529D01*
X111941869Y-61985176D01*
X111940710Y-61983838D01*
X111926226Y-61966879D01*
X111834969Y-61860031D01*
X111655078Y-61706389D01*
X111654413Y-61705821D01*
X111654410Y-61705820D01*
X111451962Y-61581759D01*
X111451959Y-61581757D01*
X111232596Y-61490895D01*
X111001714Y-61435465D01*
X110824177Y-61421492D01*
X110765000Y-61416835D01*
X110764999Y-61416835D01*
X110528285Y-61435465D01*
X110297404Y-61490895D01*
X110297402Y-61490895D01*
X110078040Y-61581757D01*
X110078037Y-61581759D01*
X109875589Y-61705820D01*
X109875586Y-61705821D01*
X109695031Y-61860031D01*
X109589289Y-61983838D01*
X109530782Y-62022031D01*
X109460914Y-62022529D01*
X109401868Y-61985175D01*
X109400804Y-61983947D01*
X109294969Y-61860031D01*
X109294968Y-61860030D01*
X109114413Y-61705821D01*
X109114410Y-61705820D01*
X108911962Y-61581759D01*
X108911959Y-61581757D01*
X108692596Y-61490895D01*
X108461714Y-61435465D01*
X108225000Y-61416835D01*
X107988285Y-61435465D01*
X107757404Y-61490895D01*
X107757402Y-61490895D01*
X107538040Y-61581757D01*
X107538037Y-61581759D01*
X107335589Y-61705820D01*
X107335586Y-61705821D01*
X107155032Y-61860030D01*
X107155031Y-61860031D01*
X107064200Y-61966381D01*
X107049290Y-61983838D01*
X106990783Y-62022031D01*
X106920915Y-62022529D01*
X106861869Y-61985176D01*
X106860710Y-61983838D01*
X106846226Y-61966879D01*
X106754969Y-61860031D01*
X106575078Y-61706389D01*
X106574413Y-61705821D01*
X106574410Y-61705820D01*
X106371962Y-61581759D01*
X106371959Y-61581757D01*
X106152596Y-61490895D01*
X105921714Y-61435465D01*
X105744177Y-61421492D01*
X105685000Y-61416835D01*
X105684999Y-61416835D01*
X105448285Y-61435465D01*
X105217404Y-61490895D01*
X105217402Y-61490895D01*
X104998040Y-61581757D01*
X104998037Y-61581759D01*
X104795589Y-61705820D01*
X104795586Y-61705821D01*
X104615032Y-61860030D01*
X104615031Y-61860031D01*
X104524200Y-61966381D01*
X104509290Y-61983838D01*
X104450783Y-62022031D01*
X104380915Y-62022529D01*
X104321869Y-61985176D01*
X104320710Y-61983838D01*
X104306226Y-61966879D01*
X104214969Y-61860031D01*
X104035078Y-61706389D01*
X104034413Y-61705821D01*
X104034410Y-61705820D01*
X103831962Y-61581759D01*
X103831959Y-61581757D01*
X103612596Y-61490895D01*
X103381714Y-61435465D01*
X103145000Y-61416835D01*
X102908285Y-61435465D01*
X102677404Y-61490895D01*
X102677402Y-61490895D01*
X102458040Y-61581757D01*
X102458037Y-61581759D01*
X102255589Y-61705820D01*
X102255586Y-61705821D01*
X102075031Y-61860031D01*
X102016819Y-61928188D01*
X101958312Y-61966381D01*
X101888444Y-61966879D01*
X101829398Y-61929525D01*
X101823262Y-61921967D01*
X101820889Y-61918798D01*
X101820889Y-61918796D01*
X101733261Y-61801739D01*
X101616204Y-61714111D01*
X101616203Y-61714110D01*
X101479203Y-61663011D01*
X101418654Y-61656500D01*
X101418638Y-61656500D01*
X99791362Y-61656500D01*
X99791345Y-61656500D01*
X99730797Y-61663011D01*
X99730795Y-61663011D01*
X99593795Y-61714111D01*
X99476739Y-61801739D01*
X99389111Y-61918795D01*
X99338011Y-62055795D01*
X99338011Y-62055797D01*
X99331500Y-62116345D01*
X99331500Y-63743654D01*
X97008500Y-63743654D01*
X97008500Y-62615543D01*
X97028185Y-62548504D01*
X97044819Y-62527862D01*
X98567575Y-61005106D01*
X98567581Y-61005100D01*
X98649967Y-60900905D01*
X98665361Y-60867891D01*
X98690056Y-60832623D01*
X107789886Y-51732793D01*
X107851207Y-51699310D01*
X107906512Y-51699902D01*
X107988289Y-51719535D01*
X108225000Y-51738165D01*
X108461711Y-51719535D01*
X108692594Y-51664105D01*
X108692596Y-51664104D01*
X108692597Y-51664104D01*
X108911959Y-51573242D01*
X108911960Y-51573241D01*
X108911963Y-51573240D01*
X109114416Y-51449176D01*
X109294969Y-51294969D01*
X109449176Y-51114416D01*
X109573240Y-50911963D01*
X109576458Y-50904196D01*
X109664104Y-50692597D01*
X109664104Y-50692596D01*
X109664105Y-50692594D01*
X109719535Y-50461711D01*
X109738165Y-50225000D01*
X109719535Y-49988289D01*
X109664105Y-49757406D01*
X109664104Y-49757403D01*
X109664104Y-49757402D01*
X109573242Y-49538040D01*
X109573240Y-49538037D01*
X109449179Y-49335589D01*
X109449178Y-49335586D01*
X109405685Y-49284663D01*
X109294969Y-49155031D01*
X109175596Y-49053076D01*
X109114413Y-49000821D01*
X109114410Y-49000820D01*
X108911962Y-48876759D01*
X108911959Y-48876757D01*
X108692596Y-48785895D01*
X108461714Y-48730465D01*
X108225000Y-48711835D01*
X107988285Y-48730465D01*
X107757404Y-48785895D01*
X107757402Y-48785895D01*
X107538040Y-48876757D01*
X107538037Y-48876759D01*
X107335589Y-49000820D01*
X107335586Y-49000821D01*
X107155031Y-49155031D01*
X107030869Y-49300405D01*
X106972362Y-49338598D01*
X106902494Y-49339096D01*
X106843448Y-49301742D01*
X106830852Y-49284663D01*
X106724179Y-49110588D01*
X106724178Y-49110586D01*
X106630429Y-49000821D01*
X106569969Y-48930031D01*
X106401208Y-48785895D01*
X106389413Y-48775821D01*
X106389410Y-48775820D01*
X106186962Y-48651759D01*
X106186959Y-48651757D01*
X105967596Y-48560895D01*
X105736714Y-48505465D01*
X105500000Y-48486835D01*
X105263285Y-48505465D01*
X105032404Y-48560895D01*
X105032402Y-48560895D01*
X104813040Y-48651757D01*
X104813037Y-48651759D01*
X104610589Y-48775820D01*
X104610586Y-48775821D01*
X104430031Y-48930031D01*
X104275821Y-49110586D01*
X104275820Y-49110589D01*
X104151759Y-49313037D01*
X104151757Y-49313040D01*
X104060895Y-49532402D01*
X104060895Y-49532404D01*
X104005465Y-49763285D01*
X103986835Y-50000000D01*
X104005465Y-50236714D01*
X104025097Y-50318485D01*
X104021606Y-50388268D01*
X103992204Y-50435113D01*
X89759122Y-64668195D01*
X89745495Y-64679973D01*
X89725941Y-64694531D01*
X89691977Y-64735006D01*
X89688330Y-64738987D01*
X89682418Y-64744900D01*
X89661863Y-64770896D01*
X89611967Y-64830360D01*
X89608001Y-64836391D01*
X89607963Y-64836366D01*
X89603782Y-64842928D01*
X89603821Y-64842952D01*
X89600032Y-64849094D01*
X89567220Y-64919459D01*
X89532391Y-64988810D01*
X89529923Y-64995593D01*
X89529878Y-64995576D01*
X89527322Y-65002932D01*
X89527366Y-65002947D01*
X89525096Y-65009795D01*
X89517244Y-65047822D01*
X89509392Y-65085850D01*
X89497025Y-65138029D01*
X89491498Y-65161351D01*
X89490661Y-65168519D01*
X89490613Y-65168513D01*
X89489823Y-65176244D01*
X89489870Y-65176249D01*
X89489240Y-65183438D01*
X89491500Y-65261079D01*
X89491500Y-75935706D01*
X89490191Y-75953676D01*
X89486658Y-75977791D01*
X82258500Y-75977791D01*
X82258500Y-58814293D01*
X82259809Y-58796323D01*
X82260437Y-58792034D01*
X82263341Y-58772211D01*
X82263207Y-58770685D01*
X82258736Y-58719579D01*
X82258500Y-58714172D01*
X82258500Y-58705820D01*
X82258499Y-58705813D01*
X82254652Y-58672903D01*
X82247887Y-58595576D01*
X82246427Y-58588503D01*
X82246473Y-58588493D01*
X82244790Y-58580902D01*
X82244744Y-58580914D01*
X82243080Y-58573895D01*
X82243079Y-58573887D01*
X82216526Y-58500934D01*
X82192114Y-58427262D01*
X82192113Y-58427260D01*
X82189061Y-58420715D01*
X82189105Y-58420694D01*
X82185717Y-58413695D01*
X82185674Y-58413717D01*
X82182436Y-58407269D01*
X82139766Y-58342394D01*
X82099030Y-58276349D01*
X82094553Y-58270687D01*
X82094590Y-58270656D01*
X82089681Y-58264629D01*
X82089645Y-58264660D01*
X82085005Y-58259131D01*
X82085003Y-58259129D01*
X82085001Y-58259126D01*
X82053891Y-58229775D01*
X82028517Y-58205835D01*
X79351804Y-55529123D01*
X79340022Y-55515490D01*
X79325472Y-55495946D01*
X79325471Y-55495945D01*
X79325469Y-55495942D01*
X79324595Y-55495208D01*
X79284987Y-55461972D01*
X79280998Y-55458317D01*
X79275102Y-55452421D01*
X79275101Y-55452420D01*
X79249103Y-55431863D01*
X79189640Y-55381968D01*
X79189635Y-55381965D01*
X79183605Y-55377999D01*
X79183630Y-55377959D01*
X79177069Y-55373779D01*
X79177045Y-55373820D01*
X79170904Y-55370031D01*
X79100540Y-55337220D01*
X79031185Y-55302389D01*
X79024401Y-55299920D01*
X79024416Y-55299876D01*
X79017071Y-55297322D01*
X79017057Y-55297367D01*
X79010205Y-55295096D01*
X78972177Y-55287244D01*
X78934149Y-55279392D01*
X78858656Y-55261500D01*
X78858654Y-55261500D01*
X78858646Y-55261498D01*
X78851482Y-55260661D01*
X78851487Y-55260612D01*
X78843757Y-55259822D01*
X78843753Y-55259870D01*
X78836562Y-55259240D01*
X78758920Y-55261500D01*
X76671740Y-55261500D01*
X76604701Y-55241815D01*
X76567932Y-55205323D01*
X76555400Y-55186142D01*
X76512906Y-55121100D01*
X76349201Y-54943269D01*
X76349196Y-54943265D01*
X76349194Y-54943263D01*
X76158466Y-54794813D01*
X76158460Y-54794809D01*
X75945882Y-54679767D01*
X75945873Y-54679764D01*
X75717271Y-54601284D01*
X75538458Y-54571446D01*
X75478855Y-54561500D01*
X75237145Y-54561500D01*
X75189462Y-54569456D01*
X74998728Y-54601284D01*
X74770126Y-54679764D01*
X74770117Y-54679767D01*
X74557539Y-54794809D01*
X74557533Y-54794813D01*
X74366805Y-54943263D01*
X74366802Y-54943266D01*
X74203095Y-55121098D01*
X74203092Y-55121102D01*
X74070891Y-55323449D01*
X73973797Y-55544802D01*
X73914460Y-55779119D01*
X73894501Y-56019994D01*
X73894501Y-56020005D01*
X73914460Y-56260880D01*
X73973797Y-56495197D01*
X74070891Y-56716550D01*
X74135094Y-56814819D01*
X74203094Y-56918900D01*
X74366799Y-57096731D01*
X74489389Y-57192147D01*
X74530202Y-57248857D01*
X74533877Y-57318630D01*
X74499246Y-57379313D01*
X74489394Y-57387849D01*
X74405793Y-57452918D01*
X74366800Y-57483268D01*
X74203095Y-57661098D01*
X74203092Y-57661102D01*
X74070891Y-57863449D01*
X73973797Y-58084802D01*
X73914460Y-58319119D01*
X73894501Y-58559994D01*
X73894501Y-58560005D01*
X73914460Y-58800880D01*
X73973797Y-59035197D01*
X74070891Y-59256550D01*
X74135094Y-59354819D01*
X74203094Y-59458900D01*
X74366799Y-59636731D01*
X74436266Y-59690799D01*
X74496309Y-59737533D01*
X74537122Y-59794243D01*
X74540796Y-59864016D01*
X74524815Y-59892017D01*
X74523573Y-59912019D01*
X75188723Y-60577170D01*
X75222208Y-60638493D01*
X75217224Y-60708185D01*
X75175352Y-60764118D01*
X75160059Y-60773906D01*
X75120749Y-60795179D01*
X75120748Y-60795179D01*
X75034626Y-60888733D01*
X75034626Y-60888734D01*
X75033911Y-60890365D01*
X75032340Y-60892233D01*
X75029008Y-60897334D01*
X75028391Y-60896931D01*
X74988952Y-60943849D01*
X74922215Y-60964535D01*
X74854888Y-60945857D01*
X74832677Y-60928230D01*
X74170687Y-60266241D01*
X74078392Y-60407511D01*
X73981865Y-60627571D01*
X73922874Y-60860523D01*
X73903031Y-61099994D01*
X73903031Y-61100005D01*
X73922874Y-61339476D01*
X73981865Y-61572428D01*
X74078391Y-61792485D01*
X74170688Y-61933756D01*
X74835050Y-61269395D01*
X74896373Y-61235910D01*
X74966065Y-61240894D01*
X75021998Y-61282766D01*
X75026539Y-61289254D01*
X75073813Y-61361612D01*
X75174157Y-61439713D01*
X75174160Y-61439714D01*
X75174511Y-61439987D01*
X75215324Y-61496697D01*
X75218999Y-61566470D01*
X75186030Y-61625522D01*
X74523572Y-62287979D01*
X74524705Y-62306216D01*
X74537124Y-62323473D01*
X74540796Y-62393246D01*
X74506163Y-62453929D01*
X74496310Y-62462466D01*
X74366801Y-62563267D01*
X74366799Y-62563268D01*
X74366799Y-62563269D01*
X74340793Y-62591518D01*
X74203095Y-62741098D01*
X74203092Y-62741102D01*
X74070891Y-62943449D01*
X73973797Y-63164802D01*
X73914460Y-63399119D01*
X73894501Y-63639994D01*
X73894501Y-63640005D01*
X51000500Y-63640005D01*
X51000500Y-49827465D01*
X73755501Y-49827465D01*
X73775460Y-50068340D01*
X73834797Y-50302657D01*
X73931891Y-50524010D01*
X74042033Y-50692594D01*
X74064094Y-50726360D01*
X74227799Y-50904191D01*
X74227802Y-50904193D01*
X74227805Y-50904196D01*
X74418533Y-51052646D01*
X74418539Y-51052650D01*
X74418542Y-51052652D01*
X74631119Y-51167693D01*
X74749829Y-51208446D01*
X74859728Y-51246175D01*
X74859730Y-51246175D01*
X74859732Y-51246176D01*
X75098145Y-51285960D01*
X75098146Y-51285960D01*
X75339854Y-51285960D01*
X75339855Y-51285960D01*
X75578268Y-51246176D01*
X75806881Y-51167693D01*
X76019458Y-51052652D01*
X76210201Y-50904191D01*
X76373906Y-50726360D01*
X76506109Y-50524009D01*
X76603203Y-50302657D01*
X76662539Y-50068344D01*
X76682499Y-49827460D01*
X76677181Y-49763285D01*
X76662539Y-49586579D01*
X76662539Y-49586576D01*
X76603203Y-49352263D01*
X76506109Y-49130911D01*
X76492831Y-49110588D01*
X76373907Y-48928562D01*
X76373906Y-48928560D01*
X76210201Y-48750729D01*
X76087610Y-48655312D01*
X76046798Y-48598603D01*
X76043123Y-48528830D01*
X76077754Y-48468147D01*
X76087605Y-48459610D01*
X76210201Y-48364191D01*
X76373906Y-48186360D01*
X76412803Y-48126823D01*
X76453406Y-48064678D01*
X76506553Y-48019321D01*
X76557214Y-48008500D01*
X105685706Y-48008500D01*
X105703676Y-48009809D01*
X105706174Y-48010174D01*
X105727789Y-48013341D01*
X105780426Y-48008735D01*
X105785828Y-48008500D01*
X105794175Y-48008500D01*
X105794180Y-48008500D01*
X105817835Y-48005734D01*
X105827096Y-48004652D01*
X105904419Y-47997888D01*
X105904422Y-47997887D01*
X105904426Y-47997887D01*
X105904429Y-47997885D01*
X105911493Y-47996427D01*
X105911502Y-47996474D01*
X105919097Y-47994790D01*
X105919087Y-47994744D01*
X105926107Y-47993079D01*
X105926113Y-47993079D01*
X105999065Y-47966526D01*
X106072738Y-47942114D01*
X106072746Y-47942108D01*
X106079284Y-47939061D01*
X106079305Y-47939106D01*
X106086302Y-47935719D01*
X106086280Y-47935675D01*
X106092729Y-47932436D01*
X106092728Y-47932436D01*
X106092732Y-47932435D01*
X106157605Y-47889766D01*
X106223651Y-47849030D01*
X106223655Y-47849025D01*
X106229319Y-47844548D01*
X106229350Y-47844587D01*
X106235374Y-47839680D01*
X106235342Y-47839642D01*
X106240864Y-47835007D01*
X106240874Y-47835001D01*
X106262823Y-47811735D01*
X106294163Y-47778518D01*
X109800418Y-44272262D01*
X111255880Y-42816799D01*
X111269506Y-42805023D01*
X111289058Y-42790469D01*
X111323015Y-42750000D01*
X111326675Y-42746005D01*
X111332580Y-42740101D01*
X111353136Y-42714103D01*
X111403032Y-42654640D01*
X111403033Y-42654639D01*
X111407003Y-42648603D01*
X111407043Y-42648629D01*
X111411214Y-42642082D01*
X111411173Y-42642057D01*
X111414968Y-42635904D01*
X111447779Y-42565540D01*
X111482607Y-42496192D01*
X111482607Y-42496191D01*
X111482609Y-42496188D01*
X111482610Y-42496183D01*
X111485078Y-42489402D01*
X111485125Y-42489419D01*
X111487675Y-42482083D01*
X111487629Y-42482068D01*
X111489903Y-42475205D01*
X111491170Y-42469072D01*
X111498092Y-42435546D01*
X111505605Y-42399163D01*
X111518393Y-42345204D01*
X111523500Y-42323656D01*
X111523500Y-42323653D01*
X111523501Y-42323649D01*
X111524339Y-42316482D01*
X111524386Y-42316487D01*
X111525176Y-42308757D01*
X111525129Y-42308753D01*
X111525758Y-42301562D01*
X111523500Y-42223940D01*
X111523500Y-41842121D01*
X111523500Y-41443841D01*
X111543183Y-41376806D01*
X111582710Y-41338117D01*
X111582712Y-41338116D01*
X111654416Y-41294176D01*
X111834969Y-41139969D01*
X111940711Y-41016160D01*
X111999216Y-40977968D01*
X112069084Y-40977469D01*
X112128131Y-41014823D01*
X112129200Y-41016057D01*
X112223066Y-41125960D01*
X112235031Y-41139969D01*
X112415586Y-41294178D01*
X112415588Y-41294178D01*
X112545356Y-41373701D01*
X112618037Y-41418240D01*
X112618040Y-41418242D01*
X112837403Y-41509104D01*
X112837404Y-41509104D01*
X112837406Y-41509105D01*
X113068289Y-41564535D01*
X113305000Y-41583165D01*
X113541711Y-41564535D01*
X113772594Y-41509105D01*
X113772596Y-41509104D01*
X113772597Y-41509104D01*
X113991959Y-41418242D01*
X113991960Y-41418241D01*
X113991963Y-41418240D01*
X114194416Y-41294176D01*
X114374969Y-41139969D01*
X114480711Y-41016160D01*
X114539216Y-40977968D01*
X114609084Y-40977469D01*
X114668131Y-41014823D01*
X114669200Y-41016057D01*
X114763066Y-41125960D01*
X114775031Y-41139969D01*
X114955586Y-41294178D01*
X114955588Y-41294178D01*
X115085356Y-41373701D01*
X115158037Y-41418240D01*
X115158040Y-41418242D01*
X115377403Y-41509104D01*
X115377404Y-41509104D01*
X115377406Y-41509105D01*
X115608289Y-41564535D01*
X115845000Y-41583165D01*
X116081711Y-41564535D01*
X116312594Y-41509105D01*
X116312596Y-41509104D01*
X116312597Y-41509104D01*
X116531959Y-41418242D01*
X116531960Y-41418241D01*
X116531963Y-41418240D01*
X116734416Y-41294176D01*
X116914969Y-41139969D01*
X117020711Y-41016160D01*
X117079216Y-40977968D01*
X117149084Y-40977469D01*
X117208131Y-41014823D01*
X117209200Y-41016057D01*
X117303066Y-41125960D01*
X117315031Y-41139969D01*
X117495586Y-41294178D01*
X117495588Y-41294178D01*
X117625356Y-41373701D01*
X117698037Y-41418240D01*
X117698040Y-41418242D01*
X117917403Y-41509104D01*
X117917404Y-41509104D01*
X117917406Y-41509105D01*
X118148289Y-41564535D01*
X118385000Y-41583165D01*
X118621711Y-41564535D01*
X118852594Y-41509105D01*
X118852596Y-41509104D01*
X118852597Y-41509104D01*
X119071959Y-41418242D01*
X119071960Y-41418241D01*
X119071963Y-41418240D01*
X119274416Y-41294176D01*
X119454969Y-41139969D01*
X119560711Y-41016160D01*
X119619216Y-40977968D01*
X119689084Y-40977469D01*
X119748131Y-41014823D01*
X119749200Y-41016057D01*
X119843066Y-41125960D01*
X119855031Y-41139969D01*
X120035586Y-41294178D01*
X120035588Y-41294178D01*
X120165356Y-41373701D01*
X120238037Y-41418240D01*
X120238040Y-41418242D01*
X120457403Y-41509104D01*
X120457404Y-41509104D01*
X120457406Y-41509105D01*
X120688289Y-41564535D01*
X120925000Y-41583165D01*
X121161711Y-41564535D01*
X121392594Y-41509105D01*
X121392596Y-41509104D01*
X121392597Y-41509104D01*
X121611959Y-41418242D01*
X121611960Y-41418241D01*
X121611963Y-41418240D01*
X121814416Y-41294176D01*
X121994969Y-41139969D01*
X122100711Y-41016160D01*
X122159216Y-40977968D01*
X122229084Y-40977469D01*
X122288131Y-41014823D01*
X122289200Y-41016057D01*
X122383066Y-41125960D01*
X122395031Y-41139969D01*
X122575586Y-41294178D01*
X122575588Y-41294178D01*
X122705356Y-41373701D01*
X122778037Y-41418240D01*
X122778040Y-41418242D01*
X122997403Y-41509104D01*
X122997404Y-41509104D01*
X122997406Y-41509105D01*
X123228289Y-41564535D01*
X123465000Y-41583165D01*
X123701711Y-41564535D01*
X123932594Y-41509105D01*
X123932596Y-41509104D01*
X123932597Y-41509104D01*
X124151959Y-41418242D01*
X124151960Y-41418241D01*
X124151963Y-41418240D01*
X124354416Y-41294176D01*
X124534969Y-41139969D01*
X124640713Y-41016158D01*
X124699215Y-40977969D01*
X124769083Y-40977469D01*
X124828129Y-41014823D01*
X124829279Y-41016150D01*
X124935031Y-41139969D01*
X125074797Y-41259340D01*
X125115586Y-41294178D01*
X125115588Y-41294178D01*
X125245356Y-41373701D01*
X125318037Y-41418240D01*
X125318040Y-41418242D01*
X125537403Y-41509104D01*
X125537404Y-41509104D01*
X125537406Y-41509105D01*
X125768289Y-41564535D01*
X126005000Y-41583165D01*
X126241711Y-41564535D01*
X126472594Y-41509105D01*
X126472596Y-41509104D01*
X126472597Y-41509104D01*
X126691959Y-41418242D01*
X126691960Y-41418241D01*
X126691963Y-41418240D01*
X126894416Y-41294176D01*
X127074969Y-41139969D01*
X127180711Y-41016160D01*
X127239216Y-40977968D01*
X127309084Y-40977469D01*
X127368131Y-41014823D01*
X127369200Y-41016057D01*
X127463066Y-41125960D01*
X127475031Y-41139969D01*
X127655586Y-41294178D01*
X127655588Y-41294178D01*
X127785356Y-41373701D01*
X127858037Y-41418240D01*
X127858040Y-41418242D01*
X128077403Y-41509104D01*
X128077404Y-41509104D01*
X128077406Y-41509105D01*
X128308289Y-41564535D01*
X128545000Y-41583165D01*
X128781711Y-41564535D01*
X129012594Y-41509105D01*
X129012596Y-41509104D01*
X129012597Y-41509104D01*
X129231959Y-41418242D01*
X129231960Y-41418241D01*
X129231963Y-41418240D01*
X129434416Y-41294176D01*
X129614969Y-41139969D01*
X129720711Y-41016160D01*
X129779216Y-40977968D01*
X129849084Y-40977469D01*
X129908131Y-41014823D01*
X129909200Y-41016057D01*
X130003066Y-41125960D01*
X130015031Y-41139969D01*
X130195586Y-41294178D01*
X130195588Y-41294178D01*
X130325356Y-41373701D01*
X130398037Y-41418240D01*
X130398040Y-41418242D01*
X130617403Y-41509104D01*
X130617404Y-41509104D01*
X130617406Y-41509105D01*
X130848289Y-41564535D01*
X131085000Y-41583165D01*
X131321711Y-41564535D01*
X131552594Y-41509105D01*
X131552596Y-41509104D01*
X131552597Y-41509104D01*
X131771959Y-41418242D01*
X131771960Y-41418241D01*
X131771963Y-41418240D01*
X131974416Y-41294176D01*
X132154969Y-41139969D01*
X132260711Y-41016160D01*
X132319216Y-40977968D01*
X132389084Y-40977469D01*
X132448131Y-41014823D01*
X132449200Y-41016057D01*
X132543066Y-41125960D01*
X132555031Y-41139969D01*
X132735586Y-41294178D01*
X132735588Y-41294178D01*
X132865356Y-41373701D01*
X132938037Y-41418240D01*
X132938040Y-41418242D01*
X133157403Y-41509104D01*
X133157404Y-41509104D01*
X133157406Y-41509105D01*
X133388289Y-41564535D01*
X133625000Y-41583165D01*
X133861711Y-41564535D01*
X134092594Y-41509105D01*
X134092596Y-41509104D01*
X134092597Y-41509104D01*
X134311959Y-41418242D01*
X134311960Y-41418241D01*
X134311963Y-41418240D01*
X134514416Y-41294176D01*
X134694969Y-41139969D01*
X134800713Y-41016158D01*
X134859215Y-40977969D01*
X134929083Y-40977469D01*
X134988129Y-41014823D01*
X134989279Y-41016150D01*
X135095031Y-41139969D01*
X135234797Y-41259340D01*
X135275586Y-41294178D01*
X135275588Y-41294178D01*
X135405356Y-41373701D01*
X135478037Y-41418240D01*
X135478040Y-41418242D01*
X135697403Y-41509104D01*
X135697404Y-41509104D01*
X135697406Y-41509105D01*
X135928289Y-41564535D01*
X136165000Y-41583165D01*
X136401711Y-41564535D01*
X136632594Y-41509105D01*
X136632596Y-41509104D01*
X136632597Y-41509104D01*
X136851959Y-41418242D01*
X136851960Y-41418241D01*
X136851963Y-41418240D01*
X137054416Y-41294176D01*
X137234969Y-41139969D01*
X137389176Y-40959416D01*
X137513240Y-40756963D01*
X137518531Y-40744191D01*
X137604104Y-40537597D01*
X137604104Y-40537596D01*
X137604105Y-40537594D01*
X137659535Y-40306711D01*
X137678165Y-40070000D01*
X137659535Y-39833289D01*
X137604105Y-39602406D01*
X137604104Y-39602403D01*
X137604104Y-39602402D01*
X137513242Y-39383040D01*
X137513240Y-39383037D01*
X137389179Y-39180589D01*
X137389178Y-39180586D01*
X137340709Y-39123837D01*
X137234969Y-39000031D01*
X137115596Y-38898076D01*
X137054413Y-38845821D01*
X137054410Y-38845820D01*
X136851962Y-38721759D01*
X136851959Y-38721757D01*
X136632596Y-38630895D01*
X136401714Y-38575465D01*
X136224177Y-38561492D01*
X136165000Y-38556835D01*
X136164999Y-38556835D01*
X135928285Y-38575465D01*
X135697404Y-38630895D01*
X135697402Y-38630895D01*
X135478040Y-38721757D01*
X135478037Y-38721759D01*
X135275589Y-38845820D01*
X135275586Y-38845821D01*
X135095031Y-39000031D01*
X134989290Y-39123838D01*
X134930783Y-39162031D01*
X134860915Y-39162529D01*
X134801869Y-39125176D01*
X134800710Y-39123838D01*
X134800709Y-39123837D01*
X134694969Y-39000031D01*
X134575596Y-38898076D01*
X134514413Y-38845821D01*
X134514410Y-38845820D01*
X134311962Y-38721759D01*
X134311959Y-38721757D01*
X134092596Y-38630895D01*
X133861714Y-38575465D01*
X133625000Y-38556835D01*
X133388285Y-38575465D01*
X133157404Y-38630895D01*
X133157402Y-38630895D01*
X132938040Y-38721757D01*
X132938037Y-38721759D01*
X132735589Y-38845820D01*
X132735586Y-38845821D01*
X132555031Y-39000031D01*
X132449290Y-39123838D01*
X132390783Y-39162031D01*
X132320915Y-39162529D01*
X132261869Y-39125176D01*
X132260710Y-39123838D01*
X132260709Y-39123837D01*
X132154969Y-39000031D01*
X132035596Y-38898076D01*
X131974413Y-38845821D01*
X131974410Y-38845820D01*
X131771962Y-38721759D01*
X131771959Y-38721757D01*
X131552596Y-38630895D01*
X131321714Y-38575465D01*
X131085000Y-38556835D01*
X130848285Y-38575465D01*
X130617404Y-38630895D01*
X130617402Y-38630895D01*
X130398040Y-38721757D01*
X130398037Y-38721759D01*
X130195589Y-38845820D01*
X130195586Y-38845821D01*
X130015031Y-39000031D01*
X129909290Y-39123838D01*
X129850783Y-39162031D01*
X129780915Y-39162529D01*
X129721869Y-39125176D01*
X129720710Y-39123838D01*
X129720709Y-39123837D01*
X129614969Y-39000031D01*
X129495596Y-38898076D01*
X129434413Y-38845821D01*
X129434410Y-38845820D01*
X129231962Y-38721759D01*
X129231959Y-38721757D01*
X129012596Y-38630895D01*
X128781714Y-38575465D01*
X128604177Y-38561492D01*
X128545000Y-38556835D01*
X128544999Y-38556835D01*
X128308285Y-38575465D01*
X128077404Y-38630895D01*
X128077402Y-38630895D01*
X127858040Y-38721757D01*
X127858037Y-38721759D01*
X127655589Y-38845820D01*
X127655586Y-38845821D01*
X127475031Y-39000031D01*
X127369290Y-39123838D01*
X127310783Y-39162031D01*
X127240915Y-39162529D01*
X127181869Y-39125176D01*
X127180710Y-39123838D01*
X127180709Y-39123837D01*
X127074969Y-39000031D01*
X126955596Y-38898076D01*
X126894413Y-38845821D01*
X126894410Y-38845820D01*
X126691962Y-38721759D01*
X126691959Y-38721757D01*
X126472596Y-38630895D01*
X126241714Y-38575465D01*
X126005000Y-38556835D01*
X125768285Y-38575465D01*
X125537404Y-38630895D01*
X125537402Y-38630895D01*
X125318040Y-38721757D01*
X125318037Y-38721759D01*
X125115589Y-38845820D01*
X125115586Y-38845821D01*
X124935031Y-39000031D01*
X124829290Y-39123838D01*
X124770783Y-39162031D01*
X124700915Y-39162529D01*
X124641869Y-39125176D01*
X124640710Y-39123838D01*
X124640709Y-39123837D01*
X124534969Y-39000031D01*
X124415596Y-38898076D01*
X124354413Y-38845821D01*
X124354410Y-38845820D01*
X124151962Y-38721759D01*
X124151959Y-38721757D01*
X123932596Y-38630895D01*
X123701714Y-38575465D01*
X123465000Y-38556835D01*
X123228285Y-38575465D01*
X122997404Y-38630895D01*
X122997402Y-38630895D01*
X122778040Y-38721757D01*
X122778037Y-38721759D01*
X122575589Y-38845820D01*
X122575586Y-38845821D01*
X122395031Y-39000031D01*
X122289290Y-39123838D01*
X122230783Y-39162031D01*
X122160915Y-39162529D01*
X122101869Y-39125176D01*
X122100710Y-39123838D01*
X122100709Y-39123837D01*
X121994969Y-39000031D01*
X121875596Y-38898076D01*
X121814413Y-38845821D01*
X121814410Y-38845820D01*
X121611962Y-38721759D01*
X121611959Y-38721757D01*
X121392596Y-38630895D01*
X121161714Y-38575465D01*
X120925000Y-38556835D01*
X120688285Y-38575465D01*
X120457404Y-38630895D01*
X120457402Y-38630895D01*
X120238040Y-38721757D01*
X120238037Y-38721759D01*
X120035589Y-38845820D01*
X120035586Y-38845821D01*
X119855031Y-39000031D01*
X119749290Y-39123838D01*
X119690783Y-39162031D01*
X119620915Y-39162529D01*
X119561869Y-39125176D01*
X119560710Y-39123838D01*
X119560709Y-39123837D01*
X119454969Y-39000031D01*
X119335596Y-38898076D01*
X119274413Y-38845821D01*
X119274410Y-38845820D01*
X119071962Y-38721759D01*
X119071959Y-38721757D01*
X118852596Y-38630895D01*
X118621714Y-38575465D01*
X118385000Y-38556835D01*
X118148285Y-38575465D01*
X117917404Y-38630895D01*
X117917402Y-38630895D01*
X117698040Y-38721757D01*
X117698037Y-38721759D01*
X117495589Y-38845820D01*
X117495586Y-38845821D01*
X117315031Y-39000031D01*
X117209289Y-39123838D01*
X117150782Y-39162031D01*
X117080914Y-39162529D01*
X117021868Y-39125175D01*
X117020804Y-39123947D01*
X116914969Y-39000031D01*
X116880872Y-38970909D01*
X116734413Y-38845821D01*
X116734410Y-38845820D01*
X116531962Y-38721759D01*
X116531959Y-38721757D01*
X116312596Y-38630895D01*
X116081714Y-38575465D01*
X115845000Y-38556835D01*
X115608285Y-38575465D01*
X115377404Y-38630895D01*
X115377402Y-38630895D01*
X115158040Y-38721757D01*
X115158037Y-38721759D01*
X114955589Y-38845820D01*
X114955586Y-38845821D01*
X114775031Y-39000031D01*
X114669290Y-39123838D01*
X114610783Y-39162031D01*
X114540915Y-39162529D01*
X114481869Y-39125176D01*
X114480710Y-39123838D01*
X114480709Y-39123837D01*
X114374969Y-39000031D01*
X114255596Y-38898076D01*
X114194413Y-38845821D01*
X114194410Y-38845820D01*
X113991962Y-38721759D01*
X113991959Y-38721757D01*
X113772596Y-38630895D01*
X113541714Y-38575465D01*
X113364177Y-38561492D01*
X113305000Y-38556835D01*
X113304999Y-38556835D01*
X113068285Y-38575465D01*
X112837404Y-38630895D01*
X112837402Y-38630895D01*
X112618040Y-38721757D01*
X112618037Y-38721759D01*
X112415589Y-38845820D01*
X112415586Y-38845821D01*
X112235031Y-39000031D01*
X112129290Y-39123838D01*
X112070783Y-39162031D01*
X112000915Y-39162529D01*
X111941869Y-39125176D01*
X111940710Y-39123838D01*
X111940709Y-39123837D01*
X111834969Y-39000031D01*
X111654416Y-38845824D01*
X111634347Y-38833525D01*
X111582709Y-38801881D01*
X111535834Y-38750069D01*
X111523500Y-38696154D01*
X111523500Y-37100541D01*
X111543185Y-37033502D01*
X111559814Y-37012865D01*
X113620880Y-34951799D01*
X113634506Y-34940023D01*
X113654058Y-34925469D01*
X113662843Y-34914999D01*
X113688015Y-34885000D01*
X113691675Y-34881005D01*
X113697580Y-34875101D01*
X113718136Y-34849103D01*
X113768032Y-34789640D01*
X113768033Y-34789639D01*
X113772003Y-34783603D01*
X113772043Y-34783629D01*
X113776212Y-34777086D01*
X113776171Y-34777061D01*
X113779964Y-34770911D01*
X113779965Y-34770908D01*
X113779967Y-34770906D01*
X113812773Y-34700552D01*
X113847609Y-34631188D01*
X113847610Y-34631180D01*
X113850079Y-34624400D01*
X113850126Y-34624417D01*
X113852678Y-34617075D01*
X113852631Y-34617060D01*
X113854900Y-34610211D01*
X113854900Y-34610209D01*
X113854902Y-34610206D01*
X113870599Y-34534181D01*
X113888500Y-34458656D01*
X113888500Y-34458654D01*
X113888501Y-34458650D01*
X113889339Y-34451483D01*
X113889386Y-34451488D01*
X113890176Y-34443757D01*
X113890129Y-34443753D01*
X113890758Y-34436562D01*
X113888500Y-34358940D01*
X113888500Y-31373845D01*
X113908185Y-31306806D01*
X113947710Y-31268118D01*
X114019411Y-31224179D01*
X114019413Y-31224178D01*
X114019413Y-31224177D01*
X114019416Y-31224176D01*
X114199969Y-31069969D01*
X114305711Y-30946160D01*
X114364216Y-30907968D01*
X114434084Y-30907469D01*
X114493131Y-30944823D01*
X114494200Y-30946057D01*
X114600030Y-31069968D01*
X114600031Y-31069969D01*
X114780586Y-31224178D01*
X114780588Y-31224178D01*
X114905766Y-31300888D01*
X114983037Y-31348240D01*
X114983040Y-31348242D01*
X115202403Y-31439104D01*
X115202404Y-31439104D01*
X115202406Y-31439105D01*
X115433289Y-31494535D01*
X115670000Y-31513165D01*
X115906711Y-31494535D01*
X116137594Y-31439105D01*
X116137596Y-31439104D01*
X116137597Y-31439104D01*
X116356959Y-31348242D01*
X116356960Y-31348241D01*
X116356963Y-31348240D01*
X116559416Y-31224176D01*
X116739969Y-31069969D01*
X116845711Y-30946160D01*
X116904216Y-30907968D01*
X116974084Y-30907469D01*
X117033131Y-30944823D01*
X117034200Y-30946057D01*
X117140030Y-31069968D01*
X117140031Y-31069969D01*
X117320586Y-31224178D01*
X117320588Y-31224178D01*
X117445766Y-31300888D01*
X117523037Y-31348240D01*
X117523040Y-31348242D01*
X117742403Y-31439104D01*
X117742404Y-31439104D01*
X117742406Y-31439105D01*
X117973289Y-31494535D01*
X118210000Y-31513165D01*
X118446711Y-31494535D01*
X118677594Y-31439105D01*
X118677596Y-31439104D01*
X118677597Y-31439104D01*
X118896959Y-31348242D01*
X118896960Y-31348241D01*
X118896963Y-31348240D01*
X119099416Y-31224176D01*
X119279969Y-31069969D01*
X119385711Y-30946160D01*
X119444216Y-30907968D01*
X119514084Y-30907469D01*
X119573131Y-30944823D01*
X119574200Y-30946057D01*
X119680030Y-31069968D01*
X119680031Y-31069969D01*
X119860586Y-31224178D01*
X119860588Y-31224178D01*
X119985766Y-31300888D01*
X120063037Y-31348240D01*
X120063040Y-31348242D01*
X120282403Y-31439104D01*
X120282404Y-31439104D01*
X120282406Y-31439105D01*
X120513289Y-31494535D01*
X120750000Y-31513165D01*
X120986711Y-31494535D01*
X121217594Y-31439105D01*
X121217596Y-31439104D01*
X121217597Y-31439104D01*
X121436959Y-31348242D01*
X121436960Y-31348241D01*
X121436963Y-31348240D01*
X121639416Y-31224176D01*
X121819969Y-31069969D01*
X121925713Y-30946158D01*
X121984215Y-30907969D01*
X122054083Y-30907469D01*
X122113129Y-30944823D01*
X122114279Y-30946150D01*
X122220031Y-31069969D01*
X122359797Y-31189340D01*
X122400586Y-31224178D01*
X122400588Y-31224178D01*
X122525766Y-31300888D01*
X122603037Y-31348240D01*
X122603040Y-31348242D01*
X122822403Y-31439104D01*
X122822404Y-31439104D01*
X122822406Y-31439105D01*
X123053289Y-31494535D01*
X123290000Y-31513165D01*
X123526711Y-31494535D01*
X123757594Y-31439105D01*
X123757596Y-31439104D01*
X123757597Y-31439104D01*
X123976959Y-31348242D01*
X123976960Y-31348241D01*
X123976963Y-31348240D01*
X124179416Y-31224176D01*
X124359969Y-31069969D01*
X124514176Y-30889416D01*
X124638240Y-30686963D01*
X124643295Y-30674759D01*
X131499500Y-30674759D01*
X131526759Y-30907969D01*
X131540077Y-31021914D01*
X131540077Y-31021916D01*
X131620680Y-31362009D01*
X131620681Y-31362012D01*
X131740223Y-31690452D01*
X131740226Y-31690458D01*
X131897088Y-32002796D01*
X132089146Y-32294805D01*
X132089152Y-32294813D01*
X132145106Y-32361496D01*
X132313817Y-32562558D01*
X132405354Y-32648919D01*
X132568044Y-32802410D01*
X132568050Y-32802415D01*
X132848402Y-33011129D01*
X132848404Y-33011130D01*
X133151096Y-33185889D01*
X133472029Y-33324326D01*
X133806864Y-33424569D01*
X133806866Y-33424569D01*
X133806872Y-33424571D01*
X134151061Y-33485260D01*
X134151062Y-33485260D01*
X134151073Y-33485262D01*
X134412695Y-33500500D01*
X134412697Y-33500500D01*
X134587303Y-33500500D01*
X134587305Y-33500500D01*
X134848927Y-33485262D01*
X134892854Y-33477516D01*
X135193127Y-33424571D01*
X135193130Y-33424569D01*
X135193136Y-33424569D01*
X135527971Y-33324326D01*
X135848904Y-33185889D01*
X136151596Y-33011130D01*
X136431953Y-32802412D01*
X136686183Y-32562558D01*
X136910849Y-32294811D01*
X137102913Y-32002793D01*
X137259777Y-31690451D01*
X137379319Y-31362011D01*
X137459923Y-31021914D01*
X137500500Y-30674759D01*
X137500500Y-30325241D01*
X137459923Y-29978086D01*
X137379319Y-29637989D01*
X137259777Y-29309549D01*
X137150785Y-29092529D01*
X137102911Y-28997203D01*
X136910853Y-28705194D01*
X136910847Y-28705186D01*
X136789772Y-28560895D01*
X136686183Y-28437442D01*
X136563253Y-28321463D01*
X136431955Y-28197589D01*
X136431949Y-28197584D01*
X136151597Y-27988870D01*
X135848908Y-27814113D01*
X135848895Y-27814107D01*
X135527972Y-27675674D01*
X135193134Y-27575430D01*
X135193127Y-27575428D01*
X134848938Y-27514739D01*
X134848927Y-27514738D01*
X134848927Y-27514737D01*
X134587305Y-27499500D01*
X134412695Y-27499500D01*
X134238280Y-27509658D01*
X134151072Y-27514738D01*
X134151061Y-27514739D01*
X133806872Y-27575428D01*
X133806865Y-27575430D01*
X133472027Y-27675674D01*
X133151104Y-27814107D01*
X133151091Y-27814113D01*
X132848402Y-27988870D01*
X132568050Y-28197584D01*
X132568044Y-28197589D01*
X132313819Y-28437440D01*
X132313817Y-28437442D01*
X132089152Y-28705186D01*
X132089146Y-28705194D01*
X131897088Y-28997203D01*
X131740226Y-29309541D01*
X131740223Y-29309547D01*
X131620681Y-29637987D01*
X131620680Y-29637990D01*
X131540077Y-29978083D01*
X131540077Y-29978085D01*
X131540077Y-29978086D01*
X131499500Y-30325241D01*
X131499500Y-30674759D01*
X124643295Y-30674759D01*
X124729105Y-30467594D01*
X124784535Y-30236711D01*
X124803165Y-30000000D01*
X124784535Y-29763289D01*
X124729105Y-29532406D01*
X124729104Y-29532403D01*
X124729104Y-29532402D01*
X124638242Y-29313040D01*
X124638240Y-29313037D01*
X124514179Y-29110589D01*
X124514178Y-29110586D01*
X124454570Y-29040795D01*
X124359969Y-28930031D01*
X124192196Y-28786739D01*
X124179413Y-28775821D01*
X124179410Y-28775820D01*
X123976962Y-28651759D01*
X123976959Y-28651757D01*
X123757596Y-28560895D01*
X123526714Y-28505465D01*
X123349177Y-28491492D01*
X123290000Y-28486835D01*
X123289999Y-28486835D01*
X123053285Y-28505465D01*
X122822404Y-28560895D01*
X122822402Y-28560895D01*
X122603040Y-28651757D01*
X122603037Y-28651759D01*
X122400589Y-28775820D01*
X122400586Y-28775821D01*
X122220031Y-28930031D01*
X122114290Y-29053838D01*
X122055783Y-29092031D01*
X121985915Y-29092529D01*
X121926869Y-29055176D01*
X121925710Y-29053838D01*
X121914570Y-29040795D01*
X121819969Y-28930031D01*
X121652196Y-28786739D01*
X121639413Y-28775821D01*
X121639410Y-28775820D01*
X121436962Y-28651759D01*
X121436959Y-28651757D01*
X121217596Y-28560895D01*
X120986714Y-28505465D01*
X120750000Y-28486835D01*
X120513285Y-28505465D01*
X120282404Y-28560895D01*
X120282402Y-28560895D01*
X120063040Y-28651757D01*
X120063037Y-28651759D01*
X119860589Y-28775820D01*
X119860586Y-28775821D01*
X119680031Y-28930031D01*
X119574290Y-29053838D01*
X119515783Y-29092031D01*
X119445915Y-29092529D01*
X119386869Y-29055176D01*
X119385710Y-29053838D01*
X119374570Y-29040795D01*
X119279969Y-28930031D01*
X119112196Y-28786739D01*
X119099413Y-28775821D01*
X119099410Y-28775820D01*
X118896962Y-28651759D01*
X118896959Y-28651757D01*
X118677596Y-28560895D01*
X118446714Y-28505465D01*
X118210000Y-28486835D01*
X117973285Y-28505465D01*
X117742404Y-28560895D01*
X117742402Y-28560895D01*
X117523040Y-28651757D01*
X117523037Y-28651759D01*
X117320589Y-28775820D01*
X117320586Y-28775821D01*
X117140031Y-28930031D01*
X117034290Y-29053838D01*
X116975783Y-29092031D01*
X116905915Y-29092529D01*
X116846869Y-29055176D01*
X116845710Y-29053838D01*
X116834570Y-29040795D01*
X116739969Y-28930031D01*
X116572196Y-28786739D01*
X116559413Y-28775821D01*
X116559410Y-28775820D01*
X116356962Y-28651759D01*
X116356959Y-28651757D01*
X116137596Y-28560895D01*
X115906714Y-28505465D01*
X115670000Y-28486835D01*
X115433285Y-28505465D01*
X115202404Y-28560895D01*
X115202402Y-28560895D01*
X114983040Y-28651757D01*
X114983037Y-28651759D01*
X114780589Y-28775820D01*
X114780586Y-28775821D01*
X114600031Y-28930031D01*
X114494290Y-29053838D01*
X114435783Y-29092031D01*
X114365915Y-29092529D01*
X114306869Y-29055176D01*
X114305710Y-29053838D01*
X114294570Y-29040795D01*
X114199969Y-28930031D01*
X114032196Y-28786739D01*
X114019413Y-28775821D01*
X114019410Y-28775820D01*
X113816962Y-28651759D01*
X113816959Y-28651757D01*
X113597596Y-28560895D01*
X113366714Y-28505465D01*
X113189177Y-28491492D01*
X113130000Y-28486835D01*
X113129999Y-28486835D01*
X112893285Y-28505465D01*
X112662404Y-28560895D01*
X112662402Y-28560895D01*
X112443040Y-28651757D01*
X112443037Y-28651759D01*
X112240589Y-28775820D01*
X112240580Y-28775826D01*
X112069387Y-28922039D01*
X112005626Y-28950610D01*
X111936540Y-28940173D01*
X111889589Y-28902060D01*
X111803261Y-28786739D01*
X111686204Y-28699111D01*
X111549203Y-28648011D01*
X111488654Y-28641500D01*
X111488638Y-28641500D01*
X109691362Y-28641500D01*
X109691345Y-28641500D01*
X109630797Y-28648011D01*
X109630795Y-28648011D01*
X109493795Y-28699111D01*
X109376739Y-28786739D01*
X109289111Y-28903795D01*
X109238011Y-29040795D01*
X109238011Y-29040797D01*
X109231500Y-29101345D01*
X109231500Y-30898654D01*
X109238011Y-30959202D01*
X109238011Y-30959204D01*
X109272282Y-31051084D01*
X109289111Y-31096204D01*
X109376739Y-31213261D01*
X109493796Y-31300889D01*
X109608949Y-31343839D01*
X109620747Y-31348240D01*
X109630799Y-31351989D01*
X109658050Y-31354918D01*
X109691345Y-31358499D01*
X109691362Y-31358500D01*
X109707500Y-31358500D01*
X109774539Y-31378185D01*
X109820294Y-31430989D01*
X109831500Y-31482500D01*
X109831500Y-32294457D01*
X109811815Y-32361496D01*
X109795181Y-32382138D01*
X107472138Y-34705181D01*
X107410815Y-34738666D01*
X107384457Y-34741500D01*
X105314294Y-34741500D01*
X105296324Y-34740191D01*
X105272206Y-34736658D01*
X105226651Y-34740645D01*
X105219573Y-34741264D01*
X105214172Y-34741500D01*
X105205819Y-34741500D01*
X105172903Y-34745347D01*
X105095574Y-34752112D01*
X105088506Y-34753572D01*
X105088496Y-34753528D01*
X105080906Y-34755210D01*
X105080917Y-34755254D01*
X105073893Y-34756919D01*
X105073887Y-34756920D01*
X105073887Y-34756921D01*
X105049414Y-34765827D01*
X105000933Y-34783473D01*
X104927257Y-34807887D01*
X104920720Y-34810936D01*
X104920700Y-34810894D01*
X104913696Y-34814285D01*
X104913717Y-34814326D01*
X104907269Y-34817564D01*
X104842394Y-34860233D01*
X104776352Y-34900967D01*
X104770683Y-34905450D01*
X104770653Y-34905413D01*
X104764627Y-34910322D01*
X104764657Y-34910357D01*
X104759132Y-34914993D01*
X104759126Y-34914998D01*
X104759126Y-34914999D01*
X104724400Y-34951806D01*
X104705836Y-34971482D01*
X102654122Y-37023195D01*
X102640495Y-37034973D01*
X102620941Y-37049531D01*
X102586977Y-37090006D01*
X102583330Y-37093987D01*
X102577418Y-37099900D01*
X102556863Y-37125896D01*
X102506967Y-37185360D01*
X102503001Y-37191391D01*
X102502963Y-37191366D01*
X102498782Y-37197928D01*
X102498821Y-37197952D01*
X102495032Y-37204094D01*
X102462220Y-37274459D01*
X102427391Y-37343810D01*
X102424923Y-37350593D01*
X102424878Y-37350576D01*
X102422322Y-37357932D01*
X102422366Y-37357947D01*
X102420096Y-37364796D01*
X102404392Y-37440850D01*
X102386501Y-37516335D01*
X102385663Y-37523508D01*
X102385616Y-37523502D01*
X102384825Y-37531249D01*
X102384869Y-37531253D01*
X102384240Y-37538435D01*
X102386500Y-37616079D01*
X102386500Y-38696154D01*
X102366815Y-38763193D01*
X102327291Y-38801881D01*
X102255585Y-38845823D01*
X102075031Y-39000031D01*
X101969290Y-39123838D01*
X101910783Y-39162031D01*
X101840915Y-39162529D01*
X101781869Y-39125176D01*
X101780710Y-39123838D01*
X101780709Y-39123837D01*
X101674969Y-39000031D01*
X101555596Y-38898076D01*
X101494413Y-38845821D01*
X101494410Y-38845820D01*
X101291962Y-38721759D01*
X101291959Y-38721757D01*
X101072596Y-38630895D01*
X100841714Y-38575465D01*
X100605000Y-38556835D01*
X100368285Y-38575465D01*
X100137404Y-38630895D01*
X100137402Y-38630895D01*
X99918040Y-38721757D01*
X99918037Y-38721759D01*
X99715589Y-38845820D01*
X99715586Y-38845821D01*
X99535031Y-39000031D01*
X99380821Y-39180586D01*
X99380820Y-39180589D01*
X99256759Y-39383037D01*
X99256757Y-39383040D01*
X99165895Y-39602402D01*
X99165895Y-39602404D01*
X99110465Y-39833285D01*
X99091835Y-40069999D01*
X99110465Y-40306714D01*
X99165895Y-40537595D01*
X99165895Y-40537597D01*
X99256757Y-40756959D01*
X99256759Y-40756962D01*
X99380820Y-40959410D01*
X99380821Y-40959413D01*
X99415039Y-40999477D01*
X99535031Y-41139969D01*
X99674797Y-41259340D01*
X99715586Y-41294178D01*
X99715588Y-41294178D01*
X99845356Y-41373701D01*
X99918037Y-41418240D01*
X99918040Y-41418242D01*
X100137403Y-41509104D01*
X100137404Y-41509104D01*
X100137406Y-41509105D01*
X100368289Y-41564535D01*
X100605000Y-41583165D01*
X100841711Y-41564535D01*
X101072594Y-41509105D01*
X101072596Y-41509104D01*
X101072597Y-41509104D01*
X101291959Y-41418242D01*
X101291960Y-41418241D01*
X101291963Y-41418240D01*
X101494416Y-41294176D01*
X101674969Y-41139969D01*
X101780711Y-41016160D01*
X101839216Y-40977968D01*
X101909084Y-40977469D01*
X101968131Y-41014823D01*
X101969200Y-41016057D01*
X102063066Y-41125960D01*
X102075031Y-41139969D01*
X102255586Y-41294178D01*
X102255588Y-41294179D01*
X102327290Y-41338118D01*
X102374165Y-41389929D01*
X102386500Y-41443845D01*
X102386500Y-41739456D01*
X102366815Y-41806495D01*
X102350181Y-41827137D01*
X100222138Y-43955181D01*
X100160815Y-43988666D01*
X100134457Y-43991500D01*
X87861327Y-43991500D01*
X87843335Y-43989397D01*
X87843289Y-43989798D01*
X87836120Y-43988960D01*
X87836116Y-43988960D01*
X76532740Y-43988960D01*
X76465701Y-43969275D01*
X76428932Y-43932783D01*
X76416400Y-43913602D01*
X76373906Y-43848560D01*
X76210201Y-43670729D01*
X76210196Y-43670725D01*
X76210194Y-43670723D01*
X76080689Y-43569925D01*
X76039876Y-43513215D01*
X76036201Y-43443442D01*
X76052184Y-43415435D01*
X76053425Y-43395439D01*
X75388276Y-42730289D01*
X75354791Y-42668966D01*
X75359775Y-42599274D01*
X75401647Y-42543341D01*
X75416933Y-42533557D01*
X75456251Y-42512280D01*
X75542371Y-42418729D01*
X75543083Y-42417103D01*
X75544652Y-42415237D01*
X75547992Y-42410126D01*
X75548609Y-42410529D01*
X75588036Y-42363618D01*
X75654770Y-42342924D01*
X75722099Y-42361595D01*
X75744322Y-42379229D01*
X76406310Y-43041217D01*
X76498606Y-42899950D01*
X76595134Y-42679888D01*
X76654125Y-42446936D01*
X76673969Y-42207465D01*
X76673969Y-42207454D01*
X76654125Y-41967983D01*
X76595134Y-41735031D01*
X76498608Y-41514974D01*
X76406310Y-41373701D01*
X75741949Y-42038062D01*
X75680626Y-42071547D01*
X75610934Y-42066563D01*
X75555001Y-42024691D01*
X75550460Y-42018203D01*
X75503189Y-41945851D01*
X75503186Y-41945847D01*
X75402487Y-41867470D01*
X75361674Y-41810760D01*
X75358000Y-41740987D01*
X75390969Y-41681936D01*
X76053426Y-41019478D01*
X76052293Y-41001241D01*
X76039877Y-40983987D01*
X76036204Y-40914214D01*
X76070836Y-40853531D01*
X76080690Y-40844993D01*
X76210201Y-40744191D01*
X76373906Y-40566360D01*
X76506109Y-40364009D01*
X76603203Y-40142657D01*
X76662539Y-39908344D01*
X76682499Y-39667460D01*
X76677108Y-39602404D01*
X76662539Y-39426579D01*
X76662539Y-39426576D01*
X76603203Y-39192263D01*
X76506109Y-38970911D01*
X76373906Y-38768560D01*
X76210201Y-38590729D01*
X76210196Y-38590725D01*
X76210194Y-38590723D01*
X76019466Y-38442273D01*
X76019460Y-38442269D01*
X75806882Y-38327227D01*
X75806873Y-38327224D01*
X75578271Y-38248744D01*
X75399458Y-38218906D01*
X75339855Y-38208960D01*
X75098145Y-38208960D01*
X75050462Y-38216916D01*
X74859728Y-38248744D01*
X74631126Y-38327224D01*
X74631117Y-38327227D01*
X74418539Y-38442269D01*
X74418533Y-38442273D01*
X74227805Y-38590723D01*
X74227802Y-38590726D01*
X74064095Y-38768558D01*
X74064092Y-38768562D01*
X73931891Y-38970909D01*
X73834797Y-39192262D01*
X73775460Y-39426579D01*
X73755501Y-39667454D01*
X73755501Y-39667465D01*
X73775460Y-39908340D01*
X73834797Y-40142657D01*
X73931891Y-40364010D01*
X74045300Y-40537594D01*
X74064094Y-40566360D01*
X74227799Y-40744191D01*
X74297266Y-40798259D01*
X74357309Y-40844993D01*
X74398122Y-40901703D01*
X74401796Y-40971476D01*
X74385815Y-40999477D01*
X74384573Y-41019479D01*
X75049723Y-41684630D01*
X75083208Y-41745953D01*
X75078224Y-41815645D01*
X75036352Y-41871578D01*
X75021059Y-41881366D01*
X74981749Y-41902639D01*
X74981748Y-41902639D01*
X74895626Y-41996193D01*
X74895626Y-41996194D01*
X74894911Y-41997825D01*
X74893340Y-41999693D01*
X74890008Y-42004794D01*
X74889391Y-42004391D01*
X74849952Y-42051309D01*
X74783215Y-42071995D01*
X74715888Y-42053317D01*
X74693677Y-42035690D01*
X74031687Y-41373701D01*
X73939392Y-41514971D01*
X73842865Y-41735031D01*
X73783874Y-41967983D01*
X73764031Y-42207454D01*
X73764031Y-42207465D01*
X73783874Y-42446936D01*
X73842865Y-42679888D01*
X73939391Y-42899945D01*
X74031688Y-43041216D01*
X74696050Y-42376855D01*
X74757373Y-42343370D01*
X74827065Y-42348354D01*
X74882998Y-42390226D01*
X74887539Y-42396714D01*
X74934813Y-42469072D01*
X75035157Y-42547173D01*
X75035160Y-42547174D01*
X75035511Y-42547447D01*
X75076324Y-42604157D01*
X75079999Y-42673930D01*
X75047030Y-42732982D01*
X74384572Y-43395439D01*
X74385705Y-43413676D01*
X74398124Y-43430933D01*
X74401796Y-43500706D01*
X74367163Y-43561389D01*
X74357310Y-43569926D01*
X74227801Y-43670727D01*
X74064095Y-43848558D01*
X74064092Y-43848562D01*
X73931891Y-44050909D01*
X73834797Y-44272262D01*
X73775460Y-44506579D01*
X73755501Y-44747454D01*
X73755501Y-44747465D01*
X73775460Y-44988340D01*
X73834797Y-45222657D01*
X73931891Y-45444010D01*
X73974025Y-45508500D01*
X74064094Y-45646360D01*
X74227799Y-45824191D01*
X74350389Y-45919607D01*
X74391202Y-45976317D01*
X74394877Y-46046090D01*
X74360246Y-46106773D01*
X74350394Y-46115309D01*
X74266793Y-46180378D01*
X74227800Y-46210728D01*
X74064095Y-46388558D01*
X74064092Y-46388562D01*
X73931891Y-46590909D01*
X73834797Y-46812262D01*
X73775460Y-47046579D01*
X73755501Y-47287454D01*
X73755501Y-47287465D01*
X73775460Y-47528340D01*
X73834797Y-47762657D01*
X73931891Y-47984010D01*
X74064092Y-48186357D01*
X74064094Y-48186360D01*
X74227799Y-48364191D01*
X74350391Y-48459608D01*
X74391202Y-48516315D01*
X74394877Y-48586088D01*
X74360246Y-48646772D01*
X74350390Y-48655312D01*
X74227801Y-48750727D01*
X74064095Y-48928558D01*
X74064092Y-48928562D01*
X73931891Y-49130909D01*
X73834797Y-49352262D01*
X73775460Y-49586579D01*
X73755501Y-49827454D01*
X73755501Y-49827465D01*
X51000500Y-49827465D01*
X51000500Y-30674759D01*
X52499500Y-30674759D01*
X52526759Y-30907969D01*
X52540077Y-31021914D01*
X52540077Y-31021916D01*
X52620680Y-31362009D01*
X52620681Y-31362012D01*
X52740223Y-31690452D01*
X52740226Y-31690458D01*
X52897088Y-32002796D01*
X53089146Y-32294805D01*
X53089152Y-32294813D01*
X53145106Y-32361496D01*
X53313817Y-32562558D01*
X53405354Y-32648919D01*
X53568044Y-32802410D01*
X53568050Y-32802415D01*
X53848402Y-33011129D01*
X53848404Y-33011130D01*
X54151096Y-33185889D01*
X54472029Y-33324326D01*
X54806864Y-33424569D01*
X54806866Y-33424569D01*
X54806872Y-33424571D01*
X55151061Y-33485260D01*
X55151062Y-33485260D01*
X55151073Y-33485262D01*
X55412695Y-33500500D01*
X55412697Y-33500500D01*
X55587303Y-33500500D01*
X55587305Y-33500500D01*
X55848927Y-33485262D01*
X55892854Y-33477516D01*
X56193127Y-33424571D01*
X56193130Y-33424569D01*
X56193136Y-33424569D01*
X56527971Y-33324326D01*
X56848904Y-33185889D01*
X57151596Y-33011130D01*
X57431953Y-32802412D01*
X57686183Y-32562558D01*
X57910849Y-32294811D01*
X58102913Y-32002793D01*
X58259777Y-31690451D01*
X58379319Y-31362011D01*
X58459923Y-31021914D01*
X58500500Y-30674759D01*
X58500500Y-30325241D01*
X58459923Y-29978086D01*
X58431648Y-29858784D01*
X64479402Y-29858784D01*
X64479402Y-35136168D01*
X81374346Y-35136168D01*
X81374346Y-30898654D01*
X88641500Y-30898654D01*
X88648011Y-30959202D01*
X88648011Y-30959204D01*
X88682282Y-31051084D01*
X88699111Y-31096204D01*
X88786739Y-31213261D01*
X88903796Y-31300889D01*
X89018949Y-31343839D01*
X89030747Y-31348240D01*
X89040799Y-31351989D01*
X89068050Y-31354918D01*
X89101345Y-31358499D01*
X89101362Y-31358500D01*
X90898638Y-31358500D01*
X90898654Y-31358499D01*
X90925692Y-31355591D01*
X90959201Y-31351989D01*
X91096204Y-31300889D01*
X91213261Y-31213261D01*
X91299590Y-31097939D01*
X91355522Y-31056068D01*
X91425214Y-31051084D01*
X91479386Y-31077959D01*
X91502781Y-31097940D01*
X91650586Y-31224178D01*
X91650588Y-31224178D01*
X91775766Y-31300888D01*
X91853037Y-31348240D01*
X91853040Y-31348242D01*
X92072403Y-31439104D01*
X92072404Y-31439104D01*
X92072406Y-31439105D01*
X92303289Y-31494535D01*
X92540000Y-31513165D01*
X92776711Y-31494535D01*
X93007594Y-31439105D01*
X93007596Y-31439104D01*
X93007597Y-31439104D01*
X93226959Y-31348242D01*
X93226960Y-31348241D01*
X93226963Y-31348240D01*
X93429416Y-31224176D01*
X93609969Y-31069969D01*
X93715711Y-30946160D01*
X93774216Y-30907968D01*
X93844084Y-30907469D01*
X93903131Y-30944823D01*
X93904200Y-30946057D01*
X94010030Y-31069968D01*
X94010031Y-31069969D01*
X94190586Y-31224178D01*
X94190588Y-31224178D01*
X94315766Y-31300888D01*
X94393037Y-31348240D01*
X94393040Y-31348242D01*
X94612403Y-31439104D01*
X94612404Y-31439104D01*
X94612406Y-31439105D01*
X94843289Y-31494535D01*
X95080000Y-31513165D01*
X95316711Y-31494535D01*
X95547594Y-31439105D01*
X95547596Y-31439104D01*
X95547597Y-31439104D01*
X95766959Y-31348242D01*
X95766960Y-31348241D01*
X95766963Y-31348240D01*
X95969416Y-31224176D01*
X96149969Y-31069969D01*
X96255711Y-30946160D01*
X96314216Y-30907968D01*
X96384084Y-30907469D01*
X96443131Y-30944823D01*
X96444200Y-30946057D01*
X96550030Y-31069968D01*
X96550031Y-31069969D01*
X96730586Y-31224178D01*
X96730588Y-31224178D01*
X96855766Y-31300888D01*
X96933037Y-31348240D01*
X96933040Y-31348242D01*
X97152403Y-31439104D01*
X97152404Y-31439104D01*
X97152406Y-31439105D01*
X97383289Y-31494535D01*
X97620000Y-31513165D01*
X97856711Y-31494535D01*
X98087594Y-31439105D01*
X98087596Y-31439104D01*
X98087597Y-31439104D01*
X98306959Y-31348242D01*
X98306960Y-31348241D01*
X98306963Y-31348240D01*
X98509416Y-31224176D01*
X98689969Y-31069969D01*
X98795711Y-30946160D01*
X98854216Y-30907968D01*
X98924084Y-30907469D01*
X98983131Y-30944823D01*
X98984200Y-30946057D01*
X99090030Y-31069968D01*
X99090031Y-31069969D01*
X99270586Y-31224178D01*
X99270588Y-31224178D01*
X99395766Y-31300888D01*
X99473037Y-31348240D01*
X99473040Y-31348242D01*
X99692403Y-31439104D01*
X99692404Y-31439104D01*
X99692406Y-31439105D01*
X99923289Y-31494535D01*
X100160000Y-31513165D01*
X100396711Y-31494535D01*
X100627594Y-31439105D01*
X100627596Y-31439104D01*
X100627597Y-31439104D01*
X100846959Y-31348242D01*
X100846960Y-31348241D01*
X100846963Y-31348240D01*
X101049416Y-31224176D01*
X101229969Y-31069969D01*
X101384176Y-30889416D01*
X101508240Y-30686963D01*
X101599105Y-30467594D01*
X101654535Y-30236711D01*
X101673165Y-30000000D01*
X101654535Y-29763289D01*
X101599105Y-29532406D01*
X101599104Y-29532403D01*
X101599104Y-29532402D01*
X101508242Y-29313040D01*
X101508240Y-29313037D01*
X101384179Y-29110589D01*
X101384178Y-29110586D01*
X101324570Y-29040795D01*
X101229969Y-28930031D01*
X101062196Y-28786739D01*
X101049413Y-28775821D01*
X101049410Y-28775820D01*
X100846962Y-28651759D01*
X100846959Y-28651757D01*
X100627596Y-28560895D01*
X100396714Y-28505465D01*
X100160000Y-28486835D01*
X99923285Y-28505465D01*
X99692404Y-28560895D01*
X99692402Y-28560895D01*
X99473040Y-28651757D01*
X99473037Y-28651759D01*
X99270589Y-28775820D01*
X99270586Y-28775821D01*
X99090031Y-28930031D01*
X98984290Y-29053838D01*
X98925783Y-29092031D01*
X98855915Y-29092529D01*
X98796869Y-29055176D01*
X98795710Y-29053838D01*
X98784570Y-29040795D01*
X98689969Y-28930031D01*
X98522196Y-28786739D01*
X98509413Y-28775821D01*
X98509410Y-28775820D01*
X98306962Y-28651759D01*
X98306959Y-28651757D01*
X98087596Y-28560895D01*
X97856714Y-28505465D01*
X97620000Y-28486835D01*
X97383285Y-28505465D01*
X97152404Y-28560895D01*
X97152402Y-28560895D01*
X96933040Y-28651757D01*
X96933037Y-28651759D01*
X96730589Y-28775820D01*
X96730586Y-28775821D01*
X96550031Y-28930031D01*
X96444290Y-29053838D01*
X96385783Y-29092031D01*
X96315915Y-29092529D01*
X96256869Y-29055176D01*
X96255710Y-29053838D01*
X96244570Y-29040795D01*
X96149969Y-28930031D01*
X95982196Y-28786739D01*
X95969413Y-28775821D01*
X95969410Y-28775820D01*
X95766962Y-28651759D01*
X95766959Y-28651757D01*
X95547596Y-28560895D01*
X95316714Y-28505465D01*
X95139177Y-28491492D01*
X95080000Y-28486835D01*
X95079999Y-28486835D01*
X94843285Y-28505465D01*
X94612404Y-28560895D01*
X94612402Y-28560895D01*
X94393040Y-28651757D01*
X94393037Y-28651759D01*
X94190589Y-28775820D01*
X94190586Y-28775821D01*
X94010031Y-28930031D01*
X93904290Y-29053838D01*
X93845783Y-29092031D01*
X93775915Y-29092529D01*
X93716869Y-29055176D01*
X93715710Y-29053838D01*
X93704570Y-29040795D01*
X93609969Y-28930031D01*
X93442196Y-28786739D01*
X93429413Y-28775821D01*
X93429410Y-28775820D01*
X93226962Y-28651759D01*
X93226959Y-28651757D01*
X93007596Y-28560895D01*
X92776714Y-28505465D01*
X92540000Y-28486835D01*
X92303285Y-28505465D01*
X92072404Y-28560895D01*
X92072402Y-28560895D01*
X91853040Y-28651757D01*
X91853037Y-28651759D01*
X91650589Y-28775820D01*
X91650580Y-28775826D01*
X91479387Y-28922039D01*
X91415626Y-28950610D01*
X91346540Y-28940173D01*
X91299589Y-28902060D01*
X91213261Y-28786739D01*
X91096204Y-28699111D01*
X90959203Y-28648011D01*
X90898654Y-28641500D01*
X90898638Y-28641500D01*
X89101362Y-28641500D01*
X89101345Y-28641500D01*
X89040797Y-28648011D01*
X89040795Y-28648011D01*
X88903795Y-28699111D01*
X88786739Y-28786739D01*
X88699111Y-28903795D01*
X88648011Y-29040795D01*
X88648011Y-29040797D01*
X88641500Y-29101345D01*
X88641500Y-30898654D01*
X81374346Y-30898654D01*
X81374346Y-29858784D01*
X64479402Y-29858784D01*
X58431648Y-29858784D01*
X58379319Y-29637989D01*
X58259777Y-29309549D01*
X58150785Y-29092529D01*
X58102911Y-28997203D01*
X57910853Y-28705194D01*
X57910847Y-28705186D01*
X57789772Y-28560895D01*
X57686183Y-28437442D01*
X57563253Y-28321463D01*
X57431955Y-28197589D01*
X57431949Y-28197584D01*
X57151597Y-27988870D01*
X56848908Y-27814113D01*
X56848895Y-27814107D01*
X56527972Y-27675674D01*
X56193134Y-27575430D01*
X56193127Y-27575428D01*
X55848938Y-27514739D01*
X55848927Y-27514738D01*
X55848927Y-27514737D01*
X55587305Y-27499500D01*
X55412695Y-27499500D01*
X55238280Y-27509658D01*
X55151072Y-27514738D01*
X55151061Y-27514739D01*
X54806872Y-27575428D01*
X54806865Y-27575430D01*
X54472027Y-27675674D01*
X54151104Y-27814107D01*
X54151091Y-27814113D01*
X53848402Y-27988870D01*
X53568050Y-28197584D01*
X53568044Y-28197589D01*
X53313819Y-28437440D01*
X53313817Y-28437442D01*
X53089152Y-28705186D01*
X53089146Y-28705194D01*
X52897088Y-28997203D01*
X52740226Y-29309541D01*
X52740223Y-29309547D01*
X52620681Y-29637987D01*
X52620680Y-29637990D01*
X52540077Y-29978083D01*
X52540077Y-29978085D01*
X52540077Y-29978086D01*
X52499500Y-30325241D01*
X52499500Y-30674759D01*
X51000500Y-30674759D01*
X51000500Y-26124500D01*
X51020185Y-26057461D01*
X51072989Y-26011706D01*
X51124500Y-26000500D01*
X138875500Y-26000500D01*
X138942539Y-26020185D01*
G37*
%TD.AperFunction*%
%TD*%
D27*
X50000000Y-25000000D02*
X140000000Y-25000000D01*
X140000000Y-25000000D02*
X140000000Y-115000000D01*
X50000000Y-115000000D02*
X140000000Y-115000000D01*
X50000000Y-25000000D02*
X50000000Y-115000000D01*
M02*
