M48
; DRILL file {KiCad 7.0.7} date Fri Nov 10 08:01:21 2023
; FORMAT={2:4/ absolute / inch / keep zeros}
; #@! TF.CreationDate,2023-11-10T08:01:21-05:00
; #@! TF.GenerationSoftware,Kicad,Pcbnew,7.0.7
; #@! TF.FileFunction,MixedPlating,1,2
FMAT,2
INCH
; #@! TA.AperFunction,Plated,PTH,ViaDrill
T1C0.0197
; #@! TA.AperFunction,Plated,PTH,ComponentDrill
T2C0.0300
; #@! TA.AperFunction,Plated,PTH,ComponentDrill
T3C0.0311
; #@! TA.AperFunction,Plated,PTH,ComponentDrill
T4C0.0315
; #@! TA.AperFunction,Plated,PTH,ComponentDrill
T5C0.0354
; #@! TA.AperFunction,Plated,PTH,ComponentDrill
T6C0.0394
; #@! TA.AperFunction,Plated,PTH,ComponentDrill
T7C0.0402
; #@! TA.AperFunction,NonPlated,NPTH,ComponentDrill
T8C0.1969
%
G90
G05
T1
X025394Y-037795
X033760Y-020472
X041535Y-019685
X042608Y-019774
X051575Y-031102
T2
X027740Y-043756
X028740Y-043756
X029614Y-015617
X029614Y-016617
X029614Y-017617
X029614Y-018617
X029614Y-019617
X029669Y-022055
X029669Y-023055
X029669Y-024055
X029669Y-025055
X029740Y-043756
X040494Y-032846
X040494Y-033846
X040494Y-034846
X040494Y-035846
T3
X035795Y-037205
X036795Y-037205
X037795Y-037205
T4
X024740Y-028150
X024740Y-033858
X024772Y-030512
X028740Y-028150
X028740Y-033858
X028772Y-030512
X036811Y-029299
X036811Y-033299
T5
X021343Y-033858
X021348Y-028150
X021358Y-030512
X022343Y-033858
X022348Y-028150
X022358Y-030512
T6
X033465Y-033252
X033465Y-034252
X033465Y-035252
X035370Y-043307
X035433Y-011811
X036370Y-043307
X036433Y-011811
X037370Y-043307
X037433Y-011811
X038370Y-043307
X038433Y-011811
X039370Y-043307
X039433Y-011811
X043539Y-011811
X043622Y-043701
X044539Y-011811
X044622Y-043701
X045539Y-011811
X045622Y-043701
X046539Y-011811
X046622Y-043701
X047539Y-011811
X047622Y-043701
X048539Y-011811
X048622Y-043701
T7
X039608Y-015776
X039608Y-024776
X040608Y-015776
X040608Y-024776
X041608Y-015776
X041608Y-024776
X042608Y-015776
X042608Y-024776
X043608Y-015776
X043608Y-024776
X044608Y-015776
X044608Y-024776
X045608Y-015776
X045608Y-024776
X046608Y-015776
X046608Y-024776
X047608Y-015776
X047608Y-024776
X048608Y-015776
X048608Y-024776
X049608Y-015776
X049608Y-024776
X050608Y-015776
X050608Y-024776
X051608Y-015776
X051608Y-024776
X052608Y-015776
X052608Y-024776
X053608Y-015776
X053608Y-024776
T8
X021850Y-012008
X021850Y-043110
X052953Y-012008
X052953Y-043110
T0
M30
