%TF.GenerationSoftware,KiCad,Pcbnew,7.0.7*%
%TF.CreationDate,2023-11-10T08:01:12-05:00*%
%TF.ProjectId,CubeSat,43756265-5361-4742-9e6b-696361645f70,rev?*%
%TF.SameCoordinates,Original*%
%TF.FileFunction,Legend,Top*%
%TF.FilePolarity,Positive*%
%FSLAX46Y46*%
G04 Gerber Fmt 4.6, Leading zero omitted, Abs format (unit mm)*
G04 Created by KiCad (PCBNEW 7.0.7) date 2023-11-10 08:01:12*
%MOMM*%
%LPD*%
G01*
G04 APERTURE LIST*
%ADD10C,0.150000*%
%ADD11C,0.100000*%
%ADD12C,0.120000*%
%ADD13C,0.127000*%
%ADD14C,0.200000*%
%TA.AperFunction,Profile*%
%ADD15C,0.100000*%
%TD*%
G04 APERTURE END LIST*
D10*
X140000000Y-109500000D02*
G75*
G03*
X140000000Y-109500000I-5500000J0D01*
G01*
X61000000Y-30500000D02*
G75*
G03*
X61000000Y-30500000I-5500000J0D01*
G01*
X140000000Y-30500000D02*
G75*
G03*
X140000000Y-30500000I-5500000J0D01*
G01*
X61000000Y-109500000D02*
G75*
G03*
X61000000Y-109500000I-5500000J0D01*
G01*
X54738095Y-24954819D02*
X54738095Y-23954819D01*
X54738095Y-24431009D02*
X55309523Y-24431009D01*
X55309523Y-24954819D02*
X55309523Y-23954819D01*
X56309523Y-24954819D02*
X55738095Y-24954819D01*
X56023809Y-24954819D02*
X56023809Y-23954819D01*
X56023809Y-23954819D02*
X55928571Y-24097676D01*
X55928571Y-24097676D02*
X55833333Y-24192914D01*
X55833333Y-24192914D02*
X55738095Y-24240533D01*
X96324819Y-81214285D02*
X95848628Y-81547618D01*
X96324819Y-81785713D02*
X95324819Y-81785713D01*
X95324819Y-81785713D02*
X95324819Y-81404761D01*
X95324819Y-81404761D02*
X95372438Y-81309523D01*
X95372438Y-81309523D02*
X95420057Y-81261904D01*
X95420057Y-81261904D02*
X95515295Y-81214285D01*
X95515295Y-81214285D02*
X95658152Y-81214285D01*
X95658152Y-81214285D02*
X95753390Y-81261904D01*
X95753390Y-81261904D02*
X95801009Y-81309523D01*
X95801009Y-81309523D02*
X95848628Y-81404761D01*
X95848628Y-81404761D02*
X95848628Y-81785713D01*
X96324819Y-80785713D02*
X95324819Y-80785713D01*
X95324819Y-80785713D02*
X96324819Y-80214285D01*
X96324819Y-80214285D02*
X95324819Y-80214285D01*
X96324819Y-79738094D02*
X95324819Y-79738094D01*
X95324819Y-79738094D02*
X95324819Y-79357142D01*
X95324819Y-79357142D02*
X95372438Y-79261904D01*
X95372438Y-79261904D02*
X95420057Y-79214285D01*
X95420057Y-79214285D02*
X95515295Y-79166666D01*
X95515295Y-79166666D02*
X95658152Y-79166666D01*
X95658152Y-79166666D02*
X95753390Y-79214285D01*
X95753390Y-79214285D02*
X95801009Y-79261904D01*
X95801009Y-79261904D02*
X95848628Y-79357142D01*
X95848628Y-79357142D02*
X95848628Y-79738094D01*
X96324819Y-78738094D02*
X95324819Y-78738094D01*
X95324819Y-78738094D02*
X96324819Y-78166666D01*
X96324819Y-78166666D02*
X95324819Y-78166666D01*
X96324819Y-77166666D02*
X96324819Y-77738094D01*
X96324819Y-77452380D02*
X95324819Y-77452380D01*
X95324819Y-77452380D02*
X95467676Y-77547618D01*
X95467676Y-77547618D02*
X95562914Y-77642856D01*
X95562914Y-77642856D02*
X95610533Y-77738094D01*
X93100761Y-90833057D02*
X93005523Y-90785438D01*
X93005523Y-90785438D02*
X92910285Y-90690200D01*
X92910285Y-90690200D02*
X92767428Y-90547342D01*
X92767428Y-90547342D02*
X92672190Y-90499723D01*
X92672190Y-90499723D02*
X92576952Y-90499723D01*
X92624571Y-90737819D02*
X92529333Y-90690200D01*
X92529333Y-90690200D02*
X92434095Y-90594961D01*
X92434095Y-90594961D02*
X92386476Y-90404485D01*
X92386476Y-90404485D02*
X92386476Y-90071152D01*
X92386476Y-90071152D02*
X92434095Y-89880676D01*
X92434095Y-89880676D02*
X92529333Y-89785438D01*
X92529333Y-89785438D02*
X92624571Y-89737819D01*
X92624571Y-89737819D02*
X92815047Y-89737819D01*
X92815047Y-89737819D02*
X92910285Y-89785438D01*
X92910285Y-89785438D02*
X93005523Y-89880676D01*
X93005523Y-89880676D02*
X93053142Y-90071152D01*
X93053142Y-90071152D02*
X93053142Y-90404485D01*
X93053142Y-90404485D02*
X93005523Y-90594961D01*
X93005523Y-90594961D02*
X92910285Y-90690200D01*
X92910285Y-90690200D02*
X92815047Y-90737819D01*
X92815047Y-90737819D02*
X92624571Y-90737819D01*
X94005523Y-90737819D02*
X93434095Y-90737819D01*
X93719809Y-90737819D02*
X93719809Y-89737819D01*
X93719809Y-89737819D02*
X93624571Y-89880676D01*
X93624571Y-89880676D02*
X93529333Y-89975914D01*
X93529333Y-89975914D02*
X93434095Y-90023533D01*
D11*
X74042580Y-101488095D02*
X73233057Y-101488095D01*
X73233057Y-101488095D02*
X73137819Y-101535714D01*
X73137819Y-101535714D02*
X73090200Y-101583333D01*
X73090200Y-101583333D02*
X73042580Y-101678571D01*
X73042580Y-101678571D02*
X73042580Y-101869047D01*
X73042580Y-101869047D02*
X73090200Y-101964285D01*
X73090200Y-101964285D02*
X73137819Y-102011904D01*
X73137819Y-102011904D02*
X73233057Y-102059523D01*
X73233057Y-102059523D02*
X74042580Y-102059523D01*
X73042580Y-103059523D02*
X73042580Y-102488095D01*
X73042580Y-102773809D02*
X74042580Y-102773809D01*
X74042580Y-102773809D02*
X73899723Y-102678571D01*
X73899723Y-102678571D02*
X73804485Y-102583333D01*
X73804485Y-102583333D02*
X73756866Y-102488095D01*
D10*
X102224819Y-110333333D02*
X102939104Y-110333333D01*
X102939104Y-110333333D02*
X103081961Y-110380952D01*
X103081961Y-110380952D02*
X103177200Y-110476190D01*
X103177200Y-110476190D02*
X103224819Y-110619047D01*
X103224819Y-110619047D02*
X103224819Y-110714285D01*
X102320057Y-109904761D02*
X102272438Y-109857142D01*
X102272438Y-109857142D02*
X102224819Y-109761904D01*
X102224819Y-109761904D02*
X102224819Y-109523809D01*
X102224819Y-109523809D02*
X102272438Y-109428571D01*
X102272438Y-109428571D02*
X102320057Y-109380952D01*
X102320057Y-109380952D02*
X102415295Y-109333333D01*
X102415295Y-109333333D02*
X102510533Y-109333333D01*
X102510533Y-109333333D02*
X102653390Y-109380952D01*
X102653390Y-109380952D02*
X103224819Y-109952380D01*
X103224819Y-109952380D02*
X103224819Y-109333333D01*
X133738095Y-103954819D02*
X133738095Y-102954819D01*
X133738095Y-103431009D02*
X134309523Y-103431009D01*
X134309523Y-103954819D02*
X134309523Y-102954819D01*
X135214285Y-103288152D02*
X135214285Y-103954819D01*
X134976190Y-102907200D02*
X134738095Y-103621485D01*
X134738095Y-103621485D02*
X135357142Y-103621485D01*
X108639104Y-113523809D02*
X108639104Y-113047619D01*
X108924819Y-113619047D02*
X107924819Y-113285714D01*
X107924819Y-113285714D02*
X108924819Y-112952381D01*
X107924819Y-112619047D02*
X108734342Y-112619047D01*
X108734342Y-112619047D02*
X108829580Y-112571428D01*
X108829580Y-112571428D02*
X108877200Y-112523809D01*
X108877200Y-112523809D02*
X108924819Y-112428571D01*
X108924819Y-112428571D02*
X108924819Y-112238095D01*
X108924819Y-112238095D02*
X108877200Y-112142857D01*
X108877200Y-112142857D02*
X108829580Y-112095238D01*
X108829580Y-112095238D02*
X108734342Y-112047619D01*
X108734342Y-112047619D02*
X107924819Y-112047619D01*
X107924819Y-111666666D02*
X108924819Y-111000000D01*
X107924819Y-111000000D02*
X108924819Y-111666666D01*
X109020057Y-110857143D02*
X109020057Y-110095238D01*
X107924819Y-109999999D02*
X108924819Y-109666666D01*
X108924819Y-109666666D02*
X107924819Y-109333333D01*
X108924819Y-108476190D02*
X108924819Y-109047618D01*
X108924819Y-108761904D02*
X107924819Y-108761904D01*
X107924819Y-108761904D02*
X108067676Y-108857142D01*
X108067676Y-108857142D02*
X108162914Y-108952380D01*
X108162914Y-108952380D02*
X108210533Y-109047618D01*
X54781905Y-74994819D02*
X54781905Y-73994819D01*
X54781905Y-73994819D02*
X55020000Y-73994819D01*
X55020000Y-73994819D02*
X55162857Y-74042438D01*
X55162857Y-74042438D02*
X55258095Y-74137676D01*
X55258095Y-74137676D02*
X55305714Y-74232914D01*
X55305714Y-74232914D02*
X55353333Y-74423390D01*
X55353333Y-74423390D02*
X55353333Y-74566247D01*
X55353333Y-74566247D02*
X55305714Y-74756723D01*
X55305714Y-74756723D02*
X55258095Y-74851961D01*
X55258095Y-74851961D02*
X55162857Y-74947200D01*
X55162857Y-74947200D02*
X55020000Y-74994819D01*
X55020000Y-74994819D02*
X54781905Y-74994819D01*
X55686667Y-73994819D02*
X56305714Y-73994819D01*
X56305714Y-73994819D02*
X55972381Y-74375771D01*
X55972381Y-74375771D02*
X56115238Y-74375771D01*
X56115238Y-74375771D02*
X56210476Y-74423390D01*
X56210476Y-74423390D02*
X56258095Y-74471009D01*
X56258095Y-74471009D02*
X56305714Y-74566247D01*
X56305714Y-74566247D02*
X56305714Y-74804342D01*
X56305714Y-74804342D02*
X56258095Y-74899580D01*
X56258095Y-74899580D02*
X56210476Y-74947200D01*
X56210476Y-74947200D02*
X56115238Y-74994819D01*
X56115238Y-74994819D02*
X55829524Y-74994819D01*
X55829524Y-74994819D02*
X55734286Y-74947200D01*
X55734286Y-74947200D02*
X55686667Y-74899580D01*
X54756905Y-68994819D02*
X54756905Y-67994819D01*
X54756905Y-67994819D02*
X54995000Y-67994819D01*
X54995000Y-67994819D02*
X55137857Y-68042438D01*
X55137857Y-68042438D02*
X55233095Y-68137676D01*
X55233095Y-68137676D02*
X55280714Y-68232914D01*
X55280714Y-68232914D02*
X55328333Y-68423390D01*
X55328333Y-68423390D02*
X55328333Y-68566247D01*
X55328333Y-68566247D02*
X55280714Y-68756723D01*
X55280714Y-68756723D02*
X55233095Y-68851961D01*
X55233095Y-68851961D02*
X55137857Y-68947200D01*
X55137857Y-68947200D02*
X54995000Y-68994819D01*
X54995000Y-68994819D02*
X54756905Y-68994819D01*
X55709286Y-68090057D02*
X55756905Y-68042438D01*
X55756905Y-68042438D02*
X55852143Y-67994819D01*
X55852143Y-67994819D02*
X56090238Y-67994819D01*
X56090238Y-67994819D02*
X56185476Y-68042438D01*
X56185476Y-68042438D02*
X56233095Y-68090057D01*
X56233095Y-68090057D02*
X56280714Y-68185295D01*
X56280714Y-68185295D02*
X56280714Y-68280533D01*
X56280714Y-68280533D02*
X56233095Y-68423390D01*
X56233095Y-68423390D02*
X55661667Y-68994819D01*
X55661667Y-68994819D02*
X56280714Y-68994819D01*
D11*
X67738095Y-58707419D02*
X67738095Y-59516942D01*
X67738095Y-59516942D02*
X67785714Y-59612180D01*
X67785714Y-59612180D02*
X67833333Y-59659800D01*
X67833333Y-59659800D02*
X67928571Y-59707419D01*
X67928571Y-59707419D02*
X68119047Y-59707419D01*
X68119047Y-59707419D02*
X68214285Y-59659800D01*
X68214285Y-59659800D02*
X68261904Y-59612180D01*
X68261904Y-59612180D02*
X68309523Y-59516942D01*
X68309523Y-59516942D02*
X68309523Y-58707419D01*
X68690476Y-58707419D02*
X69309523Y-58707419D01*
X69309523Y-58707419D02*
X68976190Y-59088371D01*
X68976190Y-59088371D02*
X69119047Y-59088371D01*
X69119047Y-59088371D02*
X69214285Y-59135990D01*
X69214285Y-59135990D02*
X69261904Y-59183609D01*
X69261904Y-59183609D02*
X69309523Y-59278847D01*
X69309523Y-59278847D02*
X69309523Y-59516942D01*
X69309523Y-59516942D02*
X69261904Y-59612180D01*
X69261904Y-59612180D02*
X69214285Y-59659800D01*
X69214285Y-59659800D02*
X69119047Y-59707419D01*
X69119047Y-59707419D02*
X68833333Y-59707419D01*
X68833333Y-59707419D02*
X68738095Y-59659800D01*
X68738095Y-59659800D02*
X68690476Y-59612180D01*
X63456143Y-44704879D02*
X63456143Y-43704879D01*
X63456143Y-44181069D02*
X64027571Y-44181069D01*
X64027571Y-44704879D02*
X64027571Y-43704879D01*
X64503762Y-44704879D02*
X64503762Y-43704879D01*
X64503762Y-43704879D02*
X64837095Y-44419164D01*
X64837095Y-44419164D02*
X65170428Y-43704879D01*
X65170428Y-43704879D02*
X65170428Y-44704879D01*
X66218047Y-44609640D02*
X66170428Y-44657260D01*
X66170428Y-44657260D02*
X66027571Y-44704879D01*
X66027571Y-44704879D02*
X65932333Y-44704879D01*
X65932333Y-44704879D02*
X65789476Y-44657260D01*
X65789476Y-44657260D02*
X65694238Y-44562021D01*
X65694238Y-44562021D02*
X65646619Y-44466783D01*
X65646619Y-44466783D02*
X65599000Y-44276307D01*
X65599000Y-44276307D02*
X65599000Y-44133450D01*
X65599000Y-44133450D02*
X65646619Y-43942974D01*
X65646619Y-43942974D02*
X65694238Y-43847736D01*
X65694238Y-43847736D02*
X65789476Y-43752498D01*
X65789476Y-43752498D02*
X65932333Y-43704879D01*
X65932333Y-43704879D02*
X66027571Y-43704879D01*
X66027571Y-43704879D02*
X66170428Y-43752498D01*
X66170428Y-43752498D02*
X66218047Y-43800117D01*
X67122809Y-43704879D02*
X66646619Y-43704879D01*
X66646619Y-43704879D02*
X66599000Y-44181069D01*
X66599000Y-44181069D02*
X66646619Y-44133450D01*
X66646619Y-44133450D02*
X66741857Y-44085831D01*
X66741857Y-44085831D02*
X66979952Y-44085831D01*
X66979952Y-44085831D02*
X67075190Y-44133450D01*
X67075190Y-44133450D02*
X67122809Y-44181069D01*
X67122809Y-44181069D02*
X67170428Y-44276307D01*
X67170428Y-44276307D02*
X67170428Y-44514402D01*
X67170428Y-44514402D02*
X67122809Y-44609640D01*
X67122809Y-44609640D02*
X67075190Y-44657260D01*
X67075190Y-44657260D02*
X66979952Y-44704879D01*
X66979952Y-44704879D02*
X66741857Y-44704879D01*
X66741857Y-44704879D02*
X66646619Y-44657260D01*
X66646619Y-44657260D02*
X66599000Y-44609640D01*
X67741857Y-44133450D02*
X67646619Y-44085831D01*
X67646619Y-44085831D02*
X67599000Y-44038212D01*
X67599000Y-44038212D02*
X67551381Y-43942974D01*
X67551381Y-43942974D02*
X67551381Y-43895355D01*
X67551381Y-43895355D02*
X67599000Y-43800117D01*
X67599000Y-43800117D02*
X67646619Y-43752498D01*
X67646619Y-43752498D02*
X67741857Y-43704879D01*
X67741857Y-43704879D02*
X67932333Y-43704879D01*
X67932333Y-43704879D02*
X68027571Y-43752498D01*
X68027571Y-43752498D02*
X68075190Y-43800117D01*
X68075190Y-43800117D02*
X68122809Y-43895355D01*
X68122809Y-43895355D02*
X68122809Y-43942974D01*
X68122809Y-43942974D02*
X68075190Y-44038212D01*
X68075190Y-44038212D02*
X68027571Y-44085831D01*
X68027571Y-44085831D02*
X67932333Y-44133450D01*
X67932333Y-44133450D02*
X67741857Y-44133450D01*
X67741857Y-44133450D02*
X67646619Y-44181069D01*
X67646619Y-44181069D02*
X67599000Y-44228688D01*
X67599000Y-44228688D02*
X67551381Y-44323926D01*
X67551381Y-44323926D02*
X67551381Y-44514402D01*
X67551381Y-44514402D02*
X67599000Y-44609640D01*
X67599000Y-44609640D02*
X67646619Y-44657260D01*
X67646619Y-44657260D02*
X67741857Y-44704879D01*
X67741857Y-44704879D02*
X67932333Y-44704879D01*
X67932333Y-44704879D02*
X68027571Y-44657260D01*
X68027571Y-44657260D02*
X68075190Y-44609640D01*
X68075190Y-44609640D02*
X68122809Y-44514402D01*
X68122809Y-44514402D02*
X68122809Y-44323926D01*
X68122809Y-44323926D02*
X68075190Y-44228688D01*
X68075190Y-44228688D02*
X68027571Y-44181069D01*
X68027571Y-44181069D02*
X67932333Y-44133450D01*
X68694238Y-44133450D02*
X68599000Y-44085831D01*
X68599000Y-44085831D02*
X68551381Y-44038212D01*
X68551381Y-44038212D02*
X68503762Y-43942974D01*
X68503762Y-43942974D02*
X68503762Y-43895355D01*
X68503762Y-43895355D02*
X68551381Y-43800117D01*
X68551381Y-43800117D02*
X68599000Y-43752498D01*
X68599000Y-43752498D02*
X68694238Y-43704879D01*
X68694238Y-43704879D02*
X68884714Y-43704879D01*
X68884714Y-43704879D02*
X68979952Y-43752498D01*
X68979952Y-43752498D02*
X69027571Y-43800117D01*
X69027571Y-43800117D02*
X69075190Y-43895355D01*
X69075190Y-43895355D02*
X69075190Y-43942974D01*
X69075190Y-43942974D02*
X69027571Y-44038212D01*
X69027571Y-44038212D02*
X68979952Y-44085831D01*
X68979952Y-44085831D02*
X68884714Y-44133450D01*
X68884714Y-44133450D02*
X68694238Y-44133450D01*
X68694238Y-44133450D02*
X68599000Y-44181069D01*
X68599000Y-44181069D02*
X68551381Y-44228688D01*
X68551381Y-44228688D02*
X68503762Y-44323926D01*
X68503762Y-44323926D02*
X68503762Y-44514402D01*
X68503762Y-44514402D02*
X68551381Y-44609640D01*
X68551381Y-44609640D02*
X68599000Y-44657260D01*
X68599000Y-44657260D02*
X68694238Y-44704879D01*
X68694238Y-44704879D02*
X68884714Y-44704879D01*
X68884714Y-44704879D02*
X68979952Y-44657260D01*
X68979952Y-44657260D02*
X69027571Y-44609640D01*
X69027571Y-44609640D02*
X69075190Y-44514402D01*
X69075190Y-44514402D02*
X69075190Y-44323926D01*
X69075190Y-44323926D02*
X69027571Y-44228688D01*
X69027571Y-44228688D02*
X68979952Y-44181069D01*
X68979952Y-44181069D02*
X68884714Y-44133450D01*
X69408524Y-43704879D02*
X70027571Y-43704879D01*
X70027571Y-43704879D02*
X69694238Y-44085831D01*
X69694238Y-44085831D02*
X69837095Y-44085831D01*
X69837095Y-44085831D02*
X69932333Y-44133450D01*
X69932333Y-44133450D02*
X69979952Y-44181069D01*
X69979952Y-44181069D02*
X70027571Y-44276307D01*
X70027571Y-44276307D02*
X70027571Y-44514402D01*
X70027571Y-44514402D02*
X69979952Y-44609640D01*
X69979952Y-44609640D02*
X69932333Y-44657260D01*
X69932333Y-44657260D02*
X69837095Y-44704879D01*
X69837095Y-44704879D02*
X69551381Y-44704879D01*
X69551381Y-44704879D02*
X69456143Y-44657260D01*
X69456143Y-44657260D02*
X69408524Y-44609640D01*
X70932333Y-44704879D02*
X70456143Y-44704879D01*
X70456143Y-44704879D02*
X70456143Y-43704879D01*
X71789476Y-44704879D02*
X71218048Y-44704879D01*
X71503762Y-44704879D02*
X71503762Y-43704879D01*
X71503762Y-43704879D02*
X71408524Y-43847736D01*
X71408524Y-43847736D02*
X71313286Y-43942974D01*
X71313286Y-43942974D02*
X71218048Y-43990593D01*
D10*
X82666666Y-82537200D02*
X82809523Y-82584819D01*
X82809523Y-82584819D02*
X83047618Y-82584819D01*
X83047618Y-82584819D02*
X83142856Y-82537200D01*
X83142856Y-82537200D02*
X83190475Y-82489580D01*
X83190475Y-82489580D02*
X83238094Y-82394342D01*
X83238094Y-82394342D02*
X83238094Y-82299104D01*
X83238094Y-82299104D02*
X83190475Y-82203866D01*
X83190475Y-82203866D02*
X83142856Y-82156247D01*
X83142856Y-82156247D02*
X83047618Y-82108628D01*
X83047618Y-82108628D02*
X82857142Y-82061009D01*
X82857142Y-82061009D02*
X82761904Y-82013390D01*
X82761904Y-82013390D02*
X82714285Y-81965771D01*
X82714285Y-81965771D02*
X82666666Y-81870533D01*
X82666666Y-81870533D02*
X82666666Y-81775295D01*
X82666666Y-81775295D02*
X82714285Y-81680057D01*
X82714285Y-81680057D02*
X82761904Y-81632438D01*
X82761904Y-81632438D02*
X82857142Y-81584819D01*
X82857142Y-81584819D02*
X83095237Y-81584819D01*
X83095237Y-81584819D02*
X83238094Y-81632438D01*
X84047618Y-82537200D02*
X83952380Y-82584819D01*
X83952380Y-82584819D02*
X83761904Y-82584819D01*
X83761904Y-82584819D02*
X83666666Y-82537200D01*
X83666666Y-82537200D02*
X83619047Y-82441961D01*
X83619047Y-82441961D02*
X83619047Y-82061009D01*
X83619047Y-82061009D02*
X83666666Y-81965771D01*
X83666666Y-81965771D02*
X83761904Y-81918152D01*
X83761904Y-81918152D02*
X83952380Y-81918152D01*
X83952380Y-81918152D02*
X84047618Y-81965771D01*
X84047618Y-81965771D02*
X84095237Y-82061009D01*
X84095237Y-82061009D02*
X84095237Y-82156247D01*
X84095237Y-82156247D02*
X83619047Y-82251485D01*
X84523809Y-82584819D02*
X84523809Y-81918152D01*
X84523809Y-82108628D02*
X84571428Y-82013390D01*
X84571428Y-82013390D02*
X84619047Y-81965771D01*
X84619047Y-81965771D02*
X84714285Y-81918152D01*
X84714285Y-81918152D02*
X84809523Y-81918152D01*
X85047619Y-81918152D02*
X85285714Y-82584819D01*
X85285714Y-82584819D02*
X85523809Y-81918152D01*
X86047619Y-82584819D02*
X85952381Y-82537200D01*
X85952381Y-82537200D02*
X85904762Y-82489580D01*
X85904762Y-82489580D02*
X85857143Y-82394342D01*
X85857143Y-82394342D02*
X85857143Y-82108628D01*
X85857143Y-82108628D02*
X85904762Y-82013390D01*
X85904762Y-82013390D02*
X85952381Y-81965771D01*
X85952381Y-81965771D02*
X86047619Y-81918152D01*
X86047619Y-81918152D02*
X86190476Y-81918152D01*
X86190476Y-81918152D02*
X86285714Y-81965771D01*
X86285714Y-81965771D02*
X86333333Y-82013390D01*
X86333333Y-82013390D02*
X86380952Y-82108628D01*
X86380952Y-82108628D02*
X86380952Y-82394342D01*
X86380952Y-82394342D02*
X86333333Y-82489580D01*
X86333333Y-82489580D02*
X86285714Y-82537200D01*
X86285714Y-82537200D02*
X86190476Y-82584819D01*
X86190476Y-82584819D02*
X86047619Y-82584819D01*
X87333333Y-82584819D02*
X86761905Y-82584819D01*
X87047619Y-82584819D02*
X87047619Y-81584819D01*
X87047619Y-81584819D02*
X86952381Y-81727676D01*
X86952381Y-81727676D02*
X86857143Y-81822914D01*
X86857143Y-81822914D02*
X86761905Y-81870533D01*
X91319819Y-62036904D02*
X92129342Y-62036904D01*
X92129342Y-62036904D02*
X92224580Y-61989285D01*
X92224580Y-61989285D02*
X92272200Y-61941666D01*
X92272200Y-61941666D02*
X92319819Y-61846428D01*
X92319819Y-61846428D02*
X92319819Y-61655952D01*
X92319819Y-61655952D02*
X92272200Y-61560714D01*
X92272200Y-61560714D02*
X92224580Y-61513095D01*
X92224580Y-61513095D02*
X92129342Y-61465476D01*
X92129342Y-61465476D02*
X91319819Y-61465476D01*
X91415057Y-61036904D02*
X91367438Y-60989285D01*
X91367438Y-60989285D02*
X91319819Y-60894047D01*
X91319819Y-60894047D02*
X91319819Y-60655952D01*
X91319819Y-60655952D02*
X91367438Y-60560714D01*
X91367438Y-60560714D02*
X91415057Y-60513095D01*
X91415057Y-60513095D02*
X91510295Y-60465476D01*
X91510295Y-60465476D02*
X91605533Y-60465476D01*
X91605533Y-60465476D02*
X91748390Y-60513095D01*
X91748390Y-60513095D02*
X92319819Y-61084523D01*
X92319819Y-61084523D02*
X92319819Y-60465476D01*
X86684819Y-30333333D02*
X87399104Y-30333333D01*
X87399104Y-30333333D02*
X87541961Y-30380952D01*
X87541961Y-30380952D02*
X87637200Y-30476190D01*
X87637200Y-30476190D02*
X87684819Y-30619047D01*
X87684819Y-30619047D02*
X87684819Y-30714285D01*
X87684819Y-29333333D02*
X87684819Y-29904761D01*
X87684819Y-29619047D02*
X86684819Y-29619047D01*
X86684819Y-29619047D02*
X86827676Y-29714285D01*
X86827676Y-29714285D02*
X86922914Y-29809523D01*
X86922914Y-29809523D02*
X86970533Y-29904761D01*
X107714819Y-30333333D02*
X108429104Y-30333333D01*
X108429104Y-30333333D02*
X108571961Y-30380952D01*
X108571961Y-30380952D02*
X108667200Y-30476190D01*
X108667200Y-30476190D02*
X108714819Y-30619047D01*
X108714819Y-30619047D02*
X108714819Y-30714285D01*
X107714819Y-29952380D02*
X107714819Y-29333333D01*
X107714819Y-29333333D02*
X108095771Y-29666666D01*
X108095771Y-29666666D02*
X108095771Y-29523809D01*
X108095771Y-29523809D02*
X108143390Y-29428571D01*
X108143390Y-29428571D02*
X108191009Y-29380952D01*
X108191009Y-29380952D02*
X108286247Y-29333333D01*
X108286247Y-29333333D02*
X108524342Y-29333333D01*
X108524342Y-29333333D02*
X108619580Y-29380952D01*
X108619580Y-29380952D02*
X108667200Y-29428571D01*
X108667200Y-29428571D02*
X108714819Y-29523809D01*
X108714819Y-29523809D02*
X108714819Y-29809523D01*
X108714819Y-29809523D02*
X108667200Y-29904761D01*
X108667200Y-29904761D02*
X108619580Y-29952380D01*
X54738095Y-103954819D02*
X54738095Y-102954819D01*
X54738095Y-103431009D02*
X55309523Y-103431009D01*
X55309523Y-103954819D02*
X55309523Y-102954819D01*
X55690476Y-102954819D02*
X56309523Y-102954819D01*
X56309523Y-102954819D02*
X55976190Y-103335771D01*
X55976190Y-103335771D02*
X56119047Y-103335771D01*
X56119047Y-103335771D02*
X56214285Y-103383390D01*
X56214285Y-103383390D02*
X56261904Y-103431009D01*
X56261904Y-103431009D02*
X56309523Y-103526247D01*
X56309523Y-103526247D02*
X56309523Y-103764342D01*
X56309523Y-103764342D02*
X56261904Y-103859580D01*
X56261904Y-103859580D02*
X56214285Y-103907200D01*
X56214285Y-103907200D02*
X56119047Y-103954819D01*
X56119047Y-103954819D02*
X55833333Y-103954819D01*
X55833333Y-103954819D02*
X55738095Y-103907200D01*
X55738095Y-103907200D02*
X55690476Y-103859580D01*
D11*
X116039619Y-90564935D02*
X116134857Y-90612554D01*
X116134857Y-90612554D02*
X116277714Y-90612554D01*
X116277714Y-90612554D02*
X116420571Y-90564935D01*
X116420571Y-90564935D02*
X116515809Y-90469697D01*
X116515809Y-90469697D02*
X116563428Y-90374459D01*
X116563428Y-90374459D02*
X116611047Y-90183983D01*
X116611047Y-90183983D02*
X116611047Y-90041126D01*
X116611047Y-90041126D02*
X116563428Y-89850650D01*
X116563428Y-89850650D02*
X116515809Y-89755412D01*
X116515809Y-89755412D02*
X116420571Y-89660174D01*
X116420571Y-89660174D02*
X116277714Y-89612554D01*
X116277714Y-89612554D02*
X116182476Y-89612554D01*
X116182476Y-89612554D02*
X116039619Y-89660174D01*
X116039619Y-89660174D02*
X115992000Y-89707793D01*
X115992000Y-89707793D02*
X115992000Y-90041126D01*
X115992000Y-90041126D02*
X116182476Y-90041126D01*
X115563428Y-89612554D02*
X115563428Y-90612554D01*
X115563428Y-90612554D02*
X115182476Y-90612554D01*
X115182476Y-90612554D02*
X115087238Y-90564935D01*
X115087238Y-90564935D02*
X115039619Y-90517316D01*
X115039619Y-90517316D02*
X114992000Y-90422078D01*
X114992000Y-90422078D02*
X114992000Y-90279221D01*
X114992000Y-90279221D02*
X115039619Y-90183983D01*
X115039619Y-90183983D02*
X115087238Y-90136364D01*
X115087238Y-90136364D02*
X115182476Y-90088745D01*
X115182476Y-90088745D02*
X115563428Y-90088745D01*
X114611047Y-89660174D02*
X114468190Y-89612554D01*
X114468190Y-89612554D02*
X114230095Y-89612554D01*
X114230095Y-89612554D02*
X114134857Y-89660174D01*
X114134857Y-89660174D02*
X114087238Y-89707793D01*
X114087238Y-89707793D02*
X114039619Y-89803031D01*
X114039619Y-89803031D02*
X114039619Y-89898269D01*
X114039619Y-89898269D02*
X114087238Y-89993507D01*
X114087238Y-89993507D02*
X114134857Y-90041126D01*
X114134857Y-90041126D02*
X114230095Y-90088745D01*
X114230095Y-90088745D02*
X114420571Y-90136364D01*
X114420571Y-90136364D02*
X114515809Y-90183983D01*
X114515809Y-90183983D02*
X114563428Y-90231602D01*
X114563428Y-90231602D02*
X114611047Y-90326840D01*
X114611047Y-90326840D02*
X114611047Y-90422078D01*
X114611047Y-90422078D02*
X114563428Y-90517316D01*
X114563428Y-90517316D02*
X114515809Y-90564935D01*
X114515809Y-90564935D02*
X114420571Y-90612554D01*
X114420571Y-90612554D02*
X114182476Y-90612554D01*
X114182476Y-90612554D02*
X114039619Y-90564935D01*
X113849143Y-89517316D02*
X113087238Y-89517316D01*
X112849142Y-89612554D02*
X112849142Y-90612554D01*
X112849142Y-90612554D02*
X112277714Y-89612554D01*
X112277714Y-89612554D02*
X112277714Y-90612554D01*
X111801523Y-90136364D02*
X111468190Y-90136364D01*
X111325333Y-89612554D02*
X111801523Y-89612554D01*
X111801523Y-89612554D02*
X111801523Y-90612554D01*
X111801523Y-90612554D02*
X111325333Y-90612554D01*
X110706285Y-90612554D02*
X110515809Y-90612554D01*
X110515809Y-90612554D02*
X110420571Y-90564935D01*
X110420571Y-90564935D02*
X110325333Y-90469697D01*
X110325333Y-90469697D02*
X110277714Y-90279221D01*
X110277714Y-90279221D02*
X110277714Y-89945888D01*
X110277714Y-89945888D02*
X110325333Y-89755412D01*
X110325333Y-89755412D02*
X110420571Y-89660174D01*
X110420571Y-89660174D02*
X110515809Y-89612554D01*
X110515809Y-89612554D02*
X110706285Y-89612554D01*
X110706285Y-89612554D02*
X110801523Y-89660174D01*
X110801523Y-89660174D02*
X110896761Y-89755412D01*
X110896761Y-89755412D02*
X110944380Y-89945888D01*
X110944380Y-89945888D02*
X110944380Y-90279221D01*
X110944380Y-90279221D02*
X110896761Y-90469697D01*
X110896761Y-90469697D02*
X110801523Y-90564935D01*
X110801523Y-90564935D02*
X110706285Y-90612554D01*
X109420571Y-90612554D02*
X109611047Y-90612554D01*
X109611047Y-90612554D02*
X109706285Y-90564935D01*
X109706285Y-90564935D02*
X109753904Y-90517316D01*
X109753904Y-90517316D02*
X109849142Y-90374459D01*
X109849142Y-90374459D02*
X109896761Y-90183983D01*
X109896761Y-90183983D02*
X109896761Y-89803031D01*
X109896761Y-89803031D02*
X109849142Y-89707793D01*
X109849142Y-89707793D02*
X109801523Y-89660174D01*
X109801523Y-89660174D02*
X109706285Y-89612554D01*
X109706285Y-89612554D02*
X109515809Y-89612554D01*
X109515809Y-89612554D02*
X109420571Y-89660174D01*
X109420571Y-89660174D02*
X109372952Y-89707793D01*
X109372952Y-89707793D02*
X109325333Y-89803031D01*
X109325333Y-89803031D02*
X109325333Y-90041126D01*
X109325333Y-90041126D02*
X109372952Y-90136364D01*
X109372952Y-90136364D02*
X109420571Y-90183983D01*
X109420571Y-90183983D02*
X109515809Y-90231602D01*
X109515809Y-90231602D02*
X109706285Y-90231602D01*
X109706285Y-90231602D02*
X109801523Y-90183983D01*
X109801523Y-90183983D02*
X109849142Y-90136364D01*
X109849142Y-90136364D02*
X109896761Y-90041126D01*
X108896761Y-89612554D02*
X108896761Y-90612554D01*
X108896761Y-90612554D02*
X108563428Y-89898269D01*
X108563428Y-89898269D02*
X108230095Y-90612554D01*
X108230095Y-90612554D02*
X108230095Y-89612554D01*
X107896761Y-90612554D02*
X107563428Y-89612554D01*
X107563428Y-89612554D02*
X107230095Y-90612554D01*
X106944380Y-90517316D02*
X106896761Y-90564935D01*
X106896761Y-90564935D02*
X106801523Y-90612554D01*
X106801523Y-90612554D02*
X106563428Y-90612554D01*
X106563428Y-90612554D02*
X106468190Y-90564935D01*
X106468190Y-90564935D02*
X106420571Y-90517316D01*
X106420571Y-90517316D02*
X106372952Y-90422078D01*
X106372952Y-90422078D02*
X106372952Y-90326840D01*
X106372952Y-90326840D02*
X106420571Y-90183983D01*
X106420571Y-90183983D02*
X106991999Y-89612554D01*
X106991999Y-89612554D02*
X106372952Y-89612554D01*
D10*
X54741905Y-83494819D02*
X54741905Y-82494819D01*
X54741905Y-82494819D02*
X54980000Y-82494819D01*
X54980000Y-82494819D02*
X55122857Y-82542438D01*
X55122857Y-82542438D02*
X55218095Y-82637676D01*
X55218095Y-82637676D02*
X55265714Y-82732914D01*
X55265714Y-82732914D02*
X55313333Y-82923390D01*
X55313333Y-82923390D02*
X55313333Y-83066247D01*
X55313333Y-83066247D02*
X55265714Y-83256723D01*
X55265714Y-83256723D02*
X55218095Y-83351961D01*
X55218095Y-83351961D02*
X55122857Y-83447200D01*
X55122857Y-83447200D02*
X54980000Y-83494819D01*
X54980000Y-83494819D02*
X54741905Y-83494819D01*
X56265714Y-83494819D02*
X55694286Y-83494819D01*
X55980000Y-83494819D02*
X55980000Y-82494819D01*
X55980000Y-82494819D02*
X55884762Y-82637676D01*
X55884762Y-82637676D02*
X55789524Y-82732914D01*
X55789524Y-82732914D02*
X55694286Y-82780533D01*
D12*
%TO.C,RLED1*%
X71960000Y-86000000D02*
X71190000Y-86000000D01*
X71190000Y-87370000D02*
X71190000Y-84630000D01*
X71190000Y-84630000D02*
X64650000Y-84630000D01*
X64650000Y-87370000D02*
X71190000Y-87370000D01*
X64650000Y-84630000D02*
X64650000Y-87370000D01*
X63880000Y-86000000D02*
X64650000Y-86000000D01*
%TO.C,RNPN1*%
X93500000Y-75460000D02*
X93500000Y-76230000D01*
X94870000Y-76230000D02*
X92130000Y-76230000D01*
X92130000Y-76230000D02*
X92130000Y-82770000D01*
X94870000Y-82770000D02*
X94870000Y-76230000D01*
X92130000Y-82770000D02*
X94870000Y-82770000D01*
X93500000Y-83540000D02*
X93500000Y-82770000D01*
D13*
%TO.C,Q1*%
X91160000Y-95770000D02*
X95760000Y-95770000D01*
X93460000Y-92170000D02*
G75*
G03*
X91260000Y-93570000I112437J-2605258D01*
G01*
X95660000Y-93570000D02*
G75*
G03*
X93460000Y-92170000I-2312437J-1205258D01*
G01*
D14*
X89371000Y-94500000D02*
G75*
G03*
X89371000Y-94500000I-100000J0D01*
G01*
D11*
%TO.C,U1*%
X83160000Y-92090000D02*
X62840000Y-92090000D01*
X62840000Y-92090000D02*
X62840000Y-112410000D01*
X83160000Y-112410000D02*
X83160000Y-92090000D01*
X83160000Y-112410000D02*
X62840000Y-112410000D01*
D12*
%TO.C,J2*%
X98730000Y-108670000D02*
X88510000Y-108670000D01*
X98730000Y-108670000D02*
X98730000Y-111330000D01*
X88510000Y-108670000D02*
X88510000Y-111330000D01*
X101330000Y-110000000D02*
X101330000Y-111330000D01*
X101330000Y-111330000D02*
X100000000Y-111330000D01*
X98730000Y-111330000D02*
X88510000Y-111330000D01*
%TO.C,AUX_V1*%
X109470000Y-112330000D02*
X109470000Y-111000000D01*
X110800000Y-112330000D02*
X109470000Y-112330000D01*
X112070000Y-112330000D02*
X124830000Y-112330000D01*
X112070000Y-112330000D02*
X112070000Y-109670000D01*
X124830000Y-112330000D02*
X124830000Y-109670000D01*
X112070000Y-109670000D02*
X124830000Y-109670000D01*
%TO.C,D3*%
X53960000Y-76264000D02*
X53960000Y-76420000D01*
X53960000Y-78580000D02*
X53960000Y-78736000D01*
X57192334Y-76421392D02*
G75*
G03*
X53960001Y-76264485I-1672334J-1078608D01*
G01*
X56561129Y-76420164D02*
G75*
G03*
X54479040Y-76420001I-1041129J-1079836D01*
G01*
X54479040Y-78579999D02*
G75*
G03*
X56561129Y-78579836I1040960J1079999D01*
G01*
X53960001Y-78735515D02*
G75*
G03*
X57192334Y-78578608I1559999J1235515D01*
G01*
%TO.C,D2*%
X53935000Y-70264000D02*
X53935000Y-70420000D01*
X53935000Y-72580000D02*
X53935000Y-72736000D01*
X57167334Y-70421392D02*
G75*
G03*
X53935001Y-70264485I-1672334J-1078608D01*
G01*
X56536129Y-70420164D02*
G75*
G03*
X54454040Y-70420001I-1041129J-1079836D01*
G01*
X54454040Y-72579999D02*
G75*
G03*
X56536129Y-72579836I1040960J1079999D01*
G01*
X53935001Y-72735515D02*
G75*
G03*
X57167334Y-72578608I1559999J1235515D01*
G01*
%TO.C,RLED2*%
X71960000Y-71500000D02*
X71190000Y-71500000D01*
X71190000Y-72870000D02*
X71190000Y-70130000D01*
X71190000Y-70130000D02*
X64650000Y-70130000D01*
X64650000Y-72870000D02*
X71190000Y-72870000D01*
X64650000Y-70130000D02*
X64650000Y-72870000D01*
X63880000Y-71500000D02*
X64650000Y-71500000D01*
D11*
%TO.C,U3*%
X63374280Y-54750010D02*
X63374280Y-64749990D01*
X76374000Y-54750010D02*
X63374280Y-54750010D01*
X76374000Y-54750010D02*
X76374000Y-64749990D01*
X76374000Y-64830000D02*
X63374280Y-64830000D01*
D12*
%TO.C,RLED3*%
X72040000Y-77500000D02*
X71270000Y-77500000D01*
X71270000Y-78870000D02*
X71270000Y-76130000D01*
X71270000Y-76130000D02*
X64730000Y-76130000D01*
X64730000Y-78870000D02*
X71270000Y-78870000D01*
X64730000Y-76130000D02*
X64730000Y-78870000D01*
X63960000Y-77500000D02*
X64730000Y-77500000D01*
D11*
%TO.C,HMC5883L1*%
X62011000Y-38153620D02*
X62011000Y-51351460D01*
X76410260Y-38148540D02*
X62011000Y-38148540D01*
X76410260Y-51351460D02*
X62011000Y-51351460D01*
X76489000Y-38148540D02*
X76489000Y-51346380D01*
D12*
%TO.C,Servo1*%
X83670000Y-83130000D02*
X85000000Y-83130000D01*
X83670000Y-84460000D02*
X83670000Y-83130000D01*
X83670000Y-85730000D02*
X83670000Y-90870000D01*
X83670000Y-85730000D02*
X86330000Y-85730000D01*
X83670000Y-90870000D02*
X86330000Y-90870000D01*
X86330000Y-85730000D02*
X86330000Y-90870000D01*
D13*
%TO.C,U2*%
X98545000Y-64200000D02*
X98545000Y-38800000D01*
X137455000Y-64200000D02*
X98545000Y-64200000D01*
X98545000Y-38800000D02*
X137455000Y-38800000D01*
X137455000Y-38800000D02*
X137455000Y-64200000D01*
D14*
X100700000Y-65000000D02*
G75*
G03*
X100700000Y-65000000I-100000J0D01*
G01*
D12*
%TO.C,J1*%
X91270000Y-31330000D02*
X101490000Y-31330000D01*
X91270000Y-31330000D02*
X91270000Y-28670000D01*
X101490000Y-31330000D02*
X101490000Y-28670000D01*
X88670000Y-30000000D02*
X88670000Y-28670000D01*
X88670000Y-28670000D02*
X90000000Y-28670000D01*
X91270000Y-28670000D02*
X101490000Y-28670000D01*
%TO.C,J3*%
X109260000Y-31330000D02*
X109260000Y-30000000D01*
X110590000Y-31330000D02*
X109260000Y-31330000D01*
X111860000Y-31330000D02*
X124620000Y-31330000D01*
X111860000Y-31330000D02*
X111860000Y-28670000D01*
X124620000Y-31330000D02*
X124620000Y-28670000D01*
X111860000Y-28670000D02*
X124620000Y-28670000D01*
D11*
%TO.C,GPS_NEO6MV2*%
X137077928Y-100237974D02*
X137077928Y-74238026D01*
X101078000Y-100237974D02*
X137077928Y-100237974D01*
X101078000Y-100237974D02*
X101078000Y-74238026D01*
X101078000Y-78393974D02*
X101078000Y-78393974D01*
X101078000Y-74238026D02*
X137077928Y-74238026D01*
D12*
%TO.C,D1*%
X53920000Y-84764000D02*
X53920000Y-84920000D01*
X53920000Y-87080000D02*
X53920000Y-87236000D01*
X57152334Y-84921392D02*
G75*
G03*
X53920001Y-84764485I-1672334J-1078608D01*
G01*
X56521129Y-84920164D02*
G75*
G03*
X54439040Y-84920001I-1041129J-1079836D01*
G01*
X54439040Y-87079999D02*
G75*
G03*
X56521129Y-87079836I1040960J1079999D01*
G01*
X53920001Y-87235515D02*
G75*
G03*
X57152334Y-87078608I1559999J1235515D01*
G01*
%TD*%
D15*
X50000000Y-25000000D02*
X140000000Y-25000000D01*
X140000000Y-25000000D02*
X140000000Y-115000000D01*
X50000000Y-115000000D02*
X140000000Y-115000000D01*
X50000000Y-25000000D02*
X50000000Y-115000000D01*
M02*
