%TF.GenerationSoftware,KiCad,Pcbnew,7.0.7*%
%TF.CreationDate,2023-11-10T08:01:12-05:00*%
%TF.ProjectId,CubeSat,43756265-5361-4742-9e6b-696361645f70,rev?*%
%TF.SameCoordinates,Original*%
%TF.FileFunction,Soldermask,Top*%
%TF.FilePolarity,Negative*%
%FSLAX46Y46*%
G04 Gerber Fmt 4.6, Leading zero omitted, Abs format (unit mm)*
G04 Created by KiCad (PCBNEW 7.0.7) date 2023-11-10 08:01:12*
%MOMM*%
%LPD*%
G01*
G04 APERTURE LIST*
G04 Aperture macros list*
%AMRoundRect*
0 Rectangle with rounded corners*
0 $1 Rounding radius*
0 $2 $3 $4 $5 $6 $7 $8 $9 X,Y pos of 4 corners*
0 Add a 4 corners polygon primitive as box body*
4,1,4,$2,$3,$4,$5,$6,$7,$8,$9,$2,$3,0*
0 Add four circle primitives for the rounded corners*
1,1,$1+$1,$2,$3*
1,1,$1+$1,$4,$5*
1,1,$1+$1,$6,$7*
1,1,$1+$1,$8,$9*
0 Add four rect primitives between the rounded corners*
20,1,$1+$1,$2,$3,$4,$5,0*
20,1,$1+$1,$4,$5,$6,$7,0*
20,1,$1+$1,$6,$7,$8,$9,0*
20,1,$1+$1,$8,$9,$2,$3,0*%
G04 Aperture macros list end*
%ADD10O,2.000000X2.000000*%
%ADD11C,5.000000*%
%ADD12C,1.600000*%
%ADD13O,1.600000X1.600000*%
%ADD14RoundRect,0.102000X-1.000000X-1.000000X1.000000X-1.000000X1.000000X1.000000X-1.000000X1.000000X0*%
%ADD15C,2.204000*%
%ADD16C,1.800000*%
%ADD17R,1.900000X1.900000*%
%ADD18R,1.800000X1.800000*%
%ADD19C,2.000000*%
%ADD20C,1.900000*%
%ADD21RoundRect,0.102000X0.765000X-0.765000X0.765000X0.765000X-0.765000X0.765000X-0.765000X-0.765000X0*%
%ADD22R,1.700000X1.700000*%
%TA.AperFunction,Profile*%
%ADD23C,0.100000*%
%TD*%
G04 APERTURE END LIST*
D10*
%TO.C,RLED1*%
X73000000Y-86000000D03*
X62840000Y-86000000D03*
%TD*%
D11*
%TO.C,H1*%
X55500000Y-30500000D03*
%TD*%
D12*
%TO.C,RNPN1*%
X93500000Y-74420000D03*
D13*
X93500000Y-84580000D03*
%TD*%
D14*
%TO.C,Q1*%
X90920000Y-94500000D03*
D15*
X93460000Y-94500000D03*
X96000000Y-94500000D03*
%TD*%
D16*
%TO.C,U1*%
X75540000Y-111140000D03*
X73000000Y-111140000D03*
X70460000Y-111140000D03*
%TD*%
D17*
%TO.C,J2*%
X100000000Y-110000000D03*
D10*
X97460000Y-110000000D03*
X94920000Y-110000000D03*
X92380000Y-110000000D03*
X89840000Y-110000000D03*
%TD*%
D11*
%TO.C,H4*%
X134500000Y-109500000D03*
%TD*%
D17*
%TO.C,AUX_V1*%
X110800000Y-111000000D03*
D10*
X113340000Y-111000000D03*
X115880000Y-111000000D03*
X118420000Y-111000000D03*
X120960000Y-111000000D03*
X123500000Y-111000000D03*
%TD*%
D11*
%TO.C,H2*%
X134500000Y-30500000D03*
%TD*%
D18*
%TO.C,D3*%
X54250000Y-77500000D03*
D19*
X56790000Y-77500000D03*
%TD*%
D18*
%TO.C,D2*%
X54225000Y-71500000D03*
D19*
X56765000Y-71500000D03*
%TD*%
D10*
%TO.C,RLED2*%
X73000000Y-71500000D03*
X62840000Y-71500000D03*
%TD*%
D20*
%TO.C,U3*%
X75358000Y-56020000D03*
X75358000Y-58560000D03*
X75358000Y-61100000D03*
X75358000Y-63640000D03*
%TD*%
D10*
%TO.C,RLED3*%
X73080000Y-77500000D03*
X62920000Y-77500000D03*
%TD*%
D20*
%TO.C,HMC5883L1*%
X75219000Y-39667460D03*
X75219000Y-42207460D03*
X75219000Y-44747460D03*
X75219000Y-47287460D03*
X75219000Y-49827460D03*
%TD*%
D17*
%TO.C,Servo1*%
X85000000Y-84460000D03*
D10*
X85000000Y-87000000D03*
X85000000Y-89540000D03*
%TD*%
D21*
%TO.C,U2*%
X100605000Y-62930000D03*
D15*
X103145000Y-62930000D03*
X105685000Y-62930000D03*
X108225000Y-62930000D03*
X110765000Y-62930000D03*
X113305000Y-62930000D03*
X115845000Y-62930000D03*
X118385000Y-62930000D03*
X120925000Y-62930000D03*
X123465000Y-62930000D03*
X126005000Y-62930000D03*
X128545000Y-62930000D03*
X131085000Y-62930000D03*
X133625000Y-62930000D03*
X136165000Y-62930000D03*
X136165000Y-40070000D03*
X133625000Y-40070000D03*
X131085000Y-40070000D03*
X128545000Y-40070000D03*
X126005000Y-40070000D03*
X123465000Y-40070000D03*
X120925000Y-40070000D03*
X118385000Y-40070000D03*
X115845000Y-40070000D03*
X113305000Y-40070000D03*
X110765000Y-40070000D03*
X108225000Y-40070000D03*
X105685000Y-40070000D03*
X103145000Y-40070000D03*
X100605000Y-40070000D03*
%TD*%
D22*
%TO.C,J1*%
X90000000Y-30000000D03*
D10*
X92540000Y-30000000D03*
X95080000Y-30000000D03*
X97620000Y-30000000D03*
X100160000Y-30000000D03*
%TD*%
D22*
%TO.C,J3*%
X110590000Y-30000000D03*
D10*
X113130000Y-30000000D03*
X115670000Y-30000000D03*
X118210000Y-30000000D03*
X120750000Y-30000000D03*
X123290000Y-30000000D03*
%TD*%
D11*
%TO.C,H3*%
X55500000Y-109500000D03*
%TD*%
D20*
%TO.C,GPS_NEO6MV2*%
X102856000Y-91048000D03*
X102856000Y-88508000D03*
X102856000Y-85968000D03*
X102856000Y-83428000D03*
%TD*%
D18*
%TO.C,D1*%
X54210000Y-86000000D03*
D19*
X56750000Y-86000000D03*
%TD*%
D23*
X50000000Y-25000000D02*
X140000000Y-25000000D01*
X140000000Y-25000000D02*
X140000000Y-115000000D01*
X50000000Y-115000000D02*
X140000000Y-115000000D01*
X50000000Y-25000000D02*
X50000000Y-115000000D01*
M02*
